<svg id="Layer_1" data-name="Layer 1" xmlns="http://www.w3.org/2000/svg" width="4801.81" height="2427.88" viewBox="0 0 4801.81 2427.88"><defs><style>.cls-1{fill:none;stroke:#000;stroke-miterlimit:10;stroke-width:16px;}.cls-2{fill:#fff;}</style></defs><title>Artboard 1</title><path class="cls-1" d="M1267.48,1611.26C1203,1556,1146,1494,1099,1423.75"/><path class="cls-1" d="M2292,177c185,0,370,21,549,79,3,1,7,1,10,2,58,20,113,40,168,66,30,15,59,29,89,45,13,7,25,14,38,21,97,57,181,121,257,204,2,2,2,5,4,7,48,52,89,106,119,170,1,3,4,5,5,7,78,153,94,334,31,494a69.43,69.43,0,0,0-5,13l-6,15c0,1-2,2-2,3-1,4-2,7-3,11-4,9-8,16-12,25-9,18-18,34-28,52-9,15-16,28-27,43-15,22-28,43-47,63-4,4-9,8-13,12-14,15-25,30-39,45-28,28-54,53-86,77-3,3-7,6-10,9-10,8-19,14-29,22-4,2-8,5-12,7-10,9-21,15-31,23-2,1-3,1-5,2-7,5-13,10-20,14-27,15-50,30-77,45-12,6-23,12-34,18-37,17-72,36-111,49-4,1-7,5-11,6-19,6-37,15-56,21-23,7-43,17-67,21-5,1-8,4-12,5-25,7-49,14-75,19-6,1-11,3-16,4-30,8-57,12-87,19-29,6-56,10-85,14-164,23-325,23-486,6-188-25-375-66-547-156-15-8-29-15-44-25-19-12-38-21-58-31-9-5-16-11-25-17-8-4-14-9-22-14-3-1-5-3-8-4a29.28,29.28,0,0,0-3-2.76"/><path class="cls-2" d="M1628.45,299.34C1823,221.6,2049.81,177,2292,177"/><path class="cls-1" d="M1628.45,299.34C1823,221.6,2049.81,177,2292,177"/><path class="cls-2" d="M1099,1423.75c-73.26-110.6-114-233-114-362,0-324.68,258.36-608.51,643.49-762.45"/><path class="cls-1" d="M1099,1423.75c-73.26-110.6-114-233-114-362,0-324.68,258.36-608.51,643.49-762.45"/><path d="M1541.11,860.7q2,3.46,7.5,15.71l45,101.09h11.94l40.06-93.61q9.15-21.55,13.37-25.86a16.57,16.57,0,0,1,12.29-4.26V843h-46.37v10.8c9.79,0,14.68,3,14.68,9a29.66,29.66,0,0,1-2.82,11.18l-25.38,59.89-27-59.78q-4.19-9.14-4.19-13.14,0-7.17,14.68-7.17V843h-70.1v10.8a25.22,25.22,0,0,1,10.9,1.75A13.28,13.28,0,0,1,1541.11,860.7Z"/><path d="M1655.63,934.58q0,19.93,13.7,31.65a49.05,49.05,0,0,0,33,11.71,50.5,50.5,0,0,0,22.9-5.19,41.7,41.7,0,0,0,15.89-13.17l-9-5.45q-9.63,11.68-21.1,11.66a18.21,18.21,0,0,1-16.08-8q-5.4-8-5.41-23.83h54.29q0-21.18-12.06-31.63t-30.77-10.46A47.45,47.45,0,0,0,1669,903.21Q1655.63,914.67,1655.63,934.58Zm36.64-26.52a9.78,9.78,0,0,1,9-5.35q11.94,0,12.53,21.48h-24.6C1689.25,917,1690.26,911.62,1692.27,908.06Z"/><path d="M1811.74,964.42q-8.84,0-11.18-2.71t-2.33-10.2V840.59l-45.69,7.1v10.4q9.23,0,11.72,2.57c1.67,1.71,2.47,5.15,2.47,10.26v80.59c0,6.16-1.06,9.84-3.19,11.08s-5.81,1.83-11,1.83v10.32h59.2Z"/><path d="M1871.42,964.42c-4.34-.18-7.18-1.24-8.54-3.15s-2-5.17-2-9.76v-8.36l8.27-6,13.23,17.79c2.19,3,3.3,5,3.3,5.94,0,2.39-2,3.57-6.22,3.57v10.32h51.32V964.42a11.4,11.4,0,0,1-7.54-3.49,103.45,103.45,0,0,1-11.12-13.32l-20.23-27.1,7.58-5.35q13.52-9.75,24.32-9.73v-10.3h-44.24v10.3c3.88,0,6.19.32,6.93.92a2.91,2.91,0,0,1,1.13,2.29q0,2.31-6,6.7l-20.72,14.88V840.59l-44.8,6.9v10.32q8.74,0,11.08,2.75t2.41,10.2v80.77q0,7.66-2.47,10.3c-1.65,1.75-5.31,2.61-10.94,2.61v10.32h55.4Z"/><path d="M1949.18,966.82a54,54,0,0,0,34.19,11.12A52.8,52.8,0,0,0,2018,966.23q14.3-11.7,14.29-31.45,0-20.76-14.58-31.83a55.13,55.13,0,0,0-34.18-11,53.19,53.19,0,0,0-34.31,11.38Q1935,914.68,1935,934.68,1934.91,955.68,1949.18,966.82Zm23.53-58.32a13.41,13.41,0,0,1,10.8-5.59,12.43,12.43,0,0,1,11.66,6.56q3.69,6.53,3.7,25,0,20.29-4.14,26.53a12.65,12.65,0,0,1-11,6.23,12.21,12.21,0,0,1-12.07-7.44q-3.47-7.44-3.45-26.14Q1968.28,914.08,1972.71,908.5Z"/><path d="M2100.54,964.42c-5,0-8.26-.9-9.81-2.71s-2.33-5.15-2.33-10.05V921a40.92,40.92,0,0,1,10.19-9.93,19.19,19.19,0,0,1,10.42-3.3,10.45,10.45,0,0,1,9,4q3,4,2.95,12.07v27.69q0,7.21-2.23,9.91c-1.49,1.83-4.64,2.75-9.43,2.81v10.32h55.32V964.3c-5,0-8.27-.9-9.83-2.75s-2.34-5.17-2.34-10.06V921a34.85,34.85,0,0,1,9.43-10.22,19.06,19.06,0,0,1,10.8-3.39,10.57,10.57,0,0,1,9.13,4q3,4,3,12.24v27.9q0,7.11-2.19,9.91c-1.45,1.89-4.69,2.81-9.68,2.81v10.32h57.56V964.3c-6.16,0-10.06-.84-11.71-2.57s-2.49-5.09-2.49-10.05V926a58.53,58.53,0,0,0-1.21-13.66,26.25,26.25,0,0,0-4.9-9.43,28,28,0,0,0-10.8-7.88,40.8,40.8,0,0,0-48.89,13.85,24.11,24.11,0,0,0-10.35-12.76,35.26,35.26,0,0,0-18.24-4.25,45.57,45.57,0,0,0-18.5,3.7,43.23,43.23,0,0,0-15,11.18,37.29,37.29,0,0,0-1.65-12.63l-43,7.08v10.32q8.66,0,11,2.77c1.56,1.83,2.33,5.23,2.33,10.16V951.7c0,4.66-.71,8-2.13,9.87s-4.93,2.85-10.5,2.85h-2.53v10.32h58.61Z"/><path d="M2309.53,961.61c-1.48,1.83-4.62,2.75-9.43,2.81v10.32h55.32V964.42c-5,0-8.26-.9-9.83-2.75s-2.33-5.17-2.33-10V921a34.72,34.72,0,0,1,9.43-10.22,19,19,0,0,1,10.8-3.39,10.58,10.58,0,0,1,9.13,4q3,4,3,12.24v27.9q0,7.11-2.19,9.91c-1.45,1.89-4.66,2.81-9.67,2.81v10.32h57.55V964.3c-6.15,0-10.05-.84-11.7-2.57s-2.5-5.09-2.5-10.05V926a58.53,58.53,0,0,0-1.2-13.66A26,26,0,0,0,2401,903a27.89,27.89,0,0,0-10.8-7.88,40.79,40.79,0,0,0-48.88,13.85A24.13,24.13,0,0,0,2331,896.16a35.16,35.16,0,0,0-18.22-4.25,45.7,45.7,0,0,0-18.52,3.7,43.32,43.32,0,0,0-15,11.18,37.29,37.29,0,0,0-1.65-12.63l-43,7.08v10.32q8.64,0,11,2.77c1.57,1.83,2.33,5.23,2.33,10.16V951.7c0,4.66-.7,8-2.13,9.87s-4.93,2.85-10.5,2.85h-2.53v10.32h58.62V964.42q-7.49,0-9.82-2.71t-2.33-10.05V921a41.48,41.48,0,0,1,10.2-9.93,19.16,19.16,0,0,1,10.41-3.3,10.45,10.45,0,0,1,9,4q3,4,3,12.07v27.69Q2311.77,958.92,2309.53,961.61Z"/><path d="M2499.42,972.75a41.84,41.84,0,0,0,15.91-13.17l-9-5.45q-9.63,11.68-21.09,11.66a18.22,18.22,0,0,1-16.09-8q-5.38-8-5.39-23.83H2518q0-21.18-12.06-31.63t-30.77-10.46a47.52,47.52,0,0,0-31.93,11.38Q2430,914.59,2430,934.5t13.69,31.65a49.07,49.07,0,0,0,33,11.71A50.21,50.21,0,0,0,2499.42,972.75Zm-32.9-64.69a9.78,9.78,0,0,1,9.05-5.35q12,0,12.53,21.48h-24.59C2463.51,917,2464.51,911.62,2466.52,908.06Z"/><path d="M2583.36,964.42a8.48,8.48,0,0,1-7.28-3c-1.37-2-2-5.19-2-9.73V920.1a36.57,36.57,0,0,1,8.66-8.54,15.11,15.11,0,0,1,8.35-2.82,7.32,7.32,0,0,1,6.27,2.92c1.47,2,2.2,5.57,2.2,10.88V951.7q0,8.26-2.78,10.39a11.69,11.69,0,0,1-6.86,2.33v10.32h54V964.42q-8.05,0-10.36-2.71t-2.37-10.05V920.1q0-13.11-7.79-20.65T2602,891.91a33,33,0,0,0-14.62,3.46A45.61,45.61,0,0,0,2574,905.83a34.39,34.39,0,0,0-2-11.67l-43.18,7.08v10.32q8.56,0,10.84,2.77c1.53,1.83,2.29,5.23,2.29,10.16V951.7q0,7.39-2.33,10c-1.56,1.77-5.15,2.65-10.8,2.65v10.32h54.44Z"/><path d="M2710.31,952.1q0,12.9,6.69,19.38t20.11,6.46q24.13,0,31.59-18.46l-9.53-3.22c-2.59,5.33-6,8-10.3,8a5.49,5.49,0,0,1-5.65-3.35q-1.35-3.36-1.34-13.76V905.63h23.91v-10.5h-23.91V868.75h-10.4a30.91,30.91,0,0,1-10.06,19,29.05,29.05,0,0,1-20.1,7.5h-2.44v10.5h11.43Z"/><path d="M2802,875.78a16.74,16.74,0,0,0,12.31-5.14,17.82,17.82,0,0,0,0-24.9,17.32,17.32,0,0,0-24.49-.21l-.21.21a17,17,0,0,0-5.14,12.39,17.33,17.33,0,0,0,5,12.29A16.48,16.48,0,0,0,2802,875.78Z"/><path d="M2830.46,964.42c-5.69,0-9.33-.9-10.88-2.75s-2.34-5.23-2.34-10.16v-59.6l-46.25,7.4v10.3h2.24q8.17,0,10.39,2.87c1.49,2,2.25,5.27,2.25,10.06v29c0,4.73-.74,8-2.19,10.06s-4.94,2.92-10.45,2.92H2771V974.8h59.49Z"/><path d="M2895,964.42q-8.84,0-11.19-2.71t-2.33-10.2V840.59l-45.69,7.1v10.4c6.16,0,10.06.86,11.73,2.57s2.47,5.15,2.47,10.26v80.59c0,6.16-1.06,9.84-3.2,11.08s-5.81,1.83-11,1.83v10.32H2895Z"/><path d="M1658.75,1180.58l-36.2-53.86,12.07-11.08q16.08-14.85,24.79-18.94a39.43,39.43,0,0,1,16.71-4V1081.9h-58.31v10.8q11.76,0,11.76,6,0,5.46-9.33,14.08l-35.67,32.86v-36.92q0-8.85,3-12.49t12.79-3.64h2V1081.9h-70.38v10.8h2c6.48,0,10.74,1.17,12.77,3.54s3.06,6.55,3.06,12.59v78q0,8.82-3,12.49c-2,2.43-6.27,3.64-12.87,3.64h-2v10.8h68.74v-10.8q-10.25,0-13.28-3.5c-2-2.33-3.05-6.54-3.05-12.63v-25.26l13.41-12.45,25.08,36.56q6,8.74,6,11.26,0,6-14.78,5.94v10.79h75.71v-10.79a26.64,26.64,0,0,1-16.09-4.33Q1667.88,1194.19,1658.75,1180.58Z"/><path d="M1785.88,1201.39q-5.06,0-5.05-8.37v-36.94a32.77,32.77,0,0,0-1.51-11.08,18.6,18.6,0,0,0-6-7.78,27,27,0,0,0-12.07-5,108.33,108.33,0,0,0-18.7-1.36q-20.1,0-32,6.33t-11.94,15.34a9.15,9.15,0,0,0,3.25,7,12.58,12.58,0,0,0,8.79,3,12.86,12.86,0,0,0,9-2.76,15.41,15.41,0,0,0,3.88-8.91q1.37-8.93,13.61-8.92a17,17,0,0,1,8.75,2.17c2.46,1.47,3.7,4.74,3.7,9.87v7.2q-29.25,9.9-40.44,18.1T1698,1197.91a16.1,16.1,0,0,0,5.59,12.53q5.6,5.07,16.77,5.06a50.83,50.83,0,0,0,16.09-2.57,55.11,55.11,0,0,0,14.84-7.74q6.21,10.32,24.13,10.31a29.33,29.33,0,0,0,16.87-4.76c4.71-3.18,7.14-8,7.34-14.78h-8C1790.64,1199.58,1788.79,1201.39,1785.88,1201.39Zm-36.44-6.72a23,23,0,0,1-6.23,4.87,14.5,14.5,0,0,1-6.7,1.65,7.89,7.89,0,0,1-6.41-3,10.27,10.27,0,0,1-2.44-6.65,14,14,0,0,1,4.13-9.44q4.11-4.58,17.65-10.21Z"/><path d="M1899.41,1186.47l-20.11-27.11,7.59-5.35q13.5-9.75,24.31-9.73V1134H1867v10.26c3.9,0,6.21.32,7,.92a2.87,2.87,0,0,1,1.11,2.3q0,2.31-5.91,6.69L1848.4,1169v-89.54l-45,6.9v10.31c5.83,0,9.51.93,11.08,2.76s2.34,5.24,2.34,10.17v80.86q0,7.66-2.5,10.29t-10.92,2.62v10.31h55.4V1203.4c-4.34-.18-7.2-1.25-8.56-3.16s-2-5.17-2-9.75V1182l8.26-6,13.21,17.8c2.21,3,3.32,4.94,3.32,6,0,2.39-2,3.58-6.23,3.58v10.31H1918V1203.4a11.35,11.35,0,0,1-7.54-3.5A103.05,103.05,0,0,1,1899.41,1186.47Z"/><path d="M1974.32,1203.14a5.47,5.47,0,0,1-5.63-3.36q-1.35-3.36-1.37-13.76v-41.5h23.93V1134h-23.93v-26.44h-10.4a30.8,30.8,0,0,1-10.05,19,29,29,0,0,1-20.11,7.5l-2.43-.1v10.5h11.56V1191q0,12.91,6.72,19.39t20.11,6.45q24.12,0,31.59-18.46l-9.53-3.22Q1980.78,1203.16,1974.32,1203.14Z"/><path d="M2097.83,1190.49v-56.31h-44.52v10.06q8.45,0,10.73,2.81c1.53,1.89,2.28,5.25,2.28,10.06v30.52a43.56,43.56,0,0,1-8.75,9.33,13.43,13.43,0,0,1-8,3.12,8.35,8.35,0,0,1-7.38-3.32c-1.57-2.19-2.34-5.83-2.34-10.88V1134h-43.37v10.22q7.3,0,9.67,2.73c1.58,1.83,2.37,5.22,2.37,10.2v30.52q0,17,8.81,23a33.91,33.91,0,0,0,19.59,6,35.49,35.49,0,0,0,15.78-3.54,44.36,44.36,0,0,0,13.66-10.55v14.07a274.13,274.13,0,0,1,39.95-3.3H2111v-10.31c-5.77,0-9.41-.91-10.94-2.76S2097.83,1195.34,2097.83,1190.49Z"/><path d="M2185.46,1165a130.66,130.66,0,0,0-22.5-6.13q-14.37-2.81-18.1-4.67a6,6,0,0,1-3.78-5.73c0-2.45,1.55-4.48,4.67-6a26.22,26.22,0,0,1,12.06-2.37q22.35,0,29.84,14.86h7.77l-.87-24.13h-8a17.93,17.93,0,0,1-3.7,5.06,73.11,73.11,0,0,0-26.14-5.06c-11.1,0-19.93,2.51-26.55,7.54a23.54,23.54,0,0,0-9.91,19.68,23.23,23.23,0,0,0,4.85,14.52,28.52,28.52,0,0,0,12.84,9.43,166.87,166.87,0,0,0,24.68,6.48,65.75,65.75,0,0,1,13.91,3.88,5.46,5.46,0,0,1,3,5c0,2.45-1.85,4.66-5.55,6.59a29.78,29.78,0,0,1-14.08,2.92q-20.21,0-27.81-16.41h-9.51l.67,26.42H2132a11.22,11.22,0,0,1,3.88-5.43,73.08,73.08,0,0,0,26.63,5.43q16.62,0,27.91-8t11.28-20.79a23,23,0,0,0-4.34-13.86A26.93,26.93,0,0,0,2185.46,1165Z"/><path d="M2238.57,1079.49a17.38,17.38,0,0,0-13.35,5.21,17.85,17.85,0,0,0-4.93,12.77,15.35,15.35,0,0,0,4.73,11.9,14.75,14.75,0,0,0,10.05,4.34,22,22,0,0,0,4.28-.58,18.94,18.94,0,0,1,3.5-.58c2.6,0,3.88,1.59,3.88,4.74q0,8.39-8,14.2a28.29,28.29,0,0,1-16.75,5.83v11.56a41.08,41.08,0,0,0,27.69-11.12q11.49-10.63,11.48-29.4,0-13.59-6.27-21.25A20.1,20.1,0,0,0,2238.57,1079.49Z"/><path d="M2401.79,1130.81a38.62,38.62,0,0,0-16.08,3.45,48.49,48.49,0,0,0-14.52,10.46,51.52,51.52,0,0,0-2-13.91L2327,1137.9v10.36q8.64,0,11,2.76c1.57,1.85,2.33,5.24,2.33,10.17v76.15q0,7.71-2.47,10.26c-1.65,1.73-5.27,2.57-10.84,2.57v10.42h60.47v-10.42h-2.88c-5.37,0-8.83-.92-10.36-2.81s-2.27-5.21-2.27-10.06v-31.65a51.55,51.55,0,0,0,13.76,8.37,38.41,38.41,0,0,0,14.52,2.81,37.42,37.42,0,0,0,27.79-12.26q11.82-12.25,11.82-31.7,0-18.84-11.18-30.46A35.94,35.94,0,0,0,2401.79,1130.81Zm.49,64.34a14.61,14.61,0,0,1-13.23,6.94,20.51,20.51,0,0,1-9-2,29.19,29.19,0,0,1-8.21-6.17v-36a25.81,25.81,0,0,1,7.62-8.7,17.77,17.77,0,0,1,10.84-4,13.24,13.24,0,0,1,12.25,7.24q4,7.24,4,21.82.08,14-4.3,21Z"/><path d="M2537.37,1141.85a55,55,0,0,0-34.19-11,53.1,53.1,0,0,0-34.32,11.38q-14.18,11.36-14.2,31.39,0,21,14.3,32.17a53.84,53.84,0,0,0,34.18,11.12,52.85,52.85,0,0,0,34.61-11.7q14.28-11.7,14.28-31.45Q2551.86,1152.9,2537.37,1141.85Zm-22.89,58.07a12.66,12.66,0,0,1-11,6.23,12.17,12.17,0,0,1-12.06-7.44q-3.43-7.45-3.46-26.14,0-19.62,4.48-25.21a13.32,13.32,0,0,1,10.78-5.59,12.38,12.38,0,0,1,11.67,6.55q3.72,6.56,3.7,25,0,20.34-4.15,26.56Z"/><path d="M2636,1130.81a27.16,27.16,0,0,0-15.84,5,44.42,44.42,0,0,0-12.83,15,69.22,69.22,0,0,0-3.1-20.1l-40.34,8.56v10.3q8.54,0,10.84,2.77t2.27,10.06v28.07c0,4.85-.74,8.22-2.23,10s-5,2.82-10.7,2.82v10.31h59v-10.31h-2q-8,0-10.31-2.86t-2.24-10v-8.67q0-15.43,3.16-23.18t9.49-7.73a10.21,10.21,0,0,1,7.58,3.89,27,27,0,0,0,5.63,5.26,10.79,10.79,0,0,0,5.45,1.25,11.7,11.7,0,0,0,9.53-4,14.87,14.87,0,0,0,3.4-9.81,17.36,17.36,0,0,0-4.28-11.33A15.34,15.34,0,0,0,2636,1130.81Z"/><path d="M2706.52,1203.14a5.46,5.46,0,0,1-5.63-3.36q-1.33-3.36-1.36-13.76v-41.5h23.91V1134h-23.91v-26.44h-10.4a30.9,30.9,0,0,1-10.05,19,29,29,0,0,1-20.11,7.5l-2.42-.1v10.5h11.53V1191q0,12.91,6.69,19.39t20.11,6.45q24.13,0,31.59-18.46l-9.53-3.22Q2713,1203.16,2706.52,1203.14Z"/><path d="M2777.53,1095a6.47,6.47,0,0,1,6.27-4.48c3.56,0,6,2.41,7.1,7.2q3.69,14.55,15.16,14.58a13.87,13.87,0,0,0,10.16-4.23,13.66,13.66,0,0,0,4.22-10c0-5.43-2.61-9.92-7.86-13.41s-13-5.25-23.23-5.25a54.83,54.83,0,0,0-22.74,4.4,36.18,36.18,0,0,0-14.78,11.58,34,34,0,0,0-6.41,15.21,174.31,174.31,0,0,0-1.17,23.52H2728.3v10.5h15.95v46q0,7.08-2.15,10c-1.41,2-4.89,2.92-10.4,2.92h-3.4v10.32h65.14v-10.32h-5.15q-8,0-10.32-2.86t-2.23-10v-46h17.7V1134h-17.7V1110.4Q2775.64,1099.42,2777.53,1095Z"/><path d="M2885.78,1141.85a55.05,55.05,0,0,0-34.19-11,53.09,53.09,0,0,0-34.31,11.38q-14.21,11.36-14.19,31.39,0,21,14.29,32.17a53.89,53.89,0,0,0,34.19,11.12,52.79,52.79,0,0,0,34.59-11.7q14.3-11.7,14.29-31.45Q2900.36,1152.9,2885.78,1141.85Zm-22.89,58.07a12.66,12.66,0,0,1-11,6.23,12.16,12.16,0,0,1-12.06-7.44q-3.48-7.45-3.46-26.14,0-19.62,4.48-25.21a13.32,13.32,0,0,1,10.78-5.59,12.4,12.4,0,0,1,11.66,6.55q3.72,6.56,3.7,25Q2867,1193.7,2862.89,1199.92Z"/><path d="M2955.27,1190.49v-111l-45.69,7.1V1097c6.16,0,10.06.87,11.73,2.58s2.47,5.14,2.47,10.25v80.68c0,6.15-1.06,9.83-3.22,11.08s-5.79,1.83-11,1.83v10.31h59.2V1203.4q-8.82,0-11.18-2.72T2955.27,1190.49Z"/><path d="M3019.62,1190.49v-59.68l-46.25,7.4v10.29h2.25c5.43,0,8.91,1,10.4,2.88s2.23,5.27,2.23,10v29.06q0,7.08-2.19,10c-1.45,2-4.95,2.92-10.44,2.92h-2.25v10.32h59.5v-10.32c-5.71,0-9.33-.91-10.9-2.76S3019.62,1195.34,3019.62,1190.49Z"/><path d="M3004.36,1114.68a16.67,16.67,0,0,0,12.3-5.15,17.77,17.77,0,0,0,0-24.89,17.3,17.3,0,0,0-24.48-.21l-.21.21a17,17,0,0,0-5.15,12.38,17.34,17.34,0,0,0,5,12.29A16.49,16.49,0,0,0,3004.36,1114.68Z"/><path d="M3121,1141.26q-12.06-10.44-30.77-10.45a47.42,47.42,0,0,0-32,11.42q-13.28,11.36-13.27,31.29t13.71,31.65a49,49,0,0,0,32.94,11.7,50.34,50.34,0,0,0,22.9-5.19,41.7,41.7,0,0,0,15.89-13.17l-9-5.45q-9.64,11.68-21.09,11.67a18.24,18.24,0,0,1-16.09-8q-5.42-8-5.41-23.83H3133Q3133,1151.72,3121,1141.26Zm-42.23,21.82q0-10.8,3-16.09a9.79,9.79,0,0,1,9.05-5.35q11.94,0,12.54,21.48Z"/><path d="M3185.36,1187.15a17.56,17.56,0,0,0-24.84,24.84h0a17.5,17.5,0,0,0,24.74,0l.06,0a17.5,17.5,0,0,0,.09-24.75l-.09-.09Z"/><path d="M3167.66,1170.18h10.8l9.13-66.68a83.45,83.45,0,0,0,.88-10.7q0-13.29-15.54-13.31t-15.26,14.88a84.88,84.88,0,0,0,.86,9.81Z"/><path class="cls-2" d="M1279.09,1624.38c2.6.15,5.2.36,7.78.63-.22-.43-.44-.86-.65-1.3-3.6-3.5-7.26-6.94-11.06-10.22A28.71,28.71,0,0,0,1279.09,1624.38Z"/><path class="cls-2" d="M1306.8,1650.35a94.15,94.15,0,0,0-4.66-10c-5.49-2-9.77-6.26-13.06-11.42-2.54-.4-5.1-.69-7.66-.91a71.17,71.17,0,0,0,5.93,7.13A75,75,0,0,0,1306.8,1650.35Z"/><path class="cls-2" d="M1345.35,1681.79c-1.36,0-2.73-.1-4.08-.23a1.51,1.51,0,0,1-.5-2.86c.43-.17.86-.31,1.29-.47l-.72-.79h-2.13c-1.36,0-1.59-1.47-1-2.37-1.72.17-3.45.29-5.19.32a1.5,1.5,0,0,1-1.24-2.09l-.82,0c-1.73,0-1.77-2.74-.12-3l3.47-.51-7.8-8.45a7,7,0,0,0-1.13,3.37c-.13,1.93-3.12,1.66-3-.27a9.48,9.48,0,0,1,2-5.34l-2.29-2.48c-.05,0-.1,0-.14-.07a168,168,0,0,1-14.42-12c1.23,2.71,2.33,5.42,3.26,8.11.38,1.11-.58,2.62-1.87,2-9.5-4.22-18-11-24.9-18.72a64.38,64.38,0,0,1-6.47-8.34c-2.73-.2-5.46-.39-8.18-.62h-1.22c-1.94,0-1.66-3,.26-3h.67a1.42,1.42,0,0,1,.36,0h.18q3,0,5.92.15A28.71,28.71,0,0,1,1272,1610a1.5,1.5,0,0,1,2.34-1.1c3.13,2.6,6.16,5.33,9.13,8.11l0-.08a1.79,1.79,0,0,1,.42-1.73l-142.44-154.3c2,3.88,4.1,7.72,6.16,11.53.8,1.48-1.59,3-2.51,1.59-.08-.11-.14-.23-.22-.34h0a87.28,87.28,0,0,1-6.49-12.17q-2.08-4.07-4-8.23l-8.67-9.39L623,1745.5l744-40.22Z"/><path class="cls-1" d="M1129.94,1447.73C1064,1484,999,1520,932,1557c-101,54-195,106-295,162-4,2-9,4-14,7.36,1.77-.09.22-.12,0,0,254-11.36,507-26.36,760.71-37.67"/><path class="cls-2" d="M1274,1620.72a27.05,27.05,0,0,1-2-10.15c-1.66-1.68-3.33-3.37-5-5.11q-5.19-7.43-10.38-15c1.51,1.46,3,3,4.43,4.54,1.72,1.93,8.38,8.64,11.21,14.23a1.49,1.49,0,0,1,2.08-.37c1.78,1.47,3.51,3,5.23,4.54-.12-5.12-4.12-10.16-7.42-14.5a123.16,123.16,0,0,0-26-24.91,2.82,2.82,0,0,0-1.47-.55c-13.58-19-28.16-37.2-46.25-51.46-3-2.39-7.32,1.85-4.27,4.27,18.79,14.78,33.77,33.84,47.74,53.53l-6.67-6.82c-2.74-2.77-6.94,1.47-4.27,4.28l34.81,36.72a2.7,2.7,0,0,0,2,.87l5.11,5.19A3,3,0,0,0,1274,1620.72Z"/><path class="cls-2" d="M1279,1616.93c-1.28-1.15-2.54-2.32-3.84-3.44a25.15,25.15,0,0,0,1.84,6.71c.06,0,.14-.1.2-.16A11.21,11.21,0,0,0,1279,1616.93Z"/><path class="cls-2" d="M1275.62,1624.21a32.35,32.35,0,0,1-3.12-8.54l-11.32-16c-4.45-6.28-9.43-12.57-13.84-19.19a274.76,274.76,0,0,1,27.63,23.23,3,3,0,0,0,4.75-3.66,92.39,92.39,0,0,0-43.84-41.65,3.06,3.06,0,0,0-4.44,3.4c4.18,14.22,13.85,25.8,22.28,37.72l17.38,24.55C1272.61,1624.11,1274.12,1624.16,1275.62,1624.21ZM1242,1571.39c-.78-1.35-1.49-2.85-2.13-4.26a86.88,86.88,0,0,1,19.41,14.86c-4.61-3.66-9.29-7.22-14.08-10.6A2.51,2.51,0,0,0,1242,1571.39Z"/><path class="cls-2" d="M1284.1,1636a64.38,64.38,0,0,1-6.47-8.34l-4.2-.31,9.6,13.57a3.26,3.26,0,0,0,5.48-.36C1287,1639.1,1285.5,1637.57,1284.1,1636Z"/><path class="cls-2" d="M1289.63,1555.43c-17.23-20.94-41-34.41-63.1-49.51-23-15.71-43-34.69-63-54-6.65-6.44-14.69-6.29-20.92-2.76.17.95.33,1.91.42,2.88.12,1.16-1.25,2.38-2.33,1.49-.63-.54-1.24-1.09-1.83-1.66l-.44.41c.68,1.58,1.35,3.16,2,4.75a1.42,1.42,0,0,1-.17,1.45l.45,1c2.22,4.36,4.57,8.65,6.88,12.91.8,1.48-1.59,3-2.51,1.59-.08-.11-.14-.23-.22-.34h0a87.28,87.28,0,0,1-6.49-12.17q-1.45-2.85-2.82-5.73c-4.2,6.34-4.7,14.88,2.4,21.75,20.49,19.85,41.24,39.22,64.59,55.71,21.31,15.08,44.64,27.34,61.49,47.79,6.22,7.57,19.15,6.46,25.6,0C1297.09,1573.54,1295.86,1563,1289.63,1555.43Z"/><path class="cls-2" d="M1272,1476c-7.77,0-7.79,12.06,0,12.06S1279.8,1476,1272,1476Z"/><path class="cls-2" d="M1289.25,1506.32c-7.76,0-7.76,12.07,0,12.07S1297,1506.32,1289.25,1506.32Z"/></svg>