<svg id="Layer_1" data-name="Layer 1" xmlns="http://www.w3.org/2000/svg" width="1000" height="200" viewBox="0 0 1000 200"><defs><style>.cls-1{fill:#5d7a53;}.cls-2{fill:#754c24;}.cls-3{fill:#9b6237;}.cls-11,.cls-12,.cls-4,.cls-6,.cls-7,.cls-8{fill:none;}.cls-4{stroke:#000;}.cls-12,.cls-4,.cls-6,.cls-7,.cls-8{stroke-miterlimit:10;}.cls-4,.cls-6{stroke-width:2px;}.cls-5{fill:#fff;}.cls-6,.cls-7,.cls-8{stroke:#515117;}.cls-7{stroke-width:3px;}.cls-9{fill:#edf728;}.cls-10{fill:#fdffeb;}.cls-12{stroke:#050505;}</style></defs><title>blik_spriteGODprove</title><rect class="cls-1" x="120.26" y="82.61" width="52.91" height="13.5" rx="6.75" transform="translate(-19.98 130.87) rotate(-45.33)"/><rect class="cls-1" x="48.69" y="65.53" width="13.5" height="52.91" rx="6.75" transform="translate(-51.61 83.38) rotate(-54.33)"/><path class="cls-1" d="M139.89,82.82c-5.78,40.23-17.09,76.06-38.16,76.06S70.17,125,63.56,82.82C57.05,41.32,80.65,6.76,101.73,6.76S145.87,41.24,139.89,82.82Z"/><polygon class="cls-2" points="128.29 195.53 75.06 195.53 70.61 137.38 133.91 137.38 128.29 195.53"/><polygon class="cls-3" points="138.23 137.38 63.7 137.38 61.09 126.08 141.27 126.08 138.23 137.38"/><path class="cls-4" d="M94.27,63.57c1.93,7.25,8.52,5.73,12.91,3"/><ellipse cx="92.77" cy="45.2" rx="4.68" ry="8.96"/><ellipse cx="111.23" cy="45.2" rx="4.68" ry="8.96"/><ellipse class="cls-5" cx="90.5" cy="42.72" rx="1.86" ry="2.07"/><ellipse class="cls-5" cx="108.96" cy="42.72" rx="1.86" ry="2.07"/><line class="cls-6" x1="57.19" y1="79.55" x2="67.99" y2="84.43"/><line class="cls-6" x1="90.63" y1="92.14" x2="88.57" y2="103.81"/><line class="cls-6" x1="121.62" y1="78.06" x2="128.68" y2="87.58"/><line class="cls-6" x1="116.19" y1="113.96" x2="115.03" y2="120.34"/><line class="cls-6" x1="78.44" y1="111.48" x2="80.03" y2="117.86"/><line class="cls-6" x1="133.55" y1="69.59" x2="135.14" y2="75.98"/><line class="cls-7" x1="96.63" y1="81.99" x2="105.8" y2="93.09"/><line class="cls-8" x1="69.62" y1="95.49" x2="67.9" y2="104.91"/><line class="cls-6" x1="109.58" y1="112.3" x2="102.07" y2="117.04"/><line class="cls-6" x1="118.15" y1="102.8" x2="125.48" y2="107.8"/><line class="cls-6" x1="58.05" y1="51.13" x2="67.22" y2="62.22"/><line class="cls-6" x1="72.07" y1="19.01" x2="74.7" y2="33.17"/><line class="cls-6" x1="91.29" y1="4.47" x2="87.99" y2="18.49"/><line class="cls-6" x1="104.24" y1="5.45" x2="107.66" y2="17.31"/><line class="cls-6" x1="119.27" y1="12.62" x2="112.3" y2="27.71"/><line class="cls-6" x1="130.25" y1="15.3" x2="125.26" y2="32.39"/><line class="cls-7" x1="136.86" y1="45.06" x2="134.35" y2="63.26"/><line class="cls-6" x1="82.85" y1="56.64" x2="82.66" y2="72.7"/><line class="cls-6" x1="79.27" y1="83.37" x2="79.07" y2="99.43"/><line class="cls-6" x1="66.23" y1="112.5" x2="73.29" y2="122.03"/><line class="cls-6" x1="115.92" y1="72.9" x2="112.27" y2="82.59"/><line class="cls-6" x1="95.25" y1="111.48" x2="90.5" y2="122.82"/><ellipse class="cls-9" cx="129.97" cy="23.84" rx="3.86" ry="4.96"/><ellipse class="cls-9" cx="136.58" cy="26.87" rx="4.96" ry="3.86" transform="translate(21.01 104.45) rotate(-45)"/><ellipse class="cls-9" cx="136.58" cy="35.4" rx="3.86" ry="4.96" transform="translate(29.21 126.94) rotate(-54.98)"/><ellipse class="cls-9" cx="129.15" cy="38.86" rx="4.13" ry="4.82"/><ellipse class="cls-9" cx="122.81" cy="35.13" rx="4.96" ry="3.86" transform="translate(5.78 86.32) rotate(-39.59)"/><ellipse class="cls-9" cx="123.08" cy="26.87" rx="3.86" ry="4.96" transform="translate(30.44 112.24) rotate(-54.98)"/><circle class="cls-10" cx="129.97" cy="31.01" r="5.24"/><line class="cls-6" x1="128.28" y1="89.6" x2="137.27" y2="97.31"/><line class="cls-6" x1="139.81" y1="81.82" x2="148.8" y2="89.53"/><line class="cls-6" x1="152.44" y1="78.24" x2="151.8" y2="69.39"/><line class="cls-6" x1="152.45" y1="86.57" x2="164.28" y2="87.38"/><line class="cls-6" x1="66.46" y1="82.26" x2="54.61" y2="89.36"/><line class="cls-6" x1="54.05" y1="79.73" x2="49.14" y2="84.12"/><rect class="cls-11" width="200" height="200"/><rect class="cls-1" x="515.82" y="96.18" width="52.91" height="13.5" rx="6.75"/><rect class="cls-1" x="431.22" y="96.47" width="52.91" height="13.5" rx="6.75" transform="translate(-6.18 32.82) rotate(-4.08)"/><path class="cls-1" d="M538.28,82.82c-5.78,40.23-17.09,76.06-38.16,76.06S468.56,125,462,82.82C455.44,41.32,479,6.76,500.12,6.76S544.26,41.24,538.28,82.82Z"/><polygon class="cls-2" points="526.68 195.53 473.45 195.53 469 137.38 532.3 137.38 526.68 195.53"/><polygon class="cls-3" points="536.62 137.38 462.09 137.38 459.48 126.08 539.66 126.08 536.62 137.38"/><path class="cls-4" d="M492.66,63.57c1.93,7.25,8.52,5.73,12.91,3"/><ellipse cx="491.6" cy="48.87" rx="5.85" ry="3.73"/><ellipse class="cls-5" cx="488.79" cy="48.87" rx="2.32" ry="0.86"/><line class="cls-6" x1="455.58" y1="79.55" x2="466.38" y2="84.43"/><line class="cls-6" x1="489.02" y1="92.14" x2="486.96" y2="103.81"/><line class="cls-6" x1="520.01" y1="78.06" x2="527.07" y2="87.58"/><line class="cls-6" x1="514.58" y1="113.96" x2="513.42" y2="120.34"/><line class="cls-6" x1="476.83" y1="111.48" x2="478.42" y2="117.86"/><line class="cls-6" x1="531.94" y1="69.59" x2="533.53" y2="75.98"/><line class="cls-7" x1="495.02" y1="81.99" x2="504.19" y2="93.09"/><line class="cls-8" x1="468.01" y1="95.49" x2="466.29" y2="104.91"/><line class="cls-6" x1="507.97" y1="112.3" x2="500.46" y2="117.04"/><line class="cls-6" x1="516.54" y1="102.8" x2="523.87" y2="107.8"/><line class="cls-6" x1="456.44" y1="51.13" x2="465.61" y2="62.22"/><line class="cls-6" x1="470.46" y1="19.01" x2="473.09" y2="33.17"/><line class="cls-6" x1="489.68" y1="4.47" x2="486.38" y2="18.49"/><line class="cls-6" x1="502.63" y1="5.45" x2="506.05" y2="17.31"/><line class="cls-6" x1="517.66" y1="12.62" x2="510.69" y2="27.71"/><line class="cls-6" x1="528.64" y1="15.3" x2="523.65" y2="32.39"/><line class="cls-7" x1="535.25" y1="45.06" x2="532.74" y2="63.26"/><line class="cls-6" x1="481.24" y1="56.64" x2="481.05" y2="72.7"/><line class="cls-6" x1="477.66" y1="83.37" x2="477.46" y2="99.43"/><line class="cls-6" x1="464.62" y1="112.5" x2="471.68" y2="122.03"/><line class="cls-6" x1="514.31" y1="72.9" x2="510.66" y2="82.59"/><line class="cls-6" x1="493.64" y1="111.48" x2="488.89" y2="122.82"/><ellipse class="cls-9" cx="528.36" cy="23.84" rx="3.86" ry="4.96"/><ellipse class="cls-9" cx="534.97" cy="26.87" rx="4.96" ry="3.86" transform="translate(137.69 386.15) rotate(-45)"/><ellipse class="cls-9" cx="534.97" cy="35.4" rx="3.86" ry="4.96" transform="translate(198.98 453.2) rotate(-54.98)"/><ellipse class="cls-9" cx="527.54" cy="38.86" rx="4.13" ry="4.82"/><ellipse class="cls-9" cx="521.2" cy="35.13" rx="4.96" ry="3.86" transform="translate(97.16 340.21) rotate(-39.59)"/><ellipse class="cls-9" cx="521.47" cy="26.87" rx="3.86" ry="4.96" transform="translate(200.21 438.51) rotate(-54.98)"/><circle class="cls-10" cx="528.36" cy="31.01" r="5.24"/><line class="cls-6" x1="526.86" y1="90.21" x2="527.7" y2="102.03"/><line class="cls-6" x1="540.5" y1="92.93" x2="541.34" y2="104.75"/><line class="cls-6" x1="551.92" y1="99.39" x2="557.76" y2="92.72"/><line class="cls-6" x1="546.01" y1="105.26" x2="553.75" y2="114.24"/><line class="cls-6" x1="459.93" y1="88.7" x2="455.36" y2="101.74"/><line class="cls-6" x1="448.77" y1="94.69" x2="447.81" y2="101.2"/><ellipse cx="510.07" cy="48.86" rx="5.85" ry="3.73"/><ellipse class="cls-5" cx="507.54" cy="48.87" rx="2.32" ry="0.86"/><rect class="cls-1" x="935.04" y="76.48" width="13.5" height="52.91" rx="6.75" transform="translate(203.06 696.1) rotate(-45)"/><rect class="cls-1" x="830.73" y="96.47" width="52.91" height="13.5" rx="6.75" transform="translate(217.73 683.32) rotate(-49.08)"/><path class="cls-1" d="M937.79,82.82c-5.78,40.23-17.09,76.06-38.16,76.06S868.07,125,861.46,82.82C855,41.32,878.55,6.76,899.63,6.76S943.77,41.24,937.79,82.82Z"/><polygon class="cls-2" points="926.19 195.53 872.96 195.53 868.51 137.38 931.81 137.38 926.19 195.53"/><polygon class="cls-3" points="936.13 137.38 861.6 137.38 858.99 126.08 939.17 126.08 936.13 137.38"/><path class="cls-4" d="M892.17,63.57c1.93,7.25,8.52,5.73,12.91,3"/><line class="cls-6" x1="855.09" y1="79.55" x2="865.89" y2="84.43"/><line class="cls-6" x1="888.53" y1="92.14" x2="886.47" y2="103.81"/><line class="cls-6" x1="919.52" y1="78.06" x2="926.58" y2="87.58"/><line class="cls-6" x1="914.09" y1="113.96" x2="912.93" y2="120.34"/><line class="cls-6" x1="876.34" y1="111.48" x2="877.93" y2="117.86"/><line class="cls-6" x1="931.45" y1="69.59" x2="933.04" y2="75.98"/><line class="cls-7" x1="894.53" y1="81.99" x2="903.7" y2="93.09"/><line class="cls-8" x1="867.52" y1="95.49" x2="865.8" y2="104.91"/><line class="cls-6" x1="907.48" y1="112.3" x2="899.97" y2="117.04"/><line class="cls-6" x1="916.05" y1="102.8" x2="923.38" y2="107.8"/><line class="cls-6" x1="855.95" y1="51.13" x2="865.12" y2="62.22"/><line class="cls-6" x1="869.97" y1="19.01" x2="872.6" y2="33.17"/><line class="cls-6" x1="889.19" y1="4.47" x2="885.89" y2="18.49"/><line class="cls-6" x1="902.14" y1="5.45" x2="905.56" y2="17.31"/><line class="cls-6" x1="917.17" y1="12.62" x2="910.2" y2="27.71"/><line class="cls-6" x1="928.15" y1="15.3" x2="923.16" y2="32.39"/><line class="cls-7" x1="934.76" y1="45.06" x2="932.25" y2="63.26"/><line class="cls-6" x1="880.75" y1="56.64" x2="880.56" y2="72.7"/><line class="cls-6" x1="877.17" y1="83.37" x2="876.97" y2="99.43"/><line class="cls-6" x1="864.13" y1="112.5" x2="871.19" y2="122.03"/><line class="cls-6" x1="913.82" y1="72.9" x2="910.17" y2="82.59"/><line class="cls-6" x1="893.15" y1="111.48" x2="888.4" y2="122.82"/><ellipse class="cls-9" cx="927.87" cy="23.84" rx="3.86" ry="4.96"/><ellipse class="cls-9" cx="934.48" cy="26.87" rx="4.96" ry="3.86" transform="translate(254.71 668.65) rotate(-45)"/><ellipse class="cls-9" cx="934.48" cy="35.4" rx="3.86" ry="4.96" transform="translate(369.22 780.38) rotate(-54.98)"/><ellipse class="cls-9" cx="927.05" cy="38.86" rx="4.13" ry="4.82"/><ellipse class="cls-9" cx="920.71" cy="35.13" rx="4.96" ry="3.86" transform="translate(188.8 594.82) rotate(-39.59)"/><ellipse class="cls-9" cx="920.98" cy="26.87" rx="3.86" ry="4.96" transform="translate(370.46 765.69) rotate(-54.98)"/><circle class="cls-10" cx="927.87" cy="31.01" r="5.24"/><line class="cls-6" x1="939.88" y1="83.03" x2="932.12" y2="91.98"/><line class="cls-6" x1="947.6" y1="94.6" x2="939.84" y2="103.55"/><line class="cls-6" x1="951.11" y1="107.25" x2="959.96" y2="106.66"/><line class="cls-6" x1="942.78" y1="107.22" x2="941.9" y2="119.04"/><line class="cls-6" x1="848.51" y1="91.36" x2="854.5" y2="103.81"/><line class="cls-6" x1="844.86" y1="103.48" x2="848.78" y2="108.77"/><path class="cls-12" d="M905,45.91c2.75,8.23,6.54,2.91,9.11.8"/><path class="cls-12" d="M886.56,45.91c2.75,8.23,6.54,2.91,9.11.8"/><rect class="cls-11" x="200" width="200" height="200"/><rect class="cls-11" x="400" width="200" height="200"/><rect class="cls-11" x="600" width="200" height="200"/><rect class="cls-11" x="800" width="200" height="200"/><rect class="cls-1" x="323.32" y="91.18" width="52.91" height="13.5" rx="6.75" transform="translate(-9.33 152.49) rotate(-24.28)"/><rect class="cls-1" x="244.19" y="73.52" width="13.5" height="52.91" rx="6.75" transform="translate(76.33 306.08) rotate(-71.45)"/><path class="cls-1" d="M336.78,82.82c-5.78,40.23-17.09,76.06-38.16,76.06S267.06,125,260.45,82.82c-6.51-41.5,17.09-76.06,38.17-76.06S342.76,41.24,336.78,82.82Z"/><polygon class="cls-2" points="325.18 195.53 271.95 195.53 267.5 137.38 330.8 137.38 325.18 195.53"/><polygon class="cls-3" points="335.12 137.38 260.59 137.38 257.98 126.08 338.16 126.08 335.12 137.38"/><path class="cls-4" d="M291.16,63.57c1.93,7.25,8.52,5.73,12.91,3"/><ellipse cx="290.1" cy="47.78" rx="5.85" ry="4.82"/><ellipse class="cls-5" cx="287.28" cy="48.35" rx="2.32" ry="1.38"/><line class="cls-6" x1="254.08" y1="79.55" x2="264.88" y2="84.43"/><line class="cls-6" x1="287.52" y1="92.14" x2="285.46" y2="103.81"/><line class="cls-6" x1="318.51" y1="78.06" x2="325.57" y2="87.58"/><line class="cls-6" x1="313.08" y1="113.96" x2="311.92" y2="120.34"/><line class="cls-6" x1="275.33" y1="111.48" x2="276.92" y2="117.86"/><line class="cls-6" x1="330.44" y1="69.59" x2="332.03" y2="75.98"/><line class="cls-7" x1="293.52" y1="81.99" x2="302.69" y2="93.09"/><line class="cls-8" x1="267.46" y1="99.82" x2="262.25" y2="107.85"/><line class="cls-6" x1="306.47" y1="112.3" x2="298.96" y2="117.04"/><line class="cls-6" x1="315.04" y1="102.8" x2="322.37" y2="107.8"/><line class="cls-6" x1="254.94" y1="51.13" x2="264.11" y2="62.22"/><line class="cls-6" x1="268.96" y1="19.01" x2="271.59" y2="33.17"/><line class="cls-6" x1="288.18" y1="4.47" x2="284.88" y2="18.49"/><line class="cls-6" x1="301.13" y1="5.45" x2="304.55" y2="17.31"/><line class="cls-6" x1="316.16" y1="12.62" x2="309.19" y2="27.71"/><line class="cls-6" x1="327.14" y1="15.3" x2="322.15" y2="32.39"/><line class="cls-7" x1="333.75" y1="45.06" x2="331.24" y2="63.26"/><line class="cls-6" x1="279.74" y1="56.64" x2="279.55" y2="72.7"/><line class="cls-6" x1="276.16" y1="83.37" x2="275.96" y2="99.43"/><line class="cls-6" x1="263.12" y1="112.5" x2="270.18" y2="122.03"/><line class="cls-6" x1="312.81" y1="72.9" x2="309.16" y2="82.59"/><line class="cls-6" x1="292.14" y1="111.48" x2="287.39" y2="122.82"/><ellipse class="cls-9" cx="326.86" cy="23.84" rx="3.86" ry="4.96"/><ellipse class="cls-9" cx="333.47" cy="26.87" rx="4.96" ry="3.86" transform="translate(78.67 243.67) rotate(-45)"/><ellipse class="cls-9" cx="333.47" cy="35.4" rx="3.86" ry="4.96" transform="translate(113.11 288.18) rotate(-54.98)"/><ellipse class="cls-9" cx="326.04" cy="38.86" rx="4.13" ry="4.82"/><ellipse class="cls-9" cx="319.7" cy="35.13" rx="4.96" ry="3.86" transform="translate(50.94 211.8) rotate(-39.59)"/><ellipse class="cls-9" cx="319.96" cy="26.87" rx="3.86" ry="4.96" transform="translate(114.34 273.48) rotate(-54.98)"/><circle class="cls-10" cx="326.86" cy="31.01" r="5.24"/><line class="cls-6" x1="321.49" y1="97.68" x2="327.11" y2="108.1"/><line class="cls-6" x1="335.04" y1="94.55" x2="340.66" y2="104.97"/><line class="cls-6" x1="348.11" y1="95.74" x2="350.69" y2="87.26"/><line class="cls-6" x1="345.14" y1="103.52" x2="355.88" y2="108.53"/><line class="cls-6" x1="262.61" y1="90.44" x2="253.38" y2="100.72"/><line class="cls-6" x1="250.01" y1="91.68" x2="246.61" y2="97.32"/><ellipse cx="310.67" cy="47.78" rx="5.85" ry="4.82"/><ellipse class="cls-5" cx="307.66" cy="48.35" rx="2.32" ry="1.38"/><rect class="cls-1" x="735.01" y="82.6" width="13.5" height="52.91" rx="6.75" transform="translate(303.62 717.44) rotate(-62.6)"/><rect class="cls-1" x="631.92" y="99.01" width="52.91" height="13.5" rx="6.75" transform="translate(22.1 305.25) rotate(-26.53)"/><path class="cls-1" d="M737.76,82.82c-5.78,40.23-17.09,76.06-38.16,76.06S668,125,661.43,82.82c-6.51-41.5,17.09-76.06,38.17-76.06S743.74,41.24,737.76,82.82Z"/><polygon class="cls-2" points="726.16 195.53 672.93 195.53 668.48 137.38 731.78 137.38 726.16 195.53"/><polygon class="cls-3" points="736.1 137.38 661.57 137.38 658.96 126.08 739.14 126.08 736.1 137.38"/><path class="cls-4" d="M692.14,63.57c1.93,7.25,8.52,5.73,12.91,3"/><ellipse cx="691.09" cy="51.51" rx="5.85" ry="1.08"/><ellipse class="cls-5" cx="688.22" cy="51.36" rx="2.32" ry="0.32"/><line class="cls-6" x1="655.06" y1="79.55" x2="665.86" y2="84.43"/><line class="cls-6" x1="688.5" y1="92.14" x2="686.44" y2="103.81"/><line class="cls-6" x1="719.49" y1="78.06" x2="726.55" y2="87.58"/><line class="cls-6" x1="714.06" y1="113.96" x2="712.9" y2="120.34"/><line class="cls-6" x1="676.31" y1="111.48" x2="677.9" y2="117.86"/><line class="cls-6" x1="731.42" y1="69.59" x2="733.01" y2="75.98"/><line class="cls-7" x1="694.5" y1="81.99" x2="703.67" y2="93.09"/><line class="cls-8" x1="664.97" y1="94.67" x2="666.98" y2="104.03"/><line class="cls-6" x1="707.45" y1="112.3" x2="699.94" y2="117.04"/><line class="cls-6" x1="716.02" y1="102.8" x2="723.35" y2="107.8"/><line class="cls-6" x1="655.92" y1="51.13" x2="665.09" y2="62.22"/><line class="cls-6" x1="669.94" y1="19.01" x2="672.57" y2="33.17"/><line class="cls-6" x1="689.16" y1="4.47" x2="685.86" y2="18.49"/><line class="cls-6" x1="702.11" y1="5.45" x2="705.53" y2="17.31"/><line class="cls-6" x1="717.14" y1="12.62" x2="710.17" y2="27.71"/><line class="cls-6" x1="728.12" y1="15.3" x2="723.13" y2="32.39"/><line class="cls-7" x1="734.73" y1="45.06" x2="732.22" y2="63.26"/><line class="cls-6" x1="680.72" y1="56.64" x2="680.53" y2="72.7"/><line class="cls-6" x1="677.14" y1="83.37" x2="676.94" y2="99.43"/><line class="cls-6" x1="664.1" y1="112.5" x2="671.16" y2="122.03"/><line class="cls-6" x1="713.79" y1="72.9" x2="710.14" y2="82.59"/><line class="cls-6" x1="693.12" y1="111.48" x2="688.37" y2="122.82"/><ellipse class="cls-9" cx="727.84" cy="23.84" rx="3.86" ry="4.96"/><ellipse class="cls-9" cx="734.46" cy="26.87" rx="4.96" ry="3.86" transform="translate(196.12 527.21) rotate(-45)"/><ellipse class="cls-9" cx="734.45" cy="35.4" rx="3.86" ry="4.96" transform="translate(283.99 616.57) rotate(-54.98)"/><ellipse class="cls-9" cx="727.02" cy="38.86" rx="4.13" ry="4.82"/><ellipse class="cls-9" cx="720.68" cy="35.13" rx="4.96" ry="3.86" transform="translate(142.92 467.34) rotate(-39.59)"/><ellipse class="cls-9" cx="720.95" cy="26.87" rx="3.86" ry="4.96" transform="translate(285.22 601.87) rotate(-54.98)"/><circle class="cls-10" cx="727.84" cy="31.01" r="5.24"/><line class="cls-6" x1="726.34" y1="90.21" x2="727.18" y2="102.03"/><line class="cls-6" x1="744.78" y1="99.35" x2="740.09" y2="110.23"/><line class="cls-6" x1="751.95" y1="110.35" x2="760.21" y2="107.11"/><line class="cls-6" x1="744" y1="112.84" x2="746.74" y2="124.37"/><line class="cls-6" x1="654.91" y1="91.49" x2="655.67" y2="105.28"/><line class="cls-6" x1="646.89" y1="101.28" x2="648.48" y2="107.67"/><ellipse cx="709.11" cy="51.51" rx="5.85" ry="1.08"/><ellipse class="cls-5" cx="707.07" cy="51.51" rx="2.32" ry="0.32"/></svg>
