<svg id="Layer_1" data-name="Layer 1" xmlns="http://www.w3.org/2000/svg" width="600" height="200" viewBox="0 0 600 200"><defs><style>.cls-1{fill:#5d7a53;}.cls-2{fill:#754c24;}.cls-3{fill:#9b6237;}.cls-11,.cls-12,.cls-4,.cls-6,.cls-7,.cls-8{fill:none;}.cls-4{stroke:#000;}.cls-12,.cls-4,.cls-6,.cls-7,.cls-8{stroke-miterlimit:10;}.cls-12,.cls-4,.cls-6{stroke-width:2px;}.cls-5{fill:#fff;}.cls-6,.cls-7,.cls-8{stroke:#515117;}.cls-7{stroke-width:3px;}.cls-9{fill:#edf728;}.cls-10{fill:#fdffeb;}.cls-12{stroke:#050505;}</style></defs><title>blik_spriteGOD</title><rect class="cls-1" x="118.16" y="82.61" width="52.91" height="13.5" rx="6.75" transform="translate(-20.61 129.38) rotate(-45.33)"/><rect class="cls-1" x="46.59" y="65.53" width="13.5" height="52.91" rx="6.75" transform="translate(-52.49 81.67) rotate(-54.33)"/><path class="cls-1" d="M137.79,82.82c-5.78,40.23-17.09,76.06-38.16,76.06S68.07,125,61.46,82.82C55,41.32,78.55,6.76,99.63,6.76S143.77,41.24,137.79,82.82Z"/><polygon class="cls-2" points="126.19 195.53 72.96 195.53 68.51 137.38 131.81 137.38 126.19 195.53"/><polygon class="cls-3" points="136.13 137.38 61.6 137.38 58.99 126.08 139.17 126.08 136.13 137.38"/><path class="cls-4" d="M92.17,63.57c1.93,7.25,8.52,5.73,12.91,3"/><ellipse cx="90.67" cy="45.2" rx="4.68" ry="8.96"/><ellipse cx="109.13" cy="45.2" rx="4.68" ry="8.96"/><ellipse class="cls-5" cx="88.4" cy="42.72" rx="1.86" ry="2.07"/><ellipse class="cls-5" cx="106.86" cy="42.72" rx="1.86" ry="2.07"/><line class="cls-6" x1="55.09" y1="79.55" x2="65.89" y2="84.43"/><line class="cls-6" x1="88.53" y1="92.14" x2="86.47" y2="103.81"/><line class="cls-6" x1="119.52" y1="78.06" x2="126.58" y2="87.58"/><line class="cls-6" x1="114.09" y1="113.96" x2="112.93" y2="120.34"/><line class="cls-6" x1="76.34" y1="111.48" x2="77.93" y2="117.86"/><line class="cls-6" x1="131.45" y1="69.59" x2="133.04" y2="75.98"/><line class="cls-7" x1="94.53" y1="81.99" x2="103.7" y2="93.09"/><line class="cls-8" x1="67.52" y1="95.49" x2="65.8" y2="104.91"/><line class="cls-6" x1="107.48" y1="112.3" x2="99.97" y2="117.04"/><line class="cls-6" x1="116.05" y1="102.8" x2="123.38" y2="107.8"/><line class="cls-6" x1="55.95" y1="51.13" x2="65.12" y2="62.22"/><line class="cls-6" x1="69.97" y1="19.01" x2="72.6" y2="33.17"/><line class="cls-6" x1="89.19" y1="4.47" x2="85.89" y2="18.49"/><line class="cls-6" x1="102.14" y1="5.45" x2="105.56" y2="17.31"/><line class="cls-6" x1="117.17" y1="12.62" x2="110.2" y2="27.71"/><line class="cls-6" x1="128.15" y1="15.3" x2="123.16" y2="32.39"/><line class="cls-7" x1="134.76" y1="45.06" x2="132.25" y2="63.26"/><line class="cls-6" x1="80.75" y1="56.64" x2="80.56" y2="72.7"/><line class="cls-6" x1="77.17" y1="83.37" x2="76.97" y2="99.43"/><line class="cls-6" x1="64.13" y1="112.5" x2="71.19" y2="122.03"/><line class="cls-6" x1="113.82" y1="72.9" x2="110.17" y2="82.59"/><line class="cls-6" x1="93.15" y1="111.48" x2="88.4" y2="122.82"/><ellipse class="cls-9" cx="127.87" cy="23.84" rx="3.86" ry="4.96"/><ellipse class="cls-9" cx="134.48" cy="26.87" rx="4.96" ry="3.86" transform="translate(20.39 102.96) rotate(-45)"/><ellipse class="cls-9" cx="134.48" cy="35.4" rx="3.86" ry="4.96" transform="translate(28.31 125.22) rotate(-54.98)"/><ellipse class="cls-9" cx="127.05" cy="38.86" rx="4.13" ry="4.82"/><ellipse class="cls-9" cx="120.71" cy="35.13" rx="4.96" ry="3.86" transform="translate(5.3 84.99) rotate(-39.59)"/><ellipse class="cls-9" cx="120.98" cy="26.87" rx="3.86" ry="4.96" transform="translate(29.55 110.53) rotate(-54.98)"/><circle class="cls-10" cx="127.87" cy="31.01" r="5.24"/><line class="cls-6" x1="126.18" y1="89.6" x2="135.18" y2="97.31"/><line class="cls-6" x1="137.71" y1="81.82" x2="146.7" y2="89.53"/><line class="cls-6" x1="150.34" y1="78.24" x2="149.7" y2="69.39"/><line class="cls-6" x1="150.35" y1="86.57" x2="162.18" y2="87.38"/><line class="cls-6" x1="64.36" y1="82.26" x2="52.51" y2="89.36"/><line class="cls-6" x1="51.96" y1="79.73" x2="47.05" y2="84.12"/><rect class="cls-11" width="200" height="200"/><rect class="cls-1" x="315.34" y="96.18" width="52.91" height="13.5" rx="6.75"/><rect class="cls-1" x="230.73" y="96.47" width="52.91" height="13.5" rx="6.75" transform="matrix(1, -0.07, 0.07, 1, -6.69, 18.56)"/><path class="cls-1" d="M337.79,82.82c-5.78,40.23-17.09,76.06-38.16,76.06S268.07,125,261.46,82.82C255,41.32,278.55,6.76,299.63,6.76S343.77,41.24,337.79,82.82Z"/><polygon class="cls-2" points="326.19 195.53 272.96 195.53 268.51 137.38 331.81 137.38 326.19 195.53"/><polygon class="cls-3" points="336.13 137.38 261.6 137.38 258.99 126.08 339.17 126.08 336.13 137.38"/><path class="cls-4" d="M292.17,63.57c1.93,7.25,8.52,5.73,12.91,3"/><ellipse cx="291.12" cy="46.87" rx="5.85" ry="3.73"/><ellipse class="cls-5" cx="288.3" cy="46.87" rx="2.32" ry="0.86"/><line class="cls-6" x1="255.09" y1="79.55" x2="265.89" y2="84.43"/><line class="cls-6" x1="288.53" y1="92.14" x2="286.47" y2="103.81"/><line class="cls-6" x1="319.52" y1="78.06" x2="326.58" y2="87.58"/><line class="cls-6" x1="314.09" y1="113.96" x2="312.93" y2="120.34"/><line class="cls-6" x1="276.34" y1="111.48" x2="277.93" y2="117.86"/><line class="cls-6" x1="331.45" y1="69.59" x2="333.04" y2="75.98"/><line class="cls-7" x1="294.53" y1="81.99" x2="303.7" y2="93.09"/><line class="cls-8" x1="267.52" y1="95.49" x2="265.8" y2="104.91"/><line class="cls-6" x1="307.48" y1="112.3" x2="299.97" y2="117.04"/><line class="cls-6" x1="316.05" y1="102.8" x2="323.38" y2="107.8"/><line class="cls-6" x1="255.95" y1="51.13" x2="265.12" y2="62.22"/><line class="cls-6" x1="269.97" y1="19.01" x2="272.6" y2="33.17"/><line class="cls-6" x1="289.19" y1="4.47" x2="285.89" y2="18.49"/><line class="cls-6" x1="302.14" y1="5.45" x2="305.56" y2="17.31"/><line class="cls-6" x1="317.17" y1="12.62" x2="310.2" y2="27.71"/><line class="cls-6" x1="328.15" y1="15.3" x2="323.16" y2="32.39"/><line class="cls-7" x1="334.76" y1="45.06" x2="332.25" y2="63.26"/><line class="cls-6" x1="280.75" y1="56.64" x2="280.56" y2="72.7"/><line class="cls-6" x1="277.17" y1="83.37" x2="276.97" y2="99.43"/><line class="cls-6" x1="264.13" y1="112.5" x2="271.19" y2="122.03"/><line class="cls-6" x1="313.82" y1="72.9" x2="310.17" y2="82.59"/><line class="cls-6" x1="293.15" y1="111.48" x2="288.4" y2="122.82"/><ellipse class="cls-9" cx="327.87" cy="23.84" rx="3.86" ry="4.96"/><ellipse class="cls-9" cx="334.48" cy="26.87" rx="4.96" ry="3.86" transform="translate(78.97 244.38) rotate(-45)"/><ellipse class="cls-9" cx="334.48" cy="35.4" rx="3.86" ry="4.96" transform="translate(113.54 289.01) rotate(-54.98)"/><ellipse class="cls-9" cx="327.05" cy="38.86" rx="4.13" ry="4.82"/><ellipse class="cls-9" cx="320.71" cy="35.13" rx="4.96" ry="3.86" transform="translate(51.18 212.44) rotate(-39.59)"/><ellipse class="cls-9" cx="320.98" cy="26.87" rx="3.86" ry="4.96" transform="translate(114.77 274.32) rotate(-54.98)"/><circle class="cls-10" cx="327.87" cy="31.01" r="5.24"/><line class="cls-6" x1="326.37" y1="90.21" x2="327.21" y2="102.03"/><line class="cls-6" x1="340.01" y1="92.93" x2="340.85" y2="104.75"/><line class="cls-6" x1="351.43" y1="99.39" x2="357.28" y2="92.72"/><line class="cls-6" x1="345.52" y1="105.26" x2="353.26" y2="114.24"/><line class="cls-6" x1="259.44" y1="88.7" x2="254.87" y2="101.74"/><line class="cls-6" x1="248.29" y1="94.69" x2="247.32" y2="101.2"/><ellipse cx="309.58" cy="46.86" rx="5.85" ry="3.73"/><ellipse class="cls-5" cx="307.05" cy="46.87" rx="2.32" ry="0.86"/><rect class="cls-1" x="535.04" y="76.48" width="13.5" height="52.91" rx="6.75" transform="translate(85.9 413.25) rotate(-45)"/><rect class="cls-1" x="430.73" y="96.47" width="52.91" height="13.5" rx="6.75" transform="translate(79.73 381.07) rotate(-49.08)"/><path class="cls-1" d="M537.79,82.82c-5.78,40.23-17.09,76.06-38.16,76.06S468.07,125,461.46,82.82C455,41.32,478.55,6.76,499.63,6.76S543.77,41.24,537.79,82.82Z"/><polygon class="cls-2" points="526.19 195.53 472.96 195.53 468.51 137.38 531.81 137.38 526.19 195.53"/><polygon class="cls-3" points="536.13 137.38 461.6 137.38 458.99 126.08 539.17 126.08 536.13 137.38"/><path class="cls-4" d="M492.17,63.57c1.93,7.25,8.52,5.73,12.91,3"/><line class="cls-6" x1="455.09" y1="79.55" x2="465.89" y2="84.43"/><line class="cls-6" x1="488.53" y1="92.14" x2="486.47" y2="103.81"/><line class="cls-6" x1="519.52" y1="78.06" x2="526.58" y2="87.58"/><line class="cls-6" x1="514.09" y1="113.96" x2="512.93" y2="120.34"/><line class="cls-6" x1="476.34" y1="111.48" x2="477.93" y2="117.86"/><line class="cls-6" x1="531.45" y1="69.59" x2="533.04" y2="75.98"/><line class="cls-7" x1="494.53" y1="81.99" x2="503.7" y2="93.09"/><line class="cls-8" x1="467.52" y1="95.49" x2="465.8" y2="104.91"/><line class="cls-6" x1="507.48" y1="112.3" x2="499.97" y2="117.04"/><line class="cls-6" x1="516.05" y1="102.8" x2="523.38" y2="107.8"/><line class="cls-6" x1="455.95" y1="51.13" x2="465.12" y2="62.22"/><line class="cls-6" x1="469.97" y1="19.01" x2="472.6" y2="33.17"/><line class="cls-6" x1="489.19" y1="4.47" x2="485.89" y2="18.49"/><line class="cls-6" x1="502.14" y1="5.45" x2="505.56" y2="17.31"/><line class="cls-6" x1="517.17" y1="12.62" x2="510.2" y2="27.71"/><line class="cls-6" x1="528.15" y1="15.3" x2="523.16" y2="32.39"/><line class="cls-7" x1="534.76" y1="45.06" x2="532.25" y2="63.26"/><line class="cls-6" x1="480.75" y1="56.64" x2="480.56" y2="72.7"/><line class="cls-6" x1="477.17" y1="83.37" x2="476.97" y2="99.43"/><line class="cls-6" x1="464.13" y1="112.5" x2="471.19" y2="122.03"/><line class="cls-6" x1="513.82" y1="72.9" x2="510.17" y2="82.59"/><line class="cls-6" x1="493.15" y1="111.48" x2="488.4" y2="122.82"/><ellipse class="cls-9" cx="527.87" cy="23.84" rx="3.86" ry="4.96"/><ellipse class="cls-9" cx="534.48" cy="26.87" rx="4.96" ry="3.86" transform="translate(137.55 385.81) rotate(-45)"/><ellipse class="cls-9" cx="534.48" cy="35.4" rx="3.86" ry="4.96" transform="translate(198.77 452.8) rotate(-54.98)"/><ellipse class="cls-9" cx="527.05" cy="38.86" rx="4.13" ry="4.82"/><ellipse class="cls-9" cx="520.71" cy="35.13" rx="4.96" ry="3.86" transform="translate(97.05 339.9) rotate(-39.59)"/><ellipse class="cls-9" cx="520.98" cy="26.87" rx="3.86" ry="4.96" transform="translate(200 438.11) rotate(-54.98)"/><circle class="cls-10" cx="527.87" cy="31.01" r="5.24"/><line class="cls-6" x1="539.88" y1="83.03" x2="532.12" y2="91.98"/><line class="cls-6" x1="547.6" y1="94.6" x2="539.84" y2="103.55"/><line class="cls-6" x1="551.11" y1="107.25" x2="559.96" y2="106.66"/><line class="cls-6" x1="542.78" y1="107.22" x2="541.9" y2="119.04"/><line class="cls-6" x1="448.51" y1="91.36" x2="454.5" y2="103.81"/><line class="cls-6" x1="444.86" y1="103.48" x2="448.78" y2="108.77"/><path class="cls-12" d="M505,43.91c2.75,8.24,6.54,2.92,9.11.8"/><path class="cls-12" d="M486.56,43.91c2.75,8.24,6.54,2.92,9.11.8"/></svg>
