<?xml version="1.0" encoding="utf-8"?>
<!-- Generator: Adobe Illustrator 23.0.1, SVG Export Plug-In . SVG Version: 6.00 Build 0)  -->
<svg version="1.1" id="Layer_1" xmlns="http://www.w3.org/2000/svg" xmlns:xlink="http://www.w3.org/1999/xlink" x="0px" y="0px"
	 viewBox="0 0 1400 200" style="enable-background:new 0 0 1400 200;" xml:space="preserve">
<style type="text/css">
	.st0{fill:#754C24;}
	.st1{fill:#9B6237;}
	.st2{fill:#FFFFFF;}
	.st3{fill:#515117;}
	.st4{fill:#EDF728;}
	.st5{fill:#FDFFEB;}
	.st6{fill:#5D7A53;}
	.st7{fill:none;}
</style>
<title>kaktus_sprite2</title>
<polygon class="st0" points="68.5,137.4 73,195.5 126.2,195.5 131.8,137.4 "/>
<polygon class="st1" points="59,126.1 61.6,137.4 68.5,137.4 131.8,137.4 136.1,137.4 139.2,126.1 128.2,126.1 71.1,126.1 "/>
<path d="M106.4,66.3l-14.9-3.4l0.2,0.8c0.7,2.6,2.1,4.4,4,5.2c0.8,0.3,1.7,0.5,2.5,0.5c2.5-0.1,5-0.9,7.1-2.3L106.4,66.3z"/>
<path d="M90.7,54.2c2.6,0,4.7-4,4.7-9s-2.1-9-4.7-9s-4.7,4-4.7,9S88.1,54.2,90.7,54.2z M92.4,40.7c1.1-0.1,2.2,0.7,2.3,1.8
	c0.1,1.1-0.7,2.2-1.8,2.3c-1.1,0.1-2.2-0.7-2.3-1.8c0-0.1,0-0.1,0-0.2C90.5,41.6,91.3,40.7,92.4,40.7z"/>
<path d="M113.8,45.2c0-5-2.1-9-4.7-9s-4.7,4-4.7,9s2.1,9,4.7,9S113.8,50.2,113.8,45.2z M109,42.7c0.1-1,1-1.8,2.1-1.7
	c1,0.1,1.8,1,1.7,2.1c-0.1,0.9-0.9,1.7-1.9,1.7C109.8,44.7,109,43.8,109,42.7z"/>
<path class="st2" d="M92.4,44.8c1.1,0.1,2.2-0.7,2.3-1.8c0.1-1.1-0.7-2.2-1.8-2.3c-1.1-0.1-2.2,0.7-2.3,1.8c0,0.1,0,0.1,0,0.2
	C90.5,43.8,91.3,44.7,92.4,44.8z"/>
<path class="st2" d="M112.7,42.7c-0.1-1-1-1.8-2.1-1.7c-1,0.1-1.8,1-1.7,2.1c0.1,0.9,0.9,1.7,1.9,1.7
	C111.9,44.7,112.8,43.8,112.7,42.7z"/>
<polygon class="st3" points="65.5,85.3 66.3,83.5 61.2,81.2 55.5,78.6 54.7,80.5 61.6,83.6 "/>
<rect x="81.6" y="97" transform="matrix(0.1736 -0.9848 0.9848 0.1736 -24.1865 167.1288)" class="st3" width="11.8" height="2"/>
<path class="st3" d="M123.1,84.2L123.1,84.2c0.4-0.4,0.9-0.8,1.4-1.1l-4.2-5.7l-1.6,1.2l4.3,5.7L123.1,84.2z"/>
<rect x="110.3" y="116.2" transform="matrix(0.1797 -0.9837 0.9837 0.1797 -22.1392 207.7695)" class="st3" width="6.5" height="2"/>
<rect x="76.1" y="111.4" transform="matrix(0.9704 -0.2414 0.2414 0.9704 -25.4011 22.0123)" class="st3" width="2" height="6.6"/>
<rect x="131.3" y="69.5" transform="matrix(0.9704 -0.2416 0.2416 0.9704 -13.6614 34.1059)" class="st3" width="2" height="6.6"/>
<rect x="97.6" y="80.3" transform="matrix(0.7706 -0.6373 0.6373 0.7706 -33.0471 83.2476)" class="st3" width="3" height="14.4"/>
<polygon class="st3" points="69,101.1 68,100.9 66.5,109.3 66.3,110.4 66.8,110.4 67.3,110.5 "/>
<rect x="99.3" y="113.7" transform="matrix(0.8457 -0.5336 0.5336 0.8457 -45.1936 73.0399)" class="st3" width="8.9" height="2"/>
<rect x="118.7" y="100.9" transform="matrix(0.5634 -0.8262 0.8262 0.5634 -34.7301 144.8761)" class="st3" width="2" height="8.9"/>
<polygon class="st3" points="65.9,61.6 61.3,56 56.7,50.5 55.2,51.8 61,58.7 64.3,62.9 "/>
<polygon class="st3" points="73.6,33 72.2,25.8 70.9,18.8 69,19.2 70.7,28.4 71.6,33.3 "/>
<polygon class="st3" points="86.9,18.7 89,9.5 90.2,4.7 88.2,4.2 86.7,10.9 84.9,18.3 "/>
<polygon class="st3" points="106.5,17 103.7,7.2 103.1,5.2 101.2,5.7 101.5,6.8 104.6,17.6 "/>
<polygon class="st3" points="111.1,28.1 117.4,14.5 118.1,13 116.3,12.2 115.8,13.2 109.3,27.3 "/>
<path class="st3" d="M128.1,18.9l1-3.3l-1.9-0.6l-1.3,4.6c0.6-0.5,1.3-0.7,2-0.8C127.9,18.9,128,18.9,128.1,18.9z"/>
<polygon class="st3" points="130.8,63 133.7,63.5 136,47.3 136.2,45.3 135.4,45.2 133.3,44.9 "/>
<rect x="72.6" y="63.7" transform="matrix(1.221695e-02 -0.9999 0.9999 1.221695e-02 15.0039 144.5205)" class="st3" width="16.1" height="2"/>
<rect x="69" y="90.4" transform="matrix(1.221695e-02 -0.9999 0.9999 1.221695e-02 -15.2624 167.3547)" class="st3" width="16.1" height="2"/>
<polygon class="st3" points="72,121.4 68.2,116.4 64.9,111.9 63.3,113.1 69.8,121.8 70.4,122.6 "/>
<rect x="106.8" y="76.7" transform="matrix(0.3522 -0.9359 0.9359 0.3522 -0.2034 155.1915)" class="st3" width="10.4" height="2"/>
<rect x="84.6" y="116.2" transform="matrix(0.3862 -0.9224 0.9224 0.3862 -52.3491 155.6276)" class="st3" width="12.3" height="2"/>
<path class="st4" d="M124.1,24.5c-0.3-0.3-0.6-0.5-0.9-0.8c-2.2-1.6-5.1-1.4-6.3,0.3s-0.4,4.4,1.8,6c0.6,0.4,1.3,0.7,2,0.9
	c-0.9,0.2-1.8,0.6-2.5,1.2c-2.1,1.7-2.7,4.5-1.4,6.1s4,1.5,6.1,0c0,0.2,0,0.4,0,0.6c0,2.7,1.8,4.8,4.1,4.8c2.3,0,4.1-2.2,4.1-4.8
	c0-0.5-0.1-1-0.2-1.5c0.4,0.5,0.8,0.9,1.3,1.3c0.4,0.2,0.7,0.5,1.1,0.6c2,0.8,4.1,0.5,5.1-0.9c1.2-1.7,0.4-4.4-1.9-6
	c-0.8-0.5-1.6-0.9-2.5-1c1.1-0.2,2.2-0.8,3-1.6c1.9-1.9,2.3-4.7,0.8-6.2s-4.3-1.2-6.2,0.8l-0.1,0.1c0-0.1,0-0.2,0-0.4
	c0-2.6-1.6-4.8-3.6-4.9c-0.1,0-0.2,0-0.3,0c-0.7,0-1.4,0.3-2,0.8c-0.8,0.6-1.3,1.5-1.6,2.4c-0.2,0.6-0.3,1.2-0.3,1.8
	C124,24,124,24.2,124.1,24.5z M133.1,31c0,2.9-2.3,5.2-5.2,5.2s-5.2-2.3-5.2-5.2s2.3-5.2,5.2-5.2l0,0
	C130.8,25.8,133.1,28.1,133.1,31z"/>
<circle class="st5" cx="127.9" cy="31" r="5.2"/>
<path class="st6" d="M160.5,112.1l-14.3-14.3l-5.6,6.4l-1.5-1.3l5.7-6.6l-7.8-7.8c0-0.2,0.1-0.4,0.1-0.7l-4.1,4.8l-1.5-1.3l6.2-7.2
	c0.1-0.4,0.1-0.9,0.2-1.3c1.8-11.8,1.1-23.9-1.8-35.5l-2.2,16.2l-3-0.4l2.5-18.2l2.1,0.3c-0.6-2-1.3-4-2-6c-0.4-0.2-0.8-0.4-1.1-0.6
	c-0.5-0.4-1-0.8-1.3-1.3c0.2,0.5,0.2,1,0.2,1.5c0,2.7-1.9,4.8-4.1,4.8s-4.1-2.2-4.1-4.8c0-0.2,0-0.4,0-0.6c-2.1,1.6-4.8,1.6-6.1,0
	s-0.7-4.4,1.4-6.1c0.7-0.6,1.6-1,2.5-1.2c-0.7-0.2-1.4-0.5-2-0.9c-2.2-1.6-3.1-4.3-1.8-6s4-1.9,6.3-0.3c0.3,0.2,0.6,0.5,0.9,0.8
	c0-0.2,0-0.4,0-0.6c0-0.6,0.1-1.2,0.3-1.8c-2-2.8-4.3-5.3-6.9-7.6L111,28.1l-1.8-0.8l6.5-14.1c-3.5-2.9-7.7-5-12.1-6l2.9,9.9
	l-1.9,0.6l-3.1-10.7c-0.6-0.1-1.2-0.1-1.9-0.1c-3.7,0.1-7.4,1-10.6,2.8l-2.2,9.2l-2-0.5l1.7-7.4c-5.8,3.9-10.7,9-14.4,14.9l1.4,7.2
	l-2,0.4l-0.9-5c-4.8,8.5-8,17.9-9.4,27.6l4.6,5.6l-1.5,1.3L61,58.7c-0.8,7.5-0.8,15,0.3,22.5l5.1,2.3l-0.8,1.8l-3.9-1.8
	c0.2,1.2,0.4,2.4,0.6,3.6L52.8,98l2.6,5.4l-1.8,0.9l-2.2-4.6l-4.4,5l2.6,3.5l-1.6,1.2l-2.3-3.2l-6.5,7.5c-2.5,2.8-2.3,7,0.5,9.5
	c2.8,2.5,7,2.3,9.5-0.5c0.1-0.1,0.1-0.1,0.2-0.2l16-18.4c0.4,1.8,0.8,3.5,1.2,5.2l1.4-8.4l1,0.2l-1.7,9.4l-0.5-0.1
	c0.5,2,1,4,1.5,5.9l3.8,5l-1.6,1.2l-0.6-0.8c0.4,1.5,0.9,2.9,1.3,4.3h57.1c2.3-7,4.3-14.2,5.8-21.4l7.5,7.5l0.4-5l2,0.2l-0.5,6.7
	l7.7,7.7c2.6,2.6,6.9,2.6,9.6,0S163.2,114.7,160.5,112.1L160.5,112.1z M78.2,83.4L78,99.4h-2l0.2-16.1L78.2,83.4z M77,118.1
	l-1.6-6.4l1.9-0.5l1.6,6.4L77,118.1z M81.6,72.7h-2l0.2-16.1h2L81.6,72.7z M132.5,69.3l1.5,6.4l-1.9,0.5l-1.6-6.4L132.5,69.3z
	 M120.4,77.5l4.2,5.7c-0.5,0.3-1,0.7-1.4,1.1l0,0l-0.1,0.1l-4.2-5.7L120.4,77.5z M98.4,69.3c-0.9,0-1.7-0.2-2.5-0.5
	c-2-0.8-3.3-2.5-4-5.2l-0.2-0.8l14.9,3.4l-1,0.6C103.3,68.4,100.8,69.2,98.4,69.3L98.4,69.3z M104.9,92.1l-2.3,1.9l-9.3-11l2.3-2
	L104.9,92.1z M90.7,36.2c2.6,0,4.7,4,4.7,9s-2.1,9-4.7,9s-4.7-4-4.7-9S88.1,36.2,90.7,36.2z M85.5,103.6L87.5,92l2,0.3L87.5,104
	L85.5,103.6z M89.3,123.2l-1.8-0.8l4.8-11.3l1.8,0.8L89.3,123.2z M100.5,117.9l-1.1-1.7l7.5-4.7l1.1,1.7L100.5,117.9z M104.5,45.2
	c0-5,2.1-9,4.7-9s4.7,4,4.7,9s-2.1,9-4.7,9S104.4,50.2,104.5,45.2z M109.2,82.2l3.7-9.7l1.9,0.7l-3.6,9.7L109.2,82.2z M113.9,120.5
	l-2-0.4l1.2-6.4l2,0.4L113.9,120.5z M122.8,108.6l-7.3-5l1.1-1.7l7.3,5L122.8,108.6z"/>
<polygon class="st3" points="131.4,91.3 132.9,92.6 137,87.8 140.6,83.7 139.1,82.4 137.6,84.1 "/>
<polygon class="st3" points="140.6,104.2 146.2,97.8 148.4,95.2 146.8,93.9 144.8,96.3 139.1,102.9 "/>
<polygon class="st3" points="141.8,107.2 141.4,112.1 140.9,119 142.9,119.1 143.3,114 143.8,107.3 "/>
<polygon class="st3" points="55.4,103.4 52.8,98 49.4,90.9 47.6,91.8 51.4,99.6 53.6,104.2 "/>
<polygon class="st3" points="49.6,108.2 47,104.7 45.7,102.9 44.1,104.1 45.6,106.2 48,109.4 "/>
<rect x="151.1" y="105.9" transform="matrix(0.9977 -6.749289e-02 6.749289e-02 0.9977 -6.8637 10.741)" class="st3" width="8.9" height="2"/>
<rect class="st7" width="200" height="200"/>
<rect x="400" class="st7" width="200" height="200"/>
<rect x="600" class="st7" width="200" height="200"/>
<rect x="800" class="st7" width="200" height="200"/>
<rect x="1000" class="st7" width="200" height="200"/>
<rect x="1200" class="st7" width="200" height="200"/>
<path class="st6" d="M767.5,94.4c-1.2-3.5-5.1-5.4-8.6-4.2l-2.3,0.8l0.9,0.6l-5,7.3l-1.7-1.1l4.3-6.3l-15.3,5.3l3.3,7.8l-1.8,0.8
	l-3.4-8l-1.5,0.5l0.5-2.8l-0.3-0.6l0.4-0.2c0.6-3.5,1.2-7.1,1.7-10.7c1.7-11.6,1.1-23.5-1.7-34.9l-2,14.6l-3-0.4l2.5-18.2L736,45
	c-0.7-2.2-1.4-4.3-2.2-6.3c-0.1,0-0.2-0.1-0.3-0.2c-0.5-0.4-1-0.8-1.3-1.3c0.2,0.5,0.2,1,0.2,1.5c0,2.7-1.8,4.8-4.1,4.8
	s-4.1-2.2-4.1-4.8c0-0.2,0-0.4,0-0.6c-2.1,1.6-4.8,1.6-6.1,0s-0.8-4.4,1.4-6.1c0.7-0.6,1.6-1,2.5-1.2c-0.7-0.2-1.4-0.5-2-0.9
	c-2.2-1.6-3.1-4.3-1.8-6s4-1.9,6.3-0.3c0.3,0.2,0.6,0.5,0.9,0.8c0-0.2,0-0.4,0-0.6s0-0.4,0-0.6c-2.1-2.8-4.4-5.5-7.1-7.8l-5.9,12.8
	l-1.8-0.8l6.1-13.2c-3.3-2.8-7.2-4.7-11.4-5.8l2.5,8.8l-1.9,0.6l-2.8-9.8c-0.8-0.1-1.7-0.2-2.5-0.2c-3.6,0.1-7.2,1-10.4,2.7l-2,8.4
	l-2-0.5l1.6-6.6c-5.7,3.7-10.5,8.6-14.2,14.4l1.3,6.9l-2,0.4l-0.9-4.8c-4.9,8.4-8.1,17.6-9.6,27.2l4.8,5.8l-1.5,1.3l-3.6-4.4
	c-1,7.5-1,15.1,0,22.5l5.6,2.5l-0.8,1.8l-4.5-2l0.1,0.4c0.7,4.1,1.3,8.1,2,12l-5.7,0.7l-1.7,5.7l-1.9-0.6l1.5-4.9l-6.7,0.8l-0.5,4.3
	l-2-0.2l0.4-3.9l-9.8,1.1c-3.7,0.3-6.5,3.5-6.2,7.3c0.3,3.7,3.5,6.5,7.3,6.2c0.2,0,0.3,0,0.5-0.1l27.5-3.2c0.5,2.1,1,4.1,1.5,6.1
	l4.7,6.3l-1.6,1.2l-1.7-2.2c0.6,2,1.1,3.9,1.7,5.7h57.7c1.3-4,2.5-8.2,3.6-12.6l17.5-6.1l-4.3-2.5l1-1.7l5.8,3.4l10.3-3.6
	C766.8,101.8,768.7,97.9,767.5,94.4z M681.1,56.6h2l-0.2,16.1h-2L681.1,56.6z M679.5,83.4l-0.2,16.1h-2l0.2-16.1H679.5z
	 M667.6,110.4l1.7-9.4l1,0.2l-1.7,9.4L667.6,110.4z M678.3,118.1l-1.6-6.4l1.9-0.5l1.6,6.4L678.3,118.1z M733.7,69.4l1.6,6.4
	l-1.9,0.5l-1.6-6.4L733.7,69.4z M736.2,83.4l1.8,1l-5.7,10.4l-1.8-1L736.2,83.4z M721.6,77.4l7.1,9.6l-1.6,1.2l-7.1-9.5L721.6,77.4z
	 M710.5,36.2c2.6,0,4.7,4,4.7,9s-2.1,9-4.7,9s-4.7-4-4.7-9S707.9,36.2,710.5,36.2z M692,36.2c2.6,0,4.7,4,4.7,9s-2.1,9-4.7,9
	s-4.7-4-4.7-9S689.4,36.2,692,36.2L692,36.2z M686.8,103.6l2.1-11.6l2,0.3l-2.1,11.7L686.8,103.6z M690.6,123.2l-1.8-0.8l4.8-11.3
	l1.8,0.8L690.6,123.2z M694.6,82.9L697,81l9.2,11.1l-2.3,1.9L694.6,82.9z M701.8,117.9l-1.1-1.7l7.5-4.7l1.1,1.7L701.8,117.9z
	 M699.1,70.5c-1.2,0-2.5-0.2-3.6-0.7c-2.8-1.1-4.6-3.6-5.5-7.2l-0.2-0.8l21.3,4.4l-1.1,0.7C706.7,69,703,70.3,699.1,70.5L699.1,70.5
	z M710.5,82.2l3.7-9.7l1.9,0.7l-3.7,9.7L710.5,82.2z M715.2,120.5l-2-0.4l1.2-6.4l2,0.4L715.2,120.5z M717.9,102l7.3,5l-1.1,1.7
	l-7.3-5L717.9,102z"/>
<polygon class="st0" points="669.8,137.4 674.3,195.5 727.5,195.5 733.1,137.4 "/>
<polygon class="st1" points="660.3,126.1 662.9,137.4 669.8,137.4 733.1,137.4 737.4,137.4 740.5,126.1 729.5,126.1 671.8,126.1 "/>
<path d="M692,54.2c2.6,0,4.7-4,4.7-9s-2.1-9-4.7-9s-4.7,4-4.7,9S689.4,54.2,692,54.2z M693.7,40.7c1.1-0.1,2.2,0.7,2.3,1.8
	s-0.7,2.2-1.8,2.3c-1.1,0.1-2.2-0.7-2.3-1.8c0-0.1,0-0.1,0-0.2C691.8,41.6,692.6,40.7,693.7,40.7L693.7,40.7z"/>
<path d="M710.5,54.2c2.6,0,4.7-4,4.7-9s-2.1-9-4.7-9s-4.7,4-4.7,9S707.9,54.2,710.5,54.2z M712.2,40.7c1.1-0.1,2.2,0.7,2.3,1.8
	s-0.7,2.2-1.8,2.3c-1.1,0.1-2.2-0.7-2.3-1.8c0-0.1,0-0.1,0-0.2C710.3,41.6,711.1,40.7,712.2,40.7z"/>
<path class="st2" d="M693.7,44.8c1.1,0.1,2.2-0.7,2.3-1.8s-0.7-2.2-1.8-2.3c-1.1-0.1-2.2,0.7-2.3,1.8c0,0.1,0,0.1,0,0.2
	C691.8,43.8,692.6,44.7,693.7,44.8z"/>
<path class="st2" d="M712.2,44.8c1.1,0.1,2.2-0.7,2.3-1.8s-0.7-2.2-1.8-2.3c-1.1-0.1-2.2,0.7-2.3,1.8c0,0.1,0,0.1,0,0.2
	C710.3,43.8,711.1,44.7,712.2,44.8z"/>
<polygon class="st3" points="667.6,83.5 662,81 656.8,78.6 656,80.5 662.3,83.3 666.8,85.3 "/>
<rect x="682.9" y="97" transform="matrix(0.1736 -0.9848 0.9848 0.1736 472.7184 759.3078)" class="st3" width="11.8" height="2"/>
<rect x="723.4" y="76.9" transform="matrix(0.8034 -0.5954 0.5954 0.8034 93.0681 447.5566)" class="st3" width="2" height="11.8"/>
<rect x="711.5" y="116.1" transform="matrix(0.1807 -0.9835 0.9835 0.1807 470.42 798.9827)" class="st3" width="6.5" height="2"/>
<rect x="677.5" y="111.4" transform="matrix(0.9704 -0.2414 0.2414 0.9704 -7.6184 167.1806)" class="st3" width="2" height="6.6"/>
<rect x="732.6" y="69.5" transform="matrix(0.9704 -0.2414 0.2414 0.9704 4.1232 179.2454)" class="st3" width="2" height="6.6"/>
<rect x="698.9" y="80.3" transform="matrix(0.7706 -0.6373 0.6373 0.7706 104.8805 466.4441)" class="st3" width="3" height="14.4"/>
<rect x="664.1" y="105.2" transform="matrix(0.1795 -0.9838 0.9838 0.1795 444.8407 744.8026)" class="st3" width="9.6" height="1"/>
<rect x="700.6" y="113.7" transform="matrix(0.8459 -0.5333 0.5333 0.8459 47.4737 393.6795)" class="st3" width="8.9" height="2"/>
<rect x="720.1" y="100.9" transform="matrix(0.5635 -0.8261 0.8261 0.5635 227.6991 641.6439)" class="st3" width="2" height="8.9"/>
<polygon class="st3" points="667.2,61.6 662.4,55.8 658,50.5 656.5,51.8 662,58.5 665.7,62.9 "/>
<polygon class="st3" points="674.9,33 673.6,26.1 672.3,18.8 670.3,19.2 672,28.6 672.9,33.3 "/>
<polygon class="st3" points="688.2,18.7 690.2,10.3 691.5,4.7 689.5,4.2 687.8,11.6 686.2,18.3 "/>
<polygon class="st3" points="707.8,17 705.3,8.2 704.4,5.2 702.5,5.7 703.1,7.8 705.9,17.6 "/>
<polygon class="st3" points="712.4,28.1 718.3,15.4 719.4,13 717.6,12.2 716.7,14.1 710.6,27.3 "/>
<path class="st3" d="M729.5,18.9l1-3.3l-2-0.6l-1.3,4.6c0.6-0.5,1.3-0.7,2-0.8C729.3,18.9,729.4,18.9,729.5,18.9z"/>
<polygon class="st3" points="732.1,63 735,63.5 737.1,48.8 737.6,45.3 736,45.1 734.6,44.9 "/>
<rect x="673.9" y="63.7" transform="matrix(1.221695e-02 -0.9999 0.9999 1.221695e-02 608.9788 745.8066)" class="st3" width="16.1" height="2"/>
<rect x="670.4" y="90.4" transform="matrix(1.221695e-02 -0.9999 0.9999 1.221695e-02 578.7126 768.621)" class="st3" width="16.1" height="2"/>
<polygon class="st3" points="673.3,121.4 668.6,115.1 666.2,111.9 664.6,113.1 670,120.4 671.7,122.6 "/>
<rect x="708.2" y="76.8" transform="matrix(0.3522 -0.9359 0.9359 0.3522 389.3446 718.024)" class="st3" width="10.4" height="2"/>
<rect x="685.9" y="116.1" transform="matrix(0.3861 -0.9225 0.9225 0.3861 316.8344 710.3524)" class="st3" width="12.3" height="2"/>
<path class="st4" d="M725.4,24.5c-0.3-0.3-0.6-0.5-0.9-0.8c-2.2-1.6-5-1.4-6.3,0.3s-0.4,4.4,1.8,6c0.6,0.4,1.3,0.7,2,0.9
	c-0.9,0.2-1.8,0.6-2.5,1.2c-2.1,1.7-2.7,4.5-1.4,6.1s4,1.5,6.1,0c0,0.2,0,0.4,0,0.6c0,2.7,1.8,4.8,4.1,4.8s4.1-2.2,4.1-4.8
	c0-0.5-0.1-1-0.2-1.5c0.4,0.5,0.8,0.9,1.3,1.3c0.1,0.1,0.2,0.1,0.3,0.2c2.2,1.4,4.8,1.2,6-0.5s0.4-4.4-1.8-6c-0.8-0.5-1.6-0.9-2.5-1
	c1.1-0.2,2.2-0.8,3-1.6c1.9-1.9,2.3-4.7,0.8-6.2s-4.3-1.2-6.2,0.8l-0.1,0.1c0-0.1,0-0.2,0-0.4c0-2.6-1.6-4.8-3.6-4.9
	c-0.1,0-0.2,0-0.3,0c-0.7,0-1.4,0.3-2,0.8c-1,0.9-1.7,2.2-1.8,3.5c0,0.2,0,0.4,0,0.6S725.4,24.2,725.4,24.5z M734.4,31
	c0,2.9-2.3,5.2-5.2,5.2s-5.2-2.3-5.2-5.2s2.3-5.2,5.2-5.2c0,0,0,0,0,0C732,25.7,734.4,28.1,734.4,31C734.4,31,734.4,31,734.4,31
	L734.4,31z"/>
<circle class="st5" cx="729.2" cy="31" r="5.2"/>
<rect x="728.2" y="88.1" transform="matrix(0.4808 -0.8768 0.8768 0.4808 303.0637 689.9543)" class="st3" width="11.8" height="2"/>
<polygon class="st3" points="736.9,95.2 737.9,97.5 741.3,105.5 743.1,104.7 739.8,96.9 738.5,93.8 737,94.4 736.6,94.6 "/>
<polygon class="st3" points="746.3,104.9 750.6,107.4 756.5,110.9 757.5,109.2 753.1,106.6 747.3,103.2 "/>
<polygon class="st3" points="657,102.1 658.8,96.4 661,88.9 659.1,88.3 656.6,96.6 655.1,101.6 "/>
<polygon class="st3" points="649.5,101.7 649.9,97.4 650.2,95.2 648.2,95 647.9,97.6 647.5,101.5 "/>
<polygon class="st3" points="752.5,99 757.5,91.6 756.6,91.1 755.8,90.5 755.1,91.6 750.8,97.8 "/>
<path d="M689.7,61.8l0.2,0.8c0.9,3.7,2.8,6.1,5.5,7.2c1.2,0.4,2.4,0.7,3.6,0.7c3.9-0.2,7.6-1.5,10.8-3.6l1.1-0.7L689.7,61.8z"/>
<path class="st6" d="M965.1,86.6L965.1,86.6c-2.3-2.9-6.6-3.4-9.5-1.1l-1.9,1.5l1,0.3l-2.3,8.6l-1.9-0.5l1.9-7.3l-12.7,10.1l5.8,6.3
	l-1.5,1.4l-5.9-6.4l-0.2,0.2l0.1-0.3l-2-2.2l1.5-1.4l1,1.1c0.8-4.3,1.5-8.7,2.1-13.1c1.7-11.6,1.1-23.4-1.7-34.8l-2,14.6l-3-0.4
	l2.5-18.2l1.5,0.2c-0.7-2.2-1.4-4.3-2.2-6.3l-0.3-0.2c-0.5-0.4-1-0.8-1.3-1.3c0.2,0.5,0.2,1,0.2,1.5c0,2.7-1.8,4.8-4.1,4.8
	s-4.1-2.2-4.1-4.8c0-0.2,0-0.4,0-0.6c-2.1,1.6-4.8,1.6-6.1,0s-0.7-4.4,1.4-6.1c0.7-0.6,1.6-1,2.5-1.2c-0.7-0.2-1.4-0.5-2-0.9
	c-2.2-1.6-3.1-4.3-1.8-6s4-1.9,6.3-0.3c0.3,0.2,0.6,0.5,0.9,0.8c0-0.2,0-0.4,0-0.6s0-0.4,0-0.6c-2.1-2.8-4.4-5.5-7.1-7.8l-5.9,12.8
	l-1.8-0.8l6.1-13.2c-3.3-2.8-7.2-4.8-11.4-5.8l2.5,8.8l-1.9,0.6L905,7.8c-0.8-0.1-1.7-0.2-2.5-0.2c-3.6,0.1-7.2,1-10.4,2.7l-2,8.4
	l-1.9-0.5l1.5-6.6c-5.7,3.7-10.5,8.6-14.2,14.4l1.3,6.9l-2,0.4l-0.8-4.8c-4.9,8.4-8.1,17.6-9.6,27.2l4.8,5.8l-1.5,1.3l-3.6-4.4
	c-1,7.5-1,15.1,0,22.5l5.6,2.5l-0.8,1.8l-4.5-2c0,0.1,0,0.2,0,0.4c0.3,2,0.6,3.9,1,5.8l1,0.7l-0.7,1.1c0.4,2.1,0.8,4.2,1.2,6.3
	l-4.8-0.9l-3.4,5l-1.7-1.1l2.9-4.2l-6.6-1.3l-1.8,4l-1.8-0.8l1.6-3.6l-9.7-1.9c-3.7-0.7-7.2,1.7-7.9,5.3c-0.7,3.7,1.7,7.2,5.3,7.9
	l30.9,6c0.3,1.1,0.5,2.1,0.8,3.2l4.7,6.3l-1.6,1.2l-1.6-2.2c0.5,2,1.1,3.9,1.7,5.7h57.7c0.6-1.7,1.1-3.5,1.6-5.3l0.2-0.2l20.3-16.2
	l-4.9-0.9l0.4-2l6.6,1.2l8.4-6.7C966.9,93.8,967.4,89.5,965.1,86.6z M883,56.6h2l-0.2,16.1h-2L883,56.6z M879.4,83.4h2l-0.2,16.1h-2
	L879.4,83.4z M872.3,101.1l-1.7,9.4l-1-0.2l1.7-9.4L872.3,101.1z M880.3,118.1l-1.6-6.4l1.9-0.5l1.6,6.4L880.3,118.1z M935.7,69.4
	l1.6,6.4l-1.9,0.5l-1.6-6.4L935.7,69.4z M938.1,83.4l1.8,1l-5.7,10.4l-1.8-1L938.1,83.4z M923.6,77.4l7,9.6l-1.6,1.2l-7-9.5
	L923.6,77.4z M907.2,67c-2.1,1.4-4.6,2.2-7.1,2.3c-0.9,0-1.7-0.1-2.5-0.4c-2-0.8-3.3-2.5-4-5.2l-0.2-0.8l14.9,3.4L907.2,67z
	 M908.1,92.2l-2.3,1.9L896.6,83l2.3-2L908.1,92.2z M893.9,36.2c2.6,0,4.7,4,4.7,9s-2.1,9-4.7,9s-4.7-4-4.7-9S891.3,36.2,893.9,36.2z
	 M888.7,103.6l2.1-11.6l2,0.3l-2.1,11.7L888.7,103.6z M892.6,123.2l-1.8-0.8l4.8-11.3l1.8,0.8L892.6,123.2z M903.7,117.9l-1.1-1.7
	l7.5-4.7l1.1,1.7L903.7,117.9z M907.7,45.2c0-5,2.1-9,4.7-9s4.7,4,4.7,9s-2.1,9-4.7,9S907.7,50.2,907.7,45.2L907.7,45.2z
	 M912.5,82.2l3.7-9.7l1.9,0.7l-3.7,9.7L912.5,82.2z M917.1,120.5l-2-0.4l1.2-6.4l2,0.4L917.1,120.5z M919.8,101.9l7.3,5l-1.2,1.7
	l-7.3-5L919.8,101.9z"/>
<polygon class="st0" points="871.7,137.4 876.2,195.5 929.4,195.5 935,137.4 "/>
<polygon class="st1" points="862.2,126.1 864.8,137.4 871.7,137.4 935,137.4 939.4,137.4 942.4,126.1 931.4,126.1 873.7,126.1 "/>
<path d="M893.9,54.2c2.6,0,4.7-4,4.7-9s-2.1-9-4.7-9s-4.7,4-4.7,9S891.3,54.2,893.9,54.2z M895.6,40.7c1.1-0.1,2.2,0.7,2.3,1.8
	s-0.7,2.2-1.8,2.3c-1.1,0.1-2.2-0.7-2.3-1.8c0-0.1,0-0.1,0-0.2C893.7,41.6,894.5,40.7,895.6,40.7z"/>
<path d="M917,45.2c0-5-2.1-9-4.7-9s-4.7,4-4.7,9s2.1,9,4.7,9S917,50.2,917,45.2z M912.2,42.7c0.1-1,1-1.8,2.1-1.7
	c1,0.1,1.8,1,1.7,2.1c-0.1,0.9-0.9,1.7-1.9,1.7C913,44.7,912.2,43.8,912.2,42.7z"/>
<path class="st2" d="M895.6,44.8c1.1,0.1,2.2-0.7,2.3-1.8s-0.7-2.2-1.8-2.3c-1.1-0.1-2.2,0.7-2.3,1.8c0,0.1,0,0.1,0,0.2
	C893.7,43.8,894.5,44.7,895.6,44.8z"/>
<path class="st2" d="M916,42.7c-0.1-1-1-1.8-2.1-1.7c-1,0.1-1.8,1-1.7,2.1c0.1,0.9,0.9,1.7,1.9,1.7C915.2,44.7,916,43.8,916,42.7z"
	/>
<polygon class="st3" points="869.5,83.5 863.9,81 858.7,78.6 857.9,80.5 864.3,83.3 868.7,85.3 "/>
<rect x="884.8" y="97" transform="matrix(0.1736 -0.9848 0.9848 0.1736 639.5691 958.1677)" class="st3" width="11.8" height="2"/>
<rect x="925.3" y="76.9" transform="matrix(0.8034 -0.5954 0.5954 0.8034 132.7574 567.7771)" class="st3" width="2" height="11.8"/>
<rect x="913.5" y="116.1" transform="matrix(0.1807 -0.9835 0.9835 0.1807 635.9341 997.5963)" class="st3" width="6.5" height="2"/>
<rect x="879.4" y="111.5" transform="matrix(0.9705 -0.2411 0.2411 0.9705 -1.697 215.6193)" class="st3" width="2" height="6.6"/>
<rect x="934.5" y="69.5" transform="matrix(0.9704 -0.2414 0.2414 0.9704 10.0946 227.9912)" class="st3" width="2" height="6.6"/>
<rect x="900.8" y="80.3" transform="matrix(0.7706 -0.6373 0.6373 0.7706 151.1875 595.1346)" class="st3" width="3" height="14.4"/>
<rect x="866.1" y="105.3" transform="matrix(0.1795 -0.9838 0.9838 0.1795 610.5654 943.5583)" class="st3" width="9.6" height="1"/>
<rect x="902.5" y="113.7" transform="matrix(0.8459 -0.5333 0.5333 0.8459 78.5866 501.3714)" class="st3" width="8.9" height="2"/>
<rect x="921.9" y="100.8" transform="matrix(0.5593 -0.829 0.829 0.5593 319.4521 811.4669)" class="st3" width="2" height="8.9"/>
<polygon class="st3" points="869.1,61.6 864.3,55.8 859.9,50.5 858.4,51.8 863.9,58.5 867.6,62.9 "/>
<polygon class="st3" points="876.8,33 875.5,26.1 874.2,18.8 872.2,19.2 874,28.6 874.8,33.3 "/>
<polygon class="st3" points="890.1,18.7 892.1,10.3 893.4,4.7 891.4,4.2 889.7,11.6 888.2,18.3 "/>
<polygon class="st3" points="909.8,17 907.2,8.2 906.3,5.2 904.4,5.7 905,7.8 907.8,17.6 "/>
<polygon class="st3" points="914.3,28.1 920.2,15.4 921.3,13 919.5,12.2 918.6,14.1 912.5,27.3 "/>
<path class="st3" d="M931.4,18.9l1-3.3l-1.9-0.6l-1.3,4.6c0.6-0.5,1.3-0.8,2-0.8C931.2,18.9,931.3,18.9,931.4,18.9z"/>
<polygon class="st3" points="934,63 937,63.5 939,48.8 939.5,45.3 938,45.1 936.5,44.9 "/>
<rect x="875.9" y="63.7" transform="matrix(1.221695e-02 -0.9999 0.9999 1.221695e-02 808.4338 947.7036)" class="st3" width="16.1" height="2"/>
<rect x="872.3" y="90.4" transform="matrix(1.221695e-02 -0.9999 0.9999 1.221695e-02 778.1675 970.5178)" class="st3" width="16.1" height="2"/>
<polygon class="st3" points="875.2,121.4 870.5,115.1 868.2,111.9 866.5,113.1 872,120.4 873.6,122.6 "/>
<rect x="910.1" y="76.8" transform="matrix(0.3522 -0.9359 0.9359 0.3522 520.1542 907.0176)" class="st3" width="10.4" height="2"/>
<rect x="887.9" y="116.1" transform="matrix(0.3861 -0.9225 0.9225 0.3861 440.7905 896.6117)" class="st3" width="12.3" height="2"/>
<path class="st4" d="M927.3,24.5c-0.3-0.3-0.6-0.5-0.9-0.8c-2.2-1.6-5.1-1.4-6.3,0.3s-0.4,4.4,1.8,6c0.6,0.4,1.3,0.7,2,0.9
	c-0.9,0.2-1.8,0.6-2.5,1.2c-2.1,1.7-2.7,4.5-1.4,6.1s4,1.5,6.1,0c0,0.2,0,0.4,0,0.6c0,2.7,1.8,4.8,4.1,4.8s4.1-2.2,4.1-4.8
	c0-0.5-0.1-1-0.2-1.5c0.4,0.5,0.8,0.9,1.3,1.3l0.3,0.2c2.2,1.4,4.8,1.2,6-0.5s0.4-4.4-1.8-6c-0.8-0.5-1.6-0.9-2.5-1
	c1.1-0.2,2.2-0.8,3-1.6c1.9-1.9,2.3-4.7,0.8-6.2s-4.3-1.2-6.2,0.8l-0.1,0.1c0-0.1,0-0.2,0-0.4c0-2.6-1.6-4.8-3.6-4.9
	c-0.1,0-0.2,0-0.3,0c-0.7,0-1.4,0.3-2,0.8c-1,0.9-1.7,2.2-1.8,3.5c0,0.2,0,0.4,0,0.6S927.3,24.2,927.3,24.5z M936.3,31
	c0,2.9-2.3,5.2-5.2,5.2s-5.2-2.3-5.2-5.2s2.3-5.2,5.2-5.2l0,0C934,25.8,936.3,28.1,936.3,31z"/>
<circle class="st5" cx="931.1" cy="31" r="5.2"/>
<rect x="930.2" y="88.1" transform="matrix(0.4808 -0.8768 0.8768 0.4808 407.9354 867.0876)" class="st3" width="11.8" height="2"/>
<polygon class="st3" points="936,97.1 938.1,99.2 938.2,99.4 944.1,105.8 945.5,104.4 939.8,98.1 938.5,96.8 937.5,95.7 "/>
<polygon class="st3" points="948.6,103.6 953.5,104.5 960.2,105.8 960.6,103.8 955.5,102.8 949,101.6 "/>
<polygon class="st3" points="858.5,101.6 861.9,96.7 865.6,91.3 866.3,90.2 865.3,89.5 864.7,89.1 859.8,96.2 856.8,100.5 "/>
<polygon class="st3" points="851.4,98.9 853.2,94.9 854.1,92.9 852.2,92.1 851.2,94.6 849.6,98.2 "/>
<polygon class="st3" points="952.5,95.9 954.7,87.3 953.7,87 952.8,86.8 952.5,88.1 950.5,95.4 "/>
<path d="M893.4,62.9l0.2,0.8c0.7,2.7,2.1,4.4,4,5.2c0.8,0.3,1.7,0.4,2.5,0.4c2.5-0.1,5-0.9,7.1-2.3l1-0.6L893.4,62.9z"/>
<path class="st6" d="M1160.8,81.6c-3-2.2-7.2-1.5-9.4,1.6l-1.4,2h1l0.2,8.9h-2l-0.1-7.6l-9.4,13.2l7.3,4.5l-1,1.7l-10.1-6.2l1-1.7
	l2.3,1.4c1-5.1,1.8-10.3,2.6-15.6c1.7-11.6,1.1-23.5-1.7-34.9l-2,14.6l-3-0.4l2.5-18.2l1.4,0.2c-0.7-2.2-1.4-4.3-2.2-6.3
	c-0.1,0-0.2-0.1-0.3-0.2c-0.5-0.4-1-0.8-1.3-1.3c0.2,0.5,0.2,1,0.2,1.6c0,2.7-1.8,4.8-4.1,4.8s-4.1-2.2-4.1-4.8c0-0.2,0-0.4,0-0.6
	c-2.1,1.6-4.8,1.6-6.1,0s-0.7-4.4,1.4-6.1c0.7-0.6,1.6-1,2.5-1.2c-0.7-0.2-1.4-0.5-1.9-0.9c-2.2-1.6-3.1-4.3-1.8-6s4-1.9,6.3-0.3
	c0.3,0.2,0.6,0.5,0.9,0.8c0-0.2,0-0.4,0-0.6c0-0.2,0-0.4,0.1-0.6c-2.1-2.8-4.4-5.5-7.1-7.8l-5.9,12.8l-1.8-0.8l6.1-13.2
	c-3.3-2.8-7.2-4.8-11.4-5.8l2.5,8.8l-1.9,0.6l-2.8-9.8c-0.8-0.1-1.7-0.2-2.5-0.2c-3.6,0.1-7.2,1-10.4,2.7l-2,8.4l-2-0.5l1.6-6.6
	c-5.7,3.7-10.5,8.6-14.2,14.4l1.3,6.9l-2,0.4l-0.9-4.8c-4.9,8.4-8.2,17.6-9.6,27.2l4.8,5.8l-1.5,1.3l-3.6-4.4c-1,7.5-1,15.1,0,22.5
	l5.6,2.5l-0.8,1.8l-4.4-2c0,0.1,0,0.2,0,0.4c0.5,3.4,1.1,6.7,1.7,9.9l2.8-1.9l1.2,1.6l-3.5,2.5c0.3,1.4,0.5,2.9,0.8,4.3l-3.7-2.3
	l-4.9,3.4l-1.1-1.6l4.2-3l-5.7-3.5l-3,3.1l-1.4-1.4l2.7-2.8l-8.4-5.2c-3.2-2-7.3-1-9.3,2.2c-2,3.2-1,7.3,2.2,9.3l0,0l31.3,19.3
	l-3.4-4.6l1.6-1.2l7.1,9.5l-1.6,1.2l-1.7-2.2c0.6,2,1.1,3.9,1.7,5.7h57.7c0-0.1,0.1-0.3,0.1-0.4c2.6,0.6,5.3-0.5,6.9-2.7l15.2-21
	l-5,0.4l-0.2-2l6.7-0.6l6.3-8.8C1164.5,88,1163.8,83.8,1160.8,81.6C1160.8,81.6,1160.8,81.6,1160.8,81.6z M1080.3,83.4h2l-0.2,16.1
	h-2L1080.3,83.4z M1072.2,100.9l1,0.2l-1.7,9.4l-1-0.2L1072.2,100.9z M1081.1,118.1l-1.6-6.4l1.9-0.5l1.6,6.4L1081.1,118.1z
	 M1085.7,72.7h-2l0.2-16.1h2L1085.7,72.7z M1136.6,69.3l1.6,6.4l-2,0.5l-1.6-6.4L1136.6,69.3z M1139,83.3l1.8,1l-5.7,10.4l-1.8-1
	L1139,83.3z M1124.5,77.4l7,9.5l-1.6,1.2l-7.1-9.5L1124.5,77.4z M1106.5,66.3l-1,0.6c-2.1,1.4-4.6,2.2-7.1,2.3
	c-0.9,0-1.7-0.1-2.5-0.4c-2-0.8-3.3-2.5-4.1-5.2l-0.2-0.8L1106.5,66.3z M1109,92.1l-2.3,1.9l-9.2-11l2.3-1.9L1109,92.1z
	 M1094.8,36.2c2.6,0,4.7,4,4.7,9s-2.1,9-4.7,9s-4.7-4-4.7-9S1092.2,36.2,1094.8,36.2L1094.8,36.2z M1089.6,103.6l2-11.7l2,0.3
	l-2,11.7L1089.6,103.6z M1093.4,123.2l-1.8-0.8l4.8-11.3l1.8,0.8L1093.4,123.2z M1104.6,117.8l-1.1-1.7l7.5-4.7l1.1,1.7
	L1104.6,117.8z M1108.5,45.2c0-5,2.1-9,4.7-9s4.7,4,4.7,9s-2.1,9-4.7,9S1108.6,50.2,1108.5,45.2L1108.5,45.2z M1113.3,82.2l3.6-9.7
	l1.9,0.7l-3.6,9.7L1113.3,82.2z M1118,120.4l-2-0.4l1.2-6.4l2,0.4L1118,120.4z M1119.6,103.5l1.1-1.7l7.3,5l-1.1,1.7L1119.6,103.5z"
	/>
<polygon class="st0" points="1072.7,137.4 1077.1,195.5 1130.3,195.5 1136,137.4 "/>
<polygon class="st1" points="1063.1,126.1 1065.8,137.4 1072.7,137.4 1136,137.4 1140.3,137.4 1143.3,126.1 1132.3,126.1
	1074.6,126.1 "/>
<path d="M1094.8,54.2c2.6,0,4.7-4,4.7-9s-2.1-9-4.7-9s-4.7,4-4.7,9S1092.2,54.2,1094.8,54.2z M1096.5,40.7c1.1-0.1,2.2,0.7,2.3,1.8
	c0.1,1.1-0.7,2.2-1.8,2.3c-1.1,0.1-2.2-0.7-2.3-1.8c0-0.1,0-0.1,0-0.2C1094.6,41.6,1095.5,40.7,1096.5,40.7L1096.5,40.7z"/>
<path d="M1118,45.2c0-5-2.1-9-4.7-9s-4.7,4-4.7,9s2.1,9,4.7,9S1118,50.2,1118,45.2z M1113.2,42.7c0.1-1,1-1.8,2.1-1.7
	c1,0.1,1.8,1,1.7,2.1c-0.1,0.9-0.9,1.7-1.9,1.7C1114,44.7,1113.1,43.8,1113.2,42.7L1113.2,42.7z"/>
<path class="st2" d="M1096.6,44.8c1.1,0.1,2.2-0.7,2.3-1.8c0.1-1.1-0.7-2.2-1.8-2.3c-1.1-0.1-2.2,0.7-2.3,1.8c0,0.1,0,0.1,0,0.2
	C1094.6,43.8,1095.5,44.7,1096.6,44.8z"/>
<path class="st2" d="M1116.9,42.7c-0.1-1-1-1.8-2.1-1.7c-1,0.1-1.8,1-1.7,2.1c0.1,0.9,0.9,1.7,1.9,1.7
	C1116.1,44.7,1116.9,43.8,1116.9,42.7z"/>
<polygon class="st3" points="1070.4,83.5 1064.9,81 1059.7,78.6 1058.8,80.5 1065.2,83.3 1069.6,85.3 "/>
<rect x="1085.7" y="97" transform="matrix(0.1736 -0.9848 0.9848 0.1736 805.5967 1156.0366)" class="st3" width="11.8" height="2"/>
<rect x="1126.2" y="76.9" transform="matrix(0.8034 -0.5954 0.5954 0.8034 172.2461 687.4011)" class="st3" width="2" height="11.8"/>
<rect x="1114.4" y="116.1" transform="matrix(0.1807 -0.9835 0.9835 0.1807 800.5558 1195.1284)" class="st3" width="6.5" height="2"/>
<rect x="1080.3" y="111.5" transform="matrix(0.9705 -0.2411 0.2411 0.9705 4.2258 264.0575)" class="st3" width="2" height="6.6"/>
<rect x="1135.4" y="69.5" transform="matrix(0.9704 -0.2414 0.2414 0.9704 16.0363 276.498)" class="st3" width="2" height="6.6"/>
<rect x="1101.7" y="80.3" transform="matrix(0.7706 -0.6373 0.6373 0.7706 197.3145 723.1282)" class="st3" width="3" height="14.4"/>
<rect x="1067.1" y="105.3" transform="matrix(0.1795 -0.9838 0.9838 0.1795 775.4301 1141.2305)" class="st3" width="9.6" height="1"/>
<rect x="1103.4" y="113.6" transform="matrix(0.8459 -0.5333 0.5333 0.8459 109.5659 608.4872)" class="st3" width="8.9" height="2"/>
<rect x="1122.8" y="100.8" transform="matrix(0.5635 -0.8261 0.8261 0.5635 403.5834 974.3076)" class="st3" width="2" height="8.9"/>
<polygon class="st3" points="1070,61.6 1065.2,55.8 1060.9,50.5 1059.3,51.8 1064.9,58.5 1068.5,62.9 "/>
<polygon class="st3" points="1077.7,33 1076.4,26.1 1075.1,18.8 1073.1,19.2 1074.9,28.6 1075.8,33.3 "/>
<polygon class="st3" points="1091,18.7 1093,10.3 1094.3,4.7 1092.4,4.2 1090.6,11.6 1089.1,18.3 "/>
<polygon class="st3" points="1110.7,17 1108.1,8.2 1107.2,5.2 1105.3,5.7 1105.9,7.8 1108.8,17.6 "/>
<polygon class="st3" points="1115.3,28.1 1121.1,15.4 1122.2,13 1120.4,12.2 1119.6,14.1 1113.4,27.3 "/>
<path class="st3" d="M1132.3,18.9l1-3.3l-1.9-0.6l-1.4,4.6c0.6-0.5,1.3-0.7,2-0.8C1132.1,18.9,1132.2,18.9,1132.3,18.9z"/>
<polygon class="st3" points="1134.9,63 1137.9,63.5 1139.9,48.8 1140.4,45.3 1138.9,45.1 1137.4,44.9 "/>
<rect x="1076.8" y="63.7" transform="matrix(1.221695e-02 -0.9999 0.9999 1.221695e-02 1006.8989 1148.618)" class="st3" width="16.1" height="2"/>
<rect x="1073.2" y="90.4" transform="matrix(1.221695e-02 -0.9999 0.9999 1.221695e-02 976.6324 1171.4325)" class="st3" width="16.1" height="2"/>
<polygon class="st3" points="1076.1,121.4 1069.1,111.9 1067.5,113.1 1070.9,117.7 1072.9,120.4 1074.5,122.6 "/>
<rect x="1110.9" y="76.8" transform="matrix(0.3522 -0.9359 0.9359 0.3522 650.2612 1094.9707)" class="st3" width="10.4" height="2"/>
<rect x="1088.7" y="116.1" transform="matrix(0.3861 -0.9225 0.9225 0.3861 564.1154 1081.9104)" class="st3" width="12.3" height="2"/>
<path class="st4" d="M1128.2,24.5c-0.3-0.3-0.6-0.5-0.9-0.8c-2.2-1.6-5.1-1.4-6.3,0.3s-0.4,4.4,1.8,6c0.6,0.4,1.3,0.7,1.9,0.9
	c-0.9,0.2-1.8,0.6-2.5,1.2c-2.1,1.7-2.7,4.5-1.4,6.1s4,1.5,6.1,0c0,0.2,0,0.4,0,0.6c0,2.7,1.8,4.8,4.1,4.8s4.1-2.2,4.1-4.8
	c0-0.5-0.1-1.1-0.2-1.6c0.4,0.5,0.8,0.9,1.3,1.3c0.1,0.1,0.2,0.1,0.3,0.2c2.2,1.4,4.8,1.2,6-0.5s0.4-4.4-1.8-6
	c-0.8-0.5-1.6-0.9-2.5-1c1.1-0.2,2.2-0.8,3-1.6c1.9-1.9,2.3-4.7,0.8-6.2s-4.3-1.2-6.2,0.8l-0.1,0.1c0-0.1,0-0.2,0-0.4
	c0-2.6-1.6-4.8-3.6-4.9c-0.1,0-0.2,0-0.3,0c-0.7,0-1.4,0.3-2,0.8c-1,0.9-1.7,2.2-1.8,3.5c0,0.2-0.1,0.4-0.1,0.6
	C1128.2,24,1128.2,24.2,1128.2,24.5z M1137.2,31c0,2.9-2.3,5.2-5.2,5.2s-5.2-2.3-5.2-5.2s2.3-5.2,5.2-5.2l0,0
	C1134.9,25.7,1137.2,28.1,1137.2,31C1137.3,31,1137.3,31,1137.2,31L1137.2,31z"/>
<circle class="st5" cx="1132" cy="31" r="5.2"/>
<rect x="1131.1" y="88.1" transform="matrix(0.4808 -0.8768 0.8768 0.4808 512.2023 1043.1576)" class="st3" width="11.8" height="2"/>
<polygon class="st3" points="1135.7,99.6 1145.7,105.8 1146.8,104.1 1139.5,99.6 1139,99.3 1136.7,97.8 "/>
<polygon class="st3" points="1149.5,102.4 1154.4,102 1161.3,101.3 1161.1,99.4 1156,99.8 1149.3,100.4 "/>
<polygon class="st3" points="1059.5,101.2 1064.4,97.8 1067.3,95.8 1070.8,93.3 1069.7,91.7 1066.9,93.6 1062.6,96.7 1058.3,99.6
	"/>
<polygon class="st3" points="1053.8,96.3 1056.9,93.1 1058.4,91.6 1057,90.2 1055.1,92.1 1052.4,94.9 "/>
<polygon class="st3" points="1151.1,94 1151,85.1 1149.9,85.1 1149,85.1 1149,86.4 1149.1,94 "/>
<path d="M1091.8,63.7c0.7,2.6,2.1,4.4,4.1,5.2c0.8,0.3,1.6,0.4,2.5,0.4c2.5-0.1,5-0.9,7.1-2.3l1-0.6l-14.9-3.4L1091.8,63.7z"/>
<polygon class="st0" points="268.5,137.4 272.9,195.5 326.2,195.5 331.8,137.4 "/>
<polygon class="st1" points="259,126.1 261.6,137.4 268.5,137.4 331.8,137.4 336.1,137.4 339.1,126.1 328.2,126.1 271.1,126.1 "/>
<path d="M290.6,54.2c2.6,0,4.7-4,4.7-9s-2.1-9-4.7-9s-4.7,4-4.7,9S288,54.2,290.6,54.2z M292.4,40.7c1.1-0.1,2.2,0.7,2.3,1.8
	c0.1,1.1-0.7,2.2-1.8,2.3s-2.2-0.7-2.3-1.8c0-0.1,0-0.1,0-0.2C290.5,41.6,291.3,40.7,292.4,40.7L292.4,40.7z"/>
<path d="M309.1,54.2c2.6,0,4.7-4,4.7-9s-2.1-9-4.7-9s-4.7,4-4.7,9S306.5,54.2,309.1,54.2z M310.8,40.7c1.1-0.1,2.2,0.7,2.3,1.8
	c0.1,1.1-0.7,2.2-1.8,2.3c-1.1,0.1-2.2-0.7-2.3-1.8c0-0.1,0-0.2,0-0.2C309,41.7,309.8,40.7,310.8,40.7L310.8,40.7z"/>
<path class="st2" d="M292.4,44.8c1.1,0.1,2.2-0.7,2.3-1.8c0.1-1.1-0.7-2.2-1.8-2.3s-2.2,0.7-2.3,1.8c0,0.1,0,0.1,0,0.2
	C290.5,43.8,291.3,44.7,292.4,44.8z"/>
<path class="st2" d="M310.8,44.8c1.1,0.1,2.2-0.7,2.3-1.8c0.1-1.1-0.7-2.2-1.8-2.3c-1.1-0.1-2.2,0.7-2.3,1.8c0,0.1,0,0.2,0,0.2
	C309,43.8,309.8,44.7,310.8,44.8z"/>
<polygon class="st3" points="266.3,83.5 261.2,81.2 255.5,78.6 254.6,80.5 261.5,83.6 265.5,85.3 "/>
<rect x="281.6" y="97" transform="matrix(0.1736 -0.9848 0.9848 0.1736 141.0743 364.0752)" class="st3" width="11.9" height="2"/>
<path class="st3" d="M326.3,85.6l-6-8.1l-1.6,1.2l5.2,7C324.7,85.5,325.5,85.5,326.3,85.6z"/>
<rect x="310.2" y="116.1" transform="matrix(0.1797 -0.9837 0.9837 0.1797 141.9268 404.481)" class="st3" width="6.5" height="2"/>
<rect x="276.1" y="111.4" transform="matrix(0.9704 -0.2414 0.2414 0.9704 -19.4901 70.2871)" class="st3" width="2" height="6.6"/>
<rect x="331.2" y="69.5" transform="matrix(0.9704 -0.2416 0.2416 0.9704 -7.7361 82.4143)" class="st3" width="2" height="6.6"/>
<rect x="297.6" y="80.3" transform="matrix(0.769 -0.6392 0.6392 0.769 13.1346 211.371)" class="st3" width="3" height="14.4"/>
<polygon class="st3" points="269,101.1 268,100.9 266.5,109.3 266.3,110.4 266.7,110.4 267.3,110.5 "/>
<rect x="299.3" y="113.7" transform="matrix(0.8459 -0.5333 0.5333 0.8459 -14.3629 179.6364)" class="st3" width="8.9" height="2"/>
<rect x="318.7" y="100.9" transform="matrix(0.5634 -0.8262 0.8262 0.5634 52.5839 310.0882)" class="st3" width="2" height="8.9"/>
<polygon class="st3" points="265.9,61.6 261.3,56 256.7,50.5 255.1,51.8 260.9,58.7 264.3,62.9 "/>
<polygon class="st3" points="273.5,33 272.2,25.8 270.9,18.8 269,19.2 270.7,28.4 271.6,33.3 "/>
<polygon class="st3" points="286.8,18.7 289,9.5 290.1,4.7 288.2,4.2 286.6,10.9 284.9,18.3 "/>
<polygon class="st3" points="306.5,17 303.6,7.2 303.1,5.2 301.1,5.7 301.5,6.8 304.6,17.6 "/>
<polygon class="st3" points="311.1,28.1 317.4,14.5 318,13 316.2,12.2 315.8,13.2 309.3,27.3 "/>
<path class="st3" d="M328.1,18.9l1-3.3l-1.9-0.6l-1.4,4.6c0.6-0.5,1.3-0.7,2-0.8C327.9,18.9,328,18.9,328.1,18.9z"/>
<polygon class="st3" points="330.7,63 333.7,63.5 335.9,47.3 336.2,45.3 335.4,45.2 333.2,44.9 "/>
<rect x="272.6" y="63.7" transform="matrix(1.221695e-02 -0.9999 0.9999 1.221695e-02 212.5388 344.4935)" class="st3" width="16.1" height="2"/>
<rect x="269" y="90.4" transform="matrix(1.204252e-02 -0.9999 0.9999 1.204252e-02 182.3191 367.3296)" class="st3" width="16.1" height="2"/>
<polygon class="st3" points="272,121.4 268.2,116.4 264.9,111.9 263.3,113.1 269.7,121.8 270.4,122.6 "/>
<rect x="306.8" y="76.7" transform="matrix(0.3522 -0.9359 0.9359 0.3522 129.3383 342.3448)" class="st3" width="10.4" height="2"/>
<rect x="284.6" y="116.1" transform="matrix(0.3862 -0.9224 0.9224 0.3862 70.403 340.0804)" class="st3" width="12.3" height="2"/>
<path class="st4" d="M324,24.5c-0.3-0.3-0.6-0.5-0.9-0.8c-2.2-1.6-5.1-1.4-6.3,0.3s-0.4,4.4,1.9,6c0.6,0.4,1.3,0.7,2,0.9
	c-0.9,0.2-1.8,0.6-2.5,1.2c-2.1,1.7-2.7,4.5-1.4,6.1s4,1.5,6.1,0c0,0.2-0.1,0.4-0.1,0.6c0,2.7,1.9,4.8,4.1,4.8s4.1-2.2,4.1-4.8
	c0-0.5-0.1-1-0.2-1.5c0.6,0.8,1.5,1.5,2.5,1.9c2,0.8,4.1,0.5,5.1-0.9c1.2-1.7,0.4-4.4-1.9-6c-0.8-0.5-1.6-0.9-2.5-1
	c1.2-0.2,2.2-0.8,3-1.6c1.9-1.9,2.3-4.7,0.8-6.2s-4.3-1.2-6.2,0.8l-0.1,0.1c0-0.1,0-0.2,0-0.4c0-2.6-1.6-4.8-3.6-4.9
	c-0.1,0-0.2,0-0.3,0c-0.7,0-1.4,0.3-2,0.8c-0.8,0.6-1.3,1.5-1.6,2.4c-0.2,0.6-0.3,1.2-0.3,1.8C324,24,324,24.2,324,24.5z M333.1,31
	c0,2.9-2.3,5.2-5.2,5.2c-2.9,0-5.2-2.3-5.2-5.2s2.3-5.2,5.2-5.2l0,0C330.7,25.8,333.1,28.1,333.1,31C333.1,31,333.1,31,333.1,31z"/>
<circle class="st5" cx="327.8" cy="31" r="5.2"/>
<path class="st6" d="M362,107.9l-2-1.3l0.1,1l-8.9,0.6l-0.1-2l7.6-0.5L345,97l-4.1,7.5l-1.8-1l4.2-7.6l-6.9-4.4
	c0.5-2.8,0.9-5.7,1.3-8.6c1.7-11.8,1.1-23.9-1.8-35.5l-2.2,16.2l-3-0.4l2.5-18.2l2.1,0.3c-0.6-2-1.3-4-2-6c-1-0.4-1.8-1-2.5-1.9
	c0.2,0.5,0.2,1,0.2,1.5c0,2.7-1.9,4.8-4.1,4.8s-4.1-2.2-4.1-4.8c0-0.2,0-0.4,0.1-0.6c-2.1,1.6-4.8,1.6-6.1,0s-0.8-4.4,1.4-6.1
	c0.7-0.6,1.6-1,2.5-1.2c-0.7-0.2-1.4-0.5-2-0.9c-2.2-1.6-3.1-4.3-1.9-6s4-1.9,6.3-0.3c0.3,0.2,0.6,0.5,0.9,0.8c0-0.2,0-0.4,0-0.6
	c0-0.6,0.1-1.2,0.3-1.8c-2-2.8-4.3-5.3-6.9-7.6l-6.3,13.6l-1.8-0.8l6.5-14.1c-3.5-2.9-7.7-5-12.1-6l2.8,9.8l-1.9,0.6l-3.1-10.7
	c-0.6-0.1-1.2-0.1-1.9-0.1c-3.7,0.1-7.3,1-10.6,2.8l-2.2,9.2l-2-0.5l1.7-7.4c-5.8,3.9-10.8,9-14.4,14.9l1.3,7.2l-2,0.4l-0.9-5
	c-4.8,8.5-8,17.9-9.4,27.6l4.6,5.6l-1.5,1.3l-3.4-4.1c-0.8,7.5-0.8,15,0.3,22.5l5.1,2.3l-0.8,1.8l-3.9-1.8c0.4,2.3,0.7,4.5,1.1,6.7
	l-8.8,7l1.6,5.8l-1.9,0.5l-1.3-5l-5.3,4.2l1.9,3.9l-1.8,0.9l-1.7-3.5l-7.8,6.1c-2.9,2.3-3.4,6.6-1.1,9.5s6.6,3.4,9.5,1.1l19.7-15.5
	c0.3,1.4,0.6,2.8,0.9,4.1l1.5-8.4l1,0.2l-1.7,9.4l-0.5-0.1c0.5,2,1,4,1.5,5.9l3.7,5.1l-1.6,1.2l-0.6-0.8c0.4,1.5,0.9,2.9,1.4,4.3
	h57.1c2.2-6.7,4-13.5,5.5-20.3l9.6,6.2l-0.7-4.9l2-0.3l0.9,6.6l9.1,5.9c3.2,1.9,7.4,0.8,9.2-2.4C365.7,113.8,364.9,110,362,107.9z
	 M276.1,83.4h2l-0.2,16.1h-2L276.1,83.4z M276.9,118.1l-1.6-6.4l1.9-0.5l1.6,6.4L276.9,118.1z M281.5,72.7h-2l0.2-16.1h2L281.5,72.7
	z M336.5,84.4l-5.7,10.4l-1.8-1l5.7-10.4L336.5,84.4z M332.4,69.4l1.6,6.4l-2,0.5l-1.6-6.4L332.4,69.4z M320.3,77.5l6,8.1
	c-0.8-0.1-1.6-0.1-2.5,0.1l-5.2-7L320.3,77.5z M309.1,36.2c2.6,0,4.7,4,4.7,9s-2.1,9-4.7,9s-4.7-4-4.7-9S306.5,36.2,309.1,36.2z
	 M290.6,36.2c2.6,0,4.7,4,4.7,9s-2.1,9-4.7,9s-4.7-4-4.7-9S288,36.2,290.6,36.2z M285.5,103.6l2-11.6l2,0.3l-2.1,11.7L285.5,103.6z
	 M289.3,123.2l-1.8-0.8l4.8-11.3l1.8,0.8L289.3,123.2z M293.3,82.9l2.4-1.9l9.2,11.1l-2.3,1.9L293.3,82.9z M300.4,117.9l-1.1-1.7
	l7.5-4.7l1.1,1.7L300.4,117.9z M297.6,70.5c-1.2,0-2.5-0.2-3.6-0.7c-2.8-1.1-4.6-3.6-5.6-7.2l-0.2-0.8l21.3,4.4l-1,0.7
	C305.2,69,301.5,70.3,297.6,70.5L297.6,70.5z M309.2,82.2l3.6-9.7l1.9,0.7l-3.6,9.7L309.2,82.2z M313.8,120.5l-2-0.4l1.2-6.4l2,0.4
	L313.8,120.5z M322.7,108.6l-7.3-5l1.1-1.7l7.3,5L322.7,108.6z"/>
<rect x="326.9" y="88.1" transform="matrix(0.4808 -0.8768 0.8768 0.4808 94.7053 338.0787)" class="st3" width="11.9" height="2"/>
<polygon class="st3" points="340.9,104.4 345,97 346.6,94 344.8,93.1 343.3,95.9 339.1,103.5 "/>
<polygon class="st3" points="342.6,107.1 343.3,112 344.3,118.8 346.3,118.5 345.5,113.4 344.6,106.8 "/>
<polygon class="st3" points="255.4,103 253.8,97.2 251.8,89.7 249.9,90.2 252.1,98.6 253.4,103.6 "/>
<polygon class="st3" points="248.8,106.7 246.9,102.7 245.9,100.7 244.1,101.6 245.2,104 246.9,107.5 "/>
<polygon class="st3" points="351.1,108.2 360,107.7 359.9,106.6 359.9,105.7 358.6,105.8 351,106.3 "/>
<path d="M288.3,61.8l0.2,0.8c0.9,3.7,2.8,6.1,5.6,7.2c1.2,0.4,2.4,0.7,3.6,0.7c3.9-0.2,7.6-1.5,10.8-3.6l1-0.7L288.3,61.8z"/>
<path class="st6" d="M562.1,99l-2.4-0.3l0.5,0.9l-7.8,4.3l-1-1.8l6.7-3.6l-16-2.3l-0.6,8.5l-2-0.1l0.6-8.6l-4.6-0.7
	c0.7-3.8,1.3-7.6,1.8-11.5c1.7-11.6,1.1-23.5-1.7-34.9l-2,14.6l-3-0.4l2.5-18.2l1.5,0.2c-0.7-2.2-1.4-4.3-2.2-6.3
	c-0.1,0-0.2-0.1-0.3-0.2c-0.5-0.4-1-0.8-1.3-1.3c0.2,0.5,0.2,1,0.2,1.5c0,2.7-1.9,4.8-4.1,4.8s-4.1-2.2-4.1-4.8c0-0.2,0-0.4,0-0.6
	c-2.1,1.6-4.8,1.6-6.1,0s-0.8-4.4,1.4-6.1c0.7-0.6,1.6-1,2.5-1.2c-0.7-0.2-1.4-0.5-2-0.9c-2.2-1.6-3.1-4.3-1.8-6s4-1.9,6.3-0.3
	c0.3,0.2,0.6,0.5,0.9,0.8c0-0.2,0-0.4,0-0.6s0-0.4,0-0.6c-2.1-2.8-4.4-5.5-7.1-7.8L511,28.1l-1.8-0.8l6.1-13.2
	c-3.3-2.8-7.2-4.8-11.4-5.8l2.5,8.8l-1.9,0.6l-2.8-9.8c-0.8-0.1-1.7-0.2-2.5-0.2c-3.6,0.1-7.2,1-10.4,2.7l-2,8.4l-1.9-0.5l1.5-6.6
	c-5.7,3.7-10.5,8.6-14.2,14.4l1.3,6.9l-2,0.4l-0.9-4.8c-4.9,8.4-8.1,17.6-9.6,27.2l4.8,5.8l-1.5,1.3l-3.6-4.4c-1,7.5-1,15.1,0,22.5
	l5.6,2.5l-0.8,1.8l-4.5-2c0,0.1,0,0.2,0,0.4c0.5,3.4,1.1,6.7,1.7,10l-7.1,2.9l-0.1,6h-2l0.1-5.1l-6.2,2.5l0.7,4.3l-2,0.3l-0.6-3.9
	l-9.1,3.7c-3.5,1.4-5.1,5.3-3.7,8.8c1.4,3.5,5.3,5.1,8.8,3.7l24-9.7c0.6,2.7,1.2,5.4,1.9,8l4.7,6.3l-1.6,1.2l-1.7-2.2
	c0.5,2,1.1,3.9,1.7,5.7H528c1.8-5.4,3.4-11.3,4.8-17.6l14.1,2l-2.7-4.2l1.7-1.1l3.6,5.6l10.7,1.5c3.7,0.5,7.1-2.1,7.6-5.7l0,0
	C568.4,103.1,565.9,99.6,562.1,99C562.2,99,562.2,99,562.1,99z M479.6,56.6h2l-0.2,16.1h-2L479.6,56.6z M478.1,83.4l-0.2,16.1h-2
	l0.2-16.1H478.1z M466.2,110.4l1.7-9.4l1,0.2l-1.7,9.4L466.2,110.4z M476.8,118.1l-1.6-6.4l1.9-0.5l1.6,6.4L476.8,118.1z
	 M532.3,69.4l1.6,6.4l-1.9,0.5l-1.6-6.4L532.3,69.4z M534.7,83.4l1.8,1l-5.7,10.4l-1.8-1L534.7,83.4z M520.2,77.4l7.1,9.6l-1.6,1.2
	l-7.1-9.5L520.2,77.4z M509,36.2c2.6,0,4.7,4,4.7,9s-2.1,9-4.7,9s-4.7-4-4.7-9S506.4,36.2,509,36.2z M490.5,36.2c2.6,0,4.7,4,4.7,9
	s-2.1,9-4.7,9s-4.7-4-4.7-9S488,36.2,490.5,36.2L490.5,36.2z M512,67.2l-1,0.6c-2.3,1.4-7.4,4.2-12.6,4.2c-1.6,0-3.2-0.3-4.7-0.8
	c-3.8-1.5-6.5-4.8-7.9-10l-0.2-0.8L512,67.2z M504.7,92.2l-2.3,1.9L493.3,83l2.3-2L504.7,92.2z M485.4,103.7l2.1-11.7l2,0.3
	l-2.1,11.7L485.4,103.7z M489.2,123.2l-1.9-0.8l4.8-11.3l1.9,0.8L489.2,123.2z M500.4,117.9l-1.1-1.7l7.5-4.7l1.1,1.7L500.4,117.9z
	 M509.1,82.3l3.6-9.7l1.9,0.7l-3.6,9.7L509.1,82.3z M513.8,120.6l-2-0.4l1.2-6.4l2,0.4L513.8,120.6z M522.7,108.7l-7.3-5l1.1-1.7
	l7.3,5L522.7,108.7z"/>
<polygon class="st0" points="468.3,137.4 472.7,195.5 525.9,195.5 531.6,137.4 "/>
<polygon class="st1" points="458.9,126.1 461.5,137.4 468.3,137.4 531.6,137.4 536,137.4 539.1,126.1 528,126.1 470.3,126.1 "/>
<path d="M490.5,54.2c2.6,0,4.7-4,4.7-9s-2.1-9-4.7-9s-4.7,4-4.7,9S488,54.2,490.5,54.2z M492.3,40.7c1.1-0.1,2.2,0.7,2.3,1.8
	c0.1,1.1-0.7,2.2-1.8,2.3s-2.2-0.7-2.3-1.8c0-0.1,0-0.1,0-0.2C490.4,41.6,491.2,40.7,492.3,40.7z"/>
<path d="M509,54.2c2.6,0,4.7-4,4.7-9s-2.1-9-4.7-9s-4.7,4-4.7,9S506.4,54.2,509,54.2z M510.7,40.7c1.1-0.1,2.2,0.7,2.3,1.8
	s-0.7,2.2-1.8,2.3c-1.1,0.1-2.2-0.7-2.3-1.8c0-0.1,0-0.1,0-0.2C508.8,41.6,509.7,40.7,510.7,40.7L510.7,40.7z"/>
<path class="st2" d="M492.3,44.8c1.1,0.1,2.2-0.7,2.3-1.8c0.1-1.1-0.7-2.2-1.8-2.3s-2.2,0.7-2.3,1.8c0,0.1,0,0.1,0,0.2
	C490.4,43.8,491.2,44.7,492.3,44.8z"/>
<path class="st2" d="M510.8,44.8c1.1,0.1,2.2-0.7,2.3-1.8s-0.7-2.2-1.8-2.3s-2.2,0.7-2.3,1.8c0,0.1,0,0.1,0,0.2
	C508.8,43.8,509.7,44.7,510.8,44.8z"/>
<polygon class="st3" points="466.2,83.5 460.6,81 455.4,78.6 454.6,80.5 460.9,83.3 465.4,85.3 "/>
<rect x="481.5" y="97" transform="matrix(0.1736 -0.9848 0.9848 0.1736 306.2682 560.9398)" class="st3" width="11.9" height="2"/>
<rect x="521.9" y="76.9" transform="matrix(0.8034 -0.5954 0.5954 0.8034 53.496 327.6156)" class="st3" width="2" height="11.8"/>
<rect x="510.1" y="116.2" transform="matrix(0.1807 -0.9835 0.9835 0.1807 305.3728 600.93)" class="st3" width="6.5" height="2"/>
<rect x="476" y="111.3" transform="matrix(0.9704 -0.2416 0.2416 0.9704 -13.5642 118.6362)" class="st3" width="2" height="6.6"/>
<rect x="531.1" y="69.5" transform="matrix(0.9704 -0.2414 0.2414 0.9704 -1.8333 130.6191)" class="st3" width="2" height="6.6"/>
<rect x="497.5" y="80.3" transform="matrix(0.7706 -0.6373 0.6373 0.7706 58.6891 338.0657)" class="st3" width="3" height="14.4"/>
<rect x="462.8" y="105.3" transform="matrix(0.1807 -0.9835 0.9835 0.1807 279.0665 546.5118)" class="st3" width="9.5" height="1"/>
<rect x="499.2" y="113.7" transform="matrix(0.8459 -0.5333 0.5333 0.8459 16.4433 286.2602)" class="st3" width="8.9" height="2"/>
<rect x="518.6" y="100.9" transform="matrix(0.5635 -0.8261 0.8261 0.5635 139.7921 475.231)" class="st3" width="2" height="8.9"/>
<polygon class="st3" points="465.8,61.6 461,55.8 456.6,50.5 455.1,51.8 460.6,58.5 464.2,62.9 "/>
<polygon class="st3" points="473.5,33 472.2,26.1 470.8,18.8 468.9,19.2 470.6,28.6 471.5,33.3 "/>
<polygon class="st3" points="486.8,18.7 488.7,10.3 490,4.7 488.1,4.2 486.4,11.6 484.8,18.3 "/>
<polygon class="st3" points="506.4,17 503.9,8.2 503,5.2 501.1,5.7 501.7,7.8 504.5,17.6 "/>
<polygon class="st3" points="511,28.1 516.9,15.4 518,13 516.2,12.2 515.3,14.1 509.2,27.3 "/>
<path class="st3" d="M528,18.9l1-3.3l-1.9-0.6l-1.3,4.6c0.6-0.5,1.3-0.7,2-0.8C527.8,18.9,527.9,18.9,528,18.9z"/>
<polygon class="st3" points="530.7,63 533.6,63.5 535.6,48.8 536.1,45.3 534.6,45.1 533.2,44.9 "/>
<rect x="472.5" y="63.7" transform="matrix(1.221695e-02 -0.9999 0.9999 1.221695e-02 410.014 544.386)" class="st3" width="16.1" height="2"/>
<rect x="468.9" y="90.4" transform="matrix(1.221695e-02 -0.9999 0.9999 1.221695e-02 379.7376 567.21)" class="st3" width="16.1" height="2"/>
<polygon class="st3" points="471.9,121.4 467.2,115.1 464.8,111.9 463.2,113.1 468.6,120.4 470.3,122.6 "/>
<rect x="506.7" y="76.7" transform="matrix(0.3522 -0.9359 0.9359 0.3522 258.844 529.4384)" class="st3" width="10.4" height="2"/>
<rect x="484.5" y="116.2" transform="matrix(0.3862 -0.9224 0.9224 0.3862 193.0913 524.4864)" class="st3" width="12.3" height="2"/>
<path class="st4" d="M524,24.5c-0.3-0.3-0.6-0.5-0.9-0.8c-2.2-1.6-5-1.4-6.3,0.3s-0.4,4.4,1.8,6c0.6,0.4,1.3,0.7,2,0.9
	c-0.9,0.2-1.8,0.6-2.5,1.2c-2.1,1.7-2.7,4.5-1.4,6.1s4,1.5,6.1,0c0,0.2,0,0.4,0,0.6c0,2.7,1.8,4.8,4.1,4.8s4.1-2.2,4.1-4.8
	c0-0.5-0.1-1-0.2-1.5c0.4,0.5,0.8,0.9,1.3,1.3c0.1,0.1,0.2,0.1,0.3,0.2c2.2,1.4,4.8,1.2,6-0.5s0.4-4.4-1.8-6c-0.8-0.5-1.6-0.9-2.5-1
	c1.1-0.2,2.2-0.8,3-1.6c1.9-1.9,2.3-4.7,0.8-6.2s-4.3-1.2-6.2,0.8v0.1c0-0.1,0-0.2,0-0.4c0-2.6-1.6-4.8-3.6-4.9c-0.1,0-0.2,0-0.3,0
	c-0.7,0-1.4,0.3-2,0.8c-1,0.9-1.7,2.1-1.8,3.4c0,0.2,0,0.4,0,0.6S523.9,24.2,524,24.5z M533,31c0,2.9-2.3,5.2-5.2,5.2
	s-5.2-2.3-5.2-5.2s2.3-5.2,5.2-5.2c0,0,0,0,0,0C530.7,25.8,533,28.1,533,31C533,31,533,31,533,31z"/>
<circle class="st5" cx="527.8" cy="31" r="5.2"/>
<rect x="526.8" y="88.1" transform="matrix(0.4808 -0.8768 0.8768 0.4808 198.5013 513.3546)" class="st3" width="11.8" height="2"/>
<polygon class="st3" points="541.5,104.7 542.1,96.2 542.3,92.8 540.3,92.7 540.1,95.9 539.5,104.5 "/>
<polygon class="st3" points="544.2,106.3 546.9,110.5 550.6,116.3 552.3,115.2 549.5,110.9 545.9,105.2 "/>
<polygon class="st3" points="455.4,102.6 455.5,96.5 455.7,88.7 453.7,88.7 453.5,97.4 453.4,102.5 "/>
<polygon class="st3" points="448,104.2 447.3,99.9 447,97.7 445,98 445.4,100.7 446.1,104.5 "/>
<polygon class="st3" points="552.4,103.8 560.2,99.6 559.7,98.7 559.2,97.8 558.1,98.4 551.5,102.1 "/>
<path d="M493.8,71.1c1.5,0.6,3.1,0.8,4.7,0.8c5.3,0,10.3-2.7,12.6-4.2l1-0.6l-26.5-6.9l0.2,0.8C487.3,66.3,489.9,69.6,493.8,71.1z"
	/>
<path class="st6" d="M1341.7,123.7l12-23l-4.8,1.1l-0.4-2l6.5-1.5l5-9.6c1.7-3.3,0.4-7.4-2.9-9.1c-3.3-1.7-7.4-0.4-9.1,2.9l0,0
	l-1.1,2.2l1-0.2l1.4,8.8l-2,0.3L1346,86l-7.5,14.3l7.8,3.4l-0.8,1.8l-10.9-4.7l0.8-1.8l2.7,1.2c1-5.4,2-11,2.8-16.6
	c1.7-11.6,1.1-23.5-1.7-34.9l-2,14.6l-3-0.4l2.7-18.1l1.4,0.2c-0.7-2.2-1.4-4.3-2.2-6.3c-0.1,0-0.2-0.1-0.3-0.2
	c-0.5-0.4-1-0.8-1.3-1.3c0.2,0.5,0.2,1,0.2,1.6c0,2.7-1.8,4.8-4.1,4.8s-4.1-2.2-4.1-4.8c0-0.2,0-0.4,0.1-0.6c-2.1,1.6-4.8,1.6-6.1,0
	s-0.7-4.4,1.4-6.1c0.7-0.6,1.6-1,2.5-1.2c-0.7-0.2-1.4-0.5-2-0.9c-2.2-1.6-3.1-4.3-1.8-6s4-1.9,6.3-0.3c0.3,0.2,0.6,0.5,0.9,0.8
	c0-0.2,0-0.4,0-0.6s0-0.4,0-0.6c-2.1-2.8-4.4-5.5-7.1-7.8l-5.9,12.8l-1.8-0.8l6.1-13.2c-3.3-2.8-7.2-4.8-11.4-5.8l2.5,8.8l-1.9,0.6
	l-2.8-9.8c-0.8-0.1-1.7-0.2-2.5-0.2c-3.6,0.1-7.2,1-10.4,2.7l-2,8.4l-1.9-0.5l1.6-6.6c-5.7,3.7-10.5,8.7-14.1,14.4l1.3,6.9l-2,0.4
	l-0.9-4.8c-4.9,8.4-8.1,17.6-9.6,27.2l4.8,5.8l-1.5,1.3l-3.6-4.4c-1,7.5-1,15.1,0,22.5l5.6,2.5l-0.8,1.8l-4.4-2c0,0.1,0,0.2,0,0.4
	c0.7,4.3,1.4,8.5,2.2,12.6l4.8-1.8l0.7,1.9l-5.2,1.9c0.2,1.3,0.5,2.6,0.8,3.9l-2.9-3.1l-5.7,2.1l-0.7-1.9l4.8-1.8l-4.6-4.9l-3.8,2.2
	l-1-1.7l3.4-2l-6.7-7.2c-2.6-2.7-6.8-2.8-9.5-0.3l0,0c-2.7,2.6-2.8,6.8-0.3,9.6l27.1,28.6c1.4,1.5,3.4,2.2,5.4,2.1
	c0.2,0.7,0.4,1.4,0.6,2.1h57.7l0,0h0.1h7.7C1340.5,125.5,1341.2,124.6,1341.7,123.7z M1279.9,83.4h2l-0.2,16.1h-2L1279.9,83.4z
	 M1271.7,100.9l1,0.2l-1.7,9.4l-1-0.2L1271.7,100.9z M1267,113.1l1.6-1.2l7.1,9.5l-1.6,1.2L1267,113.1z M1280.6,118.1l-1.6-6.4
	l1.9-0.5l1.6,6.4L1280.6,118.1z M1285.2,72.7h-2l0.2-16.1h2L1285.2,72.7z M1336.1,69.3l1.6,6.4l-1.9,0.5l-1.6-6.4L1336.1,69.3z
	 M1338.5,83.3l1.8,1l-5.7,10.4l-1.8-1L1338.5,83.3z M1324,77.5l7,9.5l-1.6,1.2l-7-9.5L1324,77.5z M1305.9,66.3l-1,0.6
	c-2.1,1.4-4.6,2.2-7.1,2.4c-0.9,0-1.7-0.2-2.5-0.5c-2-0.8-3.3-2.5-4-5.2l-0.2-0.8L1305.9,66.3z M1308.5,92.1l-2.3,1.9l-9.2-11
	l2.3-1.9L1308.5,92.1z M1294.3,36.2c2.6,0,4.7,4,4.7,9s-2.1,9-4.7,9s-4.7-4-4.7-9S1291.8,36.2,1294.3,36.2L1294.3,36.2z
	 M1289.2,103.6l2-11.7l2,0.3l-2,11.7L1289.2,103.6z M1293,123.2l-1.8-0.8l4.8-11.3l1.8,0.8L1293,123.2z M1304.2,117.9l-1.1-1.7
	l7.5-4.7l1.1,1.7L1304.2,117.9z M1308.1,45.2c0-5,2.1-9,4.7-9s4.7,4,4.7,9s-2.1,9-4.7,9S1308.2,50.2,1308.1,45.2L1308.1,45.2z
	 M1312.9,82.2l3.7-9.7l1.9,0.7l-3.6,9.7L1312.9,82.2z M1317.6,120.5l-2-0.4l1.2-6.4l2,0.4L1317.6,120.5z M1326.5,108.6l-7.3-5
	l1.1-1.7l7.3,5L1326.5,108.6z"/>
<polygon class="st0" points="1272.2,137.4 1276.7,195.5 1329.9,195.5 1335.5,137.4 "/>
<polygon class="st1" points="1331.8,126.1 1274.2,126.1 1262.7,126.1 1265.3,137.4 1272.2,137.4 1335.5,137.4 1339.8,137.4
	1342.9,126.1 1339.6,126.1 1331.9,126.1 "/>
<path d="M1294.4,54.2c2.6,0,4.7-4,4.7-9s-2.1-9-4.7-9s-4.7,4-4.7,9S1291.8,54.2,1294.4,54.2z M1296.1,40.7c1.1-0.1,2.2,0.7,2.3,1.8
	c0.1,1.1-0.7,2.2-1.8,2.3c-1.1,0.1-2.2-0.7-2.3-1.8c0-0.1,0-0.1,0-0.2C1294.2,41.6,1295,40.7,1296.1,40.7z"/>
<path d="M1317.5,45.2c0-5-2.1-9-4.7-9s-4.7,4-4.7,9s2.1,9,4.7,9S1317.5,50.2,1317.5,45.2z M1312.7,42.7c0.1-1,1-1.8,2.1-1.7
	c1,0.1,1.8,1,1.7,2.1c-0.1,0.9-0.9,1.7-1.9,1.7C1313.5,44.7,1312.7,43.8,1312.7,42.7L1312.7,42.7z"/>
<path class="st2" d="M1296.1,44.8c1.1,0.1,2.2-0.7,2.3-1.8c0.1-1.1-0.7-2.2-1.8-2.3c-1.1-0.1-2.2,0.7-2.3,1.8c0,0.1,0,0.1,0,0.2
	C1294.2,43.8,1295,44.7,1296.1,44.8z"/>
<path class="st2" d="M1316.4,42.7c-0.1-1-1-1.8-2.1-1.7c-1,0.1-1.8,1-1.7,2.1c0.1,0.9,0.9,1.7,1.9,1.7
	C1315.6,44.7,1316.5,43.8,1316.4,42.7z"/>
<polygon class="st3" points="1270,83.5 1264.4,81 1259.2,78.6 1258.4,80.5 1264.7,83.3 1269.2,85.3 "/>
<rect x="1285.3" y="97" transform="matrix(0.1736 -0.9848 0.9848 0.1736 970.5045 1352.5696)" class="st3" width="11.8" height="2"/>
<rect x="1325.7" y="76.8" transform="matrix(0.8034 -0.5954 0.5954 0.8034 211.507 806.1743)" class="st3" width="2" height="11.8"/>
<rect x="1313.9" y="116.1" transform="matrix(0.1807 -0.9835 0.9835 0.1807 964.0339 1391.4478)" class="st3" width="6.5" height="2"/>
<rect x="1279.8" y="111.4" transform="matrix(0.9704 -0.2414 0.2414 0.9704 10.1954 312.607)" class="st3" width="2" height="6.6"/>
<rect x="1335" y="69.5" transform="matrix(0.9704 -0.2414 0.2414 0.9704 21.9379 324.674)" class="st3" width="2" height="6.6"/>
<rect x="1301.3" y="80.3" transform="matrix(0.7706 -0.6373 0.6373 0.7706 243.0843 850.2915)" class="st3" width="3" height="14.4"/>
<rect x="1266.6" y="105.3" transform="matrix(0.1795 -0.9838 0.9838 0.1795 939.1777 1337.559)" class="st3" width="9.6" height="1"/>
<rect x="1303" y="113.7" transform="matrix(0.8459 -0.5333 0.5333 0.8459 140.2919 714.9569)" class="st3" width="8.9" height="2"/>
<rect x="1322.4" y="100.8" transform="matrix(0.5593 -0.829 0.829 0.5593 495.9509 1143.425)" class="st3" width="2" height="8.9"/>
<polygon class="st3" points="1269.6,61.6 1264.8,55.8 1260.4,50.5 1258.9,51.8 1264.4,58.5 1268.1,62.9 "/>
<polygon class="st3" points="1277.3,33 1276,26.1 1274.7,18.8 1272.7,19.2 1274.4,28.6 1275.3,33.3 "/>
<polygon class="st3" points="1290.6,18.7 1292.6,10.3 1293.9,4.7 1291.9,4.2 1290.2,11.6 1288.6,18.3 "/>
<polygon class="st3" points="1310.2,17 1307.7,8.2 1306.8,5.2 1304.9,5.7 1305.5,7.8 1308.3,17.6 "/>
<polygon class="st3" points="1314.8,28.1 1320.7,15.4 1321.8,13 1320,12.2 1319.1,14.1 1313,27.3 "/>
<path class="st3" d="M1331.8,18.9l1-3.3l-1.9-0.6l-1.3,4.6c0.6-0.5,1.3-0.7,2-0.8C1331.6,18.9,1331.7,18.9,1331.8,18.9z"/>
<polygon class="st3" points="1334.5,63 1337.4,63.5 1339.5,48.8 1340,45.3 1338.4,45.1 1337,44.9 "/>
<rect x="1276.3" y="63.7" transform="matrix(1.221695e-02 -0.9999 0.9999 1.221695e-02 1204.0239 1348.1562)" class="st3" width="16.1" height="2"/>
<rect x="1272.8" y="90.4" transform="matrix(1.221695e-02 -0.9999 0.9999 1.221695e-02 1173.7577 1370.9705)" class="st3" width="16.1" height="2"/>
<rect x="1270.4" y="111.4" transform="matrix(0.8034 -0.5954 0.5954 0.8034 180.0724 780.0114)" class="st3" width="2" height="11.8"/>
<rect x="1310.6" y="76.8" transform="matrix(0.3522 -0.9359 0.9359 0.3522 779.6202 1281.8674)" class="st3" width="10.4" height="2"/>
<rect x="1288.3" y="116.1" transform="matrix(0.3861 -0.9225 0.9225 0.3861 686.6545 1266.0349)" class="st3" width="12.3" height="2"/>
<path class="st4" d="M1327.8,24.5c-0.3-0.3-0.6-0.5-0.9-0.8c-2.2-1.6-5.1-1.4-6.3,0.3s-0.4,4.4,1.8,6c0.6,0.4,1.3,0.7,2,0.9
	c-0.9,0.2-1.8,0.6-2.5,1.2c-2.1,1.7-2.7,4.5-1.4,6.1s4,1.5,6.1,0c0,0.2,0,0.4-0.1,0.6c0,2.7,1.8,4.8,4.1,4.8s4.1-2.2,4.1-4.8
	c0-0.5-0.1-1.1-0.2-1.6c0.4,0.5,0.8,0.9,1.3,1.3c0.1,0.1,0.2,0.1,0.3,0.2c2.2,1.4,4.8,1.2,6-0.5s0.4-4.4-1.8-6
	c-0.8-0.5-1.6-0.9-2.5-1c1.1-0.2,2.2-0.8,3-1.6c1.9-1.9,2.3-4.7,0.8-6.2s-4.3-1.2-6.2,0.8l-0.1,0.1c0-0.1,0-0.2,0-0.4
	c0-2.6-1.6-4.8-3.6-4.9c-0.1,0-0.2,0-0.3,0c-0.7,0-1.4,0.3-2,0.8c-1,0.9-1.7,2.2-1.8,3.5c0,0.2,0,0.4,0,0.6S1327.8,24.2,1327.8,24.5
	z M1336.8,31c0,2.9-2.3,5.2-5.2,5.2s-5.2-2.3-5.2-5.2s2.3-5.2,5.2-5.2l0,0C1334.4,25.7,1336.8,28.1,1336.8,31
	C1336.8,31,1336.8,31,1336.8,31L1336.8,31z"/>
<path class="st5" d="M1326.3,31c0,2.9,2.3,5.2,5.2,5.2c2.9,0,5.2-2.3,5.2-5.2s-2.3-5.2-5.2-5.2c0,0,0,0,0,0
	C1328.7,25.8,1326.3,28.1,1326.3,31C1326.3,31,1326.3,31,1326.3,31z"/>
<rect x="1330.6" y="88" transform="matrix(0.4808 -0.8768 0.8768 0.4808 615.8101 1218.1268)" class="st3" width="11.8" height="2"/>
<polygon class="st3" points="1334.8,100.9 1345.6,105.7 1346.4,103.8 1338.6,100.4 1338.3,100.3 1335.6,99.1 "/>
<polygon class="st3" points="1348.9,101.8 1353.8,100.7 1360.5,99.1 1360,97.2 1355,98.4 1348.5,99.9 "/>
<polygon class="st3" points="1259.5,101.2 1265.1,99.1 1267.3,98.3 1272.5,96.4 1271.8,94.6 1266.9,96.3 1263.7,97.6 1258.8,99.3
	"/>
<polygon class="st3" points="1255.3,94.9 1259.1,92.7 1260.9,91.6 1259.9,89.8 1257.6,91.2 1254.3,93.2 "/>
<polygon class="st3" points="1349.2,93.3 1347.8,84.5 1346.8,84.7 1345.9,84.8 1346.1,86.1 1347.3,93.6 "/>
<path d="M1291.2,63.7c0.7,2.6,2.1,4.4,4,5.2c0.8,0.3,1.7,0.5,2.5,0.5c2.5-0.1,5-0.9,7.1-2.3l1-0.6l-14.9-3.5L1291.2,63.7z"/>
</svg>
