<svg id="Layer_1" data-name="Layer 1" xmlns="http://www.w3.org/2000/svg" width="1200" height="200" viewBox="0 0 1200 200"><defs><style>.cls-1{fill:#5d7a53;}.cls-2{fill:#754c24;}.cls-3{fill:#9b6237;}.cls-11,.cls-4,.cls-6,.cls-7,.cls-8{fill:none;}.cls-4{stroke:#000;stroke-width:4px;}.cls-4,.cls-6,.cls-7,.cls-8{stroke-miterlimit:10;}.cls-5{fill:#fff;}.cls-6,.cls-7,.cls-8{stroke:#515117;}.cls-6{stroke-width:2px;}.cls-7{stroke-width:3px;}.cls-9{fill:#edf728;}.cls-10{fill:#fdffeb;}</style></defs><title>kaktus_sprite</title><path class="cls-1" d="M137.78,82.82c-5.78,40.23-17.09,76.06-38.16,76.06S68.06,125,61.45,82.82C54.94,41.32,78.54,6.76,99.62,6.76S143.76,41.24,137.78,82.82Z"/><polygon class="cls-2" points="126.18 195.53 72.95 195.53 68.5 137.38 131.8 137.38 126.18 195.53"/><polygon class="cls-3" points="136.12 137.38 61.59 137.38 58.98 126.08 139.16 126.08 136.12 137.38"/><path class="cls-4" d="M92.16,63.57c1.93,7.25,8.52,5.73,12.91,3"/><ellipse cx="90.66" cy="45.2" rx="4.68" ry="8.96"/><ellipse cx="109.12" cy="45.2" rx="4.68" ry="8.96"/><ellipse class="cls-5" cx="88.39" cy="42.72" rx="1.86" ry="2.07"/><ellipse class="cls-5" cx="106.85" cy="42.72" rx="1.86" ry="2.07"/><line class="cls-6" x1="55.08" y1="79.55" x2="65.88" y2="84.43"/><line class="cls-6" x1="88.52" y1="92.14" x2="86.46" y2="103.81"/><line class="cls-6" x1="119.51" y1="78.06" x2="126.57" y2="87.58"/><line class="cls-6" x1="114.08" y1="113.96" x2="112.92" y2="120.34"/><line class="cls-6" x1="76.33" y1="111.48" x2="77.92" y2="117.86"/><line class="cls-6" x1="131.44" y1="69.59" x2="133.03" y2="75.98"/><line class="cls-7" x1="94.52" y1="81.99" x2="103.69" y2="93.09"/><line class="cls-8" x1="67.51" y1="95.49" x2="65.79" y2="104.91"/><line class="cls-6" x1="107.47" y1="112.3" x2="99.96" y2="117.04"/><line class="cls-6" x1="116.04" y1="102.8" x2="123.37" y2="107.8"/><line class="cls-6" x1="55.94" y1="51.13" x2="65.11" y2="62.22"/><line class="cls-6" x1="69.96" y1="19.01" x2="72.59" y2="33.17"/><line class="cls-6" x1="89.18" y1="4.47" x2="85.88" y2="18.49"/><line class="cls-6" x1="102.13" y1="5.45" x2="105.55" y2="17.31"/><line class="cls-6" x1="117.16" y1="12.62" x2="110.19" y2="27.71"/><line class="cls-6" x1="128.14" y1="15.3" x2="123.15" y2="32.39"/><line class="cls-7" x1="134.75" y1="45.06" x2="132.24" y2="63.26"/><line class="cls-6" x1="80.74" y1="56.64" x2="80.55" y2="72.7"/><line class="cls-6" x1="77.16" y1="83.37" x2="76.96" y2="99.43"/><line class="cls-6" x1="64.12" y1="112.5" x2="71.18" y2="122.03"/><line class="cls-6" x1="113.81" y1="72.9" x2="110.16" y2="82.59"/><line class="cls-6" x1="93.14" y1="111.48" x2="88.39" y2="122.82"/><ellipse class="cls-9" cx="127.86" cy="23.84" rx="3.86" ry="4.96"/><ellipse class="cls-9" cx="134.48" cy="26.87" rx="4.96" ry="3.86" transform="translate(20.38 102.96) rotate(-45)"/><ellipse class="cls-9" cx="134.48" cy="35.42" rx="3.86" ry="4.96" transform="translate(28.29 125.21) rotate(-54.98)"/><ellipse class="cls-9" cx="127.04" cy="38.86" rx="4.13" ry="4.82"/><ellipse class="cls-9" cx="120.7" cy="35.14" rx="4.96" ry="3.86" transform="translate(5.29 84.97) rotate(-39.59)"/><ellipse class="cls-9" cx="120.97" cy="26.87" rx="3.86" ry="4.96" transform="translate(29.54 110.52) rotate(-54.98)"/><circle class="cls-10" cx="127.86" cy="31.01" r="5.24"/><rect class="cls-1" x="50.42" y="76.75" width="13.5" height="52.91" rx="1.61" transform="translate(32.77 218.65) rotate(-139.08)"/><rect class="cls-1" x="135.03" y="76.48" width="13.5" height="52.91" rx="1.61" transform="translate(-31.26 130.4) rotate(-45)"/><line class="cls-6" x1="139.87" y1="83.03" x2="132.11" y2="91.98"/><line class="cls-6" x1="147.59" y1="94.6" x2="139.83" y2="103.55"/><line class="cls-6" x1="151.1" y1="107.25" x2="159.95" y2="106.66"/><line class="cls-6" x1="142.77" y1="107.22" x2="141.89" y2="119.04"/><line class="cls-6" x1="48.5" y1="91.36" x2="54.49" y2="103.81"/><line class="cls-6" x1="44.85" y1="103.48" x2="48.77" y2="108.77"/><rect class="cls-11" width="200" height="200"/><rect class="cls-11" x="400" width="200" height="200"/><rect class="cls-11" x="600" width="200" height="200"/><rect class="cls-11" x="800" width="200" height="200"/><rect class="cls-11" x="1000" width="200" height="200"/><path class="cls-1" d="M337.78,82.82c-5.78,40.23-17.09,76.06-38.16,76.06S268.06,125,261.45,82.82c-6.51-41.5,17.09-76.06,38.17-76.06S343.76,41.24,337.78,82.82Z"/><polygon class="cls-2" points="326.18 195.53 272.95 195.53 268.5 137.38 331.8 137.38 326.18 195.53"/><polygon class="cls-3" points="336.12 137.38 261.59 137.38 258.98 126.08 339.16 126.08 336.12 137.38"/><path class="cls-4" d="M292.16,63.57c1.93,7.25,8.52,5.73,12.91,3"/><ellipse cx="290.66" cy="45.2" rx="4.68" ry="8.96"/><ellipse cx="309.12" cy="45.2" rx="4.68" ry="8.96"/><ellipse class="cls-5" cx="288.39" cy="42.72" rx="1.86" ry="2.07"/><ellipse class="cls-5" cx="306.85" cy="42.72" rx="1.86" ry="2.07"/><line class="cls-6" x1="255.08" y1="79.55" x2="265.88" y2="84.43"/><line class="cls-6" x1="288.52" y1="92.14" x2="286.46" y2="103.81"/><line class="cls-6" x1="319.51" y1="78.06" x2="326.57" y2="87.58"/><line class="cls-6" x1="314.08" y1="113.96" x2="312.92" y2="120.34"/><line class="cls-6" x1="276.33" y1="111.48" x2="277.92" y2="117.86"/><line class="cls-6" x1="331.44" y1="69.59" x2="333.03" y2="75.98"/><line class="cls-7" x1="294.52" y1="81.99" x2="303.69" y2="93.09"/><line class="cls-8" x1="267.51" y1="95.49" x2="265.79" y2="104.91"/><line class="cls-6" x1="307.47" y1="112.3" x2="299.96" y2="117.04"/><line class="cls-6" x1="316.04" y1="102.8" x2="323.37" y2="107.8"/><line class="cls-6" x1="255.94" y1="51.13" x2="265.11" y2="62.22"/><line class="cls-6" x1="269.96" y1="19.01" x2="272.59" y2="33.17"/><line class="cls-6" x1="289.18" y1="4.47" x2="285.88" y2="18.49"/><line class="cls-6" x1="302.13" y1="5.45" x2="305.55" y2="17.31"/><line class="cls-6" x1="317.16" y1="12.62" x2="310.19" y2="27.71"/><line class="cls-6" x1="328.14" y1="15.3" x2="323.15" y2="32.39"/><line class="cls-7" x1="334.75" y1="45.06" x2="332.24" y2="63.26"/><line class="cls-6" x1="280.74" y1="56.64" x2="280.55" y2="72.7"/><line class="cls-6" x1="277.16" y1="83.37" x2="276.96" y2="99.43"/><line class="cls-6" x1="264.12" y1="112.5" x2="271.18" y2="122.03"/><line class="cls-6" x1="313.81" y1="72.9" x2="310.16" y2="82.59"/><line class="cls-6" x1="293.14" y1="111.48" x2="288.39" y2="122.82"/><ellipse class="cls-9" cx="327.86" cy="23.84" rx="3.86" ry="4.96"/><ellipse class="cls-9" cx="334.48" cy="26.87" rx="4.96" ry="3.86" transform="translate(78.96 244.38) rotate(-45)"/><ellipse class="cls-9" cx="334.48" cy="35.42" rx="3.86" ry="4.96" transform="translate(113.51 288.99) rotate(-54.98)"/><ellipse class="cls-9" cx="327.04" cy="38.86" rx="4.13" ry="4.82"/><ellipse class="cls-9" cx="320.7" cy="35.14" rx="4.96" ry="3.86" transform="translate(51.15 212.42) rotate(-39.59)"/><ellipse class="cls-9" cx="320.97" cy="26.87" rx="3.86" ry="4.96" transform="translate(114.75 274.3) rotate(-54.98)"/><circle class="cls-10" cx="327.86" cy="31.01" r="5.24"/><rect class="cls-1" x="335.03" y="76.48" width="13.5" height="52.91" rx="1.61" transform="translate(199.76 430.41) rotate(-83.32)"/><line class="cls-6" x1="327.94" y1="88.5" x2="327.4" y2="100.33"/><line class="cls-6" x1="341.17" y1="92.79" x2="340.63" y2="104.63"/><line class="cls-6" x1="351.77" y1="100.54" x2="358.34" y2="94.59"/><line class="cls-6" x1="345.21" y1="105.69" x2="351.85" y2="115.5"/><rect class="cls-1" x="250.42" y="76.75" width="13.5" height="52.91" rx="1.61" transform="translate(255 380.32) rotate(-111.42)"/><line class="cls-6" x1="254.99" y1="88.68" x2="254.52" y2="102.5"/><line class="cls-6" x1="246.13" y1="97.73" x2="247.15" y2="104.23"/><path class="cls-1" d="M538.17,82.82c-5.79,40.23-17.09,76.06-38.17,76.06S468.45,125,461.84,82.82C455.33,41.32,478.92,6.76,500,6.76S544.15,41.24,538.17,82.82Z"/><polygon class="cls-2" points="526.57 195.53 473.34 195.53 468.89 137.38 532.19 137.38 526.57 195.53"/><polygon class="cls-3" points="536.51 137.38 461.98 137.38 459.37 126.08 539.55 126.08 536.51 137.38"/><path class="cls-4" d="M492.55,63.57c1.93,7.25,8.52,5.73,12.91,3"/><ellipse cx="491.05" cy="45.2" rx="4.68" ry="8.96"/><ellipse cx="509.51" cy="45.2" rx="4.68" ry="8.96"/><ellipse class="cls-5" cx="488.77" cy="42.72" rx="1.86" ry="2.07"/><ellipse class="cls-5" cx="507.24" cy="42.72" rx="1.86" ry="2.07"/><line class="cls-6" x1="455.47" y1="79.55" x2="466.27" y2="84.43"/><line class="cls-6" x1="488.91" y1="92.14" x2="486.85" y2="103.81"/><line class="cls-6" x1="519.9" y1="78.06" x2="526.96" y2="87.58"/><line class="cls-6" x1="514.47" y1="113.96" x2="513.3" y2="120.34"/><line class="cls-6" x1="476.72" y1="111.48" x2="478.31" y2="117.86"/><line class="cls-6" x1="531.83" y1="69.59" x2="533.42" y2="75.98"/><line class="cls-7" x1="494.91" y1="81.99" x2="504.08" y2="93.09"/><line class="cls-8" x1="467.9" y1="95.49" x2="466.18" y2="104.91"/><line class="cls-6" x1="507.86" y1="112.3" x2="500.35" y2="117.04"/><line class="cls-6" x1="516.42" y1="102.8" x2="523.75" y2="107.8"/><line class="cls-6" x1="456.32" y1="51.13" x2="465.5" y2="62.22"/><line class="cls-6" x1="470.35" y1="19.01" x2="472.97" y2="33.17"/><line class="cls-6" x1="489.57" y1="4.47" x2="486.27" y2="18.49"/><line class="cls-6" x1="502.52" y1="5.45" x2="505.94" y2="17.31"/><line class="cls-6" x1="517.55" y1="12.62" x2="510.58" y2="27.71"/><line class="cls-6" x1="528.53" y1="15.3" x2="523.53" y2="32.39"/><line class="cls-7" x1="535.14" y1="45.06" x2="532.63" y2="63.26"/><line class="cls-6" x1="481.13" y1="56.64" x2="480.93" y2="72.7"/><line class="cls-6" x1="477.54" y1="83.37" x2="477.35" y2="99.43"/><line class="cls-6" x1="464.51" y1="112.5" x2="471.56" y2="122.03"/><line class="cls-6" x1="514.2" y1="72.9" x2="510.55" y2="82.59"/><line class="cls-6" x1="493.53" y1="111.48" x2="488.78" y2="122.82"/><ellipse class="cls-9" cx="528.25" cy="23.84" rx="3.86" ry="4.96"/><ellipse class="cls-9" cx="534.86" cy="26.87" rx="4.96" ry="3.86" transform="translate(137.66 386.08) rotate(-45)"/><ellipse class="cls-9" cx="534.86" cy="35.42" rx="3.86" ry="4.96" transform="translate(198.89 453.09) rotate(-54.98)"/><ellipse class="cls-9" cx="527.42" cy="38.86" rx="4.13" ry="4.82"/><ellipse class="cls-9" cx="521.09" cy="35.14" rx="4.96" ry="3.86" transform="translate(97.1 340.11) rotate(-39.59)"/><ellipse class="cls-9" cx="521.36" cy="26.87" rx="3.86" ry="4.96" transform="translate(200.13 438.39) rotate(-54.98)"/><circle class="cls-10" cx="528.25" cy="31.01" r="5.24"/><rect class="cls-1" x="535.93" y="76.33" width="13.5" height="52.91" rx="1.61" transform="translate(691.04 634.81) rotate(-116.31)"/><line class="cls-6" x1="523.21" y1="98.21" x2="529.2" y2="108.43"/><line class="cls-6" x1="536.64" y1="94.61" x2="542.64" y2="104.83"/><line class="cls-6" x1="549.76" y1="95.34" x2="552.03" y2="86.76"/><line class="cls-6" x1="547.06" y1="103.22" x2="557.97" y2="107.84"/><rect class="cls-1" x="450.81" y="76.75" width="13.5" height="52.91" rx="1.61" transform="translate(278.92 536.92) rotate(-80.32)"/><line class="cls-6" x1="463.19" y1="89.64" x2="455.66" y2="101.23"/><line class="cls-6" x1="450.94" y1="92.81" x2="448.45" y2="98.91"/><path class="cls-1" d="M738.45,82.82c-5.78,40.23-17.08,76.06-38.16,76.06S668.73,125,662.12,82.82c-6.51-41.5,17.09-76.06,38.17-76.06S744.43,41.24,738.45,82.82Z"/><polygon class="cls-2" points="726.85 195.53 673.62 195.53 669.17 137.38 732.47 137.38 726.85 195.53"/><polygon class="cls-3" points="736.79 137.38 662.26 137.38 659.65 126.08 739.83 126.08 736.79 137.38"/><path class="cls-4" d="M692.83,63.57c1.93,7.25,8.52,5.73,12.91,3"/><ellipse cx="691.33" cy="45.2" rx="4.68" ry="8.96"/><ellipse cx="709.79" cy="45.2" rx="4.68" ry="8.96"/><ellipse class="cls-5" cx="689.06" cy="42.72" rx="1.86" ry="2.07"/><ellipse class="cls-5" cx="707.52" cy="42.72" rx="1.86" ry="2.07"/><line class="cls-6" x1="655.75" y1="79.55" x2="666.55" y2="84.43"/><line class="cls-6" x1="689.19" y1="92.14" x2="687.13" y2="103.81"/><line class="cls-6" x1="720.18" y1="78.06" x2="727.24" y2="87.58"/><line class="cls-6" x1="714.75" y1="113.96" x2="713.59" y2="120.34"/><line class="cls-6" x1="677" y1="111.48" x2="678.59" y2="117.86"/><line class="cls-6" x1="732.12" y1="69.59" x2="733.7" y2="75.98"/><line class="cls-7" x1="695.19" y1="81.99" x2="704.36" y2="93.09"/><line class="cls-8" x1="668.18" y1="95.49" x2="666.46" y2="104.91"/><line class="cls-6" x1="708.14" y1="112.3" x2="700.64" y2="117.04"/><line class="cls-6" x1="716.71" y1="102.8" x2="724.04" y2="107.8"/><line class="cls-6" x1="656.61" y1="51.13" x2="665.78" y2="62.22"/><line class="cls-6" x1="670.63" y1="19.01" x2="673.26" y2="33.17"/><line class="cls-6" x1="689.85" y1="4.47" x2="686.55" y2="18.49"/><line class="cls-6" x1="702.8" y1="5.45" x2="706.22" y2="17.31"/><line class="cls-6" x1="717.83" y1="12.62" x2="710.86" y2="27.71"/><line class="cls-6" x1="728.81" y1="15.3" x2="723.82" y2="32.39"/><line class="cls-7" x1="735.42" y1="45.06" x2="732.91" y2="63.26"/><line class="cls-6" x1="681.41" y1="56.64" x2="681.22" y2="72.7"/><line class="cls-6" x1="677.83" y1="83.37" x2="677.63" y2="99.43"/><line class="cls-6" x1="664.79" y1="112.5" x2="671.85" y2="122.03"/><line class="cls-6" x1="714.48" y1="72.9" x2="710.83" y2="82.59"/><line class="cls-6" x1="693.81" y1="111.48" x2="689.06" y2="122.82"/><ellipse class="cls-9" cx="728.53" cy="23.84" rx="3.86" ry="4.96"/><ellipse class="cls-9" cx="735.15" cy="26.87" rx="4.96" ry="3.86" transform="translate(196.32 527.7) rotate(-45)"/><ellipse class="cls-9" cx="735.15" cy="35.42" rx="3.86" ry="4.96" transform="translate(284.22 617.1) rotate(-54.98)"/><ellipse class="cls-9" cx="727.71" cy="38.86" rx="4.13" ry="4.82"/><ellipse class="cls-9" cx="721.37" cy="35.14" rx="4.96" ry="3.86" transform="translate(143.03 467.73) rotate(-39.59)"/><ellipse class="cls-9" cx="721.64" cy="26.87" rx="3.86" ry="4.96" transform="translate(285.46 602.41) rotate(-54.98)"/><circle class="cls-10" cx="728.53" cy="31.01" r="5.24"/><rect class="cls-1" x="736.21" y="76.33" width="13.5" height="52.91" rx="1.61" transform="translate(1245.24 659.8) rotate(-139.92)"/><line class="cls-6" x1="723.29" y1="106.39" x2="732.87" y2="113.36"/><line class="cls-6" x1="734.16" y1="97.71" x2="743.74" y2="104.68"/><line class="cls-6" x1="746.46" y1="93.13" x2="745.11" y2="84.36"/><line class="cls-6" x1="747.15" y1="101.43" x2="759" y2="101.29"/><rect class="cls-1" x="650.32" y="76.51" width="13.5" height="52.91" rx="1.61" transform="translate(122.83 499.11) rotate(-45.46)"/><line class="cls-6" x1="669.44" y1="95.05" x2="656.64" y2="100.25"/><line class="cls-6" x1="657.57" y1="90.65" x2="652.05" y2="94.23"/><path class="cls-1" d="M938.45,82.82c-5.78,40.23-17.08,76.06-38.16,76.06S868.73,125,862.12,82.82c-6.51-41.5,17.09-76.06,38.17-76.06S944.43,41.24,938.45,82.82Z"/><polygon class="cls-2" points="926.85 195.53 873.62 195.53 869.17 137.38 932.47 137.38 926.85 195.53"/><polygon class="cls-3" points="936.79 137.38 862.26 137.38 859.65 126.08 939.83 126.08 936.79 137.38"/><path class="cls-4" d="M892.83,63.57c1.93,7.25,8.52,5.73,12.91,3"/><ellipse cx="891.33" cy="45.2" rx="4.68" ry="8.96"/><ellipse cx="909.79" cy="45.2" rx="4.68" ry="8.96"/><ellipse class="cls-5" cx="889.06" cy="42.72" rx="1.86" ry="2.07"/><ellipse class="cls-5" cx="907.52" cy="42.72" rx="1.86" ry="2.07"/><line class="cls-6" x1="855.75" y1="79.55" x2="866.55" y2="84.43"/><line class="cls-6" x1="889.19" y1="92.14" x2="887.13" y2="103.81"/><line class="cls-6" x1="920.18" y1="78.06" x2="927.24" y2="87.58"/><line class="cls-6" x1="914.75" y1="113.96" x2="913.59" y2="120.34"/><line class="cls-6" x1="877" y1="111.48" x2="878.59" y2="117.86"/><line class="cls-6" x1="932.12" y1="69.59" x2="933.7" y2="75.98"/><line class="cls-7" x1="895.19" y1="81.99" x2="904.36" y2="93.09"/><line class="cls-8" x1="868.18" y1="95.49" x2="866.46" y2="104.91"/><line class="cls-6" x1="908.14" y1="112.3" x2="900.64" y2="117.04"/><line class="cls-6" x1="916.71" y1="102.8" x2="924.04" y2="107.8"/><line class="cls-6" x1="856.61" y1="51.13" x2="865.78" y2="62.22"/><line class="cls-6" x1="870.63" y1="19.01" x2="873.26" y2="33.17"/><line class="cls-6" x1="889.85" y1="4.47" x2="886.55" y2="18.49"/><line class="cls-6" x1="902.8" y1="5.45" x2="906.22" y2="17.31"/><line class="cls-6" x1="917.83" y1="12.62" x2="910.86" y2="27.71"/><line class="cls-6" x1="928.81" y1="15.3" x2="923.82" y2="32.39"/><line class="cls-7" x1="935.42" y1="45.06" x2="932.91" y2="63.26"/><line class="cls-6" x1="881.41" y1="56.64" x2="881.22" y2="72.7"/><line class="cls-6" x1="877.83" y1="83.37" x2="877.63" y2="99.43"/><line class="cls-6" x1="864.79" y1="112.5" x2="871.85" y2="122.03"/><line class="cls-6" x1="914.48" y1="72.9" x2="910.83" y2="82.59"/><line class="cls-6" x1="893.81" y1="111.48" x2="889.06" y2="122.82"/><ellipse class="cls-9" cx="928.53" cy="23.84" rx="3.86" ry="4.96"/><ellipse class="cls-9" cx="935.15" cy="26.87" rx="4.96" ry="3.86" transform="translate(254.9 669.12) rotate(-45)"/><ellipse class="cls-9" cx="935.15" cy="35.42" rx="3.86" ry="4.96" transform="translate(369.43 780.89) rotate(-54.98)"/><ellipse class="cls-9" cx="927.71" cy="38.86" rx="4.13" ry="4.82"/><ellipse class="cls-9" cx="921.37" cy="35.14" rx="4.96" ry="3.86" transform="translate(188.9 595.18) rotate(-39.59)"/><ellipse class="cls-9" cx="921.64" cy="26.87" rx="3.86" ry="4.96" transform="translate(370.68 766.19) rotate(-54.98)"/><circle class="cls-10" cx="928.53" cy="31.01" r="5.24"/><rect class="cls-1" x="936.21" y="76.33" width="13.5" height="52.91" rx="1.61" transform="translate(1268.71 993.64) rotate(-116.31)"/><line class="cls-6" x1="923.49" y1="98.21" x2="929.48" y2="108.43"/><line class="cls-6" x1="936.93" y1="94.61" x2="942.92" y2="104.83"/><line class="cls-6" x1="950.04" y1="95.34" x2="952.31" y2="86.76"/><line class="cls-6" x1="947.34" y1="103.22" x2="958.25" y2="107.84"/><rect class="cls-1" x="851.09" y="76.75" width="13.5" height="52.91" rx="1.61" transform="translate(611.92 931.51) rotate(-80.32)"/><line class="cls-6" x1="863.47" y1="89.64" x2="855.94" y2="101.23"/><line class="cls-6" x1="851.22" y1="92.81" x2="848.73" y2="98.91"/><path class="cls-1" d="M1138.17,82.82c-5.79,40.23-17.09,76.06-38.17,76.06s-31.55-33.9-38.16-76.06c-6.51-41.5,17.08-76.06,38.16-76.06S1144.15,41.24,1138.17,82.82Z"/><polygon class="cls-2" points="1126.57 195.53 1073.34 195.53 1068.89 137.38 1132.19 137.38 1126.57 195.53"/><polygon class="cls-3" points="1136.51 137.38 1061.98 137.38 1059.37 126.08 1139.55 126.08 1136.51 137.38"/><path class="cls-4" d="M1092.55,63.57c1.93,7.25,8.52,5.73,12.91,3"/><ellipse cx="1091.05" cy="45.2" rx="4.68" ry="8.96"/><ellipse cx="1109.51" cy="45.2" rx="4.68" ry="8.96"/><ellipse class="cls-5" cx="1088.77" cy="42.72" rx="1.86" ry="2.07"/><ellipse class="cls-5" cx="1107.24" cy="42.72" rx="1.86" ry="2.07"/><line class="cls-6" x1="1055.47" y1="79.55" x2="1066.27" y2="84.43"/><line class="cls-6" x1="1088.91" y1="92.14" x2="1086.85" y2="103.81"/><line class="cls-6" x1="1119.9" y1="78.06" x2="1126.96" y2="87.58"/><line class="cls-6" x1="1114.47" y1="113.96" x2="1113.3" y2="120.34"/><line class="cls-6" x1="1076.72" y1="111.48" x2="1078.31" y2="117.86"/><line class="cls-6" x1="1131.83" y1="69.59" x2="1133.42" y2="75.98"/><line class="cls-7" x1="1094.91" y1="81.99" x2="1104.08" y2="93.09"/><line class="cls-8" x1="1067.9" y1="95.49" x2="1066.18" y2="104.91"/><line class="cls-6" x1="1107.86" y1="112.3" x2="1100.35" y2="117.04"/><line class="cls-6" x1="1116.42" y1="102.8" x2="1123.75" y2="107.8"/><line class="cls-6" x1="1056.32" y1="51.13" x2="1065.5" y2="62.22"/><line class="cls-6" x1="1070.35" y1="19.01" x2="1072.97" y2="33.17"/><line class="cls-6" x1="1089.57" y1="4.47" x2="1086.27" y2="18.49"/><line class="cls-6" x1="1102.52" y1="5.45" x2="1105.94" y2="17.31"/><line class="cls-6" x1="1117.55" y1="12.62" x2="1110.58" y2="27.71"/><line class="cls-6" x1="1128.53" y1="15.3" x2="1123.53" y2="32.39"/><line class="cls-7" x1="1135.14" y1="45.06" x2="1132.63" y2="63.26"/><line class="cls-6" x1="1081.13" y1="56.64" x2="1080.93" y2="72.7"/><line class="cls-6" x1="1077.54" y1="83.37" x2="1077.35" y2="99.43"/><line class="cls-6" x1="1064.51" y1="112.5" x2="1071.56" y2="122.03"/><line class="cls-6" x1="1114.2" y1="72.9" x2="1110.55" y2="82.59"/><line class="cls-6" x1="1093.53" y1="111.48" x2="1088.78" y2="122.82"/><ellipse class="cls-9" cx="1128.25" cy="23.84" rx="3.86" ry="4.96"/><ellipse class="cls-9" cx="1134.86" cy="26.87" rx="4.96" ry="3.86" transform="translate(313.39 810.34) rotate(-45)"/><ellipse class="cls-9" cx="1134.86" cy="35.42" rx="3.86" ry="4.96" transform="translate(454.53 944.43) rotate(-54.98)"/><ellipse class="cls-9" cx="1127.42" cy="38.86" rx="4.13" ry="4.82"/><ellipse class="cls-9" cx="1121.09" cy="35.14" rx="4.96" ry="3.86" transform="translate(234.7 722.45) rotate(-39.59)"/><ellipse class="cls-9" cx="1121.36" cy="26.87" rx="3.86" ry="4.96" transform="translate(455.77 929.74) rotate(-54.98)"/><circle class="cls-10" cx="1128.25" cy="31.01" r="5.24"/><rect class="cls-1" x="1135.42" y="76.48" width="13.5" height="52.91" rx="1.61" transform="translate(906.99 1225.36) rotate(-83.32)"/><line class="cls-6" x1="1128.33" y1="88.5" x2="1127.79" y2="100.33"/><line class="cls-6" x1="1141.56" y1="92.79" x2="1141.02" y2="104.63"/><line class="cls-6" x1="1152.16" y1="100.54" x2="1158.73" y2="94.59"/><line class="cls-6" x1="1145.6" y1="105.69" x2="1152.24" y2="115.5"/><rect class="cls-1" x="1050.81" y="76.75" width="13.5" height="52.91" rx="1.61" transform="translate(1347.65 1125.44) rotate(-111.42)"/><line class="cls-6" x1="1055.38" y1="88.68" x2="1054.91" y2="102.5"/><line class="cls-6" x1="1046.52" y1="97.73" x2="1047.54" y2="104.23"/></svg>
