<svg id="Layer_1" data-name="Layer 1" xmlns="http://www.w3.org/2000/svg" width="1200" height="200" viewBox="0 0 1200 200"><defs><style>.cls-1{fill:#5d7a53;}.cls-2{fill:#754c24;}.cls-3{fill:#9b6237;}.cls-4{fill:#fff;}.cls-5{fill:#515117;}.cls-6{fill:#edf728;}.cls-7{fill:#fdffeb;}</style></defs><title>kaktussprite_prove2</title><path class="cls-1" d="M1162,98.51l-39.15-4.59a6.75,6.75,0,1,0-1.57,13.41l39.15,4.58a6.75,6.75,0,0,0,1.57-13.4Z"/><path class="cls-1" d="M1081.72,93.58a6.75,6.75,0,0,0-8.75-3.82l-36.68,14.39a6.74,6.74,0,0,0-3.82,8.74h0a6.75,6.75,0,0,0,8.75,3.82l36.68-14.39A6.74,6.74,0,0,0,1081.72,93.58Z"/><path class="cls-1" d="M967.3,91.08A6.79,6.79,0,0,0,958.23,88l-35.44,17.47a6.75,6.75,0,1,0,6,12.09l35.43-17.46A6.75,6.75,0,0,0,967.3,91.08Z"/><path class="cls-1" d="M878.87,99.9l-39-6.63a6.75,6.75,0,1,0-2.28,13.31l39,6.62a6.76,6.76,0,0,0,7.81-5.52h0A6.74,6.74,0,0,0,878.87,99.9Z"/><path class="cls-1" d="M757.52,82.55a6.75,6.75,0,0,0-9.51.82l-25.37,30.16A6.75,6.75,0,0,0,733,122.22l25.37-30.16A6.74,6.74,0,0,0,757.52,82.55Z"/><path class="cls-1" d="M676.53,112,648.44,84.36a6.74,6.74,0,0,0-9.54.08h0A6.76,6.76,0,0,0,639,94l28.09,27.64a6.75,6.75,0,1,0,9.47-9.62Z"/><path class="cls-1" d="M567.3,91.07A6.79,6.79,0,0,0,558.23,88l-35.42,17.46a6.75,6.75,0,0,0-3.07,9h0a6.79,6.79,0,0,0,9.07,3.06l35.42-17.46A6.75,6.75,0,0,0,567.3,91.07Z"/><path class="cls-1" d="M478.86,99.89l-38.95-6.63a6.75,6.75,0,1,0-2.28,13.31l38.95,6.62a6.76,6.76,0,0,0,7.81-5.52h0A6.74,6.74,0,0,0,478.86,99.89Z"/><path class="cls-1" d="M362,97.93,322.9,93.32a6.75,6.75,0,0,0-7.49,6h0a6.77,6.77,0,0,0,5.92,7.53l39.13,4.61A6.79,6.79,0,0,0,362,97.93Z"/><path class="cls-1" d="M281.72,93A6.74,6.74,0,0,0,273,89.11l-36.68,14.47a6.78,6.78,0,0,0,4.93,12.64l36.68-14.47A6.8,6.8,0,0,0,281.72,93Z"/><path class="cls-1" d="M160.5,112.09,132.63,84.23a6.75,6.75,0,0,0-9.55,0h0a6.75,6.75,0,0,0,0,9.54L151,121.64a6.75,6.75,0,1,0,9.55-9.55Z"/><path class="cls-1" d="M74.51,83.23a6.75,6.75,0,0,0-9.52.68L39.17,113.69a6.76,6.76,0,0,0,.68,9.52h0a6.76,6.76,0,0,0,9.53-.68L75.19,92.75A6.75,6.75,0,0,0,74.51,83.23Z"/><path class="cls-1" d="M99.63,6.76C78.55,6.76,55,41.32,61.46,82.82c6.61,42.18,17.1,76.06,38.17,76.06S132,123.05,137.79,82.82C143.77,41.24,120.71,6.76,99.63,6.76Z"/><polygon class="cls-2" points="68.51 137.38 72.96 195.53 126.19 195.53 131.81 137.38 68.51 137.38"/><polygon class="cls-3" points="58.99 126.08 61.6 137.38 136.13 137.38 139.17 126.08 58.99 126.08"/><path d="M104,64.87c-2.19,1.36-5.27,2.52-7.38,1.68-1.21-.48-2.05-1.62-2.55-3.49l-3.86,1c1,3.91,3.26,5.53,4.94,6.19a8.36,8.36,0,0,0,3.09.57,16,16,0,0,0,7.87-2.57Z"/><ellipse cx="90.67" cy="45.2" rx="4.68" ry="8.96"/><ellipse cx="109.13" cy="45.2" rx="4.68" ry="8.96"/><path class="cls-4" d="M88.4,40.65a2.08,2.08,0,1,0,1.86,2.07A2,2,0,0,0,88.4,40.65Z"/><path class="cls-4" d="M106.86,40.65a2.08,2.08,0,1,0,1.86,2.07A2,2,0,0,0,106.86,40.65Z"/><rect class="cls-5" x="59.49" y="76.06" width="2" height="11.85" transform="translate(-39.13 103.36) rotate(-65.69)"/><rect class="cls-5" x="81.58" y="96.97" width="11.85" height="2" transform="translate(-24.19 167.11) rotate(-79.99)"/><rect class="cls-5" x="122.05" y="76.89" width="2" height="11.85" transform="translate(-25.12 89.6) rotate(-36.56)"/><rect class="cls-5" x="110.27" y="116.15" width="6.48" height="2" transform="translate(-22.06 207.87) rotate(-79.69)"/><rect class="cls-5" x="76.14" y="111.38" width="2" height="6.57" transform="translate(-25.48 22.1) rotate(-14.02)"/><rect class="cls-5" x="131.25" y="69.49" width="2" height="6.58" transform="translate(-13.65 34.06) rotate(-13.96)"/><rect class="cls-5" x="97.62" y="80.34" width="3" height="14.4" transform="translate(-33.05 83.2) rotate(-39.57)"/><rect class="cls-5" x="61.87" y="99.7" width="9.58" height="1" transform="translate(-43.88 147.78) rotate(-79.65)"/><rect class="cls-5" x="99.29" y="113.67" width="8.88" height="2" transform="translate(-45.2 73.07) rotate(-32.26)"/><rect class="cls-5" x="118.72" y="100.86" width="2" height="8.87" transform="translate(-34.73 144.87) rotate(-55.7)"/><rect class="cls-5" x="59.54" y="49.48" width="2" height="14.39" transform="translate(-22.23 51.58) rotate(-39.59)"/><rect class="cls-5" x="70.29" y="18.89" width="2" height="14.4" transform="translate(-3.57 13.45) rotate(-10.52)"/><rect class="cls-5" x="80.34" y="10.48" width="14.4" height="2" transform="translate(56.31 94.06) rotate(-76.76)"/><rect class="cls-5" x="102.85" y="5.21" width="2" height="12.34" transform="translate(0.91 29.2) rotate(-16.07)"/><rect class="cls-5" x="105.38" y="19.17" width="16.62" height="2" transform="translate(47.71 114.92) rotate(-65.21)"/><rect class="cls-5" x="116.75" y="22.84" width="17.8" height="2" transform="translate(67.55 137.78) rotate(-73.72)"/><rect class="cls-5" x="124.32" y="52.66" width="18.37" height="3" transform="translate(61.61 179.01) rotate(-82.15)"/><rect class="cls-5" x="72.63" y="63.67" width="16.06" height="2" transform="translate(15.04 144.56) rotate(-89.32)"/><rect class="cls-5" x="69.04" y="90.4" width="16.06" height="2" transform="translate(-15.28 167.33) rotate(-89.29)"/><rect class="cls-5" x="66.66" y="111.33" width="2" height="11.86" transform="translate(-56.52 63.35) rotate(-36.55)"/><rect class="cls-5" x="106.82" y="76.74" width="10.35" height="2" transform="translate(-0.24 155.14) rotate(-69.36)"/><rect class="cls-5" x="84.63" y="116.15" width="12.29" height="2" transform="translate(-52.35 155.62) rotate(-67.27)"/><path class="cls-6" d="M127.87,18.88c-2.13,0-3.86,2.22-3.86,5s1.73,5,3.86,5,3.86-2.22,3.86-5S130,18.88,127.87,18.88Z"/><path class="cls-6" d="M138,23.36c-1.51-1.51-4.3-1.16-6.24.78s-2.28,4.73-.77,6.24,4.3,1.15,6.23-.78S139.5,24.87,138,23.36Z"/><path class="cls-6" d="M136.7,32.24c-2.25-1.57-5.06-1.43-6.28.32s-.4,4.43,1.85,6,5,1.44,6.27-.31S138.94,33.81,136.7,32.24Z"/><ellipse class="cls-6" cx="127.05" cy="38.86" rx="4.13" ry="4.82"/><path class="cls-6" d="M124.53,32c-1.36-1.64-4.17-1.56-6.28.18s-2.72,4.5-1.36,6.14,4.17,1.56,6.28-.19S125.89,33.61,124.53,32Z"/><path class="cls-6" d="M123.19,23.71c-2.24-1.57-5-1.43-6.28.31s-.39,4.44,1.85,6,5.06,1.43,6.28-.31S125.44,25.28,123.19,23.71Z"/><circle class="cls-7" cx="127.87" cy="31.01" r="5.24"/><rect class="cls-5" x="130.08" y="86.5" width="11.85" height="2" transform="translate(-19.21 132.94) rotate(-49.07)"/><rect class="cls-5" x="137.8" y="98.07" width="11.85" height="2" transform="translate(-25.29 142.76) rotate(-49.07)"/><rect class="cls-5" x="151.1" y="105.95" width="8.87" height="2" transform="translate(-6.77 10.58) rotate(-3.81)"/><rect class="cls-5" x="136.42" y="112.13" width="11.85" height="2" transform="translate(18.95 246.68) rotate(-85.74)"/><rect class="cls-5" x="50.51" y="90.68" width="2" height="13.82" transform="translate(-37.21 31.97) rotate(-25.69)"/><rect class="cls-5" x="45.82" y="102.83" width="2" height="6.58" transform="translate(-54 48.78) rotate(-36.56)"/><path class="cls-1" d="M299.55,5.65c-21.08,0-44.67,34.76-38.16,76.5,6.6,42.42,17.09,76.49,38.16,76.49s32.38-36,38.16-76.49C343.69,40.33,320.63,5.65,299.55,5.65Z"/><polygon class="cls-2" points="268.44 137.02 272.88 195.5 326.11 195.5 331.73 137.02 268.44 137.02"/><polygon class="cls-3" points="258.92 125.65 261.52 137.02 336.05 137.02 339.09 125.65 258.92 125.65"/><path d="M303.94,64.11c-2.18,1.36-5.26,2.52-7.36,1.69-1.22-.48-2.05-1.63-2.55-3.53l-3.87,1c1,3.93,3.27,5.56,4.95,6.22a8.3,8.3,0,0,0,3.08.56,16,16,0,0,0,7.87-2.58Z"/><ellipse cx="290.59" cy="44.31" rx="4.68" ry="9.01"/><ellipse cx="309.05" cy="44.31" rx="4.68" ry="9.01"/><path class="cls-4" d="M289.32,39.74a2.09,2.09,0,1,0,1.86,2.08A2,2,0,0,0,289.32,39.74Z"/><path class="cls-4" d="M307.78,39.74a2.09,2.09,0,1,0,1.86,2.08A2,2,0,0,0,307.78,39.74Z"/><rect class="cls-5" x="259.42" y="75.38" width="2" height="11.86" transform="translate(78.66 284.76) rotate(-65.56)"/><rect class="cls-5" x="281.46" y="96.39" width="11.92" height="2" transform="translate(141.81 363.65) rotate(-80.04)"/><rect class="cls-5" x="321.97" y="76.2" width="2" height="11.9" transform="translate(14.27 207.68) rotate(-36.4)"/><rect class="cls-5" x="310.17" y="115.67" width="6.52" height="2" transform="translate(142.86 404.35) rotate(-79.75)"/><rect class="cls-5" x="276.06" y="110.87" width="2" height="6.61" transform="translate(-19.32 69.9) rotate(-13.9)"/><rect class="cls-5" x="331.16" y="68.74" width="2" height="6.62" transform="translate(-7.58 81.91) rotate(-13.9)"/><rect class="cls-5" x="297.54" y="79.67" width="3" height="14.45" transform="translate(12.81 209.55) rotate(-39.4)"/><rect class="cls-5" x="261.77" y="99.13" width="9.63" height="1" transform="translate(120.95 344.13) rotate(-79.71)"/><rect class="cls-5" x="299.2" y="113.18" width="8.89" height="2" transform="translate(-13.9 180.51) rotate(-32.41)"/><rect class="cls-5" x="318.63" y="100.31" width="2" height="8.89" transform="translate(52.35 308.96) rotate(-55.53)"/><rect class="cls-5" x="259.46" y="48.63" width="2" height="14.44" transform="translate(23.81 178.15) rotate(-39.43)"/><rect class="cls-5" x="270.21" y="17.85" width="2" height="14.48" transform="matrix(0.98, -0.18, 0.18, 0.98, -0.05, 49.68)"/><rect class="cls-5" x="280.22" y="10.55" width="14.48" height="2" transform="translate(210.72 288.82) rotate(-76.83)"/><rect class="cls-5" x="302.77" y="5.25" width="2" height="12.41" transform="translate(8.59 84.09) rotate(-15.98)"/><rect class="cls-5" x="305.26" y="18.13" width="16.7" height="2" transform="translate(165.34 296.14) rotate(-65.33)"/><rect class="cls-5" x="316.63" y="21.83" width="17.9" height="2" transform="translate(212.87 329.13) rotate(-73.81)"/><rect class="cls-5" x="324.19" y="51.82" width="18.47" height="3" transform="matrix(0.14, -0.99, 0.99, 0.14, 235.3, 376.41)"/><rect class="cls-5" x="272.5" y="62.89" width="16.15" height="2" transform="translate(213.39 343.7) rotate(-89.33)"/><rect class="cls-5" x="268.92" y="89.78" width="16.15" height="2" transform="translate(182.79 366.62) rotate(-89.29)"/><rect class="cls-5" x="266.58" y="110.84" width="2" height="11.9" transform="translate(-17.14 181.38) rotate(-36.36)"/><rect class="cls-5" x="306.71" y="76.04" width="10.41" height="2" transform="translate(130.37 342.12) rotate(-69.47)"/><rect class="cls-5" x="284.52" y="115.67" width="12.35" height="2" transform="translate(71.24 340.18) rotate(-67.39)"/><path class="cls-6" d="M327.79,17.84c-2.13,0-3.86,2.23-3.86,5s1.73,5,3.86,5,3.86-2.24,3.86-5S329.92,17.84,327.79,17.84Z"/><path class="cls-6" d="M337.91,22.35c-1.51-1.52-4.3-1.17-6.24.78s-2.28,4.75-.78,6.27,4.3,1.17,6.24-.78S339.42,23.86,337.91,22.35Z"/><path class="cls-6" d="M336.61,31.27c-2.25-1.58-5.06-1.44-6.28.32s-.4,4.46,1.85,6,5.05,1.44,6.27-.32S338.85,32.85,336.61,31.27Z"/><path class="cls-6" d="M327,33.09c-2.28,0-4.13,2.17-4.13,4.84s1.85,4.85,4.13,4.85,4.13-2.17,4.13-4.85S329.25,33.09,327,33.09Z"/><ellipse class="cls-6" cx="320.61" cy="34.17" rx="4.97" ry="3.87" transform="translate(53.85 215.28) rotate(-40.26)"/><path class="cls-6" d="M323.09,22.69c-2.24-1.58-5-1.44-6.27.31s-.4,4.47,1.84,6.05,5.06,1.44,6.28-.32S325.34,24.27,323.09,22.69Z"/><ellipse class="cls-7" cx="327.79" cy="30.04" rx="5.24" ry="5.27"/><rect class="cls-5" x="321.64" y="92.81" width="11.91" height="2" transform="translate(219.03 416.82) rotate(-87.4)"/><rect class="cls-5" x="334.87" y="97.13" width="11.92" height="2" transform="matrix(0.05, -1, 1, 0.05, 227.37, 434.16)"/><rect class="cls-5" x="350.54" y="95.98" width="8.89" height="2" transform="translate(27.25 264.33) rotate(-42.33)"/><rect class="cls-5" x="347.46" y="104.13" width="2" height="11.89" transform="translate(-2.07 213.39) rotate(-33.95)"/><rect class="cls-5" x="247.74" y="93.99" width="13.91" height="2" transform="translate(151.15 346.33) rotate(-88.06)"/><rect class="cls-5" x="245.58" y="97.1" width="2" height="6.62" transform="translate(-12.54 39.24) rotate(-8.87)"/><path class="cls-1" d="M500.76,6.79c-21.08,0-44.67,34.55-38.16,76,6.61,42.16,17.08,76,38.16,76s32.38-35.82,38.17-76C544.91,41.26,521.84,6.79,500.76,6.79Z"/><polygon class="cls-2" points="469.57 137.37 474.03 195.5 527.4 195.5 533.04 137.37 469.57 137.37"/><polygon class="cls-3" points="460.03 126.07 462.64 137.37 537.37 137.37 540.42 126.07 460.03 126.07"/><path d="M505.18,64.88c-2.19,1.36-5.29,2.52-7.4,1.68-1.22-.48-2.06-1.63-2.55-3.49l-3.87,1c1,3.9,3.26,5.51,4.94,6.18a8.47,8.47,0,0,0,3.11.57,16,16,0,0,0,7.88-2.57Z"/><ellipse cx="491.79" cy="45.22" rx="4.69" ry="8.96"/><ellipse cx="510.3" cy="45.22" rx="4.69" ry="8.96"/><path class="cls-4" d="M491.51,40.67a2.08,2.08,0,1,0,1.86,2.07A2,2,0,0,0,491.51,40.67Z"/><path class="cls-4" d="M510,40.67a2.08,2.08,0,1,0,1.86,2.07A2,2,0,0,0,510,40.67Z"/><rect class="cls-5" x="460.53" y="76.06" width="2" height="11.88" transform="translate(197.21 469.13) rotate(-65.75)"/><rect class="cls-5" x="482.69" y="96.98" width="11.85" height="2" transform="translate(306.95 562.02) rotate(-79.96)"/><rect class="cls-5" x="523.25" y="76.89" width="2" height="11.86" transform="translate(54.17 329.24) rotate(-36.64)"/><rect class="cls-5" x="511.44" y="116.15" width="6.48" height="2" transform="translate(306.39 602.15) rotate(-79.58)"/><rect class="cls-5" x="477.22" y="111.38" width="2" height="6.57" transform="translate(-13.53 119.23) rotate(-14.02)"/><rect class="cls-5" x="532.47" y="69.5" width="2" height="6.58" transform="translate(-1.75 131.37) rotate(-14.02)"/><rect class="cls-5" x="498.76" y="80.34" width="3" height="14.41" transform="translate(59.17 339.26) rotate(-39.64)"/><rect class="cls-5" x="462.93" y="99.7" width="9.57" height="1" transform="translate(284.92 542.22) rotate(-79.62)"/><rect class="cls-5" x="500.43" y="113.66" width="8.9" height="2" transform="translate(16.5 286.53) rotate(-32.18)"/><rect class="cls-5" x="519.9" y="100.85" width="2" height="8.89" transform="translate(140.91 476.82) rotate(-55.78)"/><rect class="cls-5" x="460.57" y="49.48" width="2" height="14.41" transform="translate(70.19 307.85) rotate(-39.69)"/><rect class="cls-5" x="471.35" y="18.91" width="2" height="14.4" transform="translate(3.17 86.68) rotate(-10.52)"/><rect class="cls-5" x="481.45" y="10.51" width="14.4" height="2" transform="translate(365.17 484.44) rotate(-76.72)"/><rect class="cls-5" x="504" y="5.24" width="2" height="12.34" transform="translate(16.72 140.78) rotate(-16.13)"/><rect class="cls-5" x="506.55" y="19.19" width="16.63" height="2" transform="translate(280.14 478.88) rotate(-65.15)"/><rect class="cls-5" x="517.96" y="22.87" width="17.8" height="2" transform="translate(355.63 522.7) rotate(-73.65)"/><rect class="cls-5" x="525.55" y="52.67" width="18.37" height="3" transform="translate(407.81 576.45) rotate(-82.12)"/><rect class="cls-5" x="473.72" y="63.68" width="16.06" height="2" transform="translate(411.06 545.58) rotate(-89.29)"/><rect class="cls-5" x="470.12" y="90.4" width="16.06" height="2" transform="translate(381.08 568.43) rotate(-89.32)"/><rect class="cls-5" x="467.71" y="111.33" width="2" height="11.86" transform="translate(22.39 302.29) rotate(-36.56)"/><rect class="cls-5" x="507.99" y="76.75" width="10.36" height="2" transform="translate(259.08 530.33) rotate(-69.3)"/><rect class="cls-5" x="485.75" y="116.14" width="12.3" height="2" transform="translate(193.36 525.26) rotate(-67.21)"/><ellipse class="cls-6" cx="529.09" cy="23.86" rx="3.87" ry="4.96"/><path class="cls-6" d="M539.23,23.39c-1.51-1.5-4.31-1.16-6.25.78s-2.29,4.73-.78,6.24,4.31,1.15,6.25-.78S540.74,24.9,539.23,23.39Z"/><path class="cls-6" d="M537.91,32.25c-2.25-1.57-5.07-1.43-6.3.32s-.39,4.43,1.86,6,5.06,1.43,6.29-.31S540.16,33.82,537.91,32.25Z"/><path class="cls-6" d="M528.25,34.06c-2.28,0-4.14,2.16-4.14,4.82s1.86,4.82,4.14,4.82,4.15-2.16,4.15-4.82S530.54,34.06,528.25,34.06Z"/><path class="cls-6" d="M525.71,32c-1.36-1.64-4.18-1.55-6.3.19s-2.73,4.49-1.37,6.13,4.19,1.56,6.3-.18S527.07,33.61,525.71,32Z"/><path class="cls-6" d="M524.36,23.7c-2.25-1.57-5.06-1.43-6.29.32s-.4,4.43,1.85,6,5.07,1.43,6.3-.31S526.61,25.28,524.36,23.7Z"/><ellipse class="cls-7" cx="529.09" cy="31.03" rx="5.25" ry="5.24"/><rect class="cls-5" x="526.04" y="97.39" width="2" height="11.85" transform="translate(20.32 281.31) rotate(-30.45)"/><rect class="cls-5" x="539.51" y="93.79" width="2" height="11.86" transform="translate(24.13 287.98) rotate(-30.48)"/><rect class="cls-5" x="547.35" y="90.05" width="8.87" height="2" transform="translate(322.27 601.04) rotate(-75.14)"/><rect class="cls-5" x="552.42" y="99.59" width="2" height="11.87" transform="translate(240.79 574.22) rotate(-67.09)"/><rect class="cls-5" x="453.17" y="94.44" width="13.83" height="2" transform="matrix(0.55, -0.84, 0.84, 0.55, 128.95, 428.8)"/><rect class="cls-5" x="447.03" y="94.86" width="6.59" height="2" transform="translate(191.02 476.31) rotate(-67.74)"/><path class="cls-1" d="M701,6.76c-21.08,0-44.68,34.56-38.17,76.06,6.61,42.18,17.09,76.06,38.17,76.06s32.38-35.83,38.16-76.06C745.09,41.24,722,6.76,701,6.76Z"/><polygon class="cls-2" points="669.83 137.38 674.28 195.53 727.51 195.53 733.13 137.38 669.83 137.38"/><polygon class="cls-3" points="660.31 126.08 662.92 137.38 737.45 137.38 740.49 126.08 660.31 126.08"/><path d="M705.34,64.87c-2.18,1.36-5.26,2.52-7.37,1.68-1.22-.48-2.05-1.62-2.55-3.49l-3.86,1c1,3.91,3.26,5.53,4.94,6.19a8.35,8.35,0,0,0,3.08.57,16,16,0,0,0,7.88-2.57Z"/><ellipse cx="691.99" cy="45.2" rx="4.68" ry="8.96"/><ellipse cx="710.45" cy="45.2" rx="4.68" ry="8.96"/><path class="cls-4" d="M692.72,40.65a2.08,2.08,0,1,0,1.86,2.07A2,2,0,0,0,692.72,40.65Z"/><path class="cls-4" d="M711.18,40.65A2.08,2.08,0,1,0,713,42.72,2,2,0,0,0,711.18,40.65Z"/><rect class="cls-5" x="660.81" y="76.06" width="2" height="11.85" transform="translate(314.37 651.2) rotate(-65.66)"/><rect class="cls-5" x="682.89" y="96.98" width="11.85" height="2" transform="translate(472.56 759.26) rotate(-79.99)"/><rect class="cls-5" x="723.37" y="76.89" width="2" height="11.85" transform="translate(93.11 447.62) rotate(-36.55)"/><rect class="cls-5" x="711.59" y="116.15" width="6.48" height="2" transform="translate(471.68 799.49) rotate(-79.69)"/><rect class="cls-5" x="677.45" y="111.38" width="2" height="6.57" transform="translate(-7.58 167.65) rotate(-14.01)"/><rect class="cls-5" x="732.57" y="69.49" width="2" height="6.58" transform="translate(4 178.36) rotate(-13.9)"/><rect class="cls-5" x="698.93" y="80.34" width="3" height="14.4" transform="translate(104.75 466.27) rotate(-39.57)"/><rect class="cls-5" x="663.19" y="99.7" width="9.58" height="1" transform="translate(449.38 739.3) rotate(-79.65)"/><rect class="cls-5" x="700.61" y="113.67" width="8.87" height="2" transform="translate(47.8 394.42) rotate(-32.29)"/><rect class="cls-5" x="720.03" y="100.86" width="2" height="8.87" transform="translate(227.77 641.65) rotate(-55.7)"/><rect class="cls-5" x="660.85" y="49.48" width="2" height="14.39" transform="translate(115.7 434.8) rotate(-39.59)"/><rect class="cls-5" x="671.6" y="18.89" width="2" height="14.4" transform="translate(6.54 123.24) rotate(-10.52)"/><rect class="cls-5" x="681.66" y="10.48" width="14.4" height="2" transform="translate(519.82 679.38) rotate(-76.75)"/><rect class="cls-5" x="704.17" y="5.21" width="2" height="12.34" transform="translate(24.5 195.99) rotate(-16.1)"/><rect class="cls-5" x="706.69" y="19.16" width="16.62" height="2" transform="translate(396.89 660.82) rotate(-65.21)"/><rect class="cls-5" x="718.07" y="22.84" width="17.8" height="2" transform="translate(500.32 715) rotate(-73.72)"/><rect class="cls-5" x="725.64" y="52.66" width="18.37" height="3" transform="translate(580.79 774.7) rotate(-82.15)"/><rect class="cls-5" x="673.94" y="63.67" width="16.06" height="2" transform="translate(609.26 745.83) rotate(-89.32)"/><rect class="cls-5" x="670.36" y="90.4" width="16.06" height="2" transform="translate(578.54 768.6) rotate(-89.29)"/><rect class="cls-5" x="667.98" y="111.33" width="2" height="11.86" transform="translate(61.71 421.41) rotate(-36.55)"/><rect class="cls-5" x="708.14" y="76.75" width="10.35" height="2" transform="translate(389.09 717.86) rotate(-69.36)"/><rect class="cls-5" x="685.95" y="116.15" width="12.29" height="2" transform="translate(316.65 710.24) rotate(-67.27)"/><ellipse class="cls-6" cx="729.19" cy="23.84" rx="3.86" ry="4.96"/><path class="cls-6" d="M739.32,23.36c-1.51-1.5-4.3-1.16-6.24.78s-2.29,4.73-.78,6.24,4.3,1.16,6.24-.78S740.82,24.87,739.32,23.36Z"/><path class="cls-6" d="M738,32.21c-2.25-1.57-5.06-1.43-6.28.32s-.4,4.43,1.85,6,5.05,1.44,6.27-.31S740.22,33.78,738,32.21Z"/><ellipse class="cls-6" cx="728.37" cy="38.86" rx="4.13" ry="4.82"/><path class="cls-6" d="M725.81,31.93c-1.36-1.65-4.17-1.56-6.28.18s-2.72,4.5-1.36,6.14,4.17,1.56,6.28-.19S727.17,33.57,725.81,31.93Z"/><path class="cls-6" d="M724.46,23.68c-2.24-1.57-5.05-1.43-6.28.31s-.39,4.44,1.85,6,5.06,1.43,6.28-.31S726.71,25.25,724.46,23.68Z"/><circle class="cls-7" cx="729.19" cy="31.01" r="5.24"/><rect class="cls-5" x="727.74" y="103.95" width="2" height="11.85" transform="translate(211.33 634.68) rotate(-53.98)"/><rect class="cls-5" x="738.61" y="95.27" width="2" height="11.85" transform="translate(222.83 639.9) rotate(-53.98)"/><rect class="cls-5" x="745.44" y="84.31" width="2" height="8.87" transform="translate(-4.82 114.39) rotate(-8.74)"/><rect class="cls-5" x="747.81" y="100.36" width="11.85" height="2" transform="translate(-1.14 8.89) rotate(-0.68)"/><rect class="cls-5" x="656.79" y="96.65" width="13.82" height="2" transform="translate(12.05 256.99) rotate(-22.11)"/><rect class="cls-5" x="652.18" y="91.44" width="6.58" height="2" transform="translate(55.22 371.53) rotate(-32.96)"/><path class="cls-1" d="M900.77,6.79c-21.08,0-44.68,34.55-38.17,76,6.61,42.16,17.09,76,38.17,76s32.38-35.82,38.16-76C944.91,41.26,921.85,6.79,900.77,6.79Z"/><polygon class="cls-2" points="869.56 137.37 874.02 195.5 927.41 195.5 933.05 137.37 869.56 137.37"/><polygon class="cls-3" points="860.01 126.07 862.63 137.37 937.38 137.37 940.43 126.07 860.01 126.07"/><path d="M905.19,64.88c-2.2,1.36-5.3,2.52-7.41,1.68-1.22-.48-2.06-1.63-2.56-3.49l-3.86,1c1,3.9,3.26,5.51,4.94,6.18a8.45,8.45,0,0,0,3.1.57,16,16,0,0,0,7.89-2.57Z"/><ellipse cx="891.79" cy="45.22" rx="4.69" ry="8.96"/><ellipse cx="910.3" cy="45.22" rx="4.69" ry="8.96"/><ellipse class="cls-4" cx="893.52" cy="42.74" rx="1.87" ry="2.07"/><ellipse class="cls-4" cx="912.04" cy="42.74" rx="1.87" ry="2.07"/><rect class="cls-5" x="860.52" y="76.06" width="2" height="11.88" transform="translate(433.26 834.01) rotate(-65.78)"/><rect class="cls-5" x="882.68" y="96.98" width="11.85" height="2" transform="translate(637.21 955.89) rotate(-79.96)"/><rect class="cls-5" x="923.26" y="76.89" width="2" height="11.86" transform="translate(133.26 568.04) rotate(-36.65)"/><rect class="cls-5" x="911.45" y="116.15" width="6.48" height="2" transform="matrix(0.18, -0.98, 0.98, 0.18, 635.35, 995.98)"/><rect class="cls-5" x="877.21" y="111.38" width="2" height="6.57" transform="translate(-1.61 216.21) rotate(-14.02)"/><rect class="cls-5" x="932.49" y="69.5" width="2" height="6.58" transform="translate(9.92 226.83) rotate(-13.93)"/><rect class="cls-5" x="898.76" y="80.34" width="3" height="14.41" transform="translate(151.13 594.44) rotate(-39.64)"/><rect class="cls-5" x="862.92" y="99.7" width="9.57" height="1" transform="translate(612.76 935.64) rotate(-79.62)"/><rect class="cls-5" x="900.44" y="113.67" width="8.89" height="2" transform="translate(78.12 499.92) rotate(-32.21)"/><rect class="cls-5" x="919.92" y="100.85" width="2" height="8.89" transform="translate(315.98 807.6) rotate(-55.78)"/><rect class="cls-5" x="860.56" y="49.49" width="2" height="14.4" transform="translate(162.39 563.3) rotate(-39.69)"/><rect class="cls-5" x="871.34" y="18.91" width="2" height="14.4" transform="translate(9.96 160.12) rotate(-10.55)"/><rect class="cls-5" x="881.45" y="10.51" width="14.4" height="2" transform="translate(673.22 873.73) rotate(-76.71)"/><rect class="cls-5" x="904.01" y="5.24" width="2" height="12.34" transform="translate(32.44 251.81) rotate(-16.13)"/><rect class="cls-5" x="906.56" y="19.19" width="16.63" height="2" transform="translate(511.91 841.79) rotate(-65.14)"/><rect class="cls-5" x="917.97" y="22.87" width="17.8" height="2" transform="translate(643.39 906.65) rotate(-73.67)"/><rect class="cls-5" x="925.57" y="52.67" width="18.37" height="3" transform="translate(752.92 972.67) rotate(-82.12)"/><rect class="cls-5" x="873.71" y="63.68" width="16.06" height="2" transform="translate(806.61 945.59) rotate(-89.32)"/><rect class="cls-5" x="870.12" y="90.4" width="16.06" height="2" transform="translate(775.75 968.33) rotate(-89.28)"/><rect class="cls-5" x="867.71" y="111.32" width="2" height="11.87" transform="translate(101.56 541.38) rotate(-36.62)"/><rect class="cls-5" x="908" y="76.75" width="10.36" height="2" transform="translate(517.6 904.47) rotate(-69.3)"/><rect class="cls-5" x="885.74" y="116.14" width="12.3" height="2" transform="translate(438.37 894) rotate(-67.21)"/><ellipse class="cls-6" cx="929.1" cy="23.86" rx="3.87" ry="4.96"/><ellipse class="cls-6" cx="935.74" cy="26.89" rx="4.97" ry="3.87" transform="translate(250.76 664.96) rotate(-44.62)"/><path class="cls-6" d="M937.89,32.23c-2.25-1.57-5.07-1.43-6.29.32s-.4,4.43,1.85,6,5.07,1.43,6.3-.31S940.14,33.81,937.89,32.23Z"/><path class="cls-6" d="M928.27,34.06c-2.28,0-4.14,2.16-4.14,4.82s1.86,4.82,4.14,4.82,4.15-2.16,4.15-4.82S930.56,34.06,928.27,34.06Z"/><path class="cls-6" d="M925.7,31.94c-1.36-1.64-4.18-1.56-6.3.19s-2.73,4.49-1.36,6.13,4.18,1.56,6.3-.19S927.07,33.58,925.7,31.94Z"/><path class="cls-6" d="M924.35,23.69c-2.25-1.57-5.07-1.43-6.3.32s-.4,4.43,1.85,6,5.07,1.43,6.3-.31S926.6,25.27,924.35,23.69Z"/><ellipse class="cls-7" cx="929.1" cy="31.03" rx="5.26" ry="5.24"/><rect class="cls-5" x="926.05" y="97.39" width="2" height="11.85" transform="translate(75.48 484) rotate(-30.45)"/><rect class="cls-5" x="939.53" y="93.79" width="2" height="11.85" transform="translate(79.16 490.34) rotate(-30.45)"/><rect class="cls-5" x="947.37" y="90.05" width="8.87" height="2" transform="matrix(0.26, -0.97, 0.97, 0.26, 619.65, 987.66)"/><rect class="cls-5" x="952.44" y="99.59" width="2" height="11.88" transform="translate(485.47 942.9) rotate(-67.12)"/><rect class="cls-5" x="853.15" y="94.44" width="13.83" height="2" transform="translate(310.49 763.86) rotate(-56.9)"/><rect class="cls-5" x="847.01" y="94.86" width="6.59" height="2" transform="translate(439.28 846.37) rotate(-67.72)"/><path class="cls-1" d="M1099.59,6.79c-21.08,0-44.67,34.55-38.16,76,6.61,42.14,17.08,76,38.16,76s32.38-35.82,38.17-76C1143.74,41.26,1120.67,6.79,1099.59,6.79Z"/><polygon class="cls-2" points="1068.48 137.37 1072.93 195.5 1126.16 195.5 1131.78 137.37 1068.48 137.37"/><polygon class="cls-3" points="1058.96 126.07 1061.57 137.37 1136.1 137.37 1139.14 126.07 1058.96 126.07"/><path d="M1104,64.88c-2.19,1.36-5.27,2.52-7.38,1.68-1.21-.48-2-1.62-2.55-3.49l-3.86,1c1,3.9,3.26,5.52,4.94,6.18a8.36,8.36,0,0,0,3.09.57,16,16,0,0,0,7.87-2.57Z"/><ellipse cx="1090.64" cy="45.22" rx="4.68" ry="8.96"/><ellipse cx="1109.1" cy="45.22" rx="4.68" ry="8.96"/><ellipse class="cls-4" cx="1093.36" cy="42.74" rx="1.86" ry="2.07"/><ellipse class="cls-4" cx="1111.83" cy="42.74" rx="1.86" ry="2.07"/><rect class="cls-5" x="1059.46" y="76.07" width="2" height="11.85" transform="translate(548.73 1014.43) rotate(-65.66)"/><rect class="cls-5" x="1081.55" y="96.98" width="11.85" height="2" transform="translate(801.92 1151.85) rotate(-79.99)"/><rect class="cls-5" x="1122.02" y="76.9" width="2" height="11.85" transform="translate(171.83 685.55) rotate(-36.58)"/><rect class="cls-5" x="1110.23" y="116.15" width="6.48" height="2" transform="translate(797.36 1191.21) rotate(-79.61)"/><rect class="cls-5" x="1076.11" y="111.38" width="2" height="6.57" transform="translate(4.28 264.15) rotate(-14.01)"/><rect class="cls-5" x="1131.22" y="69.5" width="2" height="6.58" transform="translate(15.96 275.72) rotate(-13.98)"/><rect class="cls-5" x="1097.59" y="80.35" width="3" height="14.4" transform="translate(196.11 720.23) rotate(-39.57)"/><rect class="cls-5" x="1061.84" y="99.7" width="9.57" height="1" transform="translate(776.44 1131.48) rotate(-79.65)"/><rect class="cls-5" x="1099.26" y="113.67" width="8.88" height="2" transform="translate(109.08 606.64) rotate(-32.25)"/><rect class="cls-5" x="1118.68" y="100.86" width="2" height="8.87" transform="translate(401.79 970.98) rotate(-55.7)"/><rect class="cls-5" x="1059.5" y="49.49" width="2" height="14.39" transform="translate(207.37 689.18) rotate(-39.61)"/><rect class="cls-5" x="1070.25" y="18.92" width="2" height="14.4" transform="translate(13.16 195.52) rotate(-10.49)"/><rect class="cls-5" x="1080.31" y="10.51" width="14.4" height="2" transform="translate(827.08 1067.44) rotate(-76.75)"/><rect class="cls-5" x="1102.82" y="5.24" width="2" height="12.34" transform="translate(40.12 306.54) rotate(-16.1)"/><rect class="cls-5" x="1105.35" y="19.19" width="16.62" height="2" transform="translate(628.24 1022.69) rotate(-65.2)"/><rect class="cls-5" x="1116.72" y="22.87" width="17.8" height="2" transform="translate(786.55 1097.47) rotate(-73.69)"/><rect class="cls-5" x="1124.29" y="52.67" width="18.37" height="3" transform="translate(924.86 1169.6) rotate(-82.14)"/><rect class="cls-5" x="1072.59" y="63.68" width="16.06" height="2" transform="translate(1002.54 1144.42) rotate(-89.29)"/><rect class="cls-5" x="1069.01" y="90.4" width="16.06" height="2" transform="translate(972.93 1167.29) rotate(-89.32)"/><rect class="cls-5" x="1066.63" y="111.33" width="2" height="11.85" transform="translate(139.66 658.06) rotate(-36.5)"/><rect class="cls-5" x="1106.79" y="76.75" width="10.35" height="2" transform="translate(647.1 1090.87) rotate(-69.35)"/><rect class="cls-5" x="1084.6" y="116.14" width="12.29" height="2" transform="translate(561.17 1077.87) rotate(-67.27)"/><ellipse class="cls-6" cx="1127.84" cy="23.86" rx="3.86" ry="4.96"/><path class="cls-6" d="M1138,23.39c-1.51-1.51-4.3-1.16-6.24.78s-2.29,4.72-.78,6.23,4.3,1.16,6.24-.78S1139.46,24.9,1138,23.39Z"/><path class="cls-6" d="M1136.6,32.22c-2.25-1.57-5.06-1.43-6.28.32s-.4,4.43,1.85,6,5,1.43,6.27-.31S1138.84,33.79,1136.6,32.22Z"/><ellipse class="cls-6" cx="1127.01" cy="38.88" rx="4.13" ry="4.82"/><ellipse class="cls-6" cx="1120.62" cy="35.09" rx="4.96" ry="3.86" transform="translate(234.22 721.62) rotate(-39.55)"/><path class="cls-6" d="M1123.09,23.68c-2.25-1.57-5.06-1.43-6.28.32s-.4,4.43,1.85,6,5,1.43,6.27-.31S1125.33,25.25,1123.09,23.68Z"/><circle class="cls-7" cx="1127.84" cy="31.03" r="5.24"/><rect class="cls-5" x="1121.73" y="93.42" width="11.84" height="2" transform="translate(981.89 1216.59) rotate(-87.39)"/><rect class="cls-5" x="1134.96" y="97.71" width="11.85" height="2" transform="translate(990.27 1233.91) rotate(-87.39)"/><rect class="cls-5" x="1150.6" y="96.57" width="8.86" height="2" transform="translate(233.29 800.43) rotate(-42.16)"/><rect class="cls-5" x="1147.51" y="104.67" width="2" height="11.84" transform="translate(135.41 662.8) rotate(-34.09)"/><rect class="cls-5" x="1047.82" y="94.59" width="13.82" height="2" transform="translate(923.36 1146.47) rotate(-88.05)"/><rect class="cls-5" x="1045.62" y="97.69" width="2" height="6.58" transform="translate(-3.02 163.16) rotate(-8.9)"/></svg>
