<?xml version="1.0" encoding="utf-8"?>
<!-- Generator: Adobe Illustrator 23.0.1, SVG Export Plug-In . SVG Version: 6.00 Build 0)  -->
<svg version="1.1" id="Layer_1" xmlns="http://www.w3.org/2000/svg" xmlns:xlink="http://www.w3.org/1999/xlink" x="0px" y="0px"
	 viewBox="0 0 600 200" style="enable-background:new 0 0 600 200;" xml:space="preserve">
<style type="text/css">
	.st0{fill:#5D7A53;}
	.st1{fill:#754C24;}
	.st2{fill:#9B6237;}
	.st3{fill:none;stroke:#000000;stroke-width:2;stroke-miterlimit:10;}
	.st4{fill:#FFFFFF;}
	.st5{fill:none;stroke:#515117;stroke-width:2;stroke-miterlimit:10;}
	.st6{fill:none;stroke:#515117;stroke-width:3;stroke-miterlimit:10;}
	.st7{fill:none;stroke:#515117;stroke-miterlimit:10;}
	.st8{fill:#EDF728;}
	.st9{fill:#FDFFEB;}
	.st10{fill:none;}
	.st11{fill:none;stroke:#000000;stroke-width:4;stroke-miterlimit:10;}
	.st12{fill:none;stroke:#050505;stroke-width:2;stroke-miterlimit:10;}
	.st13{fill:none;stroke:#050505;stroke-miterlimit:10;}
</style>
<title>kaktus_sprite</title>
<g>
	<path class="st0" d="M128.1-148.1L128.1-148.1c-2.7-2.6-2.7-6.9-0.1-9.5l27.7-28c2.6-2.7,6.9-2.7,9.5-0.1v0
		c2.7,2.6,2.7,6.9,0.1,9.5l-27.7,28C135-145.5,130.8-145.5,128.1-148.1z"/>
	<path class="st0" d="M33.9-179.7L33.9-179.7c2.2-3,6.4-3.7,9.4-1.5l32,23c3,2.2,3.7,6.4,1.5,9.4l0,0c-2.2,3-6.4,3.7-9.4,1.5l-32-23
		C32.5-172.5,31.8-176.7,33.9-179.7z"/>
	<path class="st0" d="M139.9-173.5c-5.8,40.2-17.1,76.1-38.2,76.1s-31.6-33.9-38.2-76.1c-6.5-41.5,17.1-76.1,38.2-76.1
		S145.9-215,139.9-173.5z"/>
	<polygon class="st1" points="128.3,-60.7 75.1,-60.7 70.6,-118.9 133.9,-118.9 	"/>
	<polygon class="st2" points="138.2,-118.9 63.7,-118.9 61.1,-130.2 141.3,-130.2 	"/>
	<path class="st3" d="M94.3-192.7c1.9,7.2,8.5,5.7,12.9,3"/>
	<ellipse cx="92.8" cy="-211.1" rx="4.7" ry="9"/>
	<ellipse cx="111.2" cy="-211.1" rx="4.7" ry="9"/>
	<ellipse class="st4" cx="90.5" cy="-213.6" rx="1.9" ry="2.1"/>
	<ellipse class="st4" cx="109" cy="-213.6" rx="1.9" ry="2.1"/>
	<line class="st5" x1="57.2" y1="-176.7" x2="68" y2="-171.8"/>
	<line class="st5" x1="90.6" y1="-164.1" x2="88.6" y2="-152.5"/>
	<line class="st5" x1="121.6" y1="-178.2" x2="128.7" y2="-168.7"/>
	<line class="st5" x1="116.2" y1="-142.3" x2="115" y2="-135.9"/>
	<line class="st5" x1="78.4" y1="-144.8" x2="80" y2="-138.4"/>
	<line class="st5" x1="133.6" y1="-186.7" x2="135.1" y2="-180.3"/>
	<line class="st6" x1="96.6" y1="-174.3" x2="105.8" y2="-163.2"/>
	<line class="st7" x1="69.6" y1="-160.8" x2="67.9" y2="-151.4"/>
	<line class="st5" x1="109.6" y1="-144" x2="102.1" y2="-139.2"/>
	<line class="st5" x1="118.2" y1="-153.5" x2="125.5" y2="-148.5"/>
	<line class="st5" x1="58.1" y1="-205.1" x2="67.2" y2="-194.1"/>
	<line class="st5" x1="72.1" y1="-237.3" x2="74.7" y2="-223.1"/>
	<line class="st5" x1="91.3" y1="-251.8" x2="88" y2="-237.8"/>
	<line class="st5" x1="104.2" y1="-250.8" x2="107.7" y2="-239"/>
	<line class="st5" x1="119.3" y1="-243.7" x2="112.3" y2="-228.6"/>
	<line class="st5" x1="130.3" y1="-241" x2="125.3" y2="-223.9"/>
	<line class="st6" x1="136.9" y1="-211.2" x2="134.4" y2="-193"/>
	<line class="st5" x1="82.9" y1="-199.6" x2="82.7" y2="-183.6"/>
	<line class="st5" x1="79.3" y1="-172.9" x2="79.1" y2="-156.8"/>
	<line class="st5" x1="66.2" y1="-143.8" x2="73.3" y2="-134.2"/>
	<line class="st5" x1="115.9" y1="-183.4" x2="112.3" y2="-173.7"/>
	<line class="st5" x1="95.3" y1="-144.8" x2="90.5" y2="-133.5"/>
	<ellipse class="st8" cx="130" cy="-232.4" rx="3.9" ry="5"/>
	<ellipse transform="matrix(0.7071 -0.7071 0.7071 0.7071 202.2178 29.3868)" class="st8" cx="136.6" cy="-229.4" rx="5" ry="3.9"/>
	<ellipse transform="matrix(0.5739 -0.819 0.819 0.5739 239.0838 17.732)" class="st8" cx="136.6" cy="-220.9" rx="3.9" ry="5"/>
	<ellipse class="st8" cx="129.2" cy="-217.4" rx="4.1" ry="4.8"/>
	<ellipse transform="matrix(0.7706 -0.6373 0.6373 0.7706 169.1024 27.5398)" class="st8" cx="122.8" cy="-221.1" rx="5" ry="3.9"/>
	<ellipse transform="matrix(0.5739 -0.819 0.819 0.5739 240.3165 3.0361)" class="st8" cx="123.1" cy="-229.4" rx="3.9" ry="5"/>
	<circle class="st9" cx="130" cy="-225.3" r="5.2"/>
	<line class="st5" x1="128.3" y1="-166.7" x2="137.3" y2="-159"/>
	<line class="st5" x1="139.8" y1="-174.5" x2="148.8" y2="-166.7"/>
	<line class="st5" x1="152.4" y1="-178" x2="151.8" y2="-186.9"/>
	<line class="st5" x1="152.5" y1="-169.7" x2="164.3" y2="-168.9"/>
	<line class="st5" x1="66.5" y1="-174" x2="54.6" y2="-166.9"/>
	<line class="st5" x1="54.1" y1="-176.5" x2="49.1" y2="-172.2"/>
</g>
<rect y="-256.3" class="st10" width="200" height="200"/>
<rect x="600" class="st10" width="200" height="200"/>
<rect x="800" class="st10" width="200" height="200"/>
<path class="st0" d="M1115.8,364.5L1115.8,364.5c0.4-3.7,3.8-6.4,7.5-5.9l39.1,4.6c3.7,0.4,6.4,3.8,5.9,7.5v0
	c-0.4,3.7-3.8,6.4-7.5,5.9l-39.1-4.6C1118,371.6,1115.4,368.2,1115.8,364.5z"/>
<path class="st0" d="M1032.9,377.6L1032.9,377.6c-1.4-3.5,0.3-7.4,3.8-8.7l36.7-14.4c3.5-1.4,7.4,0.3,8.7,3.8l0,0
	c1.4,3.5-0.3,7.4-3.8,8.7l-36.7,14.4C1038.2,382.8,1034.2,381.1,1032.9,377.6z"/>
<path class="st0" d="M919.2,379.2L919.2,379.2c-1.7-3.3-0.3-7.4,3.1-9l35.3-17.5c3.3-1.7,7.4-0.3,9,3.1l0,0c1.7,3.3,0.3,7.4-3.1,9
	l-35.3,17.5C924.9,383.9,920.8,382.6,919.2,379.2z"/>
<path class="st0" d="M831.8,363.5L831.8,363.5c0.6-3.7,4.1-6.1,7.8-5.5l38.8,6.6c3.7,0.6,6.1,4.1,5.5,7.8v0
	c-0.6,3.7-4.1,6.1-7.8,5.5l-38.8-6.6C833.7,370.6,831.2,367.2,831.8,363.5z"/>
<path class="st0" d="M722.8,389.8L722.8,389.8c-2.9-2.4-3.2-6.7-0.8-9.5l25.4-30.2c2.4-2.9,6.7-3.2,9.5-0.8l0,0
	c2.9,2.4,3.2,6.7,0.8,9.5L732.3,389C729.9,391.9,725.6,392.2,722.8,389.8z"/>
<path class="st0" d="M639.9,347.6L639.9,347.6c2.6-2.7,6.9-2.7,9.5-0.1l28.1,27.6c2.7,2.6,2.7,6.9,0.1,9.5l0,0
	c-2.6,2.7-6.9,2.7-9.5,0.1l-28.1-27.6C637.3,354.5,637.2,350.3,639.9,347.6z"/>
<path class="st0" d="M518.9,379.2L518.9,379.2c-1.7-3.3-0.3-7.4,3.1-9l35.3-17.5c3.3-1.7,7.4-0.3,9,3.1l0,0c1.7,3.3,0.3,7.4-3.1,9
	L528,382.3C524.6,383.9,520.6,382.5,518.9,379.2z"/>
<path class="st0" d="M431.5,363.5L431.5,363.5c0.6-3.7,4.1-6.1,7.8-5.5l38.8,6.6c3.7,0.6,6.1,4.1,5.5,7.8v0
	c-0.6,3.7-4.1,6.1-7.8,5.5l-38.8-6.6C433.4,370.6,430.9,367.1,431.5,363.5z"/>
<path class="st0" d="M315.5,364.5L315.5,364.5c0.4-3.7,3.8-6.4,7.5-5.9l39.1,4.6c3.7,0.4,6.4,3.8,5.9,7.5v0
	c-0.4,3.7-3.8,6.4-7.5,5.9l-39.1-4.6C317.7,371.6,315,368.2,315.5,364.5z"/>
<path class="st0" d="M232.5,377.6L232.5,377.6c-1.4-3.5,0.3-7.4,3.8-8.7l36.7-14.4c3.5-1.4,7.4,0.3,8.7,3.8v0
	c1.4,3.5-0.3,7.4-3.8,8.7l-36.7,14.4C237.8,382.8,233.9,381,232.5,377.6z"/>
<path class="st0" d="M123.1,348.9L123.1,348.9c2.6-2.6,6.9-2.6,9.5,0l27.9,27.9c2.6,2.6,2.6,6.9,0,9.5h0c-2.6,2.6-6.9,2.6-9.5,0
	l-27.9-27.9C120.4,355.8,120.4,351.6,123.1,348.9z"/>
<path class="st0" d="M39.8,387.9L39.8,387.9c-2.8-2.4-3.1-6.7-0.7-9.5L65,348.6c2.4-2.8,6.7-3.1,9.5-0.7h0c2.8,2.4,3.1,6.7,0.7,9.5
	l-25.8,29.8C46.9,390,42.7,390.3,39.8,387.9z"/>
<path class="st0" d="M137.8,347.5c-5.8,40.2-17.1,76.1-38.2,76.1s-31.6-33.9-38.2-76.1c-6.5-41.5,17.1-76.1,38.2-76.1
	S143.8,305.9,137.8,347.5z"/>
<polygon class="st1" points="126.2,460.2 72.9,460.2 68.5,402.1 131.8,402.1 "/>
<polygon class="st2" points="136.1,402.1 61.6,402.1 59,390.8 139.2,390.8 "/>
<path class="st11" d="M92.2,328.3c1.9,7.2,8.5,5.7,12.9,3"/>
<ellipse cx="90.7" cy="309.9" rx="4.7" ry="9"/>
<ellipse cx="109.1" cy="309.9" rx="4.7" ry="9"/>
<ellipse class="st4" cx="88.4" cy="307.4" rx="1.9" ry="2.1"/>
<ellipse class="st4" cx="106.8" cy="307.4" rx="1.9" ry="2.1"/>
<line class="st5" x1="55.1" y1="344.2" x2="65.9" y2="349.1"/>
<line class="st5" x1="88.5" y1="356.8" x2="86.5" y2="368.5"/>
<line class="st5" x1="119.5" y1="342.8" x2="126.6" y2="352.3"/>
<line class="st5" x1="114.1" y1="378.7" x2="112.9" y2="385"/>
<line class="st5" x1="76.3" y1="376.2" x2="77.9" y2="382.6"/>
<line class="st5" x1="131.4" y1="334.3" x2="133" y2="340.7"/>
<line class="st6" x1="94.5" y1="346.7" x2="103.7" y2="357.8"/>
<line class="st7" x1="67.5" y1="360.2" x2="65.8" y2="369.6"/>
<line class="st5" x1="107.5" y1="377" x2="100" y2="381.7"/>
<line class="st5" x1="116" y1="367.5" x2="123.4" y2="372.5"/>
<line class="st5" x1="55.9" y1="315.8" x2="65.1" y2="326.9"/>
<line class="st5" x1="70" y1="283.7" x2="72.6" y2="297.9"/>
<line class="st5" x1="89.2" y1="269.2" x2="85.9" y2="283.2"/>
<line class="st5" x1="102.1" y1="270.1" x2="105.6" y2="282"/>
<line class="st5" x1="117.2" y1="277.3" x2="110.2" y2="292.4"/>
<line class="st5" x1="128.1" y1="280" x2="123.2" y2="297.1"/>
<line class="st6" x1="134.8" y1="309.8" x2="132.2" y2="328"/>
<line class="st5" x1="80.7" y1="321.3" x2="80.6" y2="337.4"/>
<line class="st5" x1="77.2" y1="348.1" x2="77" y2="364.1"/>
<line class="st5" x1="64.1" y1="377.2" x2="71.2" y2="386.7"/>
<line class="st5" x1="113.8" y1="337.6" x2="110.2" y2="347.3"/>
<line class="st5" x1="93.1" y1="376.2" x2="88.4" y2="387.5"/>
<ellipse class="st8" cx="127.9" cy="288.5" rx="3.9" ry="5"/>
<ellipse transform="matrix(0.7071 -0.7071 0.7071 0.7071 -166.7787 180.482)" class="st8" cx="134.5" cy="291.6" rx="5" ry="3.9"/>
<ellipse transform="matrix(0.5739 -0.819 0.819 0.5739 -188.4613 238.0069)" class="st8" cx="134.5" cy="300.1" rx="3.9" ry="5"/>
<ellipse class="st8" cx="127" cy="303.6" rx="4.1" ry="4.8"/>
<ellipse transform="matrix(0.7706 -0.6373 0.6373 0.7706 -163.3876 145.6917)" class="st8" cx="120.7" cy="299.8" rx="5" ry="3.9"/>
<ellipse transform="matrix(0.5739 -0.819 0.819 0.5739 -187.2285 223.311)" class="st8" cx="121" cy="291.6" rx="3.9" ry="5"/>
<circle class="st9" cx="127.9" cy="295.7" r="5.2"/>
<line class="st5" x1="139.9" y1="347.7" x2="132.1" y2="356.7"/>
<line class="st5" x1="147.6" y1="359.3" x2="139.8" y2="368.2"/>
<line class="st5" x1="151.1" y1="371.9" x2="159.9" y2="371.4"/>
<line class="st5" x1="142.8" y1="371.9" x2="141.9" y2="383.7"/>
<line class="st5" x1="48.5" y1="356.1" x2="54.5" y2="368.5"/>
<line class="st5" x1="44.8" y1="368.2" x2="48.8" y2="373.5"/>
<rect y="264.7" class="st10" width="200" height="200"/>
<rect x="400" y="264.7" class="st10" width="200" height="200"/>
<rect x="600" y="264.7" class="st10" width="200" height="200"/>
<rect x="800" y="264.7" class="st10" width="200" height="200"/>
<rect x="1000" y="264.7" class="st10" width="200" height="200"/>
<path class="st0" d="M337.8,347.5c-5.8,40.2-17.1,76.1-38.2,76.1s-31.6-33.9-38.2-76.1c-6.5-41.5,17.1-76.1,38.2-76.1
	S343.8,305.9,337.8,347.5z"/>
<polygon class="st1" points="326.2,460.2 273,460.2 268.5,402.1 331.8,402.1 "/>
<polygon class="st2" points="336.1,402.1 261.6,402.1 259,390.8 339.2,390.8 "/>
<path class="st11" d="M292.2,328.3c1.9,7.2,8.5,5.7,12.9,3"/>
<ellipse cx="290.7" cy="309.9" rx="4.7" ry="9"/>
<ellipse cx="309.1" cy="309.9" rx="4.7" ry="9"/>
<ellipse class="st4" cx="288.4" cy="307.4" rx="1.9" ry="2.1"/>
<ellipse class="st4" cx="306.9" cy="307.4" rx="1.9" ry="2.1"/>
<line class="st5" x1="255.1" y1="344.2" x2="265.9" y2="349.1"/>
<line class="st5" x1="288.5" y1="356.8" x2="286.5" y2="368.5"/>
<line class="st5" x1="319.5" y1="342.8" x2="326.6" y2="352.3"/>
<line class="st5" x1="314.1" y1="378.7" x2="312.9" y2="385"/>
<line class="st5" x1="276.3" y1="376.2" x2="277.9" y2="382.6"/>
<line class="st5" x1="331.4" y1="334.3" x2="333" y2="340.7"/>
<line class="st6" x1="294.5" y1="346.7" x2="303.7" y2="357.8"/>
<line class="st7" x1="267.5" y1="360.2" x2="265.8" y2="369.6"/>
<line class="st5" x1="307.5" y1="377" x2="300" y2="381.7"/>
<line class="st5" x1="316" y1="367.5" x2="323.4" y2="372.5"/>
<line class="st5" x1="255.9" y1="315.8" x2="265.1" y2="326.9"/>
<line class="st5" x1="270" y1="283.7" x2="272.6" y2="297.9"/>
<line class="st5" x1="289.2" y1="269.2" x2="285.9" y2="283.2"/>
<line class="st5" x1="302.1" y1="270.1" x2="305.5" y2="282"/>
<line class="st5" x1="317.2" y1="277.3" x2="310.2" y2="292.4"/>
<line class="st5" x1="328.1" y1="280" x2="323.1" y2="297.1"/>
<line class="st6" x1="334.8" y1="309.8" x2="332.2" y2="328"/>
<line class="st5" x1="280.7" y1="321.3" x2="280.5" y2="337.4"/>
<line class="st5" x1="277.2" y1="348.1" x2="277" y2="364.1"/>
<line class="st5" x1="264.1" y1="377.2" x2="271.2" y2="386.7"/>
<line class="st5" x1="313.8" y1="337.6" x2="310.2" y2="347.3"/>
<line class="st5" x1="293.1" y1="376.2" x2="288.4" y2="387.5"/>
<ellipse class="st8" cx="327.9" cy="288.5" rx="3.9" ry="5"/>
<ellipse transform="matrix(0.7071 -0.7071 0.7071 0.7071 -108.1987 321.9039)" class="st8" cx="334.5" cy="291.6" rx="5" ry="3.9"/>
<ellipse transform="matrix(0.5739 -0.819 0.819 0.5739 -103.2284 401.7866)" class="st8" cx="334.5" cy="300.1" rx="3.9" ry="5"/>
<ellipse class="st8" cx="327" cy="303.6" rx="4.1" ry="4.8"/>
<ellipse transform="matrix(0.7706 -0.6373 0.6373 0.7706 -117.5109 273.1382)" class="st8" cx="320.7" cy="299.8" rx="5" ry="3.9"/>
<ellipse transform="matrix(0.5739 -0.819 0.819 0.5739 -102 387.0826)" class="st8" cx="320.9" cy="291.6" rx="3.9" ry="5"/>
<circle class="st9" cx="327.9" cy="295.7" r="5.2"/>
<line class="st5" x1="327.9" y1="353.2" x2="327.4" y2="365"/>
<line class="st5" x1="341.2" y1="357.5" x2="340.6" y2="369.3"/>
<line class="st5" x1="351.8" y1="365.2" x2="358.3" y2="359.3"/>
<line class="st5" x1="345.2" y1="370.4" x2="351.9" y2="380.2"/>
<line class="st5" x1="255" y1="353.4" x2="254.5" y2="367.2"/>
<line class="st5" x1="246.1" y1="362.4" x2="247.1" y2="368.9"/>
<path class="st0" d="M538.2,347.5c-5.8,40.2-17.1,76.1-38.2,76.1s-31.5-33.9-38.2-76.1c-6.5-41.5,17.1-76.1,38.2-76.1
	C521.1,271.5,544.2,305.9,538.2,347.5z"/>
<polygon class="st1" points="526.6,460.2 473.3,460.2 468.9,402.1 532.2,402.1 "/>
<polygon class="st2" points="536.5,402.1 462,402.1 459.4,390.8 539.5,390.8 "/>
<path class="st11" d="M492.5,328.3c1.9,7.2,8.5,5.7,12.9,3"/>
<ellipse cx="491" cy="309.9" rx="4.7" ry="9"/>
<ellipse cx="509.5" cy="309.9" rx="4.7" ry="9"/>
<ellipse class="st4" cx="488.8" cy="307.4" rx="1.9" ry="2.1"/>
<ellipse class="st4" cx="507.2" cy="307.4" rx="1.9" ry="2.1"/>
<line class="st5" x1="455.5" y1="344.2" x2="466.3" y2="349.1"/>
<line class="st5" x1="488.9" y1="356.8" x2="486.9" y2="368.5"/>
<line class="st5" x1="519.9" y1="342.8" x2="527" y2="352.3"/>
<line class="st5" x1="514.5" y1="378.7" x2="513.3" y2="385"/>
<line class="st5" x1="476.7" y1="376.2" x2="478.3" y2="382.6"/>
<line class="st5" x1="531.8" y1="334.3" x2="533.4" y2="340.7"/>
<line class="st6" x1="494.9" y1="346.7" x2="504.1" y2="357.8"/>
<line class="st7" x1="467.9" y1="360.2" x2="466.2" y2="369.6"/>
<line class="st5" x1="507.9" y1="377" x2="500.4" y2="381.7"/>
<line class="st5" x1="516.4" y1="367.5" x2="523.8" y2="372.5"/>
<line class="st5" x1="456.3" y1="315.8" x2="465.5" y2="326.9"/>
<line class="st5" x1="470.4" y1="283.7" x2="473" y2="297.9"/>
<line class="st5" x1="489.6" y1="269.2" x2="486.3" y2="283.2"/>
<line class="st5" x1="502.5" y1="270.1" x2="505.9" y2="282"/>
<line class="st5" x1="517.5" y1="277.3" x2="510.6" y2="292.4"/>
<line class="st5" x1="528.5" y1="280" x2="523.5" y2="297.1"/>
<line class="st6" x1="535.1" y1="309.8" x2="532.6" y2="328"/>
<line class="st5" x1="481.1" y1="321.3" x2="480.9" y2="337.4"/>
<line class="st5" x1="477.5" y1="348.1" x2="477.4" y2="364.1"/>
<line class="st5" x1="464.5" y1="377.2" x2="471.6" y2="386.7"/>
<line class="st5" x1="514.2" y1="337.6" x2="510.5" y2="347.3"/>
<line class="st5" x1="493.5" y1="376.2" x2="488.8" y2="387.5"/>
<ellipse class="st8" cx="528.2" cy="288.5" rx="3.9" ry="5"/>
<ellipse transform="matrix(0.7071 -0.7071 0.7071 0.7071 -49.5128 463.604)" class="st8" cx="534.9" cy="291.6" rx="5" ry="3.9"/>
<ellipse transform="matrix(0.5739 -0.819 0.819 0.5739 -17.8418 565.8798)" class="st8" cx="534.8" cy="300.1" rx="3.9" ry="5"/>
<ellipse class="st8" cx="527.4" cy="303.6" rx="4.1" ry="4.8"/>
<ellipse transform="matrix(0.7706 -0.6373 0.6373 0.7706 -71.5392 400.8316)" class="st8" cx="521.1" cy="299.8" rx="5" ry="3.9"/>
<ellipse transform="matrix(0.5739 -0.819 0.819 0.5739 -16.596 551.1727)" class="st8" cx="521.3" cy="291.5" rx="3.9" ry="5"/>
<circle class="st9" cx="528.2" cy="295.7" r="5.2"/>
<line class="st5" x1="523.2" y1="362.9" x2="529.2" y2="373.1"/>
<line class="st5" x1="536.6" y1="359.3" x2="542.6" y2="369.5"/>
<line class="st5" x1="549.8" y1="360" x2="552" y2="351.5"/>
<line class="st5" x1="547.1" y1="367.9" x2="558" y2="372.5"/>
<line class="st5" x1="463.2" y1="354.3" x2="455.7" y2="365.9"/>
<line class="st5" x1="450.9" y1="357.5" x2="448.5" y2="363.6"/>
<path class="st0" d="M738.5,347.5c-5.8,40.2-17.1,76.1-38.2,76.1s-31.6-33.9-38.2-76.1c-6.5-41.5,17.1-76.1,38.2-76.1
	S744.4,305.9,738.5,347.5z"/>
<polygon class="st1" points="726.8,460.2 673.6,460.2 669.2,402.1 732.5,402.1 "/>
<polygon class="st2" points="736.8,402.1 662.3,402.1 659.7,390.8 739.8,390.8 "/>
<path class="st11" d="M692.8,328.3c1.9,7.2,8.5,5.7,12.9,3"/>
<ellipse cx="691.3" cy="309.9" rx="4.7" ry="9"/>
<ellipse cx="709.8" cy="309.9" rx="4.7" ry="9"/>
<ellipse class="st4" cx="689.1" cy="307.4" rx="1.9" ry="2.1"/>
<ellipse class="st4" cx="707.5" cy="307.4" rx="1.9" ry="2.1"/>
<line class="st5" x1="655.8" y1="344.2" x2="666.5" y2="349.1"/>
<line class="st5" x1="689.2" y1="356.8" x2="687.1" y2="368.5"/>
<line class="st5" x1="720.2" y1="342.8" x2="727.2" y2="352.3"/>
<line class="st5" x1="714.8" y1="378.7" x2="713.6" y2="385"/>
<line class="st5" x1="677" y1="376.2" x2="678.6" y2="382.6"/>
<line class="st5" x1="732.1" y1="334.3" x2="733.7" y2="340.7"/>
<line class="st6" x1="695.2" y1="346.7" x2="704.4" y2="357.8"/>
<line class="st7" x1="668.2" y1="360.2" x2="666.5" y2="369.6"/>
<line class="st5" x1="708.1" y1="377" x2="700.6" y2="381.7"/>
<line class="st5" x1="716.7" y1="367.5" x2="724" y2="372.5"/>
<line class="st5" x1="656.6" y1="315.8" x2="665.8" y2="326.9"/>
<line class="st5" x1="670.6" y1="283.7" x2="673.3" y2="297.9"/>
<line class="st5" x1="689.8" y1="269.2" x2="686.5" y2="283.2"/>
<line class="st5" x1="702.8" y1="270.1" x2="706.2" y2="282"/>
<line class="st5" x1="717.8" y1="277.3" x2="710.9" y2="292.4"/>
<line class="st5" x1="728.8" y1="280" x2="723.8" y2="297.1"/>
<line class="st6" x1="735.4" y1="309.8" x2="732.9" y2="328"/>
<line class="st5" x1="681.4" y1="321.3" x2="681.2" y2="337.4"/>
<line class="st5" x1="677.8" y1="348.1" x2="677.6" y2="364.1"/>
<line class="st5" x1="664.8" y1="377.2" x2="671.8" y2="386.7"/>
<line class="st5" x1="714.5" y1="337.6" x2="710.8" y2="347.3"/>
<line class="st5" x1="693.8" y1="376.2" x2="689.1" y2="387.5"/>
<ellipse class="st8" cx="728.5" cy="288.5" rx="3.9" ry="5"/>
<ellipse transform="matrix(0.7071 -0.7071 0.7071 0.7071 9.1543 605.226)" class="st8" cx="735.1" cy="291.6" rx="5" ry="3.9"/>
<ellipse transform="matrix(0.5739 -0.819 0.819 0.5739 67.515 729.8828)" class="st8" cx="735.1" cy="300.1" rx="3.9" ry="5"/>
<ellipse class="st8" cx="727.7" cy="303.6" rx="4.1" ry="4.8"/>
<ellipse transform="matrix(0.7706 -0.6373 0.6373 0.7706 -25.5916 528.4582)" class="st8" cx="721.3" cy="299.8" rx="5" ry="3.9"/>
<ellipse transform="matrix(0.5739 -0.819 0.819 0.5739 68.7435 715.1786)" class="st8" cx="721.6" cy="291.5" rx="3.9" ry="5"/>
<circle class="st9" cx="728.5" cy="295.7" r="5.2"/>
<line class="st5" x1="723.3" y1="371.1" x2="732.9" y2="378.1"/>
<line class="st5" x1="734.2" y1="362.4" x2="743.7" y2="369.4"/>
<line class="st5" x1="746.5" y1="357.8" x2="745.1" y2="349.1"/>
<line class="st5" x1="747.2" y1="366.1" x2="759" y2="366"/>
<line class="st5" x1="669.4" y1="359.7" x2="656.6" y2="364.9"/>
<line class="st5" x1="657.6" y1="355.3" x2="652" y2="358.9"/>
<path class="st0" d="M938.5,347.5c-5.8,40.2-17.1,76.1-38.2,76.1s-31.6-33.9-38.2-76.1c-6.5-41.5,17.1-76.1,38.2-76.1
	S944.4,305.9,938.5,347.5z"/>
<polygon class="st1" points="926.8,460.2 873.6,460.2 869.2,402.1 932.5,402.1 "/>
<polygon class="st2" points="936.8,402.1 862.3,402.1 859.7,390.8 939.8,390.8 "/>
<path class="st11" d="M892.8,328.3c1.9,7.2,8.5,5.7,12.9,3"/>
<ellipse cx="891.3" cy="309.9" rx="4.7" ry="9"/>
<ellipse cx="909.8" cy="309.9" rx="4.7" ry="9"/>
<ellipse class="st4" cx="889.1" cy="307.4" rx="1.9" ry="2.1"/>
<ellipse class="st4" cx="907.5" cy="307.4" rx="1.9" ry="2.1"/>
<line class="st5" x1="855.8" y1="344.2" x2="866.5" y2="349.1"/>
<line class="st5" x1="889.2" y1="356.8" x2="887.1" y2="368.5"/>
<line class="st5" x1="920.2" y1="342.8" x2="927.2" y2="352.3"/>
<line class="st5" x1="914.8" y1="378.7" x2="913.6" y2="385"/>
<line class="st5" x1="877" y1="376.2" x2="878.6" y2="382.6"/>
<line class="st5" x1="932.1" y1="334.3" x2="933.7" y2="340.7"/>
<line class="st6" x1="895.2" y1="346.7" x2="904.4" y2="357.8"/>
<line class="st7" x1="868.2" y1="360.2" x2="866.5" y2="369.6"/>
<line class="st5" x1="908.1" y1="377" x2="900.6" y2="381.7"/>
<line class="st5" x1="916.7" y1="367.5" x2="924" y2="372.5"/>
<line class="st5" x1="856.6" y1="315.8" x2="865.8" y2="326.9"/>
<line class="st5" x1="870.6" y1="283.7" x2="873.3" y2="297.9"/>
<line class="st5" x1="889.8" y1="269.2" x2="886.5" y2="283.2"/>
<line class="st5" x1="902.8" y1="270.1" x2="906.2" y2="282"/>
<line class="st5" x1="917.8" y1="277.3" x2="910.9" y2="292.4"/>
<line class="st5" x1="928.8" y1="280" x2="923.8" y2="297.1"/>
<line class="st6" x1="935.4" y1="309.8" x2="932.9" y2="328"/>
<line class="st5" x1="881.4" y1="321.3" x2="881.2" y2="337.4"/>
<line class="st5" x1="877.8" y1="348.1" x2="877.6" y2="364.1"/>
<line class="st5" x1="864.8" y1="377.2" x2="871.8" y2="386.7"/>
<line class="st5" x1="914.5" y1="337.6" x2="910.8" y2="347.3"/>
<line class="st5" x1="893.8" y1="376.2" x2="889.1" y2="387.5"/>
<ellipse class="st8" cx="928.5" cy="288.5" rx="3.9" ry="5"/>
<ellipse transform="matrix(0.7071 -0.7071 0.7071 0.7071 67.7343 746.6479)" class="st8" cx="935.2" cy="291.6" rx="5" ry="3.9"/>
<ellipse transform="matrix(0.5739 -0.819 0.819 0.5739 152.7353 893.6586)" class="st8" cx="935.1" cy="300.1" rx="3.9" ry="5"/>
<ellipse class="st8" cx="927.7" cy="303.6" rx="4.1" ry="4.8"/>
<ellipse transform="matrix(0.7706 -0.6373 0.6373 0.7706 20.2873 655.911)" class="st8" cx="921.3" cy="299.8" rx="5" ry="3.9"/>
<ellipse transform="matrix(0.5739 -0.819 0.819 0.5739 153.9763 878.9584)" class="st8" cx="921.6" cy="291.5" rx="3.9" ry="5"/>
<circle class="st9" cx="928.5" cy="295.7" r="5.2"/>
<line class="st5" x1="923.5" y1="362.9" x2="929.5" y2="373.1"/>
<line class="st5" x1="936.9" y1="359.3" x2="942.9" y2="369.5"/>
<line class="st5" x1="950" y1="360" x2="952.3" y2="351.5"/>
<line class="st5" x1="947.3" y1="367.9" x2="958.2" y2="372.5"/>
<line class="st5" x1="863.5" y1="354.3" x2="855.9" y2="365.9"/>
<line class="st5" x1="851.2" y1="357.5" x2="848.7" y2="363.6"/>
<path class="st0" d="M1138.2,347.5c-5.8,40.2-17.1,76.1-38.2,76.1s-31.6-33.9-38.2-76.1c-6.5-41.5,17.1-76.1,38.2-76.1
	S1144.2,305.9,1138.2,347.5z"/>
<polygon class="st1" points="1126.6,460.2 1073.3,460.2 1068.9,402.1 1132.2,402.1 "/>
<polygon class="st2" points="1136.5,402.1 1062,402.1 1059.4,390.8 1139.6,390.8 "/>
<path class="st11" d="M1092.6,328.3c1.9,7.2,8.5,5.7,12.9,3"/>
<ellipse cx="1091.1" cy="309.9" rx="4.7" ry="9"/>
<ellipse cx="1109.5" cy="309.9" rx="4.7" ry="9"/>
<ellipse class="st4" cx="1088.8" cy="307.4" rx="1.9" ry="2.1"/>
<ellipse class="st4" cx="1107.2" cy="307.4" rx="1.9" ry="2.1"/>
<line class="st5" x1="1055.5" y1="344.2" x2="1066.3" y2="349.1"/>
<line class="st5" x1="1088.9" y1="356.8" x2="1086.8" y2="368.5"/>
<line class="st5" x1="1119.9" y1="342.8" x2="1127" y2="352.3"/>
<line class="st5" x1="1114.5" y1="378.7" x2="1113.3" y2="385"/>
<line class="st5" x1="1076.7" y1="376.2" x2="1078.3" y2="382.6"/>
<line class="st5" x1="1131.8" y1="334.3" x2="1133.4" y2="340.7"/>
<line class="st6" x1="1094.9" y1="346.7" x2="1104.1" y2="357.8"/>
<line class="st7" x1="1067.9" y1="360.2" x2="1066.2" y2="369.6"/>
<line class="st5" x1="1107.9" y1="377" x2="1100.3" y2="381.7"/>
<line class="st5" x1="1116.4" y1="367.5" x2="1123.8" y2="372.5"/>
<line class="st5" x1="1056.3" y1="315.8" x2="1065.5" y2="326.9"/>
<line class="st5" x1="1070.3" y1="283.7" x2="1073" y2="297.9"/>
<line class="st5" x1="1089.6" y1="269.2" x2="1086.3" y2="283.2"/>
<line class="st5" x1="1102.5" y1="270.1" x2="1105.9" y2="282"/>
<line class="st5" x1="1117.6" y1="277.3" x2="1110.6" y2="292.4"/>
<line class="st5" x1="1128.5" y1="280" x2="1123.5" y2="297.1"/>
<line class="st6" x1="1135.1" y1="309.8" x2="1132.6" y2="328"/>
<line class="st5" x1="1081.1" y1="321.3" x2="1080.9" y2="337.4"/>
<line class="st5" x1="1077.5" y1="348.1" x2="1077.3" y2="364.1"/>
<line class="st5" x1="1064.5" y1="377.2" x2="1071.6" y2="386.7"/>
<line class="st5" x1="1114.2" y1="337.6" x2="1110.6" y2="347.3"/>
<line class="st5" x1="1093.5" y1="376.2" x2="1088.8" y2="387.5"/>
<ellipse class="st8" cx="1128.2" cy="288.5" rx="3.9" ry="5"/>
<ellipse transform="matrix(0.7071 -0.7071 0.7071 0.7071 126.2242 887.8627)" class="st8" cx="1134.9" cy="291.6" rx="5" ry="3.9"/>
<ellipse transform="matrix(0.5739 -0.819 0.819 0.5739 237.8481 1057.2028)" class="st8" cx="1134.8" cy="300.1" rx="3.9" ry="5"/>
<ellipse class="st8" cx="1127.4" cy="303.6" rx="4.1" ry="4.8"/>
<ellipse transform="matrix(0.7706 -0.6373 0.6373 0.7706 66.1017 783.1814)" class="st8" cx="1121" cy="299.8" rx="5" ry="3.9"/>
<ellipse transform="matrix(0.5739 -0.819 0.819 0.5739 239.0858 1042.4999)" class="st8" cx="1121.3" cy="291.5" rx="3.9" ry="5"/>
<circle class="st9" cx="1128.2" cy="295.7" r="5.2"/>
<line class="st5" x1="1128.3" y1="353.2" x2="1127.8" y2="365"/>
<line class="st5" x1="1141.6" y1="357.5" x2="1141" y2="369.3"/>
<line class="st5" x1="1152.2" y1="365.2" x2="1158.7" y2="359.3"/>
<line class="st5" x1="1145.6" y1="370.4" x2="1152.2" y2="380.2"/>
<line class="st5" x1="1055.4" y1="353.4" x2="1054.9" y2="367.2"/>
<line class="st5" x1="1046.5" y1="362.4" x2="1047.5" y2="368.9"/>
<path class="st0" d="M137.8,730.8c-5.8,40.2-17.1,76.1-38.2,76.1S68.1,773,61.5,730.8c-6.5-41.5,17.1-76.1,38.2-76.1
	S143.8,689.2,137.8,730.8z"/>
<polygon class="st1" points="126.2,843.5 72.9,843.5 68.5,785.4 131.8,785.4 "/>
<polygon class="st2" points="136.1,785.4 61.6,785.4 59,774.1 139.2,774.1 "/>
<path class="st11" d="M92.2,711.5c1.9,7.2,8.5,5.7,12.9,3"/>
<ellipse cx="90.7" cy="693.2" rx="4.7" ry="9"/>
<ellipse cx="109.1" cy="693.2" rx="4.7" ry="9"/>
<ellipse class="st4" cx="88.4" cy="690.7" rx="1.9" ry="2.1"/>
<ellipse class="st4" cx="106.8" cy="690.7" rx="1.9" ry="2.1"/>
<line class="st5" x1="55.1" y1="727.5" x2="65.9" y2="732.4"/>
<line class="st5" x1="88.5" y1="740.1" x2="86.5" y2="751.8"/>
<line class="st5" x1="119.5" y1="726" x2="126.6" y2="735.6"/>
<line class="st5" x1="114.1" y1="761.9" x2="112.9" y2="768.3"/>
<line class="st5" x1="76.3" y1="759.5" x2="77.9" y2="765.8"/>
<line class="st5" x1="131.4" y1="717.6" x2="133" y2="724"/>
<line class="st6" x1="94.5" y1="730" x2="103.7" y2="741.1"/>
<line class="st7" x1="67.5" y1="743.5" x2="65.8" y2="752.9"/>
<line class="st5" x1="107.5" y1="760.3" x2="100" y2="765"/>
<line class="st5" x1="116" y1="750.8" x2="123.4" y2="755.8"/>
<line class="st5" x1="55.9" y1="699.1" x2="65.1" y2="710.2"/>
<line class="st5" x1="70" y1="667" x2="72.6" y2="681.1"/>
<line class="st5" x1="89.2" y1="652.4" x2="85.9" y2="666.5"/>
<line class="st5" x1="102.1" y1="653.4" x2="105.6" y2="665.3"/>
<line class="st5" x1="117.2" y1="660.6" x2="110.2" y2="675.7"/>
<line class="st5" x1="128.1" y1="663.3" x2="123.2" y2="680.4"/>
<line class="st6" x1="134.8" y1="693" x2="132.2" y2="711.2"/>
<line class="st5" x1="80.7" y1="704.6" x2="80.6" y2="720.7"/>
<line class="st5" x1="77.2" y1="731.3" x2="77" y2="747.4"/>
<line class="st5" x1="64.1" y1="760.5" x2="71.2" y2="770"/>
<line class="st5" x1="113.8" y1="720.9" x2="110.2" y2="730.6"/>
<line class="st5" x1="93.1" y1="759.5" x2="88.4" y2="770.8"/>
<ellipse class="st8" cx="127.9" cy="671.8" rx="3.9" ry="5"/>
<ellipse transform="matrix(0.7071 -0.7071 0.7071 0.7071 -437.7973 292.7416)" class="st8" cx="134.5" cy="674.8" rx="5" ry="3.9"/>
<ellipse transform="matrix(0.5739 -0.819 0.819 0.5739 -502.3477 401.3362)" class="st8" cx="134.5" cy="683.4" rx="3.9" ry="5"/>
<ellipse class="st8" cx="127" cy="686.8" rx="4.1" ry="4.8"/>
<ellipse transform="matrix(0.7706 -0.6373 0.6373 0.7706 -407.6469 233.6064)" class="st8" cx="120.7" cy="683.1" rx="5" ry="3.9"/>
<ellipse transform="matrix(0.5739 -0.819 0.819 0.5739 -501.115 386.6403)" class="st8" cx="121" cy="674.8" rx="3.9" ry="5"/>
<circle class="st9" cx="127.9" cy="679" r="5.2"/>
<path class="st0" d="M43.7,774.5l-7.8-6.7c-0.7-0.6-0.7-1.6-0.2-2.3L68.3,728c0.6-0.7,1.6-0.7,2.3-0.2l7.8,6.7
	c0.7,0.6,0.7,1.6,0.2,2.3L46,774.4C45.4,775.1,44.4,775.1,43.7,774.5z"/>
<path class="st0" d="M119.4,735.8l7.3-7.3c0.6-0.6,1.6-0.6,2.3,0l35.1,35.1c0.6,0.6,0.6,1.6,0,2.3l-7.3,7.3c-0.6,0.6-1.6,0.6-2.3,0
	l-35.1-35.1C118.8,737.5,118.8,736.5,119.4,735.8z"/>
<line class="st5" x1="139.9" y1="731" x2="132.1" y2="740"/>
<line class="st5" x1="147.6" y1="742.6" x2="139.8" y2="751.5"/>
<line class="st5" x1="151.1" y1="755.2" x2="159.9" y2="754.6"/>
<line class="st5" x1="142.8" y1="755.2" x2="141.9" y2="767"/>
<line class="st5" x1="48.5" y1="739.3" x2="54.5" y2="751.8"/>
<line class="st5" x1="44.8" y1="751.5" x2="48.8" y2="756.7"/>
<rect y="648" class="st10" width="200" height="200"/>
<rect x="400" y="648" class="st10" width="200" height="200"/>
<rect x="600" y="648" class="st10" width="200" height="200"/>
<rect x="800" y="648" class="st10" width="200" height="200"/>
<rect x="1000" y="648" class="st10" width="200" height="200"/>
<path class="st0" d="M337.8,730.8c-5.8,40.2-17.1,76.1-38.2,76.1s-31.6-33.9-38.2-76.1c-6.5-41.5,17.1-76.1,38.2-76.1
	S343.8,689.2,337.8,730.8z"/>
<polygon class="st1" points="326.2,843.5 273,843.5 268.5,785.4 331.8,785.4 "/>
<polygon class="st2" points="336.1,785.4 261.6,785.4 259,774.1 339.2,774.1 "/>
<path class="st11" d="M292.2,711.5c1.9,7.2,8.5,5.7,12.9,3"/>
<ellipse cx="290.7" cy="693.2" rx="4.7" ry="9"/>
<ellipse cx="309.1" cy="693.2" rx="4.7" ry="9"/>
<ellipse class="st4" cx="288.4" cy="690.7" rx="1.9" ry="2.1"/>
<ellipse class="st4" cx="306.9" cy="690.7" rx="1.9" ry="2.1"/>
<line class="st5" x1="255.1" y1="727.5" x2="265.9" y2="732.4"/>
<line class="st5" x1="288.5" y1="740.1" x2="286.5" y2="751.8"/>
<line class="st5" x1="319.5" y1="726" x2="326.6" y2="735.6"/>
<line class="st5" x1="314.1" y1="761.9" x2="312.9" y2="768.3"/>
<line class="st5" x1="276.3" y1="759.5" x2="277.9" y2="765.8"/>
<line class="st5" x1="331.4" y1="717.6" x2="333" y2="724"/>
<line class="st6" x1="294.5" y1="730" x2="303.7" y2="741.1"/>
<line class="st7" x1="267.5" y1="743.5" x2="265.8" y2="752.9"/>
<line class="st5" x1="307.5" y1="760.3" x2="300" y2="765"/>
<line class="st5" x1="316" y1="750.8" x2="323.4" y2="755.8"/>
<line class="st5" x1="255.9" y1="699.1" x2="265.1" y2="710.2"/>
<line class="st5" x1="270" y1="667" x2="272.6" y2="681.1"/>
<line class="st5" x1="289.2" y1="652.4" x2="285.9" y2="666.5"/>
<line class="st5" x1="302.1" y1="653.4" x2="305.5" y2="665.3"/>
<line class="st5" x1="317.2" y1="660.6" x2="310.2" y2="675.7"/>
<line class="st5" x1="328.1" y1="663.3" x2="323.1" y2="680.4"/>
<line class="st6" x1="334.8" y1="693" x2="332.2" y2="711.2"/>
<line class="st5" x1="280.7" y1="704.6" x2="280.5" y2="720.7"/>
<line class="st5" x1="277.2" y1="731.3" x2="277" y2="747.4"/>
<line class="st5" x1="264.1" y1="760.5" x2="271.2" y2="770"/>
<line class="st5" x1="313.8" y1="720.9" x2="310.2" y2="730.6"/>
<line class="st5" x1="293.1" y1="759.5" x2="288.4" y2="770.8"/>
<ellipse class="st8" cx="327.9" cy="671.8" rx="3.9" ry="5"/>
<ellipse transform="matrix(0.7071 -0.7071 0.7071 0.7071 -379.2173 434.1635)" class="st8" cx="334.5" cy="674.8" rx="5" ry="3.9"/>
<ellipse transform="matrix(0.5739 -0.819 0.819 0.5739 -417.1149 565.116)" class="st8" cx="334.5" cy="683.4" rx="3.9" ry="5"/>
<ellipse class="st8" cx="327" cy="686.8" rx="4.1" ry="4.8"/>
<ellipse transform="matrix(0.7706 -0.6373 0.6373 0.7706 -361.7702 361.0528)" class="st8" cx="320.7" cy="683.1" rx="5" ry="3.9"/>
<ellipse transform="matrix(0.5739 -0.819 0.819 0.5739 -415.8864 550.4119)" class="st8" cx="320.9" cy="674.8" rx="3.9" ry="5"/>
<circle class="st9" cx="327.9" cy="679" r="5.2"/>
<path class="st0" d="M314.9,752.9l1.2-10.2c0.1-0.9,0.9-1.5,1.8-1.4l49.4,5.8c0.9,0.1,1.5,0.9,1.4,1.8l-1.2,10.2
	c-0.1,0.9-0.9,1.5-1.8,1.4l-49.4-5.8C315.4,754.6,314.8,753.8,314.9,752.9z"/>
<line class="st5" x1="327.9" y1="736.5" x2="327.4" y2="748.3"/>
<line class="st5" x1="341.2" y1="740.8" x2="340.6" y2="752.6"/>
<line class="st5" x1="351.8" y1="748.5" x2="358.3" y2="742.6"/>
<line class="st5" x1="345.2" y1="753.7" x2="351.9" y2="763.5"/>
<path class="st0" d="M234.4,765.6l-3.8-9.6c-0.3-0.8,0.1-1.8,0.9-2.1l46.3-18.1c0.8-0.3,1.8,0.1,2.1,0.9l3.8,9.6
	c0.3,0.8-0.1,1.8-0.9,2.1l-46.3,18.1C235.7,766.9,234.7,766.5,234.4,765.6z"/>
<line class="st5" x1="255" y1="736.7" x2="254.5" y2="750.5"/>
<line class="st5" x1="246.1" y1="745.7" x2="247.1" y2="752.2"/>
<path class="st0" d="M538.2,730.8c-5.8,40.2-17.1,76.1-38.2,76.1s-31.5-33.9-38.2-76.1c-6.5-41.5,17.1-76.1,38.2-76.1
	C521.1,654.7,544.2,689.2,538.2,730.8z"/>
<polygon class="st1" points="526.6,843.5 473.3,843.5 468.9,785.4 532.2,785.4 "/>
<polygon class="st2" points="536.5,785.4 462,785.4 459.4,774.1 539.5,774.1 "/>
<path class="st11" d="M492.5,711.5c1.9,7.2,8.5,5.7,12.9,3"/>
<ellipse cx="491" cy="693.2" rx="4.7" ry="9"/>
<ellipse cx="509.5" cy="693.2" rx="4.7" ry="9"/>
<ellipse class="st4" cx="488.8" cy="690.7" rx="1.9" ry="2.1"/>
<ellipse class="st4" cx="507.2" cy="690.7" rx="1.9" ry="2.1"/>
<line class="st5" x1="455.5" y1="727.5" x2="466.3" y2="732.4"/>
<line class="st5" x1="488.9" y1="740.1" x2="486.9" y2="751.8"/>
<line class="st5" x1="519.9" y1="726" x2="527" y2="735.6"/>
<line class="st5" x1="514.5" y1="761.9" x2="513.3" y2="768.3"/>
<line class="st5" x1="476.7" y1="759.5" x2="478.3" y2="765.8"/>
<line class="st5" x1="531.8" y1="717.6" x2="533.4" y2="724"/>
<line class="st6" x1="494.9" y1="730" x2="504.1" y2="741.1"/>
<line class="st7" x1="467.9" y1="743.5" x2="466.2" y2="752.9"/>
<line class="st5" x1="507.9" y1="760.3" x2="500.4" y2="765"/>
<line class="st5" x1="516.4" y1="750.8" x2="523.8" y2="755.8"/>
<line class="st5" x1="456.3" y1="699.1" x2="465.5" y2="710.2"/>
<line class="st5" x1="470.4" y1="667" x2="473" y2="681.1"/>
<line class="st5" x1="489.6" y1="652.4" x2="486.3" y2="666.5"/>
<line class="st5" x1="502.5" y1="653.4" x2="505.9" y2="665.3"/>
<line class="st5" x1="517.5" y1="660.6" x2="510.6" y2="675.7"/>
<line class="st5" x1="528.5" y1="663.3" x2="523.5" y2="680.4"/>
<line class="st6" x1="535.1" y1="693" x2="532.6" y2="711.2"/>
<line class="st5" x1="481.1" y1="704.6" x2="480.9" y2="720.7"/>
<line class="st5" x1="477.5" y1="731.3" x2="477.4" y2="747.4"/>
<line class="st5" x1="464.5" y1="760.5" x2="471.6" y2="770"/>
<line class="st5" x1="514.2" y1="720.9" x2="510.5" y2="730.6"/>
<line class="st5" x1="493.5" y1="759.5" x2="488.8" y2="770.8"/>
<ellipse class="st8" cx="528.2" cy="671.8" rx="3.9" ry="5"/>
<ellipse transform="matrix(0.7071 -0.7071 0.7071 0.7071 -320.5315 575.8636)" class="st8" cx="534.9" cy="674.8" rx="5" ry="3.9"/>
<ellipse transform="matrix(0.5739 -0.819 0.819 0.5739 -331.7282 729.2091)" class="st8" cx="534.8" cy="683.4" rx="3.9" ry="5"/>
<ellipse class="st8" cx="527.4" cy="686.8" rx="4.1" ry="4.8"/>
<ellipse transform="matrix(0.7706 -0.6373 0.6373 0.7706 -315.7985 488.7462)" class="st8" cx="521.1" cy="683.1" rx="5" ry="3.9"/>
<ellipse transform="matrix(0.5739 -0.819 0.819 0.5739 -330.4824 714.502)" class="st8" cx="521.3" cy="674.8" rx="3.9" ry="5"/>
<circle class="st9" cx="528.2" cy="679" r="5.2"/>
<path class="st0" d="M521.2,767.1l-4.6-9.2c-0.4-0.8-0.1-1.8,0.7-2.2l44.5-22c0.8-0.4,1.8-0.1,2.2,0.7l4.6,9.2
	c0.4,0.8,0.1,1.8-0.7,2.2l-44.5,22C522.6,768.2,521.6,767.9,521.2,767.1z"/>
<line class="st5" x1="523.2" y1="746.2" x2="529.2" y2="756.4"/>
<line class="st5" x1="536.6" y1="742.6" x2="542.6" y2="752.8"/>
<line class="st5" x1="549.8" y1="743.3" x2="552" y2="734.7"/>
<line class="st5" x1="547.1" y1="751.2" x2="558" y2="755.8"/>
<path class="st0" d="M430.6,751.8l1.7-10.1c0.1-0.9,1-1.5,1.9-1.3l49,8.4c0.9,0.1,1.5,1,1.3,1.9l-1.7,10.1c-0.1,0.9-1,1.5-1.9,1.3
	l-49-8.4C431.1,753.5,430.5,752.7,430.6,751.8z"/>
<line class="st5" x1="463.2" y1="737.6" x2="455.7" y2="749.2"/>
<line class="st5" x1="450.9" y1="740.8" x2="448.5" y2="746.9"/>
<path class="st0" d="M738.5,730.8c-5.8,40.2-17.1,76.1-38.2,76.1s-31.6-33.9-38.2-76.1c-6.5-41.5,17.1-76.1,38.2-76.1
	S744.4,689.2,738.5,730.8z"/>
<polygon class="st1" points="726.8,843.5 673.6,843.5 669.2,785.4 732.5,785.4 "/>
<polygon class="st2" points="736.8,785.4 662.3,785.4 659.7,774.1 739.8,774.1 "/>
<path class="st11" d="M692.8,711.5c1.9,7.2,8.5,5.7,12.9,3"/>
<ellipse cx="691.3" cy="693.2" rx="4.7" ry="9"/>
<ellipse cx="709.8" cy="693.2" rx="4.7" ry="9"/>
<ellipse class="st4" cx="689.1" cy="690.7" rx="1.9" ry="2.1"/>
<ellipse class="st4" cx="707.5" cy="690.7" rx="1.9" ry="2.1"/>
<line class="st5" x1="655.8" y1="727.5" x2="666.5" y2="732.4"/>
<line class="st5" x1="689.2" y1="740.1" x2="687.1" y2="751.8"/>
<line class="st5" x1="720.2" y1="726" x2="727.2" y2="735.6"/>
<line class="st5" x1="714.8" y1="761.9" x2="713.6" y2="768.3"/>
<line class="st5" x1="677" y1="759.5" x2="678.6" y2="765.8"/>
<line class="st5" x1="732.1" y1="717.6" x2="733.7" y2="724"/>
<line class="st6" x1="695.2" y1="730" x2="704.4" y2="741.1"/>
<line class="st7" x1="668.2" y1="743.5" x2="666.5" y2="752.9"/>
<line class="st5" x1="708.1" y1="760.3" x2="700.6" y2="765"/>
<line class="st5" x1="716.7" y1="750.8" x2="724" y2="755.8"/>
<line class="st5" x1="656.6" y1="699.1" x2="665.8" y2="710.2"/>
<line class="st5" x1="670.6" y1="667" x2="673.3" y2="681.1"/>
<line class="st5" x1="689.8" y1="652.4" x2="686.5" y2="666.5"/>
<line class="st5" x1="702.8" y1="653.4" x2="706.2" y2="665.3"/>
<line class="st5" x1="717.8" y1="660.6" x2="710.9" y2="675.7"/>
<line class="st5" x1="728.8" y1="663.3" x2="723.8" y2="680.4"/>
<line class="st6" x1="735.4" y1="693" x2="732.9" y2="711.2"/>
<line class="st5" x1="681.4" y1="704.6" x2="681.2" y2="720.7"/>
<line class="st5" x1="677.8" y1="731.3" x2="677.6" y2="747.4"/>
<line class="st5" x1="664.8" y1="760.5" x2="671.8" y2="770"/>
<line class="st5" x1="714.5" y1="720.9" x2="710.8" y2="730.6"/>
<line class="st5" x1="693.8" y1="759.5" x2="689.1" y2="770.8"/>
<ellipse class="st8" cx="728.5" cy="671.8" rx="3.9" ry="5"/>
<ellipse transform="matrix(0.7071 -0.7071 0.7071 0.7071 -261.8644 717.4856)" class="st8" cx="735.1" cy="674.8" rx="5" ry="3.9"/>
<ellipse transform="matrix(0.5739 -0.819 0.819 0.5739 -246.3714 893.212)" class="st8" cx="735.1" cy="683.3" rx="3.9" ry="5"/>
<ellipse class="st8" cx="727.7" cy="686.8" rx="4.1" ry="4.8"/>
<ellipse transform="matrix(0.7706 -0.6373 0.6373 0.7706 -269.8509 616.3729)" class="st8" cx="721.3" cy="683.1" rx="5" ry="3.9"/>
<ellipse transform="matrix(0.5739 -0.819 0.819 0.5739 -245.1429 878.5079)" class="st8" cx="721.6" cy="674.8" rx="3.9" ry="5"/>
<circle class="st9" cx="728.5" cy="679" r="5.2"/>
<path class="st0" d="M729.8,774.3l-7.9-6.6c-0.7-0.6-0.8-1.6-0.2-2.3l32-38c0.6-0.7,1.6-0.8,2.3-0.2l7.9,6.6
	c0.7,0.6,0.8,1.6,0.2,2.3l-32,38C731.5,774.8,730.5,774.9,729.8,774.3z"/>
<line class="st5" x1="723.3" y1="754.4" x2="732.9" y2="761.3"/>
<line class="st5" x1="734.2" y1="745.7" x2="743.7" y2="752.7"/>
<line class="st5" x1="746.5" y1="741.1" x2="745.1" y2="732.3"/>
<line class="st5" x1="747.2" y1="749.4" x2="759" y2="749.3"/>
<path class="st0" d="M634.6,736.1l7.2-7.3c0.6-0.6,1.6-0.6,2.3,0l35.4,34.9c0.6,0.6,0.6,1.6,0,2.3l-7.2,7.3c-0.6,0.6-1.6,0.6-2.3,0
	l-35.4-34.9C634,737.7,634,736.7,634.6,736.1z"/>
<line class="st5" x1="669.4" y1="743" x2="656.6" y2="748.2"/>
<line class="st5" x1="657.6" y1="738.6" x2="652" y2="742.2"/>
<path class="st0" d="M938.5,730.8c-5.8,40.2-17.1,76.1-38.2,76.1s-31.6-33.9-38.2-76.1c-6.5-41.5,17.1-76.1,38.2-76.1
	S944.4,689.2,938.5,730.8z"/>
<polygon class="st1" points="926.8,843.5 873.6,843.5 869.2,785.4 932.5,785.4 "/>
<polygon class="st2" points="936.8,785.4 862.3,785.4 859.7,774.1 939.8,774.1 "/>
<path class="st11" d="M892.8,711.5c1.9,7.2,8.5,5.7,12.9,3"/>
<ellipse cx="891.3" cy="693.2" rx="4.7" ry="9"/>
<ellipse cx="909.8" cy="693.2" rx="4.7" ry="9"/>
<ellipse class="st4" cx="889.1" cy="690.7" rx="1.9" ry="2.1"/>
<ellipse class="st4" cx="907.5" cy="690.7" rx="1.9" ry="2.1"/>
<line class="st5" x1="855.8" y1="727.5" x2="866.5" y2="732.4"/>
<line class="st5" x1="889.2" y1="740.1" x2="887.1" y2="751.8"/>
<line class="st5" x1="920.2" y1="726" x2="927.2" y2="735.6"/>
<line class="st5" x1="914.8" y1="761.9" x2="913.6" y2="768.3"/>
<line class="st5" x1="877" y1="759.5" x2="878.6" y2="765.8"/>
<line class="st5" x1="932.1" y1="717.6" x2="933.7" y2="724"/>
<line class="st6" x1="895.2" y1="730" x2="904.4" y2="741.1"/>
<line class="st7" x1="868.2" y1="743.5" x2="866.5" y2="752.9"/>
<line class="st5" x1="908.1" y1="760.3" x2="900.6" y2="765"/>
<line class="st5" x1="916.7" y1="750.8" x2="924" y2="755.8"/>
<line class="st5" x1="856.6" y1="699.1" x2="865.8" y2="710.2"/>
<line class="st5" x1="870.6" y1="667" x2="873.3" y2="681.1"/>
<line class="st5" x1="889.8" y1="652.4" x2="886.5" y2="666.5"/>
<line class="st5" x1="902.8" y1="653.4" x2="906.2" y2="665.3"/>
<line class="st5" x1="917.8" y1="660.6" x2="910.9" y2="675.7"/>
<line class="st5" x1="928.8" y1="663.3" x2="923.8" y2="680.4"/>
<line class="st6" x1="935.4" y1="693" x2="932.9" y2="711.2"/>
<line class="st5" x1="881.4" y1="704.6" x2="881.2" y2="720.7"/>
<line class="st5" x1="877.8" y1="731.3" x2="877.6" y2="747.4"/>
<line class="st5" x1="864.8" y1="760.5" x2="871.8" y2="770"/>
<line class="st5" x1="914.5" y1="720.9" x2="910.8" y2="730.6"/>
<line class="st5" x1="893.8" y1="759.5" x2="889.1" y2="770.8"/>
<ellipse class="st8" cx="928.5" cy="671.8" rx="3.9" ry="5"/>
<ellipse transform="matrix(0.7071 -0.7071 0.7071 0.7071 -203.2844 858.9075)" class="st8" cx="935.2" cy="674.8" rx="5" ry="3.9"/>
<ellipse transform="matrix(0.5739 -0.819 0.819 0.5739 -161.1511 1056.9879)" class="st8" cx="935.1" cy="683.3" rx="3.9" ry="5"/>
<ellipse class="st8" cx="927.7" cy="686.8" rx="4.1" ry="4.8"/>
<ellipse transform="matrix(0.7706 -0.6373 0.6373 0.7706 -223.9719 743.8257)" class="st8" cx="921.3" cy="683.1" rx="5" ry="3.9"/>
<ellipse transform="matrix(0.5739 -0.819 0.819 0.5739 -159.9102 1042.2877)" class="st8" cx="921.6" cy="674.8" rx="3.9" ry="5"/>
<circle class="st9" cx="928.5" cy="679" r="5.2"/>
<path class="st0" d="M921.5,767.1l-4.6-9.2c-0.4-0.8-0.1-1.8,0.7-2.2l44.5-22c0.8-0.4,1.8-0.1,2.2,0.7l4.6,9.2
	c0.4,0.8,0.1,1.8-0.7,2.2l-44.5,22C922.8,768.2,921.9,767.9,921.5,767.1z"/>
<line class="st5" x1="923.5" y1="746.2" x2="929.5" y2="756.4"/>
<line class="st5" x1="936.9" y1="742.6" x2="942.9" y2="752.8"/>
<line class="st5" x1="950" y1="743.3" x2="952.3" y2="734.7"/>
<line class="st5" x1="947.3" y1="751.2" x2="958.2" y2="755.8"/>
<path class="st0" d="M831,751.8l1.7-10.1c0.1-0.9,1-1.5,1.9-1.3l49,8.4c0.9,0.1,1.5,1,1.3,1.9l-1.7,10.1c-0.1,0.9-1,1.5-1.9,1.3
	l-49-8.4C831.4,753.5,830.8,752.7,831,751.8z"/>
<line class="st5" x1="863.5" y1="737.6" x2="855.9" y2="749.2"/>
<line class="st5" x1="851.2" y1="740.8" x2="848.7" y2="746.9"/>
<path class="st0" d="M1138.2,730.8c-5.8,40.2-17.1,76.1-38.2,76.1s-31.6-33.9-38.2-76.1c-6.5-41.5,17.1-76.1,38.2-76.1
	S1144.2,689.2,1138.2,730.8z"/>
<polygon class="st1" points="1126.6,843.5 1073.3,843.5 1068.9,785.4 1132.2,785.4 "/>
<polygon class="st2" points="1136.5,785.4 1062,785.4 1059.4,774.1 1139.6,774.1 "/>
<path class="st11" d="M1092.6,711.5c1.9,7.2,8.5,5.7,12.9,3"/>
<ellipse cx="1091.1" cy="693.2" rx="4.7" ry="9"/>
<ellipse cx="1109.5" cy="693.2" rx="4.7" ry="9"/>
<ellipse class="st4" cx="1088.8" cy="690.7" rx="1.9" ry="2.1"/>
<ellipse class="st4" cx="1107.2" cy="690.7" rx="1.9" ry="2.1"/>
<line class="st5" x1="1055.5" y1="727.5" x2="1066.3" y2="732.4"/>
<line class="st5" x1="1088.9" y1="740.1" x2="1086.8" y2="751.8"/>
<line class="st5" x1="1119.9" y1="726" x2="1127" y2="735.6"/>
<line class="st5" x1="1114.5" y1="761.9" x2="1113.3" y2="768.3"/>
<line class="st5" x1="1076.7" y1="759.5" x2="1078.3" y2="765.8"/>
<line class="st5" x1="1131.8" y1="717.6" x2="1133.4" y2="724"/>
<line class="st6" x1="1094.9" y1="730" x2="1104.1" y2="741.1"/>
<line class="st7" x1="1067.9" y1="743.5" x2="1066.2" y2="752.9"/>
<line class="st5" x1="1107.9" y1="760.3" x2="1100.3" y2="765"/>
<line class="st5" x1="1116.4" y1="750.8" x2="1123.8" y2="755.8"/>
<line class="st5" x1="1056.3" y1="699.1" x2="1065.5" y2="710.2"/>
<line class="st5" x1="1070.3" y1="667" x2="1073" y2="681.1"/>
<line class="st5" x1="1089.6" y1="652.4" x2="1086.3" y2="666.5"/>
<line class="st5" x1="1102.5" y1="653.4" x2="1105.9" y2="665.3"/>
<line class="st5" x1="1117.6" y1="660.6" x2="1110.6" y2="675.7"/>
<line class="st5" x1="1128.5" y1="663.3" x2="1123.5" y2="680.4"/>
<line class="st6" x1="1135.1" y1="693" x2="1132.6" y2="711.2"/>
<line class="st5" x1="1081.1" y1="704.6" x2="1080.9" y2="720.7"/>
<line class="st5" x1="1077.5" y1="731.3" x2="1077.3" y2="747.4"/>
<line class="st5" x1="1064.5" y1="760.5" x2="1071.6" y2="770"/>
<line class="st5" x1="1114.2" y1="720.9" x2="1110.6" y2="730.6"/>
<line class="st5" x1="1093.5" y1="759.5" x2="1088.8" y2="770.8"/>
<ellipse class="st8" cx="1128.2" cy="671.8" rx="3.9" ry="5"/>
<ellipse transform="matrix(0.7071 -0.7071 0.7071 0.7071 -144.7944 1000.1223)" class="st8" cx="1134.9" cy="674.8" rx="5" ry="3.9"/>
<ellipse transform="matrix(0.5739 -0.819 0.819 0.5739 -76.0383 1220.532)" class="st8" cx="1134.8" cy="683.3" rx="3.9" ry="5"/>
<ellipse class="st8" cx="1127.4" cy="686.8" rx="4.1" ry="4.8"/>
<ellipse transform="matrix(0.7706 -0.6373 0.6373 0.7706 -178.1575 871.0961)" class="st8" cx="1121" cy="683" rx="5" ry="3.9"/>
<ellipse transform="matrix(0.5739 -0.819 0.819 0.5739 -74.8007 1205.8291)" class="st8" cx="1121.3" cy="674.8" rx="3.9" ry="5"/>
<circle class="st9" cx="1128.2" cy="679" r="5.2"/>
<path class="st0" d="M1115.2,752.9l1.2-10.2c0.1-0.9,0.9-1.5,1.8-1.4l49.4,5.8c0.9,0.1,1.5,0.9,1.4,1.8l-1.2,10.2
	c-0.1,0.9-0.9,1.5-1.8,1.4l-49.4-5.8C1115.7,754.6,1115.1,753.8,1115.2,752.9z"/>
<line class="st5" x1="1128.3" y1="736.5" x2="1127.8" y2="748.3"/>
<line class="st5" x1="1141.6" y1="740.8" x2="1141" y2="752.6"/>
<line class="st5" x1="1152.2" y1="748.5" x2="1158.7" y2="742.6"/>
<line class="st5" x1="1145.6" y1="753.7" x2="1152.2" y2="763.5"/>
<path class="st0" d="M1034.8,765.7l-3.8-9.6c-0.3-0.8,0.1-1.8,0.9-2.1l46.3-18.1c0.8-0.3,1.8,0.1,2.1,0.9l3.8,9.6
	c0.3,0.8-0.1,1.8-0.9,2.1l-46.3,18.1C1036,766.9,1035.1,766.5,1034.8,765.7z"/>
<line class="st5" x1="1055.4" y1="736.7" x2="1054.9" y2="750.5"/>
<line class="st5" x1="1046.5" y1="745.7" x2="1047.5" y2="752.2"/>
<g>
	<path class="st0" d="M515.8-153.3L515.8-153.3c0-3.7,3-6.8,6.8-6.8H562c3.7,0,6.8,3,6.8,6.8v0c0,3.7-3,6.7-6.8,6.7h-39.4
		C518.8-146.6,515.8-149.6,515.8-153.3z"/>
	<path class="st0" d="M431.3-151.2L431.3-151.2c-0.3-3.7,2.5-6.9,6.3-7.2l39.3-2.8c3.7-0.3,6.9,2.5,7.2,6.3v0
		c0.3,3.7-2.5,6.9-6.3,7.2l-39.3,2.8C434.8-144.7,431.5-147.5,431.3-151.2z"/>
	<path class="st0" d="M538.3-173.5c-5.8,40.2-17.1,76.1-38.2,76.1c-21.1,0-31.6-33.9-38.2-76.1c-6.5-41.5,17.1-76.1,38.2-76.1
		C521.2-249.5,544.3-215,538.3-173.5z"/>
	<polygon class="st1" points="526.7,-60.7 473.5,-60.7 469,-118.9 532.3,-118.9 	"/>
	<polygon class="st2" points="536.6,-118.9 462.1,-118.9 459.5,-130.2 539.7,-130.2 	"/>
	<path class="st3" d="M492.7-192.7c1.9,7.2,8.5,5.7,12.9,3"/>
	<ellipse cx="491.6" cy="-207.4" rx="5.8" ry="3.7"/>
	<ellipse class="st4" cx="488.8" cy="-207.4" rx="2.3" ry="0.9"/>
	<line class="st5" x1="455.6" y1="-176.7" x2="466.4" y2="-171.8"/>
	<line class="st5" x1="489" y1="-164.1" x2="487" y2="-152.5"/>
	<line class="st5" x1="520" y1="-178.2" x2="527.1" y2="-168.7"/>
	<line class="st5" x1="514.6" y1="-142.3" x2="513.4" y2="-135.9"/>
	<line class="st5" x1="476.8" y1="-144.8" x2="478.4" y2="-138.4"/>
	<line class="st5" x1="531.9" y1="-186.7" x2="533.5" y2="-180.3"/>
	<line class="st6" x1="495" y1="-174.3" x2="504.2" y2="-163.2"/>
	<line class="st7" x1="468" y1="-160.8" x2="466.3" y2="-151.4"/>
	<line class="st5" x1="508" y1="-144" x2="500.5" y2="-139.2"/>
	<line class="st5" x1="516.5" y1="-153.5" x2="523.9" y2="-148.5"/>
	<line class="st5" x1="456.4" y1="-205.1" x2="465.6" y2="-194.1"/>
	<line class="st5" x1="470.5" y1="-237.3" x2="473.1" y2="-223.1"/>
	<line class="st5" x1="489.7" y1="-251.8" x2="486.4" y2="-237.8"/>
	<line class="st5" x1="502.6" y1="-250.8" x2="506.1" y2="-239"/>
	<line class="st5" x1="517.7" y1="-243.7" x2="510.7" y2="-228.6"/>
	<line class="st5" x1="528.6" y1="-241" x2="523.7" y2="-223.9"/>
	<line class="st6" x1="535.2" y1="-211.2" x2="532.7" y2="-193"/>
	<line class="st5" x1="481.2" y1="-199.6" x2="481.1" y2="-183.6"/>
	<line class="st5" x1="477.7" y1="-172.9" x2="477.5" y2="-156.8"/>
	<line class="st5" x1="464.6" y1="-143.8" x2="471.7" y2="-134.2"/>
	<line class="st5" x1="514.3" y1="-183.4" x2="510.7" y2="-173.7"/>
	<line class="st5" x1="493.6" y1="-144.8" x2="488.9" y2="-133.5"/>
	<ellipse class="st8" cx="528.4" cy="-232.4" rx="3.9" ry="5"/>
	<ellipse transform="matrix(0.7071 -0.7071 0.7071 0.7071 318.9035 311.0909)" class="st8" cx="535" cy="-229.4" rx="5" ry="3.9"/>
	<ellipse transform="matrix(0.5739 -0.819 0.819 0.5739 408.8527 343.994)" class="st8" cx="535" cy="-220.9" rx="3.9" ry="5"/>
	<ellipse class="st8" cx="527.5" cy="-217.4" rx="4.1" ry="4.8"/>

		<ellipse transform="matrix(0.7706 -0.6373 0.6373 0.7706 260.4832 281.4294)" class="st8" cx="521.2" cy="-221.1" rx="5" ry="3.9"/>
	<ellipse transform="matrix(0.5739 -0.819 0.819 0.5739 410.0854 329.2981)" class="st8" cx="521.5" cy="-229.4" rx="3.9" ry="5"/>
	<circle class="st9" cx="528.4" cy="-225.3" r="5.2"/>
	<line class="st5" x1="526.9" y1="-166.1" x2="527.7" y2="-154.2"/>
	<line class="st5" x1="540.5" y1="-163.3" x2="541.3" y2="-151.5"/>
	<line class="st5" x1="551.9" y1="-156.9" x2="557.8" y2="-163.6"/>
	<line class="st5" x1="546" y1="-151" x2="553.7" y2="-142"/>
	<line class="st5" x1="459.9" y1="-167.6" x2="455.4" y2="-154.5"/>
	<line class="st5" x1="448.8" y1="-161.6" x2="447.8" y2="-155.1"/>
	<ellipse cx="510.1" cy="-207.4" rx="5.8" ry="3.7"/>
	<ellipse class="st4" cx="507.5" cy="-207.4" rx="2.3" ry="0.9"/>
</g>
<g>
	<g>
		<path class="st0" d="M923.1-172L923.1-172c2.6-2.6,6.9-2.6,9.5,0l27.9,27.9c2.6,2.6,2.6,6.9,0,9.5l0,0c-2.6,2.6-6.9,2.6-9.5,0
			l-27.9-27.9C920.4-165.1,920.4-169.4,923.1-172z"/>
		<path class="st0" d="M839.9-133.1L839.9-133.1c-2.8-2.4-3.1-6.7-0.7-9.5l25.8-29.8c2.4-2.8,6.7-3.1,9.5-0.7v0
			c2.8,2.4,3.1,6.7,0.7,9.5l-25.8,29.8C846.9-130.9,842.7-130.6,839.9-133.1z"/>
		<path class="st0" d="M937.8-173.5c-5.8,40.2-17.1,76.1-38.2,76.1s-31.6-33.9-38.2-76.1c-6.5-41.5,17.1-76.1,38.2-76.1
			C920.7-249.5,943.8-215,937.8-173.5z"/>
		<polygon class="st1" points="926.2,-60.7 873,-60.7 868.5,-118.9 931.8,-118.9 		"/>
		<polygon class="st2" points="936.1,-118.9 861.6,-118.9 859,-130.2 939.2,-130.2 		"/>
		<path class="st3" d="M892.2-192.7c1.9,7.2,8.5,5.7,12.9,3"/>
		<line class="st5" x1="855.1" y1="-176.7" x2="865.9" y2="-171.8"/>
		<line class="st5" x1="888.5" y1="-164.1" x2="886.5" y2="-152.5"/>
		<line class="st5" x1="919.5" y1="-178.2" x2="926.6" y2="-168.7"/>
		<line class="st5" x1="914.1" y1="-142.3" x2="912.9" y2="-135.9"/>
		<line class="st5" x1="876.3" y1="-144.8" x2="877.9" y2="-138.4"/>
		<line class="st5" x1="931.5" y1="-186.7" x2="933" y2="-180.3"/>
		<line class="st6" x1="894.5" y1="-174.3" x2="903.7" y2="-163.2"/>
		<line class="st7" x1="867.5" y1="-160.8" x2="865.8" y2="-151.4"/>
		<line class="st5" x1="907.5" y1="-144" x2="900" y2="-139.2"/>
		<line class="st5" x1="916.1" y1="-153.5" x2="923.4" y2="-148.5"/>
		<line class="st5" x1="856" y1="-205.1" x2="865.1" y2="-194.1"/>
		<line class="st5" x1="870" y1="-237.3" x2="872.6" y2="-223.1"/>
		<line class="st5" x1="889.2" y1="-251.8" x2="885.9" y2="-237.8"/>
		<line class="st5" x1="902.1" y1="-250.8" x2="905.6" y2="-239"/>
		<line class="st5" x1="917.2" y1="-243.7" x2="910.2" y2="-228.6"/>
		<line class="st5" x1="928.2" y1="-241" x2="923.2" y2="-223.9"/>
		<line class="st6" x1="934.8" y1="-211.2" x2="932.3" y2="-193"/>
		<line class="st5" x1="880.8" y1="-199.6" x2="880.6" y2="-183.6"/>
		<line class="st5" x1="877.2" y1="-172.9" x2="877" y2="-156.8"/>
		<line class="st5" x1="864.1" y1="-143.8" x2="871.2" y2="-134.2"/>
		<line class="st5" x1="913.8" y1="-183.4" x2="910.2" y2="-173.7"/>
		<line class="st5" x1="893.2" y1="-144.8" x2="888.4" y2="-133.5"/>
		<ellipse class="st8" cx="927.9" cy="-232.4" rx="3.9" ry="5"/>

			<ellipse transform="matrix(0.7071 -0.7071 0.7071 0.7071 435.9177 593.5883)" class="st8" cx="934.5" cy="-229.4" rx="5" ry="3.9"/>
		<ellipse transform="matrix(0.5739 -0.819 0.819 0.5739 579.0995 671.1746)" class="st8" cx="934.5" cy="-220.9" rx="3.9" ry="5"/>
		<ellipse class="st8" cx="927.1" cy="-217.4" rx="4.1" ry="4.8"/>

			<ellipse transform="matrix(0.7706 -0.6373 0.6373 0.7706 352.1214 536.0339)" class="st8" cx="920.7" cy="-221.1" rx="5" ry="3.9"/>
		<ellipse transform="matrix(0.5739 -0.819 0.819 0.5739 580.3323 656.4788)" class="st8" cx="921" cy="-229.4" rx="3.9" ry="5"/>
		<circle class="st9" cx="927.9" cy="-225.3" r="5.2"/>
		<line class="st5" x1="939.9" y1="-173.2" x2="932.1" y2="-164.3"/>
		<line class="st5" x1="947.6" y1="-161.7" x2="939.8" y2="-152.7"/>
		<line class="st5" x1="951.1" y1="-149" x2="960" y2="-149.6"/>
		<line class="st5" x1="942.8" y1="-149.1" x2="941.9" y2="-137.2"/>
		<line class="st5" x1="848.5" y1="-164.9" x2="854.5" y2="-152.5"/>
		<line class="st5" x1="844.9" y1="-152.8" x2="848.8" y2="-147.5"/>
	</g>
	<path d="M882.8-215.1"/>
	<path class="st12" d="M889.7-214.1"/>
	<path class="st12" d="M883.6-219.4"/>
	<path class="st13" d="M905-210.4c2.7,8.2,6.5,2.9,9.1,0.8"/>
	<path class="st13" d="M886.6-210.4c2.7,8.2,6.5,2.9,9.1,0.8"/>
</g>
<g>
	<path class="st0" d="M126,108.2L126,108.2c-2.7-2.6-2.7-6.9-0.1-9.5l27.7-28c2.6-2.7,6.9-2.7,9.5-0.1v0c2.7,2.6,2.7,6.9,0.1,9.5
		l-27.7,28C132.9,110.8,128.7,110.8,126,108.2z"/>
	<path class="st0" d="M31.9,76.6L31.9,76.6c2.2-3,6.4-3.7,9.4-1.5l32,23c3,2.2,3.7,6.4,1.5,9.4l0,0c-2.2,3-6.4,3.7-9.4,1.5l-32-23
		C30.4,83.8,29.7,79.6,31.9,76.6z"/>
	<path class="st0" d="M137.8,82.8c-5.8,40.2-17.1,76.1-38.2,76.1S68.1,125,61.5,82.8C55,41.3,78.6,6.8,99.6,6.8
		S143.8,41.2,137.8,82.8z"/>
	<polygon class="st1" points="126.2,195.5 73,195.5 68.5,137.4 131.8,137.4 	"/>
	<polygon class="st2" points="136.1,137.4 61.6,137.4 59,126.1 139.2,126.1 	"/>
	<path class="st3" d="M92.2,63.6c1.9,7.2,8.5,5.7,12.9,3"/>
	<ellipse cx="90.7" cy="45.2" rx="4.7" ry="9"/>
	<ellipse cx="109.1" cy="45.2" rx="4.7" ry="9"/>
	<ellipse class="st4" cx="88.4" cy="42.7" rx="1.9" ry="2.1"/>
	<ellipse class="st4" cx="106.9" cy="42.7" rx="1.9" ry="2.1"/>
	<line class="st5" x1="55.1" y1="79.6" x2="65.9" y2="84.4"/>
	<line class="st5" x1="88.5" y1="92.1" x2="86.5" y2="103.8"/>
	<line class="st5" x1="119.5" y1="78.1" x2="126.6" y2="87.6"/>
	<line class="st5" x1="114.1" y1="114" x2="112.9" y2="120.3"/>
	<line class="st5" x1="76.3" y1="111.5" x2="77.9" y2="117.9"/>
	<line class="st5" x1="131.5" y1="69.6" x2="133" y2="76"/>
	<line class="st6" x1="94.5" y1="82" x2="103.7" y2="93.1"/>
	<line class="st7" x1="67.5" y1="95.5" x2="65.8" y2="104.9"/>
	<line class="st5" x1="107.5" y1="112.3" x2="100" y2="117"/>
	<line class="st5" x1="116.1" y1="102.8" x2="123.4" y2="107.8"/>
	<line class="st5" x1="56" y1="51.1" x2="65.1" y2="62.2"/>
	<line class="st5" x1="70" y1="19" x2="72.6" y2="33.2"/>
	<line class="st5" x1="89.2" y1="4.5" x2="85.9" y2="18.5"/>
	<line class="st5" x1="102.1" y1="5.4" x2="105.6" y2="17.3"/>
	<line class="st5" x1="117.2" y1="12.6" x2="110.2" y2="27.7"/>
	<line class="st5" x1="128.2" y1="15.3" x2="123.2" y2="32.4"/>
	<line class="st6" x1="134.8" y1="45.1" x2="132.3" y2="63.3"/>
	<line class="st5" x1="80.8" y1="56.6" x2="80.6" y2="72.7"/>
	<line class="st5" x1="77.2" y1="83.4" x2="77" y2="99.4"/>
	<line class="st5" x1="64.1" y1="112.5" x2="71.2" y2="122"/>
	<line class="st5" x1="113.8" y1="72.9" x2="110.2" y2="82.6"/>
	<line class="st5" x1="93.2" y1="111.5" x2="88.4" y2="122.8"/>
	<ellipse class="st8" cx="127.9" cy="23.8" rx="3.9" ry="5"/>
	<ellipse transform="matrix(0.7071 -0.7071 0.7071 0.7071 20.3905 102.9635)" class="st8" cx="134.5" cy="26.9" rx="5" ry="3.9"/>
	<ellipse transform="matrix(0.5739 -0.819 0.819 0.5739 28.314 125.2209)" class="st8" cx="134.5" cy="35.4" rx="3.9" ry="5"/>
	<ellipse class="st8" cx="127.1" cy="38.9" rx="4.1" ry="4.8"/>
	<ellipse transform="matrix(0.7706 -0.6373 0.6373 0.7706 5.3007 84.9851)" class="st8" cx="120.7" cy="35.1" rx="5" ry="3.9"/>
	<ellipse transform="matrix(0.5739 -0.819 0.819 0.5739 29.5467 110.525)" class="st8" cx="121" cy="26.9" rx="3.9" ry="5"/>
	<circle class="st9" cx="127.9" cy="31" r="5.2"/>
	<line class="st5" x1="126.2" y1="89.6" x2="135.2" y2="97.3"/>
	<line class="st5" x1="137.7" y1="81.8" x2="146.7" y2="89.5"/>
	<line class="st5" x1="150.3" y1="78.2" x2="149.7" y2="69.4"/>
	<line class="st5" x1="150.4" y1="86.6" x2="162.2" y2="87.4"/>
	<line class="st5" x1="64.4" y1="82.3" x2="52.5" y2="89.4"/>
	<line class="st5" x1="52" y1="79.7" x2="47" y2="84.1"/>
</g>
<rect class="st10" width="200" height="200"/>
<path class="st0" d="M315.3,102.9L315.3,102.9c0-3.7,3-6.8,6.8-6.8h39.4c3.7,0,6.8,3,6.8,6.7v0c0,3.7-3,6.7-6.8,6.7h-39.4
	C318.4,109.7,315.3,106.7,315.3,102.9z"/>
<path class="st0" d="M230.8,105.1L230.8,105.1c-0.3-3.7,2.5-6.9,6.3-7.2l39.3-2.8c3.7-0.3,6.9,2.5,7.2,6.3v0
	c0.3,3.7-2.5,6.9-6.3,7.2l-39.3,2.8C234.3,111.6,231.1,108.8,230.8,105.1z"/>
<path class="st0" d="M337.8,82.8c-5.8,40.2-17.1,76.1-38.2,76.1s-31.6-33.9-38.2-76.1C255,41.3,278.6,6.8,299.6,6.8
	C320.7,6.8,343.8,41.2,337.8,82.8z"/>
<polygon class="st1" points="326.2,195.5 273,195.5 268.5,137.4 331.8,137.4 "/>
<polygon class="st2" points="336.1,137.4 261.6,137.4 259,126.1 339.2,126.1 "/>
<path class="st3" d="M292.2,63.6c1.9,7.2,8.5,5.7,12.9,3"/>
<ellipse cx="291.1" cy="46.9" rx="5.8" ry="3.7"/>
<ellipse class="st4" cx="288.3" cy="46.9" rx="2.3" ry="0.9"/>
<line class="st5" x1="255.1" y1="79.6" x2="265.9" y2="84.4"/>
<line class="st5" x1="288.5" y1="92.1" x2="286.5" y2="103.8"/>
<line class="st5" x1="319.5" y1="78.1" x2="326.6" y2="87.6"/>
<line class="st5" x1="314.1" y1="114" x2="312.9" y2="120.3"/>
<line class="st5" x1="276.3" y1="111.5" x2="277.9" y2="117.9"/>
<line class="st5" x1="331.5" y1="69.6" x2="333" y2="76"/>
<line class="st6" x1="294.5" y1="82" x2="303.7" y2="93.1"/>
<line class="st7" x1="267.5" y1="95.5" x2="265.8" y2="104.9"/>
<line class="st5" x1="307.5" y1="112.3" x2="300" y2="117"/>
<line class="st5" x1="316.1" y1="102.8" x2="323.4" y2="107.8"/>
<line class="st5" x1="256" y1="51.1" x2="265.1" y2="62.2"/>
<line class="st5" x1="270" y1="19" x2="272.6" y2="33.2"/>
<line class="st5" x1="289.2" y1="4.5" x2="285.9" y2="18.5"/>
<line class="st5" x1="302.1" y1="5.5" x2="305.6" y2="17.3"/>
<line class="st5" x1="317.2" y1="12.6" x2="310.2" y2="27.7"/>
<line class="st5" x1="328.2" y1="15.3" x2="323.2" y2="32.4"/>
<line class="st6" x1="334.8" y1="45.1" x2="332.3" y2="63.3"/>
<line class="st5" x1="280.8" y1="56.6" x2="280.6" y2="72.7"/>
<line class="st5" x1="277.2" y1="83.4" x2="277" y2="99.4"/>
<line class="st5" x1="264.1" y1="112.5" x2="271.2" y2="122"/>
<line class="st5" x1="313.8" y1="72.9" x2="310.2" y2="82.6"/>
<line class="st5" x1="293.2" y1="111.5" x2="288.4" y2="122.8"/>
<ellipse class="st8" cx="327.9" cy="23.8" rx="3.9" ry="5"/>
<ellipse transform="matrix(0.7071 -0.7071 0.7071 0.7071 78.9692 244.3849)" class="st8" cx="334.5" cy="26.9" rx="5" ry="3.9"/>
<ellipse transform="matrix(0.5739 -0.819 0.819 0.5739 113.5415 289.0113)" class="st8" cx="334.5" cy="35.4" rx="3.9" ry="5"/>
<ellipse class="st8" cx="327.1" cy="38.9" rx="4.1" ry="4.8"/>
<ellipse transform="matrix(0.7706 -0.6373 0.6373 0.7706 51.1758 212.443)" class="st8" cx="320.7" cy="35.1" rx="5" ry="3.9"/>
<ellipse transform="matrix(0.5739 -0.819 0.819 0.5739 114.7742 274.3154)" class="st8" cx="321" cy="26.9" rx="3.9" ry="5"/>
<circle class="st9" cx="327.9" cy="31" r="5.2"/>
<line class="st5" x1="326.4" y1="90.2" x2="327.2" y2="102"/>
<line class="st5" x1="340" y1="92.9" x2="340.8" y2="104.7"/>
<line class="st5" x1="351.4" y1="99.4" x2="357.3" y2="92.7"/>
<line class="st5" x1="345.5" y1="105.3" x2="353.3" y2="114.2"/>
<line class="st5" x1="259.4" y1="88.7" x2="254.9" y2="101.7"/>
<line class="st5" x1="248.3" y1="94.7" x2="247.3" y2="101.2"/>
<ellipse cx="309.6" cy="46.9" rx="5.8" ry="3.7"/>
<ellipse class="st4" cx="307.1" cy="46.9" rx="2.3" ry="0.9"/>
<g>
	<path class="st0" d="M523.1,84.2L523.1,84.2c2.6-2.6,6.9-2.6,9.5,0l27.9,27.9c2.6,2.6,2.6,6.9,0,9.5v0c-2.6,2.6-6.9,2.6-9.5,0
		l-27.9-27.9C520.4,91.1,520.4,86.9,523.1,84.2z"/>
	<path class="st0" d="M439.9,123.2L439.9,123.2c-2.8-2.4-3.1-6.7-0.7-9.5L465,83.9c2.4-2.8,6.7-3.1,9.5-0.7l0,0
		c2.8,2.4,3.1,6.7,0.7,9.5l-25.8,29.8C446.9,125.3,442.7,125.7,439.9,123.2z"/>
	<path class="st0" d="M537.8,82.8c-5.8,40.2-17.1,76.1-38.2,76.1c-21.1,0-31.6-33.9-38.2-76.1C455,41.3,478.6,6.8,499.6,6.8
		S543.8,41.2,537.8,82.8z"/>
	<polygon class="st1" points="526.2,195.5 473,195.5 468.5,137.4 531.8,137.4 	"/>
	<polygon class="st2" points="536.1,137.4 461.6,137.4 459,126.1 539.2,126.1 	"/>
	<path class="st3" d="M492.2,63.6c1.9,7.2,8.5,5.7,12.9,3"/>
	<line class="st5" x1="455.1" y1="79.6" x2="465.9" y2="84.4"/>
	<line class="st5" x1="488.5" y1="92.1" x2="486.5" y2="103.8"/>
	<line class="st5" x1="519.5" y1="78.1" x2="526.6" y2="87.6"/>
	<line class="st5" x1="514.1" y1="114" x2="512.9" y2="120.3"/>
	<line class="st5" x1="476.3" y1="111.5" x2="477.9" y2="117.9"/>
	<line class="st5" x1="531.5" y1="69.6" x2="533" y2="76"/>
	<line class="st6" x1="494.5" y1="82" x2="503.7" y2="93.1"/>
	<line class="st7" x1="467.5" y1="95.5" x2="465.8" y2="104.9"/>
	<line class="st5" x1="507.5" y1="112.3" x2="500" y2="117"/>
	<line class="st5" x1="516.1" y1="102.8" x2="523.4" y2="107.8"/>
	<line class="st5" x1="456" y1="51.1" x2="465.1" y2="62.2"/>
	<line class="st5" x1="470" y1="19" x2="472.6" y2="33.2"/>
	<line class="st5" x1="489.2" y1="4.5" x2="485.9" y2="18.5"/>
	<line class="st5" x1="502.1" y1="5.5" x2="505.6" y2="17.3"/>
	<line class="st5" x1="517.2" y1="12.6" x2="510.2" y2="27.7"/>
	<line class="st5" x1="528.2" y1="15.3" x2="523.2" y2="32.4"/>
	<line class="st6" x1="534.8" y1="45.1" x2="532.3" y2="63.3"/>
	<line class="st5" x1="480.8" y1="56.6" x2="480.6" y2="72.7"/>
	<line class="st5" x1="477.2" y1="83.4" x2="477" y2="99.4"/>
	<line class="st5" x1="464.1" y1="112.5" x2="471.2" y2="122"/>
	<line class="st5" x1="513.8" y1="72.9" x2="510.2" y2="82.6"/>
	<line class="st5" x1="493.2" y1="111.5" x2="488.4" y2="122.8"/>
	<ellipse class="st8" cx="527.9" cy="23.8" rx="3.9" ry="5"/>
	<ellipse transform="matrix(0.7071 -0.7071 0.7071 0.7071 137.5478 385.8062)" class="st8" cx="534.5" cy="26.9" rx="5" ry="3.9"/>
	<ellipse transform="matrix(0.5739 -0.819 0.819 0.5739 198.769 452.8016)" class="st8" cx="534.5" cy="35.4" rx="3.9" ry="5"/>
	<ellipse class="st8" cx="527.1" cy="38.9" rx="4.1" ry="4.8"/>
	<ellipse transform="matrix(0.7706 -0.6373 0.6373 0.7706 97.0509 339.9009)" class="st8" cx="520.7" cy="35.1" rx="5" ry="3.9"/>
	<ellipse transform="matrix(0.5739 -0.819 0.819 0.5739 200.0018 438.1057)" class="st8" cx="521" cy="26.9" rx="3.9" ry="5"/>
	<circle class="st9" cx="527.9" cy="31" r="5.2"/>
	<line class="st5" x1="539.9" y1="83" x2="532.1" y2="92"/>
	<line class="st5" x1="547.6" y1="94.6" x2="539.8" y2="103.6"/>
	<line class="st5" x1="551.1" y1="107.2" x2="560" y2="106.7"/>
	<line class="st5" x1="542.8" y1="107.2" x2="541.9" y2="119"/>
	<line class="st5" x1="448.5" y1="91.4" x2="454.5" y2="103.8"/>
	<line class="st5" x1="444.9" y1="103.5" x2="448.8" y2="108.8"/>
</g>
<path d="M482.8,41.2"/>
<path class="st12" d="M489.7,42.1"/>
<path class="st12" d="M483.6,36.9"/>
<path class="st12" d="M505,43.9c2.7,8.2,6.5,2.9,9.1,0.8"/>
<path class="st12" d="M486.6,43.9c2.7,8.2,6.5,2.9,9.1,0.8"/>
<rect x="200" y="-256.3" class="st10" width="200" height="200"/>
<rect x="400" y="-256.3" class="st10" width="200" height="200"/>
<rect x="600" y="-256.3" class="st10" width="200" height="200"/>
<rect x="800" y="-256.3" class="st10" width="200" height="200"/>
<g>
	<path class="st0" d="M325.7-147.5L325.7-147.5c-1.5-3.4,0-7.4,3.4-8.9l35.9-16.2c3.4-1.5,7.4,0,8.9,3.4l0,0c1.5,3.4,0,7.4-3.4,8.9
		l-35.9,16.2C331.2-142.6,327.2-144.1,325.7-147.5z"/>
	<path class="st0" d="M225.9-164.7L225.9-164.7c1.2-3.5,5-5.4,8.5-4.3l37.4,12.5c3.5,1.2,5.4,5,4.3,8.5v0c-1.2,3.5-5,5.4-8.5,4.3
		l-37.4-12.5C226.6-157.4,224.7-161.2,225.9-164.7z"/>
	<path class="st0" d="M336.8-173.5c-5.8,40.2-17.1,76.1-38.2,76.1s-31.6-33.9-38.2-76.1c-6.5-41.5,17.1-76.1,38.2-76.1
		C319.7-249.5,342.8-215,336.8-173.5z"/>
	<polygon class="st1" points="325.2,-60.7 271.9,-60.7 267.5,-118.9 330.8,-118.9 	"/>
	<polygon class="st2" points="335.1,-118.9 260.6,-118.9 258,-130.2 338.2,-130.2 	"/>
	<path class="st3" d="M291.2-192.7c1.9,7.2,8.5,5.7,12.9,3"/>
	<ellipse cx="290.1" cy="-208.5" rx="5.8" ry="4.8"/>
	<ellipse class="st4" cx="287.3" cy="-207.9" rx="2.3" ry="1.4"/>
	<line class="st5" x1="254.1" y1="-176.7" x2="264.9" y2="-171.8"/>
	<line class="st5" x1="287.5" y1="-164.1" x2="285.5" y2="-152.5"/>
	<line class="st5" x1="318.5" y1="-178.2" x2="325.6" y2="-168.7"/>
	<line class="st5" x1="313.1" y1="-142.3" x2="311.9" y2="-135.9"/>
	<line class="st5" x1="275.3" y1="-144.8" x2="276.9" y2="-138.4"/>
	<line class="st5" x1="330.4" y1="-186.7" x2="332" y2="-180.3"/>
	<line class="st6" x1="293.5" y1="-174.3" x2="302.7" y2="-163.2"/>
	<line class="st7" x1="267.5" y1="-156.5" x2="262.2" y2="-148.4"/>
	<line class="st5" x1="306.5" y1="-144" x2="299" y2="-139.2"/>
	<line class="st5" x1="315" y1="-153.5" x2="322.4" y2="-148.5"/>
	<line class="st5" x1="254.9" y1="-205.1" x2="264.1" y2="-194.1"/>
	<line class="st5" x1="269" y1="-237.3" x2="271.6" y2="-223.1"/>
	<line class="st5" x1="288.2" y1="-251.8" x2="284.9" y2="-237.8"/>
	<line class="st5" x1="301.1" y1="-250.8" x2="304.5" y2="-239"/>
	<line class="st5" x1="316.2" y1="-243.7" x2="309.2" y2="-228.6"/>
	<line class="st5" x1="327.1" y1="-241" x2="322.1" y2="-223.9"/>
	<line class="st6" x1="333.7" y1="-211.2" x2="331.2" y2="-193"/>
	<line class="st5" x1="279.7" y1="-199.6" x2="279.5" y2="-183.6"/>
	<line class="st5" x1="276.2" y1="-172.9" x2="276" y2="-156.8"/>
	<line class="st5" x1="263.1" y1="-143.8" x2="270.2" y2="-134.2"/>
	<line class="st5" x1="312.8" y1="-183.4" x2="309.2" y2="-173.7"/>
	<line class="st5" x1="292.1" y1="-144.8" x2="287.4" y2="-133.5"/>
	<ellipse class="st8" cx="326.9" cy="-232.4" rx="3.9" ry="5"/>

		<ellipse transform="matrix(0.7071 -0.7071 0.7071 0.7071 259.8846 168.6066)" class="st8" cx="333.5" cy="-229.4" rx="5" ry="3.9"/>
	<ellipse transform="matrix(0.5739 -0.819 0.819 0.5739 322.9846 178.9726)" class="st8" cx="333.5" cy="-220.9" rx="3.9" ry="5"/>
	<ellipse class="st8" cx="326" cy="-217.4" rx="4.1" ry="4.8"/>

		<ellipse transform="matrix(0.7706 -0.6373 0.6373 0.7706 214.2634 153.0135)" class="st8" cx="319.7" cy="-221.1" rx="5" ry="3.9"/>
	<ellipse transform="matrix(0.5739 -0.819 0.819 0.5739 324.2173 164.2767)" class="st8" cx="320" cy="-229.4" rx="3.9" ry="5"/>
	<circle class="st9" cx="326.9" cy="-225.3" r="5.2"/>
	<line class="st5" x1="321.5" y1="-158.6" x2="327.1" y2="-148.2"/>
	<line class="st5" x1="335" y1="-161.7" x2="340.7" y2="-151.3"/>
	<line class="st5" x1="348.1" y1="-160.5" x2="350.7" y2="-169"/>
	<line class="st5" x1="345.1" y1="-152.8" x2="355.9" y2="-147.7"/>
	<line class="st5" x1="262.6" y1="-165.8" x2="253.4" y2="-155.6"/>
	<line class="st5" x1="250" y1="-164.6" x2="246.6" y2="-159"/>
	<ellipse cx="310.7" cy="-208.5" rx="5.8" ry="4.8"/>
	<ellipse class="st4" cx="307.7" cy="-207.9" rx="2.3" ry="1.4"/>
</g>
<g>
	<path class="st0" d="M718.3-159.4L718.3-159.4c1.7-3.3,5.8-4.6,9.1-2.9l35,18.1c3.3,1.7,4.6,5.8,2.9,9.1v0
		c-1.7,3.3-5.8,4.6-9.1,2.9l-35-18.1C717.9-152,716.6-156.1,718.3-159.4z"/>
	<path class="st0" d="M634.7-138.7L634.7-138.7c-1.7-3.3-0.3-7.4,3-9.1l35.3-17.6c3.3-1.7,7.4-0.3,9.1,3l0,0c1.7,3.3,0.3,7.4-3,9.1
		l-35.3,17.6C640.4-134,636.4-135.4,634.7-138.7z"/>
	<path class="st0" d="M737.8-173.5c-5.8,40.2-17.1,76.1-38.2,76.1s-31.6-33.9-38.2-76.1c-6.5-41.5,17.1-76.1,38.2-76.1
		S743.7-215,737.8-173.5z"/>
	<polygon class="st1" points="726.2,-60.7 672.9,-60.7 668.5,-118.9 731.8,-118.9 	"/>
	<polygon class="st2" points="736.1,-118.9 661.6,-118.9 659,-130.2 739.1,-130.2 	"/>
	<path class="st3" d="M692.1-192.7c1.9,7.2,8.5,5.7,12.9,3"/>
	<ellipse cx="691.1" cy="-204.8" rx="5.8" ry="1.1"/>
	<ellipse class="st4" cx="688.2" cy="-204.9" rx="2.3" ry="0.3"/>
	<line class="st5" x1="655.1" y1="-176.7" x2="665.9" y2="-171.8"/>
	<line class="st5" x1="688.5" y1="-164.1" x2="686.4" y2="-152.5"/>
	<line class="st5" x1="719.5" y1="-178.2" x2="726.6" y2="-168.7"/>
	<line class="st5" x1="714.1" y1="-142.3" x2="712.9" y2="-135.9"/>
	<line class="st5" x1="676.3" y1="-144.8" x2="677.9" y2="-138.4"/>
	<line class="st5" x1="731.4" y1="-186.7" x2="733" y2="-180.3"/>
	<line class="st6" x1="694.5" y1="-174.3" x2="703.7" y2="-163.2"/>
	<line class="st7" x1="665" y1="-161.6" x2="667" y2="-152.2"/>
	<line class="st5" x1="707.5" y1="-144" x2="699.9" y2="-139.2"/>
	<line class="st5" x1="716" y1="-153.5" x2="723.4" y2="-148.5"/>
	<line class="st5" x1="655.9" y1="-205.1" x2="665.1" y2="-194.1"/>
	<line class="st5" x1="669.9" y1="-237.3" x2="672.6" y2="-223.1"/>
	<line class="st5" x1="689.2" y1="-251.8" x2="685.9" y2="-237.8"/>
	<line class="st5" x1="702.1" y1="-250.8" x2="705.5" y2="-239"/>
	<line class="st5" x1="717.1" y1="-243.7" x2="710.2" y2="-228.6"/>
	<line class="st5" x1="728.1" y1="-241" x2="723.1" y2="-223.9"/>
	<line class="st6" x1="734.7" y1="-211.2" x2="732.2" y2="-193"/>
	<line class="st5" x1="680.7" y1="-199.6" x2="680.5" y2="-183.6"/>
	<line class="st5" x1="677.1" y1="-172.9" x2="676.9" y2="-156.8"/>
	<line class="st5" x1="664.1" y1="-143.8" x2="671.2" y2="-134.2"/>
	<line class="st5" x1="713.8" y1="-183.4" x2="710.1" y2="-173.7"/>
	<line class="st5" x1="693.1" y1="-144.8" x2="688.4" y2="-133.5"/>
	<ellipse class="st8" cx="727.8" cy="-232.4" rx="3.9" ry="5"/>

		<ellipse transform="matrix(0.7071 -0.7071 0.7071 0.7071 377.3311 452.1477)" class="st8" cx="734.5" cy="-229.4" rx="5" ry="3.9"/>
	<ellipse transform="matrix(0.5739 -0.819 0.819 0.5739 493.8605 507.3621)" class="st8" cx="734.5" cy="-220.9" rx="3.9" ry="5"/>
	<ellipse class="st8" cx="727" cy="-217.4" rx="4.1" ry="4.8"/>

		<ellipse transform="matrix(0.7706 -0.6373 0.6373 0.7706 306.2401 408.5587)" class="st8" cx="720.7" cy="-221.1" rx="5" ry="3.9"/>
	<ellipse transform="matrix(0.5739 -0.819 0.819 0.5739 495.0932 492.6662)" class="st8" cx="720.9" cy="-229.4" rx="3.9" ry="5"/>
	<circle class="st9" cx="727.8" cy="-225.3" r="5.2"/>
	<line class="st5" x1="726.3" y1="-166.1" x2="727.2" y2="-154.2"/>
	<line class="st5" x1="744.8" y1="-156.9" x2="740.1" y2="-146"/>
	<line class="st5" x1="752" y1="-145.9" x2="760.2" y2="-149.2"/>
	<line class="st5" x1="744" y1="-143.4" x2="746.7" y2="-131.9"/>
	<line class="st5" x1="654.9" y1="-164.8" x2="655.7" y2="-151"/>
	<line class="st5" x1="646.9" y1="-155" x2="648.5" y2="-148.6"/>
	<ellipse cx="709.1" cy="-204.8" rx="5.8" ry="1.1"/>
	<ellipse class="st4" cx="707.1" cy="-204.8" rx="2.3" ry="0.3"/>
</g>
</svg>
