<svg id="Layer_1" data-name="Layer 1" xmlns="http://www.w3.org/2000/svg" width="1400" height="200" viewBox="0 0 1400 200"><defs><style>.cls-1{fill:#754c24;}.cls-2{fill:#9b6237;}.cls-3{fill:#fff;}.cls-4{fill:#515117;}.cls-5{fill:#edf728;}.cls-6{fill:#fdffeb;}.cls-7{fill:#5d7a53;}.cls-8{fill:none;}</style></defs><title>spritekaktus</title><polygon class="cls-1" points="68.51 137.38 72.96 195.53 126.19 195.53 131.81 137.38 68.51 137.38"/><polygon class="cls-2" points="58.99 126.08 61.6 137.38 68.51 137.38 131.81 137.38 136.13 137.38 139.17 126.08 128.22 126.08 71.11 126.08 58.99 126.08"/><path d="M106.37,66.33,91.47,62.9l.22.8c.7,2.65,2.06,4.4,4,5.18a6.88,6.88,0,0,0,2.54.46A14.48,14.48,0,0,0,105.35,67Z"/><path d="M90.67,54.16c2.59,0,4.68-4,4.68-9s-2.09-9-4.68-9-4.69,4-4.69,9S88.08,54.16,90.67,54.16Zm1.72-13.51a2.08,2.08,0,1,1-1.85,2.29,1.62,1.62,0,0,1,0-.22A2,2,0,0,1,92.39,40.65Z"/><path d="M113.82,45.2c0-5-2.1-9-4.69-9s-4.68,4-4.68,9,2.09,9,4.68,9S113.82,50.15,113.82,45.2ZM109,42.72a1.87,1.87,0,1,1,1.86,2.07A2,2,0,0,1,109,42.72Z"/><path class="cls-3" d="M92.39,44.79a2.08,2.08,0,1,0-1.85-2.29,1.62,1.62,0,0,0,0,.22A2,2,0,0,0,92.39,44.79Z"/><path class="cls-3" d="M112.72,42.72a1.87,1.87,0,1,0-1.86,2.07A2,2,0,0,0,112.72,42.72Z"/><polygon class="cls-4" points="65.48 85.34 66.3 83.52 61.24 81.23 55.5 78.64 54.68 80.47 61.58 83.58 65.48 85.34"/><rect class="cls-4" x="81.57" y="96.98" width="11.85" height="2" transform="translate(-24.19 167.13) rotate(-80)"/><path class="cls-4" d="M123.08,84.23h0a6.41,6.41,0,0,1,1.45-1.09l-4.21-5.68-1.6,1.19L123,84.37Z"/><rect class="cls-4" x="110.26" y="116.16" width="6.49" height="2" transform="translate(-22.14 207.77) rotate(-79.65)"/><rect class="cls-4" x="76.13" y="111.38" width="2" height="6.58" transform="translate(-25.4 22.01) rotate(-13.97)"/><rect class="cls-4" x="131.26" y="69.47" width="2" height="6.58" transform="translate(-13.66 34.11) rotate(-13.98)"/><rect class="cls-4" x="97.62" y="80.33" width="3" height="14.4" transform="translate(-33.05 83.25) rotate(-39.59)"/><polygon class="cls-4" points="69.01 101.12 68.02 100.94 66.49 109.33 66.31 110.36 66.76 110.44 67.29 110.54 69.01 101.12"/><rect class="cls-4" x="99.29" y="113.68" width="8.87" height="2" transform="translate(-45.19 73.04) rotate(-32.25)"/><rect class="cls-4" x="118.71" y="100.86" width="2" height="8.87" transform="translate(-34.73 144.88) rotate(-55.71)"/><polygon class="cls-4" points="65.89 61.59 61.3 56.03 56.72 50.49 55.17 51.76 60.95 58.74 64.35 62.86 65.89 61.59"/><polygon class="cls-4" points="73.58 32.98 72.25 25.82 70.95 18.82 68.98 19.19 70.69 28.38 71.61 33.35 73.58 32.98"/><polygon class="cls-4" points="86.87 18.72 89.03 9.53 90.16 4.7 88.22 4.24 86.65 10.88 84.92 18.26 86.87 18.72"/><polygon class="cls-4" points="106.52 17.03 103.68 7.17 103.1 5.18 101.18 5.73 101.5 6.85 104.6 17.59 106.52 17.03"/><polygon class="cls-4" points="111.11 28.13 117.39 14.52 118.08 13.04 116.26 12.2 115.8 13.19 109.29 27.29 111.11 28.13"/><path class="cls-4" d="M128.13,18.92l1-3.34L127.19,15l-1.35,4.62a3.26,3.26,0,0,1,2-.76A1.5,1.5,0,0,1,128.13,18.92Z"/><polygon class="cls-4" points="130.76 63.05 133.73 63.47 135.97 47.29 136.25 45.27 135.38 45.15 133.28 44.86 130.76 63.05"/><rect class="cls-4" x="72.62" y="63.67" width="16.06" height="2" transform="translate(15 144.52) rotate(-89.3)"/><rect class="cls-4" x="69.04" y="90.4" width="16.06" height="2" transform="translate(-15.26 167.35) rotate(-89.3)"/><polygon class="cls-4" points="71.99 121.43 68.24 116.38 64.93 111.91 63.33 113.1 69.76 121.78 70.38 122.62 71.99 121.43"/><rect class="cls-4" x="106.82" y="76.74" width="10.36" height="2" transform="translate(-0.2 155.19) rotate(-69.38)"/><rect class="cls-4" x="84.62" y="116.15" width="12.3" height="2" transform="translate(-52.35 155.63) rotate(-67.28)"/><path class="cls-5" d="M124.06,24.46a5.57,5.57,0,0,0-.86-.75c-2.25-1.57-5.06-1.43-6.28.32s-.4,4.43,1.85,6a6.15,6.15,0,0,0,2,.91,5.87,5.87,0,0,0-2.47,1.23c-2.11,1.74-2.72,4.49-1.37,6.13s4,1.55,6.08,0q0,.3,0,.6c0,2.67,1.85,4.82,4.13,4.82s4.14-2.15,4.14-4.82a5.76,5.76,0,0,0-.24-1.55,6.16,6.16,0,0,0,1.33,1.27,6.38,6.38,0,0,0,1.15.62c2,.84,4.11.52,5.13-.94,1.22-1.74.39-4.43-1.85-6a6.12,6.12,0,0,0-2.53-1,5.8,5.8,0,0,0,3-1.63c1.94-1.93,2.29-4.73.78-6.23s-4.3-1.16-6.23.78l-.06.06v-.37c0-2.62-1.59-4.75-3.6-4.92h-.26a3.26,3.26,0,0,0-2,.76,4.86,4.86,0,0,0-1.56,2.44,5.83,5.83,0,0,0-.27,1.76A.67.67,0,0,0,124.06,24.46ZM133.11,31a5.24,5.24,0,1,1-5.24-5.24h0A5.25,5.25,0,0,1,133.11,31Z"/><circle class="cls-6" cx="127.87" cy="31.01" r="5.24"/><path class="cls-7" d="M160.5,112.09,146.17,97.77l-5.58,6.44-1.51-1.31,5.68-6.55-7.84-7.83a5.35,5.35,0,0,1,.11-.68l-4.15,4.79-1.51-1.31,6.23-7.18c.06-.44.13-.88.19-1.32A90.52,90.52,0,0,0,136,47.29l-2.24,16.17-3-.41,2.52-18.19,2.1.29c-.59-2-1.25-4-2-5.95a6.38,6.38,0,0,1-1.15-.62,6.16,6.16,0,0,1-1.33-1.27,5.76,5.76,0,0,1,.24,1.55c0,2.67-1.85,4.82-4.14,4.82s-4.13-2.15-4.13-4.82q0-.3,0-.6c-2.08,1.59-4.76,1.63-6.08,0s-.74-4.39,1.37-6.13a5.87,5.87,0,0,1,2.47-1.23,6.15,6.15,0,0,1-2-.91c-2.25-1.57-3.07-4.26-1.85-6s4-1.89,6.28-.32a5.57,5.57,0,0,1,.86.75V23.8a5.83,5.83,0,0,1,.27-1.76,49.89,49.89,0,0,0-6.89-7.56L111,28.09l-1.82-.84,6.51-14.1a28.86,28.86,0,0,0-12.12-6L106.52,17l-1.92.56L101.5,6.85c-.63-.06-1.25-.09-1.88-.09A23.45,23.45,0,0,0,89,9.53l-2.16,9.19-2-.46,1.73-7.38a48.09,48.09,0,0,0-14.4,14.94L73.58,33l-2,.37-.92-5A78.35,78.35,0,0,0,61.3,56l4.59,5.56-1.54,1.27L61,58.74a89.56,89.56,0,0,0,.29,22.49l5.06,2.29-.82,1.82-3.9-1.76c.19,1.2.38,2.4.58,3.58L52.8,98l2.6,5.42-1.8.86-2.23-4.63-4.37,5,2.6,3.51L48,109.37l-2.33-3.15-6.46,7.46a6.75,6.75,0,0,0,10,9l.17-.19,16-18.41c.37,1.77.76,3.51,1.15,5.22L68,100.94l1,.18-1.72,9.42-.53-.1c.48,2,1,4,1.48,5.94L72,121.43l-1.61,1.19-.62-.84c.44,1.47.89,2.9,1.35,4.3h57.11A193.54,193.54,0,0,0,134,104.65l7.46,7.46.37-5,2,.15-.49,6.67L151,121.6a6.75,6.75,0,0,0,9.55-9.55ZM78.17,83.38,78,99.44H76l.2-16.06ZM77,118.1l-1.59-6.38,1.94-.48,1.59,6.38Zm4.59-45.39h-2l.2-16.06h2Zm50.87-3.36L134,75.73l-1.94.49-1.59-6.39Zm-12.1,8.11,4.21,5.68a6.41,6.41,0,0,0-1.45,1.09h0l-.13.14-4.23-5.72Zm-22-8.12a6.88,6.88,0,0,1-2.54-.46c-2-.78-3.34-2.53-4-5.18l-.22-.8,14.9,3.43-1,.64a14.45,14.45,0,0,1-7.23,2.37ZM105,92.13l-2.31,1.92L93.37,83l2.31-2ZM90.67,36.24c2.59,0,4.68,4,4.68,9s-2.09,9-4.68,9-4.69-4-4.69-9S88.08,36.24,90.67,36.24Zm-5.18,67.4L87.54,92l2,.34L87.46,104Zm3.83,19.57-1.84-.77,4.75-11.35,1.84.77Zm11.19-5.33-1.07-1.69,7.5-4.73,1.07,1.69Zm3.94-72.68c0-5,2.09-9,4.68-9s4.69,4,4.69,9-2.1,9-4.69,9S104.45,50.15,104.45,45.2Zm4.78,37,3.65-9.7,1.87.71-3.64,9.69Zm4.68,38.28-2-.36,1.17-6.38,2,.36Zm8.9-11.89-7.33-5,1.13-1.65,7.33,5Z"/><polygon class="cls-4" points="131.37 91.32 132.88 92.63 137.03 87.84 140.64 83.68 139.13 82.37 137.6 84.14 131.37 91.32"/><polygon class="cls-4" points="140.59 104.21 146.17 97.77 148.35 95.25 146.84 93.94 144.75 96.35 139.08 102.9 140.59 104.21"/><polygon class="cls-4" points="141.78 107.15 141.41 112.11 140.91 118.97 142.9 119.11 143.28 113.97 143.77 107.3 141.78 107.15"/><polygon class="cls-4" points="55.4 103.38 52.8 97.97 49.41 90.93 47.6 91.79 51.37 99.61 53.6 104.24 55.4 103.38"/><polygon class="cls-4" points="49.58 108.18 46.98 104.67 45.66 102.89 44.06 104.08 45.64 106.22 47.98 109.37 49.58 108.18"/><rect class="cls-4" x="151.09" y="105.95" width="8.87" height="2" transform="translate(-6.86 10.74) rotate(-3.87)"/><rect class="cls-8" width="200" height="200"/><rect class="cls-8" x="400" width="200" height="200"/><rect class="cls-8" x="600" width="200" height="200"/><rect class="cls-8" x="800" width="200" height="200"/><rect class="cls-8" x="1000" width="200" height="200"/><rect class="cls-8" x="1200" width="200" height="200"/><path class="cls-7" d="M767.5,94.43a6.77,6.77,0,0,0-8.58-4.17l-2.31.8.86.58-5,7.33-1.66-1.12,4.27-6.27-15.32,5.3,3.35,7.83-1.84.79-3.4-8-1.5.52.51-2.82-.27-.63.41-.17q.91-5.3,1.7-10.73a90.76,90.76,0,0,0-1.66-34.86l-2,14.62-3-.41,2.51-18.19L736,45c-.67-2.18-1.39-4.29-2.18-6.33a1.35,1.35,0,0,1-.26-.15,6.73,6.73,0,0,1-1.34-1.27,5.07,5.07,0,0,1,.24,1.55c0,2.67-1.85,4.82-4.13,4.82s-4.13-2.15-4.13-4.82q0-.3,0-.6c-2.09,1.59-4.77,1.63-6.08,0s-.75-4.39,1.36-6.13A6,6,0,0,1,722,30.94a6.1,6.1,0,0,1-2-.91c-2.24-1.57-3.07-4.26-1.85-6s4-1.89,6.28-.32a7.81,7.81,0,0,1,.87.75V23.19a50.87,50.87,0,0,0-7.07-7.81l-5.89,12.75-1.81-.84,6.11-13.23A29.27,29.27,0,0,0,705.3,8.23l2.54,8.8-1.92.56L703.1,7.83a19.6,19.6,0,0,0-2.54-.19,23.29,23.29,0,0,0-10.4,2.68l-2,8.4-1.95-.46,1.56-6.61a47.31,47.31,0,0,0-14.18,14.41l1.3,6.94-2,.37-.89-4.8a77.68,77.68,0,0,0-9.63,27.22l4.8,5.8-1.54,1.27L662,58.46A88.56,88.56,0,0,0,662,81l5.59,2.53-.82,1.82-4.46-2,.06.37q1,6.14,2,12l-5.68.66L657,102.12l-1.92-.57,1.48-4.93-6.65.77-.45,4.34-2-.21.41-3.89-9.81,1.13a6.76,6.76,0,0,0,1.05,13.48,4.43,4.43,0,0,0,.51-.06L667.15,109c.48,2.09,1,4.14,1.48,6.13l4.67,6.31-1.6,1.19-1.7-2.25c.56,2,1.13,3.86,1.72,5.7h57.71c1.3-4,2.5-8.18,3.6-12.59l17.52-6.06-4.29-2.5,1-1.73,5.79,3.37L763.33,103A6.76,6.76,0,0,0,767.5,94.43ZM681.06,56.62h2l-.19,16.06h-2Zm-1.58,26.76-.19,16.06h-2l.19-16.06Zm-11.86,27,1.72-9.42,1,.18-1.72,9.42Zm10.65,7.74-1.59-6.38,1.94-.48,1.59,6.38Zm55.47-48.75,1.59,6.38-1.94.49-1.59-6.39Zm2.42,14,1.76,1-5.7,10.39-1.76-1Zm-14.52-5.93L728.69,87l-1.6,1.19L720,78.65Zm-11.19-41.2c2.58,0,4.68,4,4.68,9s-2.1,9-4.68,9-4.69-4-4.69-9S707.86,36.24,710.45,36.24Zm-18.47,0c2.59,0,4.69,4,4.69,9s-2.1,9-4.69,9-4.68-4-4.68-9,2.09-9,4.7-9Zm-5.18,67.4L688.86,92l2,.34L688.77,104Zm3.84,19.57-1.85-.77,4.75-11.35,1.85.77Zm4-40.26L697,81l9.17,11.1L703.86,94Zm7.14,34.93-1.07-1.69,7.51-4.73,1.07,1.69Zm-2.7-47.42a9.85,9.85,0,0,1-3.64-.65c-2.75-1.11-4.62-3.55-5.55-7.25l-.2-.78L711,66.17l-1.06.67a21.28,21.28,0,0,1-10.82,3.62Zm11.43,11.78,3.65-9.7,1.87.71-3.65,9.69Zm4.67,38.28-2-.36,1.16-6.38,2,.36Zm2.7-18.54,7.33,5-1.12,1.66-7.34-5Z"/><polygon class="cls-1" points="669.82 137.38 674.28 195.53 727.5 195.53 733.13 137.38 669.82 137.38"/><polygon class="cls-2" points="660.31 126.08 662.91 137.38 669.82 137.38 733.13 137.38 737.44 137.38 740.48 126.08 729.46 126.08 671.75 126.08 660.31 126.08"/><path d="M692,54.16c2.59,0,4.69-4,4.69-9s-2.1-9-4.69-9-4.68,4-4.68,9S689.39,54.16,692,54.16Zm1.73-13.51a2.08,2.08,0,1,1-1.85,2.29,1.62,1.62,0,0,1,0-.22,2,2,0,0,1,1.84-2.07Z"/><path d="M710.45,54.16c2.58,0,4.68-4,4.68-9s-2.1-9-4.68-9-4.69,4-4.69,9S707.86,54.16,710.45,54.16Zm1.72-13.51a2.08,2.08,0,1,1-1.85,2.29,1.62,1.62,0,0,1,0-.22A2,2,0,0,1,712.17,40.65Z"/><path class="cls-3" d="M693.71,44.79a2.08,2.08,0,1,0-1.85-2.29,1.62,1.62,0,0,0,0,.22A2,2,0,0,0,693.71,44.79Z"/><path class="cls-3" d="M712.17,44.79a2.08,2.08,0,1,0-1.85-2.29,1.62,1.62,0,0,0,0,.22A2,2,0,0,0,712.17,44.79Z"/><polygon class="cls-4" points="667.62 83.52 662.03 80.99 656.82 78.64 655.99 80.47 662.35 83.33 666.8 85.34 667.62 83.52"/><rect class="cls-4" x="682.89" y="96.97" width="11.85" height="2" transform="translate(472.72 759.31) rotate(-80)"/><rect class="cls-4" x="723.37" y="76.9" width="2" height="11.85" transform="translate(93.07 447.56) rotate(-36.54)"/><rect class="cls-4" x="711.53" y="116.15" width="6.47" height="1.99" transform="translate(470.42 798.98) rotate(-79.59)"/><rect class="cls-4" x="677.46" y="111.39" width="2" height="6.58" transform="translate(-7.62 167.18) rotate(-13.97)"/><rect class="cls-4" x="732.56" y="69.51" width="2" height="6.58" transform="translate(4.12 179.25) rotate(-13.97)"/><rect class="cls-4" x="698.92" y="80.32" width="3" height="14.4" transform="translate(104.88 466.44) rotate(-39.59)"/><rect class="cls-4" x="664.13" y="105.23" width="9.57" height="1" transform="translate(444.84 744.8) rotate(-79.66)"/><rect class="cls-4" x="700.6" y="113.68" width="8.87" height="2" transform="translate(47.47 393.68) rotate(-32.23)"/><rect class="cls-4" x="720.06" y="100.91" width="2" height="8.87" transform="translate(227.7 641.64) rotate(-55.7)"/><polygon class="cls-4" points="667.21 61.59 662.41 55.79 658.03 50.49 656.49 51.76 662.02 58.46 665.66 62.86 667.21 61.59"/><polygon class="cls-4" points="674.89 32.98 673.61 26.06 672.26 18.82 670.3 19.19 672.04 28.57 672.93 33.35 674.89 32.98"/><polygon class="cls-4" points="688.18 18.72 690.16 10.31 691.48 4.7 689.53 4.24 687.79 11.65 686.23 18.26 688.18 18.72"/><polygon class="cls-4" points="707.84 17.03 705.29 8.23 704.41 5.18 702.49 5.73 703.1 7.83 705.91 17.59 707.84 17.03"/><polygon class="cls-4" points="712.42 28.13 718.31 15.38 719.39 13.04 717.57 12.2 716.72 14.06 710.61 27.29 712.42 28.13"/><path class="cls-4" d="M729.45,18.92l1-3.34-2-.58-1.35,4.63a3.21,3.21,0,0,1,2-.77Z"/><polygon class="cls-4" points="732.08 63.05 735.05 63.47 737.07 48.84 737.56 45.27 736.03 45.06 734.59 44.86 732.08 63.05"/><rect class="cls-4" x="673.95" y="63.67" width="16.06" height="2" transform="translate(608.98 745.81) rotate(-89.3)"/><rect class="cls-4" x="670.36" y="90.4" width="16.06" height="2" transform="translate(578.71 768.62) rotate(-89.3)"/><polygon class="cls-4" points="673.3 121.43 668.63 115.12 666.25 111.91 664.64 113.1 670.03 120.38 671.7 122.62 673.3 121.43"/><rect class="cls-4" x="708.16" y="76.76" width="10.36" height="2" transform="translate(389.34 718.02) rotate(-69.38)"/><rect class="cls-4" x="685.94" y="116.14" width="12.3" height="2" transform="translate(316.83 710.35) rotate(-67.29)"/><path class="cls-5" d="M725.38,24.46a7.81,7.81,0,0,0-.87-.75c-2.24-1.57-5-1.43-6.28.32s-.39,4.43,1.85,6a6.1,6.1,0,0,0,1.95.91,5.93,5.93,0,0,0-2.47,1.23c-2.11,1.74-2.72,4.49-1.36,6.13s4,1.55,6.08,0q0,.3,0,.6c0,2.67,1.85,4.82,4.13,4.82s4.13-2.15,4.13-4.82a5.07,5.07,0,0,0-.24-1.55,6.73,6.73,0,0,0,1.34,1.27,1.35,1.35,0,0,0,.26.15c2.2,1.39,4.84,1.21,6-.47s.4-4.43-1.85-6a6,6,0,0,0-2.52-1,5.8,5.8,0,0,0,3-1.63c1.93-1.93,2.28-4.73.78-6.23s-4.3-1.16-6.24.78l-.06.06v-.37c0-2.62-1.59-4.75-3.59-4.92h-.26a3.21,3.21,0,0,0-2,.77,5.17,5.17,0,0,0-1.77,3.54V24A4.38,4.38,0,0,0,725.38,24.46Zm9,6.55a5.24,5.24,0,1,1-5.24-5.24h0A5.23,5.23,0,0,1,734.42,31v0Z"/><circle class="cls-6" cx="729.19" cy="31.01" r="5.24"/><rect class="cls-4" x="728.23" y="88.06" width="11.85" height="2" transform="translate(303.06 689.95) rotate(-61.26)"/><polygon class="cls-4" points="736.89 95.23 737.88 97.53 741.28 105.5 743.12 104.71 739.77 96.88 738.46 93.82 737.03 94.43 736.62 94.6 736.89 95.23"/><polygon class="cls-4" points="746.28 104.93 750.58 107.43 756.53 110.88 757.54 109.15 753.08 106.57 747.29 103.2 746.28 104.93"/><polygon class="cls-4" points="657.03 102.12 658.76 96.37 661.01 88.89 659.09 88.31 656.59 96.62 655.11 101.55 657.03 102.12"/><polygon class="cls-4" points="649.49 101.73 649.94 97.39 650.17 95.19 648.18 94.98 647.91 97.63 647.5 101.53 649.49 101.73"/><polygon class="cls-4" points="752.48 98.97 757.47 91.64 756.61 91.06 755.82 90.51 755.09 91.58 750.82 97.85 752.48 98.97"/><path d="M689.73,61.78l.2.78c.93,3.7,2.8,6.14,5.55,7.25a9.85,9.85,0,0,0,3.64.65,21.28,21.28,0,0,0,10.82-3.62l1.06-.67Z"/><path class="cls-7" d="M965.1,86.59h0a6.77,6.77,0,0,0-9.48-1.07L953.71,87l1,.26-2.26,8.58-1.93-.51L952.45,88,939.78,98.1l5.77,6.27-1.47,1.36-5.87-6.38-.2.16.06-.31-2-2.19,1.47-1.36,1,1.09c.78-4.28,1.49-8.65,2.13-13.08A90.75,90.75,0,0,0,939,48.84l-2,14.62-3-.41,2.51-18.19,1.45.2c-.67-2.18-1.39-4.29-2.18-6.33l-.27-.15a6.16,6.16,0,0,1-1.33-1.27,5.76,5.76,0,0,1,.24,1.55c0,2.67-1.85,4.82-4.14,4.82s-4.13-2.15-4.13-4.82c0-.2,0-.4.05-.6-2.08,1.59-4.76,1.63-6.08,0s-.74-4.39,1.37-6.13A5.89,5.89,0,0,1,924,30.94a6.15,6.15,0,0,1-2-.91c-2.25-1.57-3.07-4.26-1.85-6s4-1.89,6.28-.32a5.57,5.57,0,0,1,.86.75V23.19a49.42,49.42,0,0,0-7.07-7.81l-5.88,12.75-1.82-.84,6.11-13.23a29.39,29.39,0,0,0-11.42-5.83l2.54,8.8-1.92.56L905,7.83a19.45,19.45,0,0,0-2.53-.19,23.33,23.33,0,0,0-10.41,2.68l-2,8.4-1.94-.46,1.55-6.61a47.31,47.31,0,0,0-14.18,14.41L876.81,33l-2,.37-.81-4.8a77.93,77.93,0,0,0-9.62,27.22l4.79,5.8-1.54,1.27L864,58.46A88.49,88.49,0,0,0,864,81l5.59,2.53-.82,1.82-4.45-2v.37c.31,2,.62,3.88,1,5.79l1,.72-.74,1.08c.37,2.13.76,4.23,1.15,6.31l-4.82-.94-3.4,5-1.65-1.13,2.91-4.24L853.18,95l-1.75,4-1.83-.8,1.57-3.59-9.69-1.9A6.75,6.75,0,1,0,838.89,106l30.87,6c.26,1.06.52,2.12.78,3.16l4.68,6.31-1.61,1.19L872,120.38q.82,2.94,1.72,5.7h57.7c.57-1.72,1.11-3.48,1.64-5.29l.2-.15,20.28-16.16-4.89-.92.37-2,6.58,1.24,8.4-6.72A6.77,6.77,0,0,0,965.1,86.59Zm-82.1-30h2l-.2,16.06h-2Zm-3.59,26.74h2l-.19,16.06h-2Zm-7.15,17.76-1.72,9.42-1-.18,1.71-9.42Zm8,17-1.59-6.38,1.94-.48,1.59,6.38Zm55.46-48.75,1.59,6.38-1.94.49-1.59-6.39Zm2.43,14,1.75,1-5.7,10.39-1.75-1Zm-14.53-5.93,7,9.56L929,88.17l-7-9.52ZM907.25,67a13.87,13.87,0,0,1-7.1,2.35,6.92,6.92,0,0,1-2.51-.44c-2-.78-3.34-2.52-4-5.18l-.21-.8,14.9,3.43Zm.84,25.16-2.31,1.92L896.6,83l2.31-2ZM893.9,36.24c2.58,0,4.68,4,4.68,9s-2.1,9-4.68,9-4.69-4-4.69-9S891.31,36.24,893.9,36.24Zm-5.19,67.4L890.77,92l2,.34L890.68,104Zm3.84,19.57-1.84-.77,4.75-11.35,1.84.77Zm11.19-5.33-1.07-1.69,7.5-4.73,1.07,1.69Zm3.94-72.68c0-5,2.09-9,4.68-9s4.69,4,4.69,9-2.1,9-4.69,9-4.68-4.05-4.68-9Zm4.78,37,3.65-9.7,1.87.71-3.65,9.69Zm4.68,38.28-2-.36,1.17-6.38,2,.36Zm2.7-18.54,7.33,5L926,108.63l-7.33-5Z"/><polygon class="cls-1" points="871.74 137.38 876.19 195.53 929.41 195.53 935.04 137.38 871.74 137.38"/><polygon class="cls-2" points="862.22 126.08 864.83 137.38 871.74 137.38 935.04 137.38 939.36 137.38 942.4 126.08 931.37 126.08 873.67 126.08 862.22 126.08"/><path d="M893.9,54.16c2.58,0,4.68-4,4.68-9s-2.1-9-4.68-9-4.69,4-4.69,9S891.31,54.16,893.9,54.16Zm1.72-13.51a2.08,2.08,0,1,1-1.85,2.29,1.62,1.62,0,0,1,0-.22A2,2,0,0,1,895.62,40.65Z"/><path d="M917.05,45.2c0-5-2.1-9-4.69-9s-4.68,4-4.68,9,2.09,9,4.68,9S917.05,50.15,917.05,45.2Zm-4.82-2.48a1.87,1.87,0,1,1,1.86,2.07A2,2,0,0,1,912.23,42.72Z"/><path class="cls-3" d="M895.62,44.79a2.08,2.08,0,1,0-1.85-2.29,1.62,1.62,0,0,0,0,.22A2,2,0,0,0,895.62,44.79Z"/><path class="cls-3" d="M916,42.72a1.87,1.87,0,1,0-1.86,2.07A2,2,0,0,0,916,42.72Z"/><polygon class="cls-4" points="869.53 83.52 863.94 80.99 858.73 78.64 857.91 80.47 864.26 83.33 868.71 85.34 869.53 83.52"/><rect class="cls-4" x="884.81" y="96.98" width="11.85" height="2" transform="translate(639.57 958.17) rotate(-80)"/><rect class="cls-4" x="925.29" y="76.9" width="2" height="11.85" transform="translate(132.76 567.78) rotate(-36.54)"/><rect class="cls-4" x="913.49" y="116.11" width="6.47" height="1.99" transform="translate(635.93 997.6) rotate(-79.59)"/><rect class="cls-4" x="879.37" y="111.46" width="2" height="6.58" transform="translate(-1.7 215.62) rotate(-13.95)"/><rect class="cls-4" x="934.48" y="69.51" width="2" height="6.58" transform="translate(10.09 227.99) rotate(-13.97)"/><rect class="cls-4" x="900.85" y="80.34" width="3" height="14.4" transform="translate(151.19 595.13) rotate(-39.59)"/><rect class="cls-4" x="866.14" y="105.26" width="9.57" height="1" transform="translate(610.57 943.56) rotate(-79.66)"/><rect class="cls-4" x="902.53" y="113.68" width="8.87" height="2" transform="translate(78.59 501.37) rotate(-32.23)"/><rect class="cls-4" x="921.92" y="100.84" width="2" height="8.88" transform="translate(319.45 811.47) rotate(-55.99)"/><polygon class="cls-4" points="869.12 61.59 864.33 55.79 859.94 50.49 858.4 51.76 863.94 58.46 867.58 62.86 869.12 61.59"/><polygon class="cls-4" points="876.81 32.98 875.52 26.06 874.18 18.82 872.21 19.19 873.95 28.57 874.84 33.35 876.81 32.98"/><polygon class="cls-4" points="890.1 18.72 892.07 10.31 893.39 4.7 891.44 4.24 889.7 11.65 888.15 18.26 890.1 18.72"/><polygon class="cls-4" points="909.75 17.03 907.21 8.23 906.33 5.18 904.41 5.73 905.01 7.83 907.83 17.59 909.75 17.03"/><polygon class="cls-4" points="914.34 28.13 920.22 15.38 921.31 13.04 919.49 12.2 918.63 14.06 912.52 27.29 914.34 28.13"/><path class="cls-4" d="M931.36,18.92l1-3.34L930.42,15l-1.35,4.63a3.19,3.19,0,0,1,2-.77A1.5,1.5,0,0,1,931.36,18.92Z"/><polygon class="cls-4" points="933.99 63.05 936.96 63.47 938.98 48.84 939.48 45.27 937.95 45.06 936.5 44.86 933.99 63.05"/><rect class="cls-4" x="875.86" y="63.67" width="16.06" height="2" transform="translate(808.43 947.7) rotate(-89.3)"/><rect class="cls-4" x="872.28" y="90.39" width="16.06" height="2" transform="translate(778.17 970.52) rotate(-89.3)"/><polygon class="cls-4" points="875.22 121.43 870.54 115.12 868.16 111.91 866.55 113.1 871.95 120.38 873.61 122.62 875.22 121.43"/><rect class="cls-4" x="910.09" y="76.77" width="10.36" height="2" transform="translate(520.15 907.02) rotate(-69.38)"/><rect class="cls-4" x="887.85" y="116.15" width="12.3" height="2" transform="translate(440.79 896.61) rotate(-67.29)"/><path class="cls-5" d="M927.29,24.46a5.57,5.57,0,0,0-.86-.75c-2.25-1.57-5.06-1.43-6.28.32s-.4,4.43,1.85,6a6.15,6.15,0,0,0,2,.91,5.87,5.87,0,0,0-2.47,1.23c-2.11,1.74-2.73,4.49-1.37,6.13s4,1.55,6.08,0c0,.2,0,.4,0,.6,0,2.67,1.85,4.82,4.13,4.82s4.14-2.15,4.14-4.82a5.76,5.76,0,0,0-.24-1.55,6.16,6.16,0,0,0,1.33,1.27l.27.15c2.19,1.39,4.83,1.21,6-.47s.39-4.43-1.85-6a6.12,6.12,0,0,0-2.53-1,5.8,5.8,0,0,0,3-1.63c1.94-1.93,2.29-4.73.78-6.23s-4.3-1.16-6.23.78l-.06.06v-.37c0-2.62-1.59-4.75-3.6-4.92h-.26a3.19,3.19,0,0,0-2,.77,5.18,5.18,0,0,0-1.78,3.54V24A4.34,4.34,0,0,0,927.29,24.46ZM936.34,31a5.24,5.24,0,1,1-5.24-5.24h0A5.25,5.25,0,0,1,936.34,31Z"/><circle class="cls-6" cx="931.1" cy="31.01" r="5.24"/><rect class="cls-4" x="930.25" y="88.07" width="11.85" height="2" transform="translate(407.94 867.09) rotate(-61.26)"/><polygon class="cls-4" points="936.05 97.05 938.07 99.24 938.21 99.39 944.08 105.77 945.55 104.41 939.78 98.14 938.52 96.78 937.52 95.69 936.05 97.05"/><polygon class="cls-4" points="948.6 103.56 953.49 104.48 960.25 105.76 960.62 103.79 955.55 102.84 948.97 101.6 948.6 103.56"/><polygon class="cls-4" points="858.49 101.61 861.89 96.66 865.56 91.29 866.3 90.21 865.26 89.49 864.65 89.08 859.75 96.24 856.84 100.48 858.49 101.61"/><polygon class="cls-4" points="851.43 98.95 853.18 94.95 854.06 92.92 852.23 92.12 851.17 94.56 849.6 98.15 851.43 98.95"/><polygon class="cls-4" points="952.45 95.88 954.71 87.3 953.71 87.04 952.78 86.79 952.45 88.05 950.52 95.37 952.45 95.88"/><path d="M893.38,62.9l.21.8c.71,2.66,2.07,4.4,4,5.18a6.92,6.92,0,0,0,2.51.44A13.87,13.87,0,0,0,907.2,67l1-.64Z"/><path class="cls-7" d="M1160.76,81.59a6.76,6.76,0,0,0-9.42,1.55l-1.42,2h1l.15,8.87h-2l-.13-7.57-9.45,13.16,7.26,4.46-1,1.71-10.09-6.21,1-1.7,2.3,1.41c1-5.07,1.82-10.27,2.58-15.56a91,91,0,0,0-1.66-34.86l-2,14.62-3-.41,2.52-18.19,1.44.2c-.67-2.18-1.39-4.29-2.18-6.33-.09,0-.18-.09-.27-.15a6,6,0,0,1-1.33-1.28,5.9,5.9,0,0,1,.24,1.56c0,2.67-1.85,4.82-4.13,4.82s-4.14-2.15-4.14-4.82q0-.3,0-.6c-2.08,1.59-4.76,1.63-6.08,0s-.74-4.39,1.37-6.13a6.07,6.07,0,0,1,2.47-1.24,5.87,5.87,0,0,1-2-.9c-2.24-1.57-3.07-4.26-1.85-6s4-1.89,6.28-.32a5.57,5.57,0,0,1,.86.75v-.62c0-.22,0-.43.06-.65a50.87,50.87,0,0,0-7.07-7.81l-5.89,12.75-1.82-.84L1119.52,14A29.26,29.26,0,0,0,1108.1,8.2l2.54,8.8-1.92.56L1105.9,7.8a19.45,19.45,0,0,0-2.53-.19,23.18,23.18,0,0,0-10.37,2.7l-2,8.41-2-.46,1.55-6.61a47.2,47.2,0,0,0-14.18,14.41l1.29,6.92-2,.37-.88-4.78a77.68,77.68,0,0,0-9.63,27.22l4.79,5.8-1.54,1.27-3.64-4.41a88.56,88.56,0,0,0,0,22.54l5.59,2.52-.83,1.83-4.45-2v.37q.79,5.06,1.67,9.93l2.77-1.93,1.15,1.64-3.53,2.46c.27,1.45.54,2.88.82,4.3l-3.7-2.29-4.93,3.44-1.14-1.64,4.22-3-5.7-3.52-3,3.12-1.44-1.39L1055,92l-8.39-5.19a6.75,6.75,0,0,0-7.11,11.48h0l31.26,19.34-3.4-4.59,1.6-1.19,7.06,9.52-1.61,1.19-1.66-2.24c.55,2,1.13,3.86,1.72,5.7h57.7a1.37,1.37,0,0,1,.14-.4,6.76,6.76,0,0,0,6.9-2.66l15.24-21-5,.45-.18-2,6.67-.59,6.32-8.81a6.75,6.75,0,0,0-1.48-9.44Zm-80.44,1.77h2l-.2,16.06h-2Zm-8.15,17.58,1,.18-1.72,9.42-1-.18Zm8.94,17.16-1.59-6.38,1.94-.48,1.59,6.38Zm4.6-45.39h-2l.19-16.06h2Zm50.87-3.36,1.59,6.38-2,.49-1.59-6.39Zm2.42,14,1.75,1-5.7,10.39-1.75-1Zm-14.52-5.93,7,9.52-1.61,1.19-7-9.52Zm-18-11.13-1,.64a13.91,13.91,0,0,1-7.11,2.35,6.9,6.9,0,0,1-2.5-.44c-2-.78-3.34-2.53-4-5.18l-.21-.8Zm2.48,25.8L1106.7,94l-9.18-11,2.31-1.92ZM1094.77,36.2c2.59,0,4.68,4,4.68,9s-2.09,9-4.68,9-4.69-4-4.69-9,2.15-9,4.74-9Zm-5.18,67.39,2-11.67,2,.35-2,11.73Zm3.83,19.58-1.84-.77,4.75-11.35,1.84.77Zm11.19-5.33-1.07-1.69,7.51-4.73,1.06,1.69Zm3.94-72.68c0-5,2.1-9,4.68-9s4.69,4,4.69,9-2.1,9-4.69,9-4.63-4-4.63-9Zm4.79,37,3.64-9.7,1.87.71-3.64,9.69Zm4.67,38.28-2-.36,1.17-6.38,2,.36Zm1.57-16.89,1.13-1.65,7.33,5-1.13,1.66Z"/><polygon class="cls-1" points="1072.66 137.38 1077.11 195.53 1130.34 195.53 1135.96 137.38 1072.66 137.38"/><polygon class="cls-2" points="1063.14 126.08 1065.75 137.38 1072.66 137.38 1135.96 137.38 1140.28 137.38 1143.32 126.08 1132.29 126.08 1074.59 126.08 1063.14 126.08"/><path d="M1094.82,54.16c2.59,0,4.68-4,4.68-9s-2.09-9-4.68-9-4.69,4-4.69,9S1092.23,54.16,1094.82,54.16Zm1.73-13.51a2.08,2.08,0,1,1-1.85,2.29,1.62,1.62,0,0,1,0-.22,2,2,0,0,1,1.86-2.07Z"/><path d="M1118,45.2c0-5-2.1-9-4.69-9s-4.68,4-4.68,9,2.1,9,4.68,9S1118,50.15,1118,45.2Zm-4.82-2.48a1.87,1.87,0,1,1,1.86,2.07,2,2,0,0,1-1.89-2.07Z"/><path class="cls-3" d="M1096.55,44.79a2.08,2.08,0,1,0-1.85-2.29,1.62,1.62,0,0,0,0,.22A2,2,0,0,0,1096.55,44.79Z"/><path class="cls-3" d="M1116.87,42.72a1.87,1.87,0,1,0-1.86,2.07A2,2,0,0,0,1116.87,42.72Z"/><polygon class="cls-4" points="1070.45 83.52 1064.87 80.99 1059.65 78.64 1058.83 80.47 1065.18 83.33 1069.63 85.34 1070.45 83.52"/><rect class="cls-4" x="1085.73" y="96.98" width="11.85" height="2" transform="translate(805.6 1156.04) rotate(-80)"/><rect class="cls-4" x="1126.21" y="76.91" width="2" height="11.85" transform="translate(172.25 687.4) rotate(-36.54)"/><rect class="cls-4" x="1114.36" y="116.07" width="6.47" height="1.99" transform="translate(800.56 1195.13) rotate(-79.59)"/><rect class="cls-4" x="1080.29" y="111.47" width="2" height="6.58" transform="translate(4.23 264.06) rotate(-13.95)"/><rect class="cls-4" x="1135.41" y="69.51" width="2" height="6.58" transform="translate(16.04 276.5) rotate(-13.97)"/><rect class="cls-4" x="1101.72" y="80.26" width="3" height="14.4" transform="translate(197.31 723.13) rotate(-39.59)"/><rect class="cls-4" x="1067.08" y="105.26" width="9.57" height="1" transform="translate(775.43 1141.23) rotate(-79.66)"/><rect class="cls-4" x="1103.39" y="113.63" width="8.87" height="2" transform="translate(109.57 608.49) rotate(-32.23)"/><rect class="cls-4" x="1122.81" y="100.79" width="2" height="8.87" transform="translate(403.58 974.31) rotate(-55.7)"/><polygon class="cls-4" points="1070.04 61.59 1065.25 55.79 1060.87 50.49 1059.33 51.76 1064.86 58.45 1068.5 62.86 1070.04 61.59"/><polygon class="cls-4" points="1077.73 32.98 1076.44 26.06 1075.1 18.82 1073.13 19.19 1074.88 28.57 1075.76 33.35 1077.73 32.98"/><polygon class="cls-4" points="1091.02 18.72 1092.99 10.31 1094.31 4.7 1092.37 4.24 1090.63 11.64 1089.07 18.26 1091.02 18.72"/><polygon class="cls-4" points="1110.67 17.03 1108.13 8.23 1107.25 5.18 1105.33 5.73 1105.93 7.83 1108.75 17.59 1110.67 17.03"/><polygon class="cls-4" points="1115.26 28.13 1121.14 15.38 1122.23 13.04 1120.41 12.2 1119.55 14.05 1113.44 27.29 1115.26 28.13"/><path class="cls-4" d="M1132.28,18.92l1-3.34-1.92-.56L1130,19.64a3.26,3.26,0,0,1,2-.76Z"/><polygon class="cls-4" points="1134.91 63.05 1137.89 63.46 1139.9 48.84 1140.4 45.27 1138.87 45.06 1137.43 44.86 1134.91 63.05"/><rect class="cls-4" x="1076.79" y="63.67" width="16.06" height="2" transform="translate(1006.9 1148.62) rotate(-89.3)"/><rect class="cls-4" x="1073.2" y="90.4" width="16.06" height="2" transform="translate(976.63 1171.43) rotate(-89.3)"/><polygon class="cls-4" points="1076.14 121.43 1069.08 111.91 1067.48 113.1 1070.88 117.69 1072.87 120.38 1074.53 122.62 1076.14 121.43"/><rect class="cls-4" x="1110.91" y="76.76" width="10.36" height="2" transform="translate(650.26 1094.97) rotate(-69.38)"/><rect class="cls-4" x="1088.72" y="116.15" width="12.3" height="2" transform="translate(564.12 1081.91) rotate(-67.29)"/><path class="cls-5" d="M1128.21,24.46a5.57,5.57,0,0,0-.86-.75c-2.25-1.57-5.06-1.43-6.28.32s-.39,4.43,1.85,6a5.87,5.87,0,0,0,1.95.9,6.07,6.07,0,0,0-2.47,1.24c-2.11,1.74-2.72,4.49-1.37,6.13s4,1.55,6.08,0q0,.3,0,.6c0,2.67,1.85,4.82,4.14,4.82s4.13-2.15,4.13-4.82a5.9,5.9,0,0,0-.24-1.56,6,6,0,0,0,1.33,1.28c.09.06.18.1.27.15,2.19,1.39,4.83,1.21,6-.47s.39-4.43-1.85-6a5.81,5.81,0,0,0-2.53-1,5.8,5.8,0,0,0,3-1.63c1.94-1.94,2.29-4.73.78-6.23s-4.29-1.16-6.23.78l-.06.06v-.37c0-2.62-1.59-4.75-3.6-4.92H1132a3.26,3.26,0,0,0-2,.76,5.19,5.19,0,0,0-1.77,3.55,3.57,3.57,0,0,0-.06.65C1128.16,24.05,1128.19,24.25,1128.21,24.46Zm9,6.55a5.24,5.24,0,1,1-5.24-5.24h0a5.25,5.25,0,0,1,5.29,5.19v0Z"/><circle class="cls-6" cx="1132.02" cy="31.01" r="5.24"/><rect class="cls-4" x="1131.06" y="88.05" width="11.85" height="2" transform="translate(512.2 1043.16) rotate(-61.26)"/><polygon class="cls-4" points="1135.65 99.55 1145.74 105.76 1146.79 104.05 1139.53 99.59 1138.99 99.26 1136.69 97.85 1135.65 99.55"/><polygon class="cls-4" points="1149.5 102.41 1154.45 101.96 1161.3 101.35 1161.12 99.36 1155.99 99.82 1149.32 100.41 1149.5 102.41"/><polygon class="cls-4" points="1059.48 101.25 1064.41 97.81 1067.29 95.8 1070.82 93.34 1069.67 91.7 1066.9 93.63 1062.56 96.66 1058.34 99.61 1059.48 101.25"/><polygon class="cls-4" points="1053.82 96.26 1056.86 93.14 1058.41 91.55 1056.98 90.16 1055.12 92.06 1052.38 94.87 1053.82 96.26"/><polygon class="cls-4" points="1151.11 93.97 1150.96 85.1 1149.92 85.11 1148.96 85.13 1148.98 86.43 1149.11 94 1151.11 93.97"/><path d="M1091.84,63.7c.71,2.65,2.07,4.4,4.05,5.18a6.9,6.9,0,0,0,2.5.44A13.87,13.87,0,0,0,1105.5,67l1-.64-14.9-3.43Z"/><polygon class="cls-1" points="268.48 137.38 272.93 195.53 326.16 195.53 331.79 137.38 268.48 137.38"/><polygon class="cls-2" points="258.96 126.08 261.57 137.38 268.48 137.38 331.79 137.38 336.1 137.38 339.14 126.08 328.19 126.08 271.08 126.08 258.96 126.08"/><path d="M290.64,54.16c2.59,0,4.68-4,4.68-9s-2.09-9-4.68-9-4.68,4-4.68,9S288.05,54.16,290.64,54.16Zm1.73-13.51a2.08,2.08,0,1,1-1.85,2.29,1.62,1.62,0,0,1,0-.22,2,2,0,0,1,1.86-2.07Z"/><path d="M309.1,54.16c2.59,0,4.69-4,4.69-9s-2.1-9-4.69-9-4.68,4-4.68,9S306.52,54.16,309.1,54.16Zm1.73-13.51A2.08,2.08,0,1,1,309,43a1.94,1.94,0,0,1,0-.24,2,2,0,0,1,1.83-2.07Z"/><path class="cls-3" d="M292.37,44.79a2.08,2.08,0,1,0-1.85-2.29,1.62,1.62,0,0,0,0,.22A2,2,0,0,0,292.37,44.79Z"/><path class="cls-3" d="M310.83,44.79A2.08,2.08,0,1,0,309,42.48a1.94,1.94,0,0,0,0,.24A2,2,0,0,0,310.83,44.79Z"/><polygon class="cls-4" points="266.28 83.52 261.21 81.23 255.47 78.64 254.65 80.47 261.55 83.58 265.45 85.34 266.28 83.52"/><rect class="cls-4" x="281.56" y="96.97" width="11.85" height="2" transform="translate(141.07 364.08) rotate(-80)"/><path class="cls-4" d="M326.33,85.6l-6-8.14-1.61,1.19,5.18,7A6.84,6.84,0,0,1,326.33,85.6Z"/><rect class="cls-4" x="310.24" y="116.14" width="6.49" height="2" transform="translate(141.93 404.48) rotate(-79.65)"/><rect class="cls-4" x="276.1" y="111.39" width="2" height="6.58" transform="translate(-19.49 70.29) rotate(-13.97)"/><rect class="cls-4" x="331.22" y="69.47" width="2" height="6.58" transform="translate(-7.74 82.41) rotate(-13.98)"/><rect class="cls-4" x="297.56" y="80.3" width="3" height="14.42" transform="translate(13.13 211.37) rotate(-39.73)"/><polygon class="cls-4" points="268.98 101.12 268 100.94 266.47 109.33 266.28 110.36 266.73 110.44 267.26 110.54 268.98 101.12"/><rect class="cls-4" x="299.26" y="113.67" width="8.87" height="2" transform="translate(-14.36 179.64) rotate(-32.23)"/><rect class="cls-4" x="318.68" y="100.86" width="2" height="8.87" transform="translate(52.58 310.09) rotate(-55.71)"/><polygon class="cls-4" points="265.86 61.59 261.27 56.03 256.69 50.49 255.15 51.76 260.92 58.74 264.32 62.86 265.86 61.59"/><polygon class="cls-4" points="273.55 32.98 272.22 25.82 270.92 18.82 268.96 19.19 270.66 28.38 271.58 33.35 273.55 32.98"/><polygon class="cls-4" points="286.84 18.72 289 9.53 290.13 4.7 288.19 4.24 286.63 10.88 284.89 18.26 286.84 18.72"/><polygon class="cls-4" points="306.5 17.03 303.65 7.17 303.07 5.18 301.15 5.73 301.47 6.85 304.57 17.59 306.5 17.03"/><polygon class="cls-4" points="311.08 28.13 317.37 14.52 318.05 13.04 316.23 12.2 315.77 13.19 309.27 27.29 311.08 28.13"/><path class="cls-4" d="M328.1,18.92l1-3.34L327.16,15l-1.35,4.62a3.26,3.26,0,0,1,2-.76A1.5,1.5,0,0,1,328.1,18.92Z"/><polygon class="cls-4" points="330.73 63.05 333.71 63.47 335.94 47.29 336.22 45.27 335.35 45.15 333.25 44.86 330.73 63.05"/><rect class="cls-4" x="272.6" y="63.67" width="16.06" height="2" transform="translate(212.54 344.49) rotate(-89.3)"/><rect class="cls-4" x="269.02" y="90.4" width="16.06" height="2" transform="translate(182.32 367.33) rotate(-89.31)"/><polygon class="cls-4" points="271.96 121.43 268.21 116.38 264.9 111.91 263.3 113.1 269.73 121.78 270.35 122.62 271.96 121.43"/><rect class="cls-4" x="306.79" y="76.74" width="10.36" height="2" transform="translate(129.34 342.34) rotate(-69.38)"/><rect class="cls-4" x="284.6" y="116.14" width="12.3" height="2" transform="translate(70.4 340.08) rotate(-67.28)"/><path class="cls-5" d="M324,24.46a5.57,5.57,0,0,0-.86-.75c-2.25-1.57-5.06-1.43-6.28.32s-.39,4.43,1.85,6a6.1,6.1,0,0,0,2,.91,5.87,5.87,0,0,0-2.47,1.23c-2.11,1.74-2.72,4.49-1.36,6.13s4,1.55,6.08,0a3.05,3.05,0,0,0-.06.6c0,2.67,1.85,4.82,4.14,4.82s4.13-2.15,4.13-4.82a5.07,5.07,0,0,0-.24-1.55,5.93,5.93,0,0,0,2.48,1.89c2,.84,4.11.52,5.13-.94,1.22-1.74.4-4.43-1.85-6a6.12,6.12,0,0,0-2.53-1,5.81,5.81,0,0,0,3.05-1.63c1.93-1.93,2.28-4.73.77-6.23s-4.29-1.16-6.23.78l-.06.06v-.37c0-2.62-1.59-4.75-3.6-4.92h-.26a3.26,3.26,0,0,0-2,.76,4.86,4.86,0,0,0-1.56,2.44A6.15,6.15,0,0,0,324,24,1.77,1.77,0,0,1,324,24.46ZM333.08,31a5.24,5.24,0,1,1-5.24-5.24h0A5.23,5.23,0,0,1,333.08,31Z"/><circle class="cls-6" cx="327.84" cy="31.01" r="5.24"/><path class="cls-7" d="M362,107.94,360,106.62l.07,1-8.85.6-.14-2,7.56-.51L345,97l-4.1,7.47-1.75-1,4.16-7.59-6.85-4.43c.48-2.84.93-5.73,1.34-8.63A90.53,90.53,0,0,0,336,47.29l-2.23,16.17-3-.41,2.52-18.19,2.1.29q-.89-3.07-2-5.95a5.93,5.93,0,0,1-2.48-1.89,5.07,5.07,0,0,1,.24,1.55c0,2.67-1.85,4.82-4.13,4.82s-4.14-2.15-4.14-4.82a3.05,3.05,0,0,1,.06-.6c-2.09,1.59-4.77,1.63-6.08,0s-.75-4.39,1.36-6.13a5.87,5.87,0,0,1,2.47-1.23,6.1,6.1,0,0,1-1.95-.91c-2.24-1.57-3.07-4.26-1.85-6s4-1.89,6.28-.32a5.57,5.57,0,0,1,.86.75V23.8a6.15,6.15,0,0,1,.26-1.76,49.82,49.82,0,0,0-6.88-7.56L311.1,28.09l-1.81-.84,6.51-14.1a29,29,0,0,0-12.13-6L306.49,17l-1.92.56-3.1-10.74c-.62-.06-1.25-.09-1.87-.09A23.36,23.36,0,0,0,289,9.53l-2.16,9.19-1.95-.46,1.74-7.38a48,48,0,0,0-14.41,14.94L273.55,33l-2,.37-.92-5A78.55,78.55,0,0,0,261.27,56l4.59,5.56-1.54,1.27-3.4-4.12a89.56,89.56,0,0,0,.29,22.49l5.07,2.29-.83,1.82-3.9-1.76q.54,3.39,1.11,6.7l-8.83,7,1.55,5.81-1.94.51-1.32-5-5.26,4.15,1.89,3.93-1.8.86-1.7-3.53-7.75,6.11a6.75,6.75,0,0,0,8.36,10.61l19.68-15.51c.3,1.4.61,2.77.93,4.13l1.53-8.39,1,.18-1.72,9.42-.53-.1c.48,2,1,4,1.49,5.94l3.74,5-1.61,1.19-.62-.84c.44,1.47.89,2.9,1.35,4.3h57.11a192.8,192.8,0,0,0,5.49-20.32l9.65,6.22-.69-4.92,2-.28.93,6.63,9.11,5.88a6.75,6.75,0,0,0,7.3-11.34ZM276.14,83.36h2l-.2,16.06h-2Zm.79,34.74-1.59-6.38,1.94-.48,1.59,6.38Zm4.6-45.39h-2l.19-16.06h2Zm55,11.65-5.69,10.39-1.76-1,5.7-10.39Zm-4.17-15L334,75.73l-1.95.49-1.58-6.39Zm-12.1,8.11,6,8.14a7,7,0,0,0-2.46,0l-5.18-7ZM309.1,36.24c2.59,0,4.69,4,4.69,9s-2.1,9-4.69,9-4.68-4-4.68-9S306.52,36.24,309.1,36.24Zm-18.46,0c2.59,0,4.68,4,4.68,9s-2.09,9-4.68,9-4.68-4-4.68-9S288.05,36.24,290.64,36.24Zm-5.18,67.4L287.51,92l2,.34L287.43,104Zm3.83,19.57-1.84-.77,4.75-11.35,1.84.77Zm4-40.26,2.36-2,9.18,11.1L302.52,94Zm7.14,34.93-1.07-1.69,7.51-4.73,1.06,1.69Zm-2.82-47.42a9.8,9.8,0,0,1-3.63-.65c-2.75-1.11-4.62-3.55-5.56-7.25l-.19-.78,21.26,4.39-1.05.67a21.32,21.32,0,0,1-10.78,3.62Zm11.55,11.78,3.64-9.7,1.88.71L311,82.94Zm4.67,38.28-2-.36,1.17-6.38,2,.36Zm8.9-11.89-7.33-5,1.13-1.65,7.33,5Z"/><rect class="cls-4" x="326.92" y="88.07" width="11.85" height="2" transform="translate(94.71 338.08) rotate(-61.26)"/><polygon class="cls-4" points="340.86 104.43 344.96 96.96 346.56 94.04 344.8 93.08 343.27 95.88 339.11 103.47 340.86 104.43"/><polygon class="cls-4" points="342.64 107.06 343.33 111.98 344.28 118.79 346.26 118.52 345.55 113.41 344.62 106.78 342.64 107.06"/><polygon class="cls-4" points="255.38 103.04 253.83 97.23 251.83 89.68 249.9 90.19 252.12 98.58 253.44 103.55 255.38 103.04"/><polygon class="cls-4" points="248.75 106.66 246.86 102.72 245.9 100.73 244.1 101.59 245.25 103.99 246.95 107.52 248.75 106.66"/><polygon class="cls-4" points="351.15 108.25 360 107.65 359.93 106.62 359.87 105.66 358.57 105.75 351.01 106.26 351.15 108.25"/><path d="M288.28,61.78l.19.78c.94,3.7,2.81,6.14,5.56,7.25a9.8,9.8,0,0,0,3.63.65,21.31,21.31,0,0,0,10.83-3.62l1.05-.67Z"/><path class="cls-7" d="M562.13,99l-2.41-.34.49.91-7.78,4.26-1-1.76,6.65-3.63-16-2.27-.58,8.5-2-.14.6-8.64-4.63-.65q1-5.68,1.84-11.54a90.76,90.76,0,0,0-1.66-34.86l-2,14.62-3-.41,2.51-18.19,1.45.2q-1-3.27-2.19-6.33c-.08,0-.18-.09-.26-.15a6.16,6.16,0,0,1-1.33-1.27,5.76,5.76,0,0,1,.24,1.55c0,2.67-1.86,4.82-4.14,4.82s-4.13-2.15-4.13-4.82c0-.2,0-.4.05-.6-2.09,1.59-4.76,1.63-6.08,0s-.75-4.39,1.36-6.13a5.93,5.93,0,0,1,2.47-1.23,6.15,6.15,0,0,1-2-.91c-2.24-1.57-3.07-4.26-1.84-6s4-1.89,6.27-.32a6.16,6.16,0,0,1,.87.75c0-.21,0-.41,0-.62a2.89,2.89,0,0,1,0-.65,50.87,50.87,0,0,0-7.07-7.81L511,28.13l-1.82-.84,6.11-13.23a29.39,29.39,0,0,0-11.42-5.83l2.54,8.8-1.92.56-2.82-9.76a19.45,19.45,0,0,0-2.53-.19,23.33,23.33,0,0,0-10.41,2.68l-2,8.4-1.94-.46,1.55-6.61a47.31,47.31,0,0,0-14.18,14.41l1.3,6.94-2,.37-.89-4.78A77.61,77.61,0,0,0,461,55.79l4.79,5.8-1.54,1.27-3.65-4.4a89.41,89.41,0,0,0,0,22.53l5.59,2.53-.82,1.82-4.45-2a.92.92,0,0,0,.05.37c.53,3.39,1.08,6.72,1.67,10l-7.1,2.87-.13,6h-2l.12-5.14L447.32,100l.72,4.3-2,.33-.65-3.86-9.15,3.71A6.75,6.75,0,1,0,441.32,117l24-9.72c.6,2.73,1.23,5.39,1.89,8l4.67,6.31-1.6,1.19-1.66-2.24c.55,2,1.12,3.86,1.72,5.7H528c1.79-5.44,3.38-11.35,4.78-17.58l14.08,2-2.69-4.18,1.68-1.08,3.63,5.63,10.73,1.51a6.77,6.77,0,0,0,7.63-5.74h0A6.77,6.77,0,0,0,562.2,99Zm-82.5-42.38h2l-.19,16.06h-2Zm-1.58,26.76-.19,16.06h-2l.19-16.06Zm-11.86,27,1.72-9.42,1,.18-1.71,9.42Zm10.65,7.75-1.59-6.39,1.94-.48,1.59,6.38Zm55.47-48.76,1.59,6.38-1.94.49-1.59-6.39Zm2.42,14,1.76,1-5.7,10.39-1.75-1Zm-14.52-5.93L527.27,87l-1.61,1.19-7.06-9.52ZM509,36.24c2.59,0,4.68,4,4.68,9s-2.09,9-4.68,9-4.69-4-4.69-9S506.43,36.24,509,36.24Zm-18.47,0c2.59,0,4.69,4,4.69,9s-2.1,9-4.69,9-4.68-4-4.68-9,2.15-9,4.7-9ZM512,67.16l-1,.61c-2.29,1.44-7.36,4.17-12.62,4.17a13.07,13.07,0,0,1-4.67-.83c-3.81-1.47-6.48-4.83-7.94-10l-.24-.84Zm-7.27,25-2.32,1.92L493.26,83l2.31-2Zm-19.38,11.51L487.43,92l2,.34L487.34,104Zm3.84,19.57-1.85-.77,4.75-11.35,1.85.77Zm11.18-5.33-1.06-1.69,7.5-4.73,1.07,1.69Zm8.73-35.64,3.65-9.7,1.87.71L511,82.94Zm4.68,38.28-2-.36,1.17-6.38,2,.36Zm8.9-11.89-7.33-5L516.5,102l7.33,5Z"/><polygon class="cls-1" points="468.26 137.38 472.72 195.53 525.94 195.53 531.57 137.38 468.26 137.38"/><polygon class="cls-2" points="458.88 126.08 461.49 137.38 468.26 137.38 531.57 137.38 536.01 137.38 539.06 126.08 528.03 126.08 470.33 126.08 458.88 126.08"/><path d="M490.55,54.16c2.59,0,4.69-4,4.69-9s-2.1-9-4.69-9-4.68,4-4.68,9S488,54.16,490.55,54.16Zm1.73-13.51a2.08,2.08,0,1,1-1.85,2.29,1.62,1.62,0,0,1,0-.22A2,2,0,0,1,492.28,40.65Z"/><path d="M509,54.16c2.59,0,4.68-4,4.68-9s-2.09-9-4.68-9-4.69,4-4.69,9S506.43,54.16,509,54.16Zm1.73-13.51a2.08,2.08,0,1,1-1.85,2.29,1.62,1.62,0,0,1,0-.22,2,2,0,0,1,1.88-2.07Z"/><path class="cls-3" d="M492.28,44.79a2.08,2.08,0,1,0-1.85-2.29,1.62,1.62,0,0,0,0,.22A2,2,0,0,0,492.28,44.79Z"/><path class="cls-3" d="M510.75,44.79a2.08,2.08,0,1,0-1.85-2.29,1.62,1.62,0,0,0,0,.22A2,2,0,0,0,510.75,44.79Z"/><polygon class="cls-4" points="466.19 83.52 460.6 80.99 455.39 78.64 454.57 80.47 460.92 83.33 465.37 85.34 466.19 83.52"/><rect class="cls-4" x="481.46" y="96.97" width="11.85" height="2" transform="translate(306.27 560.94) rotate(-80)"/><rect class="cls-4" x="521.93" y="76.86" width="2" height="11.85" transform="translate(53.5 327.62) rotate(-36.54)"/><rect class="cls-4" x="510.13" y="116.18" width="6.47" height="1.99" transform="translate(305.37 600.93) rotate(-79.59)"/><rect class="cls-4" x="476.02" y="111.34" width="2" height="6.58" transform="translate(-13.56 118.64) rotate(-13.98)"/><rect class="cls-4" x="531.14" y="69.5" width="2" height="6.58" transform="translate(-1.83 130.62) rotate(-13.97)"/><rect class="cls-4" x="497.48" y="80.3" width="3" height="14.4" transform="translate(58.69 338.07) rotate(-39.59)"/><rect class="cls-4" x="462.78" y="105.26" width="9.54" height="1" transform="translate(279.07 546.51) rotate(-79.59)"/><rect class="cls-4" x="499.19" y="113.67" width="8.87" height="2" transform="translate(16.44 286.26) rotate(-32.23)"/><rect class="cls-4" x="518.62" y="100.89" width="2" height="8.87" transform="translate(139.79 475.23) rotate(-55.7)"/><polygon class="cls-4" points="465.78 61.59 460.99 55.79 456.6 50.49 455.06 51.76 460.6 58.45 464.24 62.86 465.78 61.59"/><polygon class="cls-4" points="473.46 32.98 472.18 26.06 470.84 18.82 468.87 19.19 470.61 28.57 471.5 33.35 473.46 32.98"/><polygon class="cls-4" points="486.75 18.72 488.73 10.32 490.05 4.7 488.1 4.24 486.36 11.65 484.81 18.26 486.75 18.72"/><polygon class="cls-4" points="506.41 17.03 503.87 8.23 502.99 5.18 501.06 5.73 501.67 7.83 504.49 17.59 506.41 17.03"/><polygon class="cls-4" points="511 28.13 516.88 15.38 517.96 13.04 516.15 12.2 515.29 14.06 509.18 27.29 511 28.13"/><path class="cls-4" d="M528,18.92l1-3.34L527.07,15l-1.35,4.62a3.26,3.26,0,0,1,2-.76A1.4,1.4,0,0,1,528,18.92Z"/><polygon class="cls-4" points="530.65 63.05 533.62 63.47 535.64 48.84 536.13 45.27 534.61 45.06 533.16 44.86 530.65 63.05"/><rect class="cls-4" x="472.52" y="63.67" width="16.06" height="2" transform="translate(410.01 544.39) rotate(-89.3)"/><rect class="cls-4" x="468.93" y="90.4" width="16.06" height="2" transform="translate(379.74 567.21) rotate(-89.3)"/><polygon class="cls-4" points="471.88 121.43 467.2 115.12 464.82 111.91 463.21 113.1 468.61 120.38 470.27 122.62 471.88 121.43"/><rect class="cls-4" x="506.69" y="76.74" width="10.36" height="2" transform="translate(258.84 529.44) rotate(-69.38)"/><rect class="cls-4" x="484.51" y="116.15" width="12.3" height="2" transform="translate(193.09 524.49) rotate(-67.28)"/><path class="cls-5" d="M524,24.46a6.16,6.16,0,0,0-.87-.75c-2.24-1.57-5-1.43-6.27.32s-.4,4.43,1.84,6a6.15,6.15,0,0,0,2,.91,5.93,5.93,0,0,0-2.47,1.23c-2.11,1.74-2.72,4.49-1.36,6.13s4,1.55,6.08,0c0,.2,0,.4-.05.6,0,2.67,1.85,4.82,4.13,4.82s4.14-2.15,4.14-4.82a5.76,5.76,0,0,0-.24-1.55,6.16,6.16,0,0,0,1.33,1.27c.08.06.18.1.26.15,2.2,1.39,4.84,1.21,6-.47s.4-4.43-1.84-6a6.12,6.12,0,0,0-2.53-1,5.73,5.73,0,0,0,3-1.63c1.94-1.93,2.29-4.73.78-6.23s-4.3-1.16-6.24.78v-.31c0-2.62-1.59-4.75-3.6-4.92h-.26a3.26,3.26,0,0,0-2,.76A5.26,5.26,0,0,0,524,23.19c0,.22,0,.43,0,.65A1.84,1.84,0,0,0,524,24.46ZM533,31a5.24,5.24,0,1,1-5.24-5.24h0A5.23,5.23,0,0,1,533,31Z"/><circle class="cls-6" cx="527.76" cy="31.01" r="5.24"/><rect class="cls-4" x="526.83" y="88.05" width="11.85" height="2" transform="translate(198.5 513.35) rotate(-61.26)"/><polygon class="cls-4" points="541.49 104.67 542.07 96.17 542.3 92.85 540.31 92.71 540.09 95.89 539.49 104.53 541.49 104.67"/><polygon class="cls-4" points="544.2 106.31 546.89 110.49 550.61 116.28 552.29 115.19 549.5 110.86 545.88 105.23 544.2 106.31"/><polygon class="cls-4" points="455.41 102.55 455.54 96.54 455.72 88.73 453.72 88.69 453.53 97.36 453.41 102.5 455.41 102.55"/><polygon class="cls-4" points="448.04 104.18 447.32 99.88 446.95 97.69 444.98 98.02 445.42 100.65 446.07 104.51 448.04 104.18"/><polygon class="cls-4" points="552.43 103.83 560.21 99.57 559.72 98.66 559.25 97.82 558.12 98.44 551.47 102.07 552.43 103.83"/><path d="M493.75,71.11a13.07,13.07,0,0,0,4.67.83c5.26,0,10.33-2.73,12.62-4.17l1-.61-26.45-6.89.24.84C487.27,66.28,489.94,69.64,493.75,71.11Z"/><path class="cls-7" d="M1341.73,123.67l12-23-4.84,1.13-.45-2,6.52-1.52,5-9.6a6.77,6.77,0,0,0-12-6.27h0l-1.13,2.16,1-.16,1.4,8.76-2,.31L1346,86l-7.52,14.35,7.81,3.41-.8,1.83-10.86-4.73.8-1.84,2.74,1.2c1-5.39,2-11,2.78-16.6a90.57,90.57,0,0,0-1.67-34.86l-2,14.62-3-.41L1337,44.86l1.45.2c-.67-2.18-1.39-4.29-2.18-6.33-.09,0-.18-.09-.27-.15a6,6,0,0,1-1.33-1.28,5.9,5.9,0,0,1,.24,1.56c0,2.67-1.85,4.82-4.14,4.82s-4.13-2.15-4.13-4.82c0-.2,0-.4,0-.6-2.08,1.59-4.76,1.63-6.08,0s-.74-4.39,1.37-6.13a6.07,6.07,0,0,1,2.47-1.24,5.84,5.84,0,0,1-2-.9c-2.25-1.57-3.07-4.26-1.85-6s4-1.89,6.28-.32a5.57,5.57,0,0,1,.86.75V23.15a49.42,49.42,0,0,0-7.07-7.81l-5.88,12.75-1.82-.84L1319.08,14a29.26,29.26,0,0,0-11.42-5.83l2.54,8.8-1.92.56-2.82-9.76a19.45,19.45,0,0,0-2.53-.19,23.07,23.07,0,0,0-10.41,2.68l-2,8.4-2-.46,1.55-6.61A47.25,47.25,0,0,0,1276,26.06l1.29,6.92-2,.37-.89-4.78a77.73,77.73,0,0,0-9.62,27.22l4.79,5.8L1268,62.86l-3.64-4.41a88.56,88.56,0,0,0,0,22.54l5.59,2.52-.82,1.83-4.45-2v.37q1,6.47,2.16,12.64l4.85-1.76.69,1.88-5.16,1.88c.25,1.32.51,2.62.77,3.92l-3-3.13-5.65,2.06-.68-1.88,4.83-1.76-4.6-4.87-3.75,2.24-1-1.72,3.36-2L1250.86,84a6.77,6.77,0,0,0-9.54-.27h0a6.78,6.78,0,0,0-.27,9.55l27.07,28.64a6.73,6.73,0,0,0,5.39,2.08c.21.7.42,1.39.64,2.06h65.42A6.7,6.7,0,0,0,1341.73,123.67Zm-61.86-40.31h2l-.19,16.06h-2Zm-8.14,17.58,1,.18-1.72,9.42-1-.18ZM1267,113.1l1.6-1.19,7.06,9.52-1.61,1.19Zm13.63,5-1.59-6.38,1.94-.48,1.59,6.38Zm4.59-45.39h-2l.2-16.06h2Zm50.87-3.36,1.59,6.38-1.94.49-1.59-6.39Zm2.43,14,1.75,1-5.7,10.39-1.75-1ZM1324,77.46l7,9.52-1.61,1.19-7-9.52Zm-18.12-11.13-1,.64a14.34,14.34,0,0,1-7.08,2.37,6.88,6.88,0,0,1-2.54-.46c-2-.78-3.34-2.53-4-5.18l-.22-.8Zm2.65,25.8L1306.26,94l-9.18-11,2.31-1.92Zm-14.19-55.89c2.59,0,4.68,4,4.68,9s-2.09,9-4.68,9-4.69-4-4.69-9,2.14-9,4.73-9Zm-5.18,67.39,2-11.67,2,.35-2,11.69Zm3.83,19.58-1.84-.77,4.75-11.35,1.84.77Zm11.19-5.33-1.07-1.69,7.51-4.73,1.06,1.69Zm3.94-72.68c0-5,2.09-9,4.68-9s4.69,4,4.69,9-2.1,9-4.69,9-4.64-4.05-4.64-9Zm4.78,37,3.65-9.7,1.87.71-3.64,9.69Zm4.68,38.28-2-.36,1.17-6.38,2,.36Zm8.9-11.89-7.33-5,1.13-1.65,7.33,5Z"/><polygon class="cls-1" points="1272.22 137.38 1276.67 195.53 1329.9 195.53 1335.52 137.38 1272.22 137.38"/><polygon class="cls-2" points="1331.85 126.08 1274.15 126.08 1262.7 126.08 1265.31 137.38 1272.22 137.38 1335.52 137.38 1339.84 137.38 1342.88 126.08 1339.58 126.08 1331.91 126.08 1331.85 126.08"/><path d="M1294.38,54.16c2.59,0,4.68-4,4.68-9s-2.09-9-4.68-9-4.69,4-4.69,9S1291.79,54.16,1294.38,54.16Zm1.72-13.51a2.08,2.08,0,1,1-1.85,2.29,1.62,1.62,0,0,1,0-.22A2,2,0,0,1,1296.1,40.65Z"/><path d="M1317.53,45.2c0-5-2.1-9-4.69-9s-4.68,4-4.68,9,2.09,9,4.68,9S1317.53,50.15,1317.53,45.2Zm-4.82-2.48a1.87,1.87,0,1,1,1.86,2.07,2,2,0,0,1-1.86-2.07Z"/><path class="cls-3" d="M1296.1,44.79a2.08,2.08,0,1,0-1.85-2.29,1.62,1.62,0,0,0,0,.22A2,2,0,0,0,1296.1,44.79Z"/><path class="cls-3" d="M1316.43,42.72a1.87,1.87,0,1,0-1.86,2.07A2,2,0,0,0,1316.43,42.72Z"/><polygon class="cls-4" points="1270.01 83.52 1264.42 80.99 1259.21 78.64 1258.39 80.47 1264.74 83.33 1269.19 85.34 1270.01 83.52"/><rect class="cls-4" x="1285.29" y="96.98" width="11.85" height="2" transform="translate(970.5 1352.57) rotate(-80)"/><rect class="cls-4" x="1325.72" y="76.83" width="2" height="11.85" transform="translate(211.51 806.17) rotate(-36.54)"/><rect class="cls-4" x="1313.93" y="116.11" width="6.47" height="1.99" transform="translate(964.03 1391.45) rotate(-79.59)"/><rect class="cls-4" x="1279.85" y="111.41" width="2" height="6.58" transform="translate(10.2 312.61) rotate(-13.97)"/><rect class="cls-4" x="1334.97" y="69.52" width="2" height="6.58" transform="translate(21.94 324.67) rotate(-13.97)"/><rect class="cls-4" x="1301.25" y="80.26" width="3" height="14.4" transform="translate(243.08 850.29) rotate(-39.59)"/><rect class="cls-4" x="1266.64" y="105.26" width="9.57" height="1" transform="translate(939.18 1337.56) rotate(-79.66)"/><rect class="cls-4" x="1303.01" y="113.69" width="8.87" height="2" transform="translate(140.29 714.96) rotate(-32.23)"/><rect class="cls-4" x="1322.38" y="100.82" width="2" height="8.88" transform="translate(495.95 1143.43) rotate(-55.99)"/><polygon class="cls-4" points="1269.6 61.59 1264.81 55.79 1260.42 50.49 1258.88 51.76 1264.42 58.45 1268.06 62.86 1269.6 61.59"/><polygon class="cls-4" points="1277.29 32.98 1276 26.06 1274.66 18.82 1272.69 19.19 1274.43 28.57 1275.32 33.35 1277.29 32.98"/><polygon class="cls-4" points="1290.58 18.72 1292.55 10.31 1293.87 4.7 1291.92 4.24 1290.18 11.64 1288.63 18.26 1290.58 18.72"/><polygon class="cls-4" points="1310.23 17.03 1307.69 8.23 1306.81 5.18 1304.89 5.73 1305.49 7.83 1308.31 17.59 1310.23 17.03"/><polygon class="cls-4" points="1314.82 28.13 1320.7 15.38 1321.79 13.04 1319.97 12.2 1319.11 14.05 1313 27.29 1314.82 28.13"/><path class="cls-4" d="M1331.84,18.92l1-3.34L1330.9,15l-1.35,4.62a3.26,3.26,0,0,1,2-.76A1.5,1.5,0,0,1,1331.84,18.92Z"/><polygon class="cls-4" points="1334.47 63.05 1337.44 63.46 1339.46 48.84 1339.96 45.27 1338.43 45.06 1336.98 44.86 1334.47 63.05"/><rect class="cls-4" x="1276.35" y="63.67" width="16.06" height="2" transform="translate(1204.02 1348.16) rotate(-89.3)"/><rect class="cls-4" x="1272.76" y="90.39" width="16.06" height="2" transform="translate(1173.76 1370.97) rotate(-89.3)"/><rect class="cls-4" x="1270.38" y="111.36" width="2" height="11.85" transform="translate(180.07 780.01) rotate(-36.54)"/><rect class="cls-4" x="1310.6" y="76.77" width="10.36" height="2" transform="translate(779.62 1281.87) rotate(-69.38)"/><rect class="cls-4" x="1288.32" y="116.15" width="12.3" height="2" transform="translate(686.65 1266.03) rotate(-67.29)"/><path class="cls-5" d="M1327.77,24.46a5.57,5.57,0,0,0-.86-.75c-2.25-1.57-5.06-1.43-6.28.32s-.4,4.43,1.85,6a5.84,5.84,0,0,0,2,.9,6.07,6.07,0,0,0-2.47,1.24c-2.11,1.74-2.72,4.49-1.37,6.13s4,1.55,6.08,0c0,.2,0,.4,0,.6,0,2.67,1.85,4.82,4.13,4.82s4.14-2.15,4.14-4.82a5.9,5.9,0,0,0-.24-1.56,6,6,0,0,0,1.33,1.28c.09.06.18.1.27.15,2.19,1.39,4.83,1.21,6-.47s.39-4.43-1.85-6a5.81,5.81,0,0,0-2.53-1,5.8,5.8,0,0,0,3-1.63c1.94-1.94,2.29-4.73.78-6.23s-4.3-1.16-6.23.78l-.06.06v-.37c0-2.62-1.59-4.75-3.6-4.92h-.26a3.26,3.26,0,0,0-2,.76,5.2,5.2,0,0,0-1.78,3.55V24A4.34,4.34,0,0,0,1327.77,24.46Zm9,6.55a5.24,5.24,0,1,1-5.24-5.24h0a5.25,5.25,0,0,1,5.29,5.19v0Z"/><path class="cls-6" d="M1326.35,31a5.24,5.24,0,1,0,5.24-5.24h0a5.23,5.23,0,0,0-5.23,5.23Z"/><rect class="cls-4" x="1330.62" y="88.05" width="11.85" height="2" transform="translate(615.81 1218.13) rotate(-61.26)"/><polygon class="cls-4" points="1334.78 100.94 1345.64 105.67 1346.44 103.84 1338.63 100.43 1338.32 100.3 1335.58 99.1 1334.78 100.94"/><polygon class="cls-4" points="1348.92 101.83 1353.76 100.7 1360.46 99.14 1360.01 97.19 1354.99 98.36 1348.47 99.89 1348.92 101.83"/><polygon class="cls-4" points="1259.5 101.19 1265.14 99.13 1267.33 98.34 1272.48 96.45 1271.8 94.58 1266.95 96.34 1263.65 97.55 1258.82 99.31 1259.5 101.19"/><polygon class="cls-4" points="1255.3 94.92 1259.05 92.68 1260.95 91.55 1259.93 89.83 1257.64 91.19 1254.28 93.2 1255.3 94.92"/><polygon class="cls-4" points="1349.24 93.27 1347.85 84.51 1346.83 84.67 1345.88 84.82 1346.08 86.1 1347.27 93.58 1349.24 93.27"/><path d="M1291.24,63.7c.7,2.65,2.06,4.4,4,5.18a6.88,6.88,0,0,0,2.54.46A14.48,14.48,0,0,0,1304.9,67l1-.64L1291,62.9Z"/></svg>
