<svg id="Layer_1" data-name="Layer 1" xmlns="http://www.w3.org/2000/svg" width="1400" height="200" viewBox="0 0 1400 200"><defs><style>.cls-1{fill:#5d7a53;}.cls-2{fill:#754c24;}.cls-3{fill:#9b6237;}.cls-4{fill:#fff;}.cls-5{fill:#515117;}.cls-6{fill:#edf728;}.cls-7{fill:#fdffeb;}.cls-8{fill:none;}</style></defs><title>spritekak</title><path class="cls-1" d="M160.49,112.09l-4.19-4.19-5.13.35-.14-2,3.39-.23-8.26-8.26-5.58,6.44-1.51-1.31,5.68-6.55-7.83-7.83c0-.23.07-.45.1-.68l-4.15,4.79-1.51-1.31,6.23-7.18c.06-.44.13-.88.19-1.32A90.63,90.63,0,0,0,136,47.29l-2.23,16.17-3-.41,2.52-18.19,2.1.29q-.88-3.07-2-5.95a6.43,6.43,0,0,1-1.15-.62,6.21,6.21,0,0,1-1.33-1.27,5.58,5.58,0,0,1,.24,1.55c0,2.67-1.85,4.82-4.13,4.82s-4.14-2.15-4.14-4.82a5.82,5.82,0,0,1,0-.6c-2.08,1.59-4.76,1.63-6.08,0s-.74-4.39,1.37-6.13a5.92,5.92,0,0,1,2.47-1.23,6.06,6.06,0,0,1-1.95-.91c-2.24-1.57-3.07-4.26-1.85-6s4-1.89,6.28-.32a6.25,6.25,0,0,1,.86.75c0-.21,0-.41,0-.62a6,6,0,0,1,.27-1.76,49.11,49.11,0,0,0-6.89-7.56L111.1,28.13l-1.81-.84,6.5-14.1a28.91,28.91,0,0,0-12.12-6L106.51,17l-1.92.56-3.1-10.74c-.62-.06-1.25-.09-1.87-.09A23.34,23.34,0,0,0,89,9.53l-2.16,9.19-2-.46,1.73-7.38a48.07,48.07,0,0,0-14.4,14.94L73.57,33l-2,.37-.92-5A78.36,78.36,0,0,0,61.29,56l4.59,5.56-1.54,1.27-3.4-4.12a89.49,89.49,0,0,0,.29,22.49l5.06,2.29-.82,1.82-3.9-1.76c.19,1.2.38,2.4.58,3.58L52.79,98l2.6,5.42-1.8.86-2.23-4.63L47,104.67l2.6,3.51L48,109.37l-2.34-3.15-6.46,7.46a6.75,6.75,0,1,0,10.2,8.84l16-18.41c0,.09,0,.18,0,.26l1.64-9,1,.18L66.28,105l-.8-.14c.86,4,1.78,7.84,2.75,11.52L72,121.43l-1.61,1.19-.62-.84c.44,1.47.89,2.9,1.35,4.3h57.11a194.64,194.64,0,0,0,5.73-21.43l7.46,7.46.37-5,2,.15-.49,6.67,7.67,7.67a6.75,6.75,0,1,0,9.55-9.55ZM78.16,83.38,78,99.44l-2,0,.2-16.06ZM77,118.11l-1.59-6.39,1.94-.48,1.59,6.38Zm4.6-45.4-2,0,.19-16.06,2,0Zm50.87-3.36L134,75.73l-1.94.49-1.59-6.39Zm-12.1,8.11L127.37,87l-1.61,1.19-7.05-9.52ZM96.64,66.55c2.11.83,5.19-.33,7.37-1.7l2.12,3.4a16,16,0,0,1-7.88,2.58,8.3,8.3,0,0,1-3.08-.56c-1.68-.66-3.9-2.27-4.94-6.18l3.86-1C94.59,64.93,95.42,66.07,96.64,66.55Zm8.21,25.58-2.31,1.92L93.36,83,95.67,81ZM90.66,36.24c2.59,0,4.68,4,4.68,9s-2.09,9-4.68,9-4.69-4-4.69-9S88.07,36.24,90.66,36.24Zm-5.18,67.4,2-11.67,2,.34-2,11.67Zm3.83,19.57-1.84-.77,4.75-11.35,1.84.77Zm11.19-5.33-1.07-1.69,7.51-4.73,1.06,1.69Zm3.94-72.68c0-5,2.1-9,4.68-9s4.69,4,4.69,9-2.1,9-4.69,9S104.44,50.15,104.44,45.2Zm4.79,37,3.64-9.7,1.87.71-3.64,9.69Zm4.67,38.28-2-.36,1.17-6.38,2,.36Zm8.9-11.89-7.33-5L116.6,102l7.33,5Z"/><polygon class="cls-2" points="68.5 137.38 72.95 195.53 126.18 195.53 131.8 137.38 68.5 137.38"/><polygon class="cls-3" points="58.98 126.08 61.59 137.38 68.5 137.38 131.8 137.38 136.12 137.38 139.16 126.08 128.21 126.08 71.1 126.08 58.98 126.08"/><path d="M90.23,64.09c1,3.91,3.26,5.52,4.94,6.18a8.3,8.3,0,0,0,3.08.56,16,16,0,0,0,7.88-2.58L104,64.85c-2.18,1.37-5.26,2.53-7.37,1.7-1.22-.48-2-1.62-2.55-3.49Z"/><path d="M90.66,54.16c2.59,0,4.68-4,4.68-9s-2.09-9-4.68-9-4.69,4-4.69,9S88.07,54.16,90.66,54.16ZM86.53,42.72a1.87,1.87,0,1,1,1.86,2.07A2,2,0,0,1,86.53,42.72Z"/><path d="M113.81,45.2c0-5-2.1-9-4.69-9s-4.68,4-4.68,9,2.1,9,4.68,9S113.81,50.15,113.81,45.2Zm-7-.41a2.08,2.08,0,1,1,1.86-2.07A2,2,0,0,1,106.85,44.79Z"/><path class="cls-4" d="M90.25,42.72a1.87,1.87,0,1,0-1.86,2.07A2,2,0,0,0,90.25,42.72Z"/><path class="cls-4" d="M106.85,40.65a2.08,2.08,0,1,0,1.86,2.07A2,2,0,0,0,106.85,40.65Z"/><polygon class="cls-5" points="65.47 85.34 66.3 83.52 61.23 81.23 55.49 78.64 54.67 80.47 61.57 83.58 65.47 85.34"/><rect class="cls-5" x="81.56" y="96.97" width="11.85" height="2" transform="translate(-24.19 167.12) rotate(-80)"/><rect class="cls-5" x="122.04" y="76.89" width="2" height="11.85" transform="translate(-25.12 89.53) rotate(-36.54)"/><rect class="cls-5" x="110.25" y="116.15" width="6.49" height="2" transform="translate(-22.14 207.76) rotate(-79.65)"/><rect class="cls-5" x="76.12" y="111.38" width="2" height="6.58" transform="translate(-25.41 22.02) rotate(-13.98)"/><rect class="cls-5" x="131.24" y="69.49" width="2" height="6.58" transform="translate(-13.66 34.09) rotate(-13.98)"/><rect class="cls-5" x="97.61" y="80.34" width="3" height="14.4" transform="translate(-33.06 83.23) rotate(-39.59)"/><polygon class="cls-5" points="68 95.58 67.02 95.4 65.38 104.37 65.3 104.82 65.48 104.86 66.28 105 68 95.58"/><rect class="cls-5" x="99.28" y="113.67" width="8.87" height="2" transform="translate(-45.18 72.99) rotate(-32.23)"/><rect class="cls-5" x="118.7" y="100.86" width="2" height="8.87" transform="translate(-34.74 144.87) rotate(-55.71)"/><polygon class="cls-5" points="65.88 61.59 61.29 56.03 56.71 50.49 55.17 51.76 60.94 58.74 64.34 62.86 65.88 61.59"/><polygon class="cls-5" points="73.57 32.98 72.24 25.82 70.94 18.82 68.97 19.19 70.68 28.38 71.6 33.35 73.57 32.98"/><polygon class="cls-5" points="86.86 18.72 89.02 9.53 90.15 4.7 88.21 4.24 86.64 10.88 84.91 18.26 86.86 18.72"/><polygon class="cls-5" points="106.51 17.03 103.67 7.17 103.09 5.18 101.17 5.73 101.49 6.85 104.59 17.59 106.51 17.03"/><polygon class="cls-5" points="111.1 28.13 117.38 14.52 118.07 13.04 116.25 12.2 115.79 13.19 109.28 27.29 111.1 28.13"/><path class="cls-5" d="M128.12,18.92l1-3.34L127.18,15l-1.35,4.62a3.25,3.25,0,0,1,2-.76A2,2,0,0,1,128.12,18.92Z"/><polygon class="cls-5" points="130.75 63.05 133.72 63.47 135.96 47.29 136.24 45.27 135.37 45.15 133.27 44.86 130.75 63.05"/><rect class="cls-5" x="72.61" y="63.67" width="16.06" height="2" transform="translate(15 144.51) rotate(-89.3)"/><rect class="cls-5" x="69.03" y="90.4" width="16.06" height="2" transform="translate(-15.27 167.34) rotate(-89.3)"/><polygon class="cls-5" points="71.98 121.43 68.23 116.38 64.92 111.91 63.32 113.1 69.75 121.78 70.37 122.62 71.98 121.43"/><rect class="cls-5" x="106.81" y="76.74" width="10.36" height="2" transform="translate(-0.21 155.18) rotate(-69.38)"/><rect class="cls-5" x="84.61" y="116.15" width="12.3" height="2" transform="translate(-52.35 155.62) rotate(-67.28)"/><path class="cls-6" d="M124.05,24.46a6.25,6.25,0,0,0-.86-.75c-2.25-1.57-5.06-1.43-6.28.32s-.39,4.43,1.85,6a6.06,6.06,0,0,0,1.95.91,5.92,5.92,0,0,0-2.47,1.23c-2.11,1.74-2.72,4.49-1.37,6.13s4,1.55,6.08,0a5.82,5.82,0,0,0,0,.6c0,2.67,1.85,4.82,4.14,4.82s4.13-2.15,4.13-4.82a5.58,5.58,0,0,0-.24-1.55,6.21,6.21,0,0,0,1.33,1.27,6.43,6.43,0,0,0,1.15.62c2,.84,4.11.52,5.13-.94,1.22-1.74.39-4.43-1.85-6a6,6,0,0,0-2.53-1,5.78,5.78,0,0,0,3-1.63c1.94-1.93,2.29-4.73.78-6.23s-4.29-1.16-6.23.78l-.06.06c0-.12,0-.24,0-.37,0-2.62-1.59-4.75-3.6-4.92a2,2,0,0,0-.26,0,3.25,3.25,0,0,0-2,.76,4.86,4.86,0,0,0-1.56,2.44,6,6,0,0,0-.27,1.76C124,24.05,124,24.25,124.05,24.46Zm9,6.55a5.24,5.24,0,1,1-5.24-5.24A5.24,5.24,0,0,1,133.1,31Z"/><circle class="cls-7" cx="127.86" cy="31.01" r="5.24"/><polygon class="cls-5" points="131.36 91.32 132.87 92.63 137.02 87.84 140.63 83.68 139.12 82.37 137.59 84.14 131.36 91.32"/><polygon class="cls-5" points="140.58 104.21 146.16 97.77 148.34 95.25 146.83 93.94 144.75 96.35 139.07 102.9 140.58 104.21"/><polygon class="cls-5" points="151.17 108.25 156.3 107.91 160.02 107.65 159.88 105.66 154.42 106.03 151.03 106.26 151.17 108.25"/><polygon class="cls-5" points="141.77 107.15 141.4 112.11 140.9 118.97 142.89 119.11 143.27 113.97 143.76 107.3 141.77 107.15"/><polygon class="cls-5" points="55.4 103.38 52.79 97.97 49.4 90.93 47.59 91.79 51.36 99.61 53.59 104.24 55.4 103.38"/><polygon class="cls-5" points="49.57 108.18 46.97 104.67 45.65 102.89 44.05 104.08 45.63 106.22 47.97 109.37 49.57 108.18"/><rect class="cls-8" width="200" height="200"/><rect class="cls-8" x="400" width="200" height="200"/><rect class="cls-8" x="800" width="200" height="200"/><rect class="cls-8" x="1000" width="200" height="200"/><path class="cls-1" d="M362.14,98.52l-5.89-.69-3.81,3.46L351.1,99.8l2.51-2.28L342,96.16l-.39,8.52-2-.1.4-8.65-4.28-.5q1.11-6.2,2-12.61A90.63,90.63,0,0,0,336,47.29l-2.23,16.17-3-.41,2.52-18.19,2.1.29q-.89-3.07-2-5.95a6.43,6.43,0,0,1-1.15-.62,6.21,6.21,0,0,1-1.33-1.27,5.58,5.58,0,0,1,.24,1.55c0,2.67-1.85,4.82-4.13,4.82s-4.14-2.15-4.14-4.82a5.82,5.82,0,0,1,.05-.6c-2.08,1.59-4.76,1.63-6.08,0s-.74-4.39,1.37-6.13a5.92,5.92,0,0,1,2.47-1.23,6.06,6.06,0,0,1-1.95-.91c-2.24-1.57-3.07-4.26-1.85-6s4-1.89,6.28-.32a6.25,6.25,0,0,1,.86.75c0-.21-.05-.41-.05-.62a6,6,0,0,1,.27-1.76,49.11,49.11,0,0,0-6.89-7.56L311.1,28.13l-1.81-.84,6.5-14.1a28.91,28.91,0,0,0-12.12-6L306.51,17l-1.92.56-3.1-10.74c-.62-.06-1.25-.09-1.87-.09A23.34,23.34,0,0,0,289,9.53l-2.16,9.19-1.95-.46,1.73-7.38a48.07,48.07,0,0,0-14.4,14.94L273.57,33l-2,.37-.92-5A78.36,78.36,0,0,0,261.29,56l4.59,5.56-1.54,1.27-3.4-4.12a89.49,89.49,0,0,0,.29,22.49l5.06,2.29-.82,1.82-3.9-1.76q.81,5.08,1.69,10l-7.54,3-.2,6-2-.07.18-5.14-6.24,2.45.68,4.31-2,.31-.6-3.87-9.19,3.6a6.75,6.75,0,1,0,4.93,12.57L266,107c.72,3.22,1.48,6.35,2.27,9.36l3.75,5.05-1.61,1.19-.62-.84c.44,1.47.89,2.9,1.35,4.3h57.11c1.81-5.37,3.41-11.21,4.83-17.37l14.13,1.65-2.79-4.11,1.66-1.12,3.75,5.54,10.77,1.26a6.75,6.75,0,1,0,1.58-13.41Zm-82.4-41.9,2,0-.19,16.06-2,0Zm-1.58,26.76L278,99.44l-2,0,.2-16.06ZM265.3,104.82,267,95.4l1,.18L266.28,105ZM277,118.11l-1.59-6.39,1.94-.48,1.59,6.38Zm55.47-48.76L334,75.73l-1.94.49-1.59-6.39Zm-12.1,8.11L327.37,87l-1.61,1.19-7.05-9.52ZM296.64,66.55c2.11.83,5.19-.33,7.37-1.7l2.12,3.4a16,16,0,0,1-7.88,2.58,8.3,8.3,0,0,1-3.08-.56c-1.68-.66-3.9-2.27-4.94-6.18l3.86-1C294.59,64.93,295.42,66.07,296.64,66.55Zm8.21,25.58-2.31,1.92L293.36,83,295.67,81ZM290.66,36.24c2.59,0,4.68,4,4.68,9s-2.09,9-4.68,9-4.69-4-4.69-9S288.07,36.24,290.66,36.24Zm-5.18,67.4,2-11.67,2,.34L287.45,104Zm3.83,19.57-1.84-.77,4.75-11.35,1.84.77Zm11.19-5.33-1.07-1.69,7.51-4.73,1.06,1.69Zm3.94-72.68c0-5,2.1-9,4.68-9s4.69,4,4.69,9-2.1,9-4.69,9S304.44,50.15,304.44,45.2Zm4.79,37,3.64-9.7,1.87.71-3.64,9.69Zm4.67,38.28-2-.36,1.17-6.38,2,.36Zm8.9-11.89-7.33-5L316.6,102l7.33,5Z"/><polygon class="cls-5" points="341.63 104.68 342.02 96.17 342.17 92.84 340.17 92.75 340.03 95.93 339.63 104.58 341.63 104.68"/><polygon class="cls-5" points="352.44 101.29 356.25 97.83 359.02 95.33 357.67 93.84 353.61 97.52 351.1 99.8 352.44 101.29"/><polygon class="cls-5" points="344.38 106.25 347.17 110.36 351.03 116.06 352.68 114.94 349.79 110.67 346.04 105.13 344.38 106.25"/><polygon class="cls-5" points="255.52 102.53 255.72 96.53 255.99 88.72 253.99 88.65 253.7 97.32 253.52 102.46 255.52 102.53"/><polygon class="cls-5" points="248.14 104.08 247.46 99.77 247.12 97.58 245.15 97.89 245.56 100.52 246.16 104.39 248.14 104.08"/><polygon class="cls-2" points="268.5 137.38 272.95 195.53 326.18 195.53 331.8 137.38 268.5 137.38"/><polygon class="cls-3" points="258.98 126.08 261.59 137.38 268.5 137.38 331.8 137.38 336.12 137.38 339.16 126.08 328.21 126.08 271.1 126.08 258.98 126.08"/><path d="M290.23,64.09c1,3.91,3.26,5.52,4.94,6.18a8.3,8.3,0,0,0,3.08.56,16,16,0,0,0,7.88-2.58L304,64.85c-2.18,1.37-5.26,2.53-7.37,1.7-1.22-.48-2.05-1.62-2.55-3.49Z"/><path d="M290.66,54.16c2.59,0,4.68-4,4.68-9s-2.09-9-4.68-9-4.69,4-4.69,9S288.07,54.16,290.66,54.16Zm-4.13-11.44a1.87,1.87,0,1,1,1.86,2.07A2,2,0,0,1,286.53,42.72Z"/><path d="M313.81,45.2c0-5-2.1-9-4.69-9s-4.68,4-4.68,9,2.1,9,4.68,9S313.81,50.15,313.81,45.2Zm-7-.41a2.08,2.08,0,1,1,1.86-2.07A2,2,0,0,1,306.85,44.79Z"/><path class="cls-4" d="M290.25,42.72a1.87,1.87,0,1,0-1.86,2.07A2,2,0,0,0,290.25,42.72Z"/><path class="cls-4" d="M306.85,40.65a2.08,2.08,0,1,0,1.86,2.07A2,2,0,0,0,306.85,40.65Z"/><polygon class="cls-5" points="266.3 83.52 261.23 81.23 255.49 78.64 254.67 80.47 261.57 83.58 265.47 85.34 266.3 83.52"/><rect class="cls-5" x="281.56" y="96.97" width="11.85" height="2" transform="translate(141.08 364.08) rotate(-80)"/><rect class="cls-5" x="322.04" y="76.89" width="2" height="11.85" transform="translate(14.19 208.61) rotate(-36.54)"/><rect class="cls-5" x="310.25" y="116.15" width="6.49" height="2" transform="translate(141.93 404.5) rotate(-79.65)"/><rect class="cls-5" x="276.12" y="111.38" width="2" height="6.58" transform="translate(-19.49 70.32) rotate(-13.98)"/><rect class="cls-5" x="331.24" y="69.49" width="2" height="6.58" transform="translate(-7.74 82.39) rotate(-13.98)"/><rect class="cls-5" x="297.61" y="80.34" width="3" height="14.4" transform="translate(12.81 210.68) rotate(-39.59)"/><rect class="cls-5" x="261.86" y="99.7" width="9.57" height="1" transform="matrix(0.18, -0.98, 0.98, 0.18, 120.15, 344.5)"/><rect class="cls-5" x="299.28" y="113.67" width="8.87" height="2" transform="translate(-14.36 179.65) rotate(-32.23)"/><rect class="cls-5" x="318.7" y="100.86" width="2" height="8.87" transform="translate(52.57 310.09) rotate(-55.7)"/><polygon class="cls-5" points="265.88 61.59 261.29 56.03 256.71 50.49 255.17 51.76 260.94 58.74 264.34 62.86 265.88 61.59"/><polygon class="cls-5" points="273.57 32.98 272.24 25.82 270.94 18.82 268.98 19.19 270.68 28.38 271.6 33.35 273.57 32.98"/><polygon class="cls-5" points="286.86 18.72 289.02 9.53 290.15 4.7 288.21 4.24 286.64 10.88 284.91 18.26 286.86 18.72"/><polygon class="cls-5" points="306.51 17.03 303.67 7.17 303.09 5.18 301.17 5.73 301.49 6.85 304.59 17.59 306.51 17.03"/><polygon class="cls-5" points="311.1 28.13 317.38 14.52 318.07 13.04 316.25 12.2 315.79 13.19 309.29 27.29 311.1 28.13"/><path class="cls-5" d="M328.12,18.92l1-3.34L327.18,15l-1.35,4.62a3.25,3.25,0,0,1,2-.76A2,2,0,0,1,328.12,18.92Z"/><polygon class="cls-5" points="330.75 63.05 333.73 63.47 335.96 47.29 336.24 45.27 335.37 45.15 333.27 44.86 330.75 63.05"/><rect class="cls-5" x="272.61" y="63.67" width="16.06" height="2" transform="translate(212.55 344.5) rotate(-89.3)"/><rect class="cls-5" x="269.03" y="90.4" width="16.06" height="2" transform="translate(182.29 367.32) rotate(-89.3)"/><polygon class="cls-5" points="271.98 121.43 268.23 116.38 264.92 111.91 263.32 113.1 269.75 121.78 270.37 122.62 271.98 121.43"/><rect class="cls-5" x="306.81" y="76.74" width="10.36" height="2" transform="translate(129.37 342.37) rotate(-69.38)"/><rect class="cls-5" x="284.61" y="116.15" width="12.3" height="2" transform="translate(70.4 340.1) rotate(-67.28)"/><path class="cls-6" d="M324.05,24.46a6.25,6.25,0,0,0-.86-.75c-2.25-1.57-5.06-1.43-6.28.32s-.39,4.43,1.85,6a6.06,6.06,0,0,0,1.95.91,5.92,5.92,0,0,0-2.47,1.23c-2.11,1.74-2.72,4.49-1.37,6.13s4,1.55,6.08,0a5.82,5.82,0,0,0-.05.6c0,2.67,1.85,4.82,4.14,4.82s4.13-2.15,4.13-4.82a5.58,5.58,0,0,0-.24-1.55,6.21,6.21,0,0,0,1.33,1.27,6.43,6.43,0,0,0,1.15.62c2,.84,4.11.52,5.13-.94,1.22-1.74.39-4.43-1.85-6a6,6,0,0,0-2.53-1,5.78,5.78,0,0,0,3-1.63c1.94-1.93,2.29-4.73.78-6.23s-4.29-1.16-6.23.78l-.06.06c0-.12,0-.24,0-.37,0-2.62-1.59-4.75-3.6-4.92a2,2,0,0,0-.26,0,3.25,3.25,0,0,0-2,.76,4.86,4.86,0,0,0-1.56,2.44,6,6,0,0,0-.27,1.76C324,24.05,324,24.25,324.05,24.46ZM333.1,31a5.24,5.24,0,1,1-5.24-5.24A5.24,5.24,0,0,1,333.1,31Z"/><circle class="cls-7" cx="327.86" cy="31.01" r="5.24"/><path class="cls-8" d="M464.38,97.52c-.38-2-.76-4.07-1.12-6.14l-3.49,5.36Z"/><path class="cls-8" d="M535.51,98.8l1.88-.94-1.3-2.21C535.9,96.7,535.71,97.75,535.51,98.8Z"/><path class="cls-5" d="M456.5,101.77l3.27-5,3.49-5.36-.33-1.91-.58-.37-4.72,7.27-2.81,4.31Z"/><polygon class="cls-5" points="449.38 99.28 451.02 95.25 451.86 93.19 450.01 92.44 449 94.9 447.52 98.53 449.38 99.28"/><polygon class="cls-2" points="468.89 137.38 473.34 195.53 526.57 195.53 532.19 137.38 468.89 137.38"/><polygon class="cls-3" points="459.37 126.08 461.98 137.38 468.89 137.38 532.19 137.38 536.51 137.38 539.55 126.08 528.6 126.08 471.49 126.08 459.37 126.08"/><path d="M490.62,64.09c1,3.91,3.26,5.52,4.94,6.18a8.3,8.3,0,0,0,3.08.56,16,16,0,0,0,7.88-2.58l-2.12-3.4c-2.18,1.37-5.27,2.53-7.37,1.7-1.22-.48-2-1.62-2.55-3.49Z"/><path d="M491.05,54.16c2.58,0,4.68-4,4.68-9s-2.1-9-4.68-9-4.69,4-4.69,9S488.46,54.16,491.05,54.16Zm-4.14-11.44a1.87,1.87,0,1,1,1.86,2.07A2,2,0,0,1,486.91,42.72Z"/><path d="M514.2,45.2c0-5-2.1-9-4.69-9s-4.68,4-4.68,9,2.09,9,4.68,9S514.2,50.15,514.2,45.2Zm-7-.41a2.08,2.08,0,1,1,1.86-2.07A2,2,0,0,1,507.24,44.79Z"/><path class="cls-4" d="M490.63,42.72a1.87,1.87,0,1,0-1.86,2.07A2,2,0,0,0,490.63,42.72Z"/><path class="cls-4" d="M507.24,40.65a2.08,2.08,0,1,0,1.86,2.07A2,2,0,0,0,507.24,40.65Z"/><polygon class="cls-5" points="466.68 83.52 461.62 81.23 455.88 78.64 455.06 80.47 461.96 83.58 465.86 85.34 466.68 83.52"/><rect class="cls-5" x="481.95" y="96.97" width="11.85" height="2" transform="translate(306.68 561.43) rotate(-80)"/><rect class="cls-5" x="522.43" y="76.89" width="2" height="11.85" transform="translate(53.56 327.89) rotate(-36.54)"/><rect class="cls-5" x="510.64" y="116.15" width="6.49" height="2" transform="matrix(0.18, -0.98, 0.98, 0.18, 306.28, 601.61)"/><rect class="cls-5" x="476.51" y="111.38" width="2" height="6.58" transform="translate(-13.56 118.83) rotate(-13.99)"/><rect class="cls-5" x="531.63" y="69.49" width="2" height="6.58" transform="translate(-1.81 130.83) rotate(-13.98)"/><rect class="cls-5" x="497.99" y="80.34" width="3" height="14.4" transform="translate(58.76 338.36) rotate(-39.59)"/><rect class="cls-5" x="462.25" y="99.7" width="9.57" height="1" transform="matrix(0.18, -0.98, 0.98, 0.18, 284.52, 541.62)"/><rect class="cls-5" x="499.67" y="113.67" width="8.87" height="2" transform="translate(16.52 286.52) rotate(-32.23)"/><path class="cls-5" d="M522,105.46l.05,0L517,102l-1.13,1.65,4.46,3A6.72,6.72,0,0,1,522,105.46Z"/><polygon class="cls-5" points="466.27 61.59 461.68 56.03 457.09 50.49 455.55 51.76 461.33 58.74 464.73 62.86 466.27 61.59"/><polygon class="cls-5" points="473.96 32.98 472.63 25.82 471.33 18.82 469.36 19.19 471.07 28.38 471.99 33.35 473.96 32.98"/><polygon class="cls-5" points="487.25 18.72 489.41 9.53 490.54 4.7 488.59 4.24 487.03 10.88 485.3 18.26 487.25 18.72"/><polygon class="cls-5" points="506.9 17.03 504.06 7.17 503.48 5.18 501.56 5.73 501.88 6.85 504.98 17.59 506.9 17.03"/><polygon class="cls-5" points="511.49 28.13 517.77 14.52 518.46 13.04 516.64 12.2 516.18 13.19 509.67 27.29 511.49 28.13"/><path class="cls-5" d="M528.51,18.92l1-3.34L527.57,15l-1.35,4.62a3.25,3.25,0,0,1,2-.76A2.34,2.34,0,0,1,528.51,18.92Z"/><polygon class="cls-5" points="531.14 63.05 534.11 63.47 536.35 47.29 536.63 45.27 535.75 45.15 533.65 44.86 531.14 63.05"/><rect class="cls-5" x="473" y="63.67" width="16.06" height="2" transform="translate(410.5 544.87) rotate(-89.3)"/><rect class="cls-5" x="469.42" y="90.4" width="16.06" height="2" transform="translate(380.23 567.69) rotate(-89.3)"/><polygon class="cls-5" points="472.37 121.43 468.62 116.38 465.31 111.91 463.7 113.1 470.14 121.79 470.76 122.62 472.37 121.43"/><rect class="cls-5" x="507.19" y="76.74" width="10.36" height="2" transform="translate(259.16 529.91) rotate(-69.38)"/><rect class="cls-5" x="485" y="116.15" width="12.3" height="2" transform="translate(193.39 524.94) rotate(-67.28)"/><path class="cls-6" d="M524.44,24.46a6.25,6.25,0,0,0-.86-.75c-2.25-1.57-5.06-1.43-6.28.32s-.4,4.43,1.85,6a6.06,6.06,0,0,0,2,.91,5.92,5.92,0,0,0-2.47,1.23c-2.11,1.74-2.73,4.49-1.37,6.13s4,1.55,6.08,0a5.82,5.82,0,0,0-.05.6c0,2.67,1.85,4.82,4.13,4.82s4.14-2.15,4.14-4.82a5.58,5.58,0,0,0-.24-1.55,6.21,6.21,0,0,0,1.33,1.27,6.43,6.43,0,0,0,1.15.62c2,.84,4.11.52,5.13-.94,1.22-1.74.39-4.43-1.85-6a6,6,0,0,0-2.53-1,5.78,5.78,0,0,0,3-1.63c1.94-1.93,2.29-4.73.78-6.23s-4.3-1.16-6.23.78l-.06.06c0-.12,0-.24,0-.37,0-2.62-1.59-4.75-3.6-4.92a2.34,2.34,0,0,0-.26,0,3.25,3.25,0,0,0-2,.76,4.86,4.86,0,0,0-1.56,2.44,6,6,0,0,0-.27,1.76C524.39,24.05,524.42,24.25,524.44,24.46Zm9,6.55a5.24,5.24,0,1,1-5.24-5.24A5.24,5.24,0,0,1,533.49,31Z"/><circle class="cls-7" cx="528.25" cy="31.01" r="5.24"/><path class="cls-1" d="M566.39,91.06a6.76,6.76,0,0,0-9-3.06L552,90.62l-1.32,5-1.93-.51.87-3.28L539.19,97l4.31,7.35-1.72,1-4.39-7.48-1.88.94c.2-1,.39-2.1.58-3.15l-.31-.54.46-.26c.7-3.95,1.35-8,1.93-12a90.64,90.64,0,0,0-1.82-35.53l-2.24,16.17-3-.41,2.51-18.19,2.1.29q-.87-3.07-2-5.95a6.43,6.43,0,0,1-1.15-.62,6.21,6.21,0,0,1-1.33-1.27,5.58,5.58,0,0,1,.24,1.55c0,2.67-1.85,4.82-4.14,4.82s-4.13-2.15-4.13-4.82a5.82,5.82,0,0,1,.05-.6c-2.08,1.59-4.76,1.63-6.08,0s-.74-4.39,1.37-6.13a5.92,5.92,0,0,1,2.47-1.23,6.06,6.06,0,0,1-2-.91c-2.25-1.57-3.07-4.26-1.85-6s4-1.89,6.28-.32a6.25,6.25,0,0,1,.86.75c0-.21-.05-.41-.05-.62a6,6,0,0,1,.27-1.76,49.62,49.62,0,0,0-6.89-7.56l-6.28,13.61-1.82-.84,6.51-14.1a29.11,29.11,0,0,0-12.12-6L506.9,17l-1.92.56-3.1-10.74c-.63-.06-1.25-.09-1.88-.09a23.33,23.33,0,0,0-10.59,2.77l-2.17,9.19-1.94-.46L487,10.88a48,48,0,0,0-14.4,14.94L474,33l-2,.37-.92-5A78.16,78.16,0,0,0,461.68,56l4.59,5.56-1.54,1.27-3.4-4.12a89,89,0,0,0,.29,22.49l5.06,2.29-.82,1.82L462,83.58c.31,2,.64,4,1,5.89l.33,1.91c.36,2.07.74,4.12,1.12,6.14l-4.61-.78-3.27,5-1.68-1.09,2.81-4.31L451,95.25l-1.65,4-1.85-.75L449,94.9l-9.72-1.66A6.75,6.75,0,1,0,437,106.55l30.44,5.19c.38,1.58.77,3.12,1.17,4.64l3.75,5.05-1.61,1.19-.62-.83q.66,2.19,1.35,4.29H528.6q1.65-4.92,3.09-10.33l19.56-9.67-4.58-1.94.78-1.84,6.16,2.61,9.72-4.81A6.76,6.76,0,0,0,566.39,91.06ZM480.13,56.62l2,0-.2,16.06-2,0Zm-3.59,26.74,2,0-.19,16.06-2,0Zm-10.85,21.46,1.72-9.42,1,.18L466.67,105Zm11.65,13.29-1.59-6.39,1.94-.48,1.59,6.38Zm52.72-10.19-1.72,1-6-10.23,1.73-1Zm2.74-38.57,1.59,6.38-1.94.49-1.59-6.39Zm-12.1,8.11L527.76,87l-1.61,1.19-7-9.52ZM497,66.55c2.1.83,5.19-.33,7.37-1.7l2.12,3.4a16,16,0,0,1-7.88,2.58,8.3,8.3,0,0,1-3.08-.56c-1.68-.66-3.9-2.27-4.94-6.18l3.86-1C495,64.93,495.81,66.07,497,66.55Zm8.21,25.58-2.31,1.92L493.75,83,496.06,81ZM491.05,36.24c2.58,0,4.68,4,4.68,9s-2.1,9-4.68,9-4.69-4-4.69-9S488.46,36.24,491.05,36.24Zm-5.19,67.4L487.92,92l2,.34L487.83,104Zm3.84,19.57-1.84-.77,4.74-11.35,1.85.77Zm11.19-5.33-1.07-1.69,7.5-4.73,1.07,1.69Zm3.94-72.68c0-5,2.09-9,4.68-9s4.69,4,4.69,9-2.1,9-4.69,9S504.83,50.15,504.83,45.2Zm4.78,37,3.65-9.7,1.87.71-3.65,9.69Zm4.68,38.28-2-.36,1.17-6.38,2,.36ZM517,102l5.08,3.46-.05,0a6.72,6.72,0,0,0-1.7,1.21l-4.46-3Z"/><rect class="cls-5" x="525.2" y="97.39" width="2" height="11.85" transform="translate(20.02 280.37) rotate(-30.39)"/><polygon class="cls-5" points="536.1 95.65 537.39 97.86 541.78 105.34 543.5 104.33 539.19 96.97 537.51 94.1 536.24 94.85 535.78 95.11 536.1 95.65"/><polygon class="cls-5" points="550.72 95.59 552.04 90.62 552.99 87.02 551.06 86.51 549.66 91.8 548.79 95.08 550.72 95.59"/><polygon class="cls-5" points="546.67 104.14 551.25 106.08 557.58 108.76 558.36 106.92 553.61 104.91 547.45 102.3 546.67 104.14"/><path class="cls-8" d="M665.51,101.8c-.25-1.24-.5-2.5-.75-3.77l-2.18.89Z"/><path class="cls-8" d="M735.28,101.42l.87-1-.58-.42C735.47,100.45,735.38,100.94,735.28,101.42Z"/><path class="cls-5" d="M657,101.18l5.56-2.26,2.18-.89c-.13-.66-.25-1.33-.38-2L661,97.39l-4.76,1.94Z"/><polygon class="cls-5" points="652.6 95.06 656.26 92.69 658.12 91.49 657.03 89.81 654.8 91.26 651.51 93.39 652.6 95.06"/><polygon class="cls-2" points="669.17 137.38 673.62 195.53 726.85 195.53 732.47 137.38 669.17 137.38"/><polygon class="cls-3" points="659.65 126.08 662.26 137.38 669.17 137.38 732.47 137.38 736.79 137.38 739.83 126.08 728.88 126.08 671.77 126.08 659.65 126.08"/><path d="M690.9,64.09c1,3.91,3.26,5.52,4.94,6.18a8.3,8.3,0,0,0,3.08.56,16,16,0,0,0,7.88-2.58l-2.12-3.4c-2.18,1.37-5.26,2.53-7.37,1.7-1.22-.48-2-1.62-2.55-3.49Z"/><path d="M691.33,54.16c2.59,0,4.68-4,4.68-9s-2.09-9-4.68-9-4.69,4-4.69,9S688.74,54.16,691.33,54.16ZM687.2,42.72a1.87,1.87,0,1,1,1.86,2.07A2,2,0,0,1,687.2,42.72Z"/><path d="M714.48,45.2c0-5-2.1-9-4.69-9s-4.68,4-4.68,9,2.1,9,4.68,9S714.48,50.15,714.48,45.2Zm-7-.41a2.08,2.08,0,1,1,1.86-2.07A2,2,0,0,1,707.52,44.79Z"/><path class="cls-4" d="M690.92,42.72a1.87,1.87,0,1,0-1.86,2.07A2,2,0,0,0,690.92,42.72Z"/><path class="cls-4" d="M707.52,40.65a2.08,2.08,0,1,0,1.86,2.07A2,2,0,0,0,707.52,40.65Z"/><polygon class="cls-5" points="666.97 83.52 661.9 81.23 656.16 78.64 655.34 80.47 662.24 83.58 666.14 85.34 666.97 83.52"/><rect class="cls-5" x="682.24" y="96.97" width="11.85" height="2" transform="translate(472.18 758.67) rotate(-80)"/><rect class="cls-5" x="722.71" y="76.89" width="2" height="11.85" transform="translate(92.92 447.13) rotate(-36.54)"/><rect class="cls-5" x="710.92" y="116.15" width="6.49" height="2" transform="matrix(0.18, -0.98, 0.98, 0.18, 470.56, 798.63)"/><rect class="cls-5" x="676.79" y="111.38" width="2" height="6.58" transform="translate(-7.63 167.13) rotate(-13.98)"/><rect class="cls-5" x="731.91" y="69.49" width="2" height="6.58" transform="translate(4.12 179.21) rotate(-13.98)"/><rect class="cls-5" x="698.28" y="80.34" width="3" height="14.4" transform="translate(104.69 465.99) rotate(-39.59)"/><rect class="cls-5" x="662.54" y="99.7" width="9.57" height="1" transform="translate(449 738.71) rotate(-79.66)"/><rect class="cls-5" x="699.95" y="113.67" width="8.87" height="2" transform="translate(47.38 393.34) rotate(-32.23)"/><polygon class="cls-5" points="666.55 61.59 661.96 56.03 657.38 50.49 655.84 51.76 661.61 58.74 665.01 62.86 666.55 61.59"/><polygon class="cls-5" points="674.24 32.98 672.91 25.82 671.61 18.82 669.65 19.19 671.35 28.38 672.27 33.35 674.24 32.98"/><polygon class="cls-5" points="687.53 18.72 689.69 9.53 690.82 4.7 688.88 4.24 687.32 10.88 685.58 18.26 687.53 18.72"/><polygon class="cls-5" points="707.18 17.03 704.34 7.17 703.76 5.18 701.84 5.73 702.16 6.85 705.26 17.59 707.18 17.03"/><polygon class="cls-5" points="711.77 28.13 718.05 14.52 718.74 13.04 716.92 12.2 716.47 13.19 709.96 27.29 711.77 28.13"/><path class="cls-5" d="M728.79,18.92l1-3.34L727.85,15l-1.35,4.62a3.25,3.25,0,0,1,2-.76A2,2,0,0,1,728.79,18.92Z"/><polygon class="cls-5" points="731.42 63.05 734.4 63.47 736.63 47.29 736.91 45.27 736.04 45.15 733.94 44.86 731.42 63.05"/><rect class="cls-5" x="673.28" y="63.67" width="16.06" height="2" transform="translate(608.33 745.14) rotate(-89.3)"/><rect class="cls-5" x="669.7" y="90.4" width="16.06" height="2" transform="translate(578.07 767.96) rotate(-89.3)"/><rect class="cls-5" x="667.32" y="111.34" width="2" height="11.85" transform="translate(61.53 420.92) rotate(-36.54)"/><rect class="cls-5" x="707.48" y="76.74" width="10.36" height="2" transform="translate(388.9 717.36) rotate(-69.38)"/><rect class="cls-5" x="685.28" y="116.15" width="12.3" height="2" transform="translate(316.42 709.75) rotate(-67.29)"/><path class="cls-6" d="M724.72,24.46a6.25,6.25,0,0,0-.86-.75c-2.25-1.57-5.06-1.43-6.28.32s-.39,4.43,1.85,6a6.16,6.16,0,0,0,2,.91,5.92,5.92,0,0,0-2.47,1.23c-2.11,1.74-2.72,4.49-1.37,6.13s4,1.55,6.08,0a5.82,5.82,0,0,0,0,.6c0,2.67,1.85,4.82,4.14,4.82s4.13-2.15,4.13-4.82a5.58,5.58,0,0,0-.24-1.55,6.21,6.21,0,0,0,1.33,1.27,6.43,6.43,0,0,0,1.15.62c2,.84,4.11.52,5.13-.94,1.22-1.74.39-4.43-1.85-6a6,6,0,0,0-2.53-1,5.78,5.78,0,0,0,3-1.63c1.94-1.93,2.29-4.73.78-6.23s-4.29-1.16-6.23.78l-.06.06c0-.12,0-.24,0-.37,0-2.62-1.59-4.75-3.6-4.92a2,2,0,0,0-.26,0,3.25,3.25,0,0,0-2,.76,4.86,4.86,0,0,0-1.56,2.44,6,6,0,0,0-.27,1.76C724.67,24.05,724.7,24.25,724.72,24.46Zm9,6.55a5.24,5.24,0,1,1-5.24-5.24A5.24,5.24,0,0,1,733.77,31Z"/><circle class="cls-7" cx="728.53" cy="31.01" r="5.24"/><path class="cls-1" d="M760,82.54a6.77,6.77,0,0,0-9.51.82l-3.81,4.53.78,5.08-2,.31L745,89.92l-7.52,8.94,6.89,5-1.17,1.61-7-5.09-.87,1c.1-.48.19-1,.29-1.45l-2-1.45,1.18-1.62,1.24.9c.91-4.88,1.73-9.9,2.46-15a90.64,90.64,0,0,0-1.82-35.53L734.4,63.46l-3-.41,2.52-18.19,2.1.29q-.88-3.07-2-5.95a6.43,6.43,0,0,1-1.15-.62,6.21,6.21,0,0,1-1.33-1.27,5.58,5.58,0,0,1,.24,1.55c0,2.67-1.85,4.82-4.13,4.82s-4.14-2.15-4.14-4.82a5.82,5.82,0,0,1,0-.6c-2.08,1.59-4.76,1.63-6.08,0s-.74-4.39,1.37-6.13a5.92,5.92,0,0,1,2.47-1.23,6.16,6.16,0,0,1-2-.91c-2.24-1.57-3.07-4.26-1.85-6s4-1.89,6.28-.32a6.25,6.25,0,0,1,.86.75c0-.21-.05-.41-.05-.62a6,6,0,0,1,.27-1.76,49.11,49.11,0,0,0-6.89-7.56l-6.28,13.61L710,27.29l6.5-14.1a28.91,28.91,0,0,0-12.12-6L707.18,17l-1.92.56-3.1-10.74c-.62-.06-1.25-.09-1.87-.09a23.34,23.34,0,0,0-10.6,2.77l-2.16,9.19-1.95-.46,1.74-7.38a48,48,0,0,0-14.41,14.94L674.24,33l-2,.37-.92-5A78.36,78.36,0,0,0,662,56l4.59,5.56L665,62.86l-3.4-4.12a89.49,89.49,0,0,0,.29,22.49L667,83.52l-.83,1.82-3.9-1.76c.67,4.24,1.39,8.4,2.14,12.45.13.67.25,1.34.38,2,.25,1.27.5,2.53.75,3.77l-2.93-2.88L657,101.18l-.75-1.85L661,97.39l-4.77-4.7-3.67,2.37-1.08-1.67,3.29-2.13-7-6.93A6.75,6.75,0,0,0,638.29,94l28.09,27.64a6.72,6.72,0,0,0,4.57,1.92c.27.87.54,1.72.82,2.56h57.11c.17-.51.35-1,.52-1.54a6.74,6.74,0,0,0,6-2.33l16.69-19.84-5,.06,0-2,6.69-.08,7-8.3A6.76,6.76,0,0,0,760,82.54Zm-83.16.82,2,0-.2,16.06-2,0Zm-9.14,12,1,.18L667,105l-1-.18ZM664,113.1l1.6-1.19,7.06,9.52L671,122.62Zm13.63,5L676,111.72l1.94-.48,1.59,6.38Zm4.6-45.4-2,0,.19-16.06,2,0Zm50.87-3.36,1.59,6.38-1.95.49-1.59-6.39ZM721,77.46,728,87l-1.61,1.19-7-9.52ZM697.31,66.55c2.11.83,5.19-.33,7.37-1.7l2.12,3.4a16,16,0,0,1-7.88,2.58,8.3,8.3,0,0,1-3.08-.56c-1.68-.66-3.9-2.27-4.94-6.18l3.86-1C695.26,64.93,696.09,66.07,697.31,66.55Zm8.21,25.58-2.31,1.92L694,83,696.34,81ZM691.33,36.24c2.59,0,4.68,4,4.68,9s-2.09,9-4.68,9-4.69-4-4.69-9S688.74,36.24,691.33,36.24Zm-5.18,67.4L688.21,92l2,.34-2,11.67ZM690,123.21l-1.84-.77,4.75-11.35,1.84.77Zm11.19-5.33-1.07-1.69,7.51-4.73,1.06,1.69Zm3.94-72.68c0-5,2.1-9,4.68-9s4.69,4,4.69,9-2.1,9-4.69,9S705.11,50.15,705.11,45.2Zm4.79,37,3.64-9.7,1.87.71-3.64,9.69Zm4.67,38.28-2-.36,1.17-6.38,2,.36Zm17.72-6.36-8.42-6.11-.4.58-7.33-5,1.13-1.65,6.17,4.2.44-.6,9.58,7Z"/><polygon class="cls-5" points="723.88 105.58 723.44 106.18 717.27 101.98 716.14 103.63 723.47 108.63 723.87 108.05 732.29 114.17 733.46 112.55 723.88 105.58"/><polygon class="cls-5" points="733.57 98.52 735.57 99.97 736.15 100.39 743.16 105.48 744.33 103.87 737.44 98.86 735.99 97.8 734.75 96.9 733.57 98.52"/><polygon class="cls-5" points="747.45 92.97 746.67 87.89 746.1 84.21 744.12 84.51 744.96 89.92 745.48 93.28 747.45 92.97"/><polygon class="cls-5" points="747.16 102.43 752.13 102.37 759.01 102.29 758.98 100.29 753.83 100.35 747.14 100.43 747.16 102.43"/><path class="cls-8" d="M864.67,97.52q-.58-3-1.13-6.14l-3.48,5.36Z"/><path class="cls-8" d="M935.79,98.8l1.89-.94-1.3-2.21C936.19,96.7,936,97.75,935.79,98.8Z"/><path class="cls-1" d="M966.68,91.06a6.77,6.77,0,0,0-9-3.06l-5.31,2.62-1.31,5-1.94-.51.87-3.28L939.47,97l4.31,7.35-1.72,1-4.38-7.48-1.89.94c.2-1,.4-2.1.59-3.15,0-.27.09-.54.14-.8.7-3.95,1.35-8,1.93-12a90.64,90.64,0,0,0-1.82-35.53L934.4,63.46l-3-.41,2.52-18.19,2.1.29q-.88-3.07-2-5.95a6.43,6.43,0,0,1-1.15-.62,6.21,6.21,0,0,1-1.33-1.27,5.58,5.58,0,0,1,.24,1.55c0,2.67-1.85,4.82-4.13,4.82s-4.14-2.15-4.14-4.82a5.82,5.82,0,0,1,0-.6c-2.08,1.59-4.76,1.63-6.08,0s-.74-4.39,1.37-6.13a5.92,5.92,0,0,1,2.47-1.23,6.16,6.16,0,0,1-2-.91c-2.24-1.57-3.07-4.26-1.85-6s4-1.89,6.28-.32a6.25,6.25,0,0,1,.86.75c0-.21-.05-.41-.05-.62a6,6,0,0,1,.27-1.76,49.11,49.11,0,0,0-6.89-7.56l-6.28,13.61L910,27.29l6.5-14.1a28.91,28.91,0,0,0-12.12-6L907.18,17l-1.92.56-3.1-10.74c-.62-.06-1.25-.09-1.87-.09a23.34,23.34,0,0,0-10.6,2.77l-2.16,9.19-1.95-.46,1.74-7.38a48,48,0,0,0-14.41,14.94L874.24,33l-2,.37-.92-5A78.36,78.36,0,0,0,862,56l4.59,5.56L865,62.86l-3.4-4.12a89.49,89.49,0,0,0,.29,22.49L867,83.52l-.83,1.82-3.9-1.76c.31,2,.64,4,1,5.89l.33,1.91q.54,3.11,1.13,6.14l-4.61-.78-3.28,5-1.68-1.09,2.81-4.31-6.6-1.12-1.65,4-1.85-.75,1.48-3.63-9.73-1.66a6.75,6.75,0,1,0-2.27,13.31l30.44,5.19c.38,1.58.77,3.12,1.17,4.64l3.75,5.05L871,122.62l-.62-.83q.66,2.19,1.35,4.29h57.11q1.65-4.92,3.09-10.33l19.56-9.67L947,104.14l.78-1.84,6.17,2.61,9.72-4.81A6.78,6.78,0,0,0,966.68,91.06ZM880.41,56.62l2,0-.19,16.06-2,0Zm-3.58,26.74,2,0-.2,16.06-2,0ZM866,104.82l1.72-9.42,1,.18L867,105Zm11.65,13.29L876,111.72l1.94-.48,1.59,6.38Zm55.47-48.76,1.59,6.38-1.95.49-1.59-6.39ZM921,77.46,928,87l-1.61,1.19-7-9.52ZM897.31,66.55c2.11.83,5.19-.33,7.37-1.7l2.12,3.4a16,16,0,0,1-7.88,2.58,8.3,8.3,0,0,1-3.08-.56c-1.68-.66-3.9-2.27-4.94-6.18l3.86-1C895.26,64.93,896.09,66.07,897.31,66.55Zm8.21,25.58-2.31,1.92L894,83,896.34,81ZM891.33,36.24c2.59,0,4.68,4,4.68,9s-2.09,9-4.68,9-4.69-4-4.69-9S888.74,36.24,891.33,36.24Zm-5.18,67.4L888.21,92l2,.34-2,11.67ZM890,123.21l-1.84-.77,4.75-11.35,1.84.77Zm11.19-5.33-1.07-1.69,7.51-4.73,1.06,1.69Zm3.94-72.68c0-5,2.1-9,4.68-9s4.69,4,4.69,9-2.1,9-4.69,9S905.11,50.15,905.11,45.2Zm4.79,37,3.64-9.7,1.87.71-3.64,9.69Zm4.67,38.28-2-.36,1.17-6.38,2,.36Zm2.7-18.54,7.33,5-1.13,1.66-7.33-5Z"/><path class="cls-5" d="M937.68,97.86l4.38,7.48,1.72-1L939.47,97l-1.68-2.88-1.27.75c0,.26-.09.53-.14.8Z"/><polygon class="cls-5" points="951.01 95.59 952.32 90.62 953.27 87.02 951.34 86.51 949.94 91.8 949.07 95.08 951.01 95.59"/><polygon class="cls-5" points="946.95 104.14 951.53 106.08 957.86 108.76 958.64 106.92 953.9 104.91 947.73 102.3 946.95 104.14"/><path class="cls-5" d="M856.78,101.77l3.28-5,3.48-5.36-.33-1.91-.57-.37-4.73,7.27-2.81,4.31Z"/><polygon class="cls-5" points="849.66 99.28 851.31 95.25 852.14 93.19 850.29 92.44 849.29 94.9 847.81 98.53 849.66 99.28"/><polygon class="cls-2" points="869.17 137.38 873.62 195.53 926.85 195.53 932.47 137.38 869.17 137.38"/><polygon class="cls-3" points="859.65 126.08 862.26 137.38 869.17 137.38 932.47 137.38 936.79 137.38 939.83 126.08 928.88 126.08 871.77 126.08 859.65 126.08"/><path d="M890.9,64.09c1,3.91,3.26,5.52,4.94,6.18a8.3,8.3,0,0,0,3.08.56,16,16,0,0,0,7.88-2.58l-2.12-3.4c-2.18,1.37-5.26,2.53-7.37,1.7-1.22-.48-2-1.62-2.55-3.49Z"/><path d="M891.33,54.16c2.59,0,4.68-4,4.68-9s-2.09-9-4.68-9-4.69,4-4.69,9S888.74,54.16,891.33,54.16ZM887.2,42.72a1.87,1.87,0,1,1,1.86,2.07A2,2,0,0,1,887.2,42.72Z"/><path d="M914.48,45.2c0-5-2.1-9-4.69-9s-4.68,4-4.68,9,2.1,9,4.68,9S914.48,50.15,914.48,45.2Zm-7-.41a2.08,2.08,0,1,1,1.86-2.07A2,2,0,0,1,907.52,44.79Z"/><path class="cls-4" d="M890.92,42.72a1.87,1.87,0,1,0-1.86,2.07A2,2,0,0,0,890.92,42.72Z"/><path class="cls-4" d="M907.52,40.65a2.08,2.08,0,1,0,1.86,2.07A2,2,0,0,0,907.52,40.65Z"/><polygon class="cls-5" points="866.97 83.52 861.9 81.23 856.16 78.64 855.34 80.47 862.24 83.58 866.14 85.34 866.97 83.52"/><rect class="cls-5" x="882.24" y="96.97" width="11.85" height="2" transform="translate(637.45 955.63) rotate(-80)"/><rect class="cls-5" x="922.71" y="76.89" width="2" height="11.85" transform="translate(132.23 566.2) rotate(-36.54)"/><rect class="cls-5" x="910.92" y="116.15" width="6.49" height="2" transform="matrix(0.18, -0.98, 0.98, 0.18, 634.61, 995.38)"/><rect class="cls-5" x="876.79" y="111.38" width="2" height="6.58" transform="translate(-1.7 215.49) rotate(-13.98)"/><rect class="cls-5" x="931.91" y="69.49" width="2" height="6.58" transform="translate(10.05 227.52) rotate(-13.98)"/><rect class="cls-5" x="898.28" y="80.34" width="3" height="14.4" transform="translate(150.56 593.43) rotate(-39.59)"/><rect class="cls-5" x="862.54" y="99.7" width="9.57" height="1" transform="translate(613 935.43) rotate(-79.66)"/><rect class="cls-5" x="899.95" y="113.67" width="8.87" height="2" transform="translate(78.2 500.01) rotate(-32.23)"/><rect class="cls-5" x="919.37" y="100.86" width="2" height="8.87" transform="translate(314.79 806.33) rotate(-55.7)"/><polygon class="cls-5" points="866.55 61.59 861.96 56.03 857.38 50.49 855.84 51.76 861.61 58.74 865.01 62.86 866.55 61.59"/><polygon class="cls-5" points="874.24 32.98 872.91 25.82 871.61 18.82 869.65 19.19 871.35 28.38 872.27 33.35 874.24 32.98"/><polygon class="cls-5" points="887.53 18.72 889.69 9.53 890.82 4.7 888.88 4.24 887.32 10.88 885.58 18.26 887.53 18.72"/><polygon class="cls-5" points="907.18 17.03 904.34 7.17 903.76 5.18 901.84 5.73 902.16 6.85 905.26 17.59 907.18 17.03"/><polygon class="cls-5" points="911.77 28.13 918.05 14.52 918.74 13.04 916.92 12.2 916.47 13.19 909.96 27.29 911.77 28.13"/><path class="cls-5" d="M928.79,18.92l1-3.34L927.85,15l-1.35,4.62a3.25,3.25,0,0,1,2-.76A2,2,0,0,1,928.79,18.92Z"/><polygon class="cls-5" points="931.42 63.05 934.4 63.47 936.63 47.29 936.91 45.27 936.04 45.15 933.94 44.86 931.42 63.05"/><rect class="cls-5" x="873.28" y="63.67" width="16.06" height="2" transform="translate(805.89 945.12) rotate(-89.3)"/><rect class="cls-5" x="869.7" y="90.4" width="16.06" height="2" transform="translate(775.62 967.95) rotate(-89.3)"/><polygon class="cls-5" points="872.65 121.43 868.9 116.38 865.6 111.91 863.99 113.1 870.42 121.79 871.04 122.62 872.65 121.43"/><rect class="cls-5" x="907.48" y="76.74" width="10.36" height="2" transform="translate(518.46 904.54) rotate(-69.38)"/><rect class="cls-5" x="885.28" y="116.15" width="12.3" height="2" transform="translate(439.21 894.24) rotate(-67.29)"/><path class="cls-6" d="M924.72,24.46a6.25,6.25,0,0,0-.86-.75c-2.25-1.57-5.06-1.43-6.28.32s-.39,4.43,1.85,6a6.16,6.16,0,0,0,2,.91,5.92,5.92,0,0,0-2.47,1.23c-2.11,1.74-2.72,4.49-1.37,6.13s4,1.55,6.08,0a5.82,5.82,0,0,0,0,.6c0,2.67,1.85,4.82,4.14,4.82s4.13-2.15,4.13-4.82a5.58,5.58,0,0,0-.24-1.55,6.21,6.21,0,0,0,1.33,1.27,6.43,6.43,0,0,0,1.15.62c2,.84,4.11.52,5.13-.94,1.22-1.74.39-4.43-1.85-6a6,6,0,0,0-2.53-1,5.78,5.78,0,0,0,3-1.63c1.94-1.93,2.29-4.73.78-6.23s-4.29-1.16-6.23.78l-.06.06c0-.12,0-.24,0-.37,0-2.62-1.59-4.75-3.6-4.92a2,2,0,0,0-.26,0,3.25,3.25,0,0,0-2,.76,4.86,4.86,0,0,0-1.56,2.44,6,6,0,0,0-.27,1.76C924.67,24.05,924.7,24.25,924.72,24.46Zm9,6.55a5.24,5.24,0,1,1-5.24-5.24A5.24,5.24,0,0,1,933.77,31Z"/><circle class="cls-7" cx="928.53" cy="31.01" r="5.24"/><path class="cls-1" d="M1162.52,98.52l-5.88-.69-3.81,3.46-1.34-1.49,2.51-2.28-11.59-1.36-.39,8.52-2-.1.39-8.65-4.28-.5q1.13-6.2,2-12.61a90.64,90.64,0,0,0-1.82-35.53l-2.24,16.17-3-.41,2.51-18.19,2.1.29q-.87-3.07-2-5.95a6.43,6.43,0,0,1-1.15-.62,6.21,6.21,0,0,1-1.33-1.27,5.58,5.58,0,0,1,.24,1.55c0,2.67-1.85,4.82-4.14,4.82s-4.13-2.15-4.13-4.82a5.82,5.82,0,0,1,0-.6c-2.08,1.59-4.76,1.63-6.08,0s-.74-4.39,1.37-6.13a5.92,5.92,0,0,1,2.47-1.23,6.06,6.06,0,0,1-1.95-.91c-2.25-1.57-3.07-4.26-1.85-6s4-1.89,6.28-.32a6.25,6.25,0,0,1,.86.75c0-.21,0-.41,0-.62a6,6,0,0,1,.27-1.76,49.62,49.62,0,0,0-6.89-7.56l-6.28,13.61-1.82-.84,6.51-14.1a29.11,29.11,0,0,0-12.12-6L1106.9,17l-1.92.56-3.1-10.74c-.63-.06-1.25-.09-1.88-.09a23.33,23.33,0,0,0-10.59,2.77l-2.16,9.19-2-.46,1.73-7.38a48,48,0,0,0-14.4,14.94L1074,33l-2,.37-.92-5A78.16,78.16,0,0,0,1061.68,56l4.59,5.56-1.54,1.27-3.4-4.12a89,89,0,0,0,.29,22.49l5.06,2.29-.82,1.82-3.9-1.76c.53,3.39,1.1,6.72,1.69,10l-7.54,3-.2,6-2-.07.17-5.14-6.23,2.45.67,4.31-2,.31-.61-3.87-9.18,3.6a6.75,6.75,0,1,0,4.93,12.57l24.66-9.67c.72,3.22,1.47,6.35,2.27,9.36l3.75,5.05-1.61,1.19-.62-.83q.66,2.19,1.35,4.29h57.11c1.8-5.37,3.41-11.21,4.83-17.37l14.13,1.65-2.79-4.11,1.66-1.12,3.75,5.54,10.77,1.26a6.76,6.76,0,0,0,7.49-5.92h0A6.77,6.77,0,0,0,1162.52,98.52Zm-82.39-41.9,2,0-.2,16.06-2,0Zm-1.59,26.76-.19,16.06-2,0,.19-16.06Zm-12.85,21.44,1.72-9.42,1,.18-1.72,9.42Zm11.65,13.29-1.59-6.39,1.94-.48,1.59,6.38Zm55.46-48.76,1.59,6.38-1.94.49-1.59-6.39Zm-4,31-2-.09.54-11.84,2,.09Zm-8.09-22.92,7.06,9.52-1.61,1.19-7.05-9.52ZM1097,66.55c2.1.83,5.19-.33,7.37-1.7l2.12,3.4a16,16,0,0,1-7.88,2.58,8.3,8.3,0,0,1-3.08-.56c-1.68-.66-3.9-2.27-4.94-6.18l3.86-1C1095,64.93,1095.81,66.07,1097,66.55Zm8.21,25.58-2.31,1.92L1093.75,83l2.31-1.92Zm-14.19-55.89c2.58,0,4.68,4,4.68,9s-2.1,9-4.68,9-4.69-4-4.69-9S1088.46,36.24,1091.05,36.24Zm-5.18,67.4L1087.92,92l2,.34L1087.83,104Zm3.83,19.57-1.84-.77,4.74-11.35,1.85.77Zm11.19-5.33-1.07-1.69,7.5-4.73,1.07,1.69Zm3.94-72.68c0-5,2.09-9,4.68-9s4.69,4,4.69,9-2.1,9-4.69,9S1104.83,50.15,1104.83,45.2Zm4.78,37,3.65-9.7,1.87.71-3.65,9.69Zm4.68,38.28-2-.36,1.17-6.38,2,.36Zm8.9-11.89-7.33-5L1117,102l7.33,5Z"/><polygon class="cls-5" points="1055.91 102.53 1056.11 96.53 1056.38 88.72 1054.38 88.65 1054.09 97.32 1053.91 102.46 1055.91 102.53"/><polygon class="cls-5" points="1048.52 104.08 1047.85 99.77 1047.51 97.58 1045.53 97.89 1045.94 100.52 1046.55 104.39 1048.52 104.08"/><polygon class="cls-2" points="1068.89 137.38 1073.34 195.53 1126.57 195.53 1132.19 137.38 1068.89 137.38"/><polygon class="cls-3" points="1059.37 126.08 1061.98 137.38 1068.89 137.38 1132.19 137.38 1136.51 137.38 1139.55 126.08 1128.6 126.08 1071.49 126.08 1059.37 126.08"/><path d="M1090.62,64.09c1,3.91,3.26,5.52,4.94,6.18a8.3,8.3,0,0,0,3.08.56,16,16,0,0,0,7.88-2.58l-2.12-3.4c-2.18,1.37-5.27,2.53-7.37,1.7-1.22-.48-2-1.62-2.55-3.49Z"/><path d="M1091.05,54.16c2.58,0,4.68-4,4.68-9s-2.1-9-4.68-9-4.69,4-4.69,9S1088.46,54.16,1091.05,54.16Zm-4.14-11.44a1.87,1.87,0,1,1,1.86,2.07A2,2,0,0,1,1086.91,42.72Z"/><path d="M1114.2,45.2c0-5-2.1-9-4.69-9s-4.68,4-4.68,9,2.09,9,4.68,9S1114.2,50.15,1114.2,45.2Zm-7-.41a2.08,2.08,0,1,1,1.86-2.07A2,2,0,0,1,1107.24,44.79Z"/><path class="cls-4" d="M1090.63,42.72a1.87,1.87,0,1,0-1.86,2.07A2,2,0,0,0,1090.63,42.72Z"/><path class="cls-4" d="M1107.24,40.65a2.08,2.08,0,1,0,1.86,2.07A2,2,0,0,0,1107.24,40.65Z"/><polygon class="cls-5" points="1066.68 83.52 1061.62 81.23 1055.88 78.64 1055.06 80.47 1061.96 83.58 1065.86 85.34 1066.68 83.52"/><rect class="cls-5" x="1081.95" y="96.97" width="11.85" height="2" transform="translate(802.58 1152.34) rotate(-80.01)"/><rect class="cls-5" x="1122.43" y="76.89" width="2" height="11.85" transform="translate(171.48 685.1) rotate(-36.54)"/><rect class="cls-5" x="1110.64" y="116.15" width="6.49" height="2" transform="matrix(0.18, -0.98, 0.98, 0.18, 798.43, 1191.84)"/><rect class="cls-5" x="1076.51" y="111.38" width="2" height="6.58" transform="translate(4.21 263.7) rotate(-13.98)"/><rect class="cls-5" x="1131.63" y="69.49" width="2" height="6.58" transform="translate(15.96 275.77) rotate(-13.98)"/><rect class="cls-5" x="1097.99" y="80.34" width="3" height="14.4" transform="translate(196.36 720.7) rotate(-39.59)"/><rect class="cls-5" x="1062.25" y="99.7" width="9.57" height="1" transform="translate(776.85 1131.9) rotate(-79.66)"/><rect class="cls-5" x="1099.67" y="113.67" width="8.87" height="2" transform="translate(108.98 606.52) rotate(-32.23)"/><rect class="cls-5" x="1119.09" y="100.86" width="2" height="8.87" transform="translate(401.97 971.32) rotate(-55.7)"/><polygon class="cls-5" points="1066.27 61.59 1061.68 56.03 1057.1 50.49 1055.55 51.76 1061.33 58.74 1064.73 62.86 1066.27 61.59"/><polygon class="cls-5" points="1073.96 32.98 1072.63 25.82 1071.33 18.82 1069.36 19.19 1071.07 28.38 1071.99 33.35 1073.96 32.98"/><polygon class="cls-5" points="1087.24 18.72 1089.41 9.53 1090.54 4.7 1088.59 4.24 1087.03 10.88 1085.3 18.26 1087.24 18.72"/><polygon class="cls-5" points="1106.9 17.03 1104.06 7.17 1103.48 5.18 1101.56 5.73 1101.88 6.85 1104.98 17.59 1106.9 17.03"/><polygon class="cls-5" points="1111.49 28.13 1117.77 14.52 1118.46 13.04 1116.64 12.2 1116.18 13.19 1109.67 27.29 1111.49 28.13"/><path class="cls-5" d="M1128.51,18.92l1-3.34-1.92-.56-1.35,4.62a3.25,3.25,0,0,1,2-.76A2.34,2.34,0,0,1,1128.51,18.92Z"/><polygon class="cls-5" points="1131.14 63.05 1134.11 63.47 1136.35 47.29 1136.63 45.27 1135.76 45.15 1133.65 44.86 1131.14 63.05"/><rect class="cls-5" x="1073" y="63.67" width="16.06" height="2" transform="translate(1003.17 1144.83) rotate(-89.3)"/><rect class="cls-5" x="1069.42" y="90.4" width="16.06" height="2" transform="translate(972.9 1167.65) rotate(-89.3)"/><polygon class="cls-5" points="1072.37 121.43 1068.62 116.38 1065.31 111.91 1063.7 113.1 1070.14 121.79 1070.76 122.62 1072.37 121.43"/><rect class="cls-5" x="1107.19" y="76.74" width="10.36" height="2" transform="translate(647.84 1091.46) rotate(-69.38)"/><rect class="cls-5" x="1085" y="116.15" width="12.3" height="2" transform="translate(561.82 1078.48) rotate(-67.29)"/><path class="cls-6" d="M1124.44,24.46a6.25,6.25,0,0,0-.86-.75c-2.25-1.57-5.06-1.43-6.28.32s-.4,4.43,1.85,6a6.06,6.06,0,0,0,1.95.91,5.92,5.92,0,0,0-2.47,1.23c-2.11,1.74-2.73,4.49-1.37,6.13s4,1.55,6.08,0a5.82,5.82,0,0,0,0,.6c0,2.67,1.85,4.82,4.13,4.82s4.14-2.15,4.14-4.82a5.58,5.58,0,0,0-.24-1.55,6.21,6.21,0,0,0,1.33,1.27,6.43,6.43,0,0,0,1.15.62c2,.84,4.11.52,5.13-.94,1.22-1.74.39-4.43-1.85-6a6,6,0,0,0-2.53-1,5.78,5.78,0,0,0,3-1.63c1.94-1.93,2.29-4.73.78-6.23s-4.3-1.16-6.23.78l-.06.06c0-.12,0-.24,0-.37,0-2.62-1.59-4.75-3.6-4.92a2.34,2.34,0,0,0-.26,0,3.25,3.25,0,0,0-2,.76,4.86,4.86,0,0,0-1.56,2.44,6,6,0,0,0-.27,1.76C1124.39,24.05,1124.42,24.25,1124.44,24.46Zm9,6.55a5.24,5.24,0,1,1-5.24-5.24A5.24,5.24,0,0,1,1133.49,31Z"/><circle class="cls-7" cx="1128.25" cy="31.01" r="5.24"/><rect class="cls-5" x="1122.13" y="93.41" width="11.85" height="2" transform="translate(982.52 1217.02) rotate(-87.4)"/><polygon class="cls-5" points="1142.02 104.68 1142.41 96.17 1142.56 92.84 1140.56 92.75 1140.41 95.93 1140.02 104.58 1142.02 104.68"/><polygon class="cls-5" points="1152.83 101.29 1156.64 97.83 1159.4 95.33 1158.06 93.84 1154 97.52 1151.49 99.8 1152.83 101.29"/><polygon class="cls-5" points="1144.77 106.25 1147.56 110.36 1151.41 116.06 1153.07 114.94 1150.18 110.67 1146.43 105.13 1144.77 106.25"/><polygon class="cls-2" points="1272.95 195.53 1326.18 195.53 1331.8 137.38 1268.5 137.38 1272.95 195.53"/><polygon class="cls-3" points="1258.98 126.08 1261.59 137.38 1268.5 137.38 1331.8 137.38 1336.12 137.38 1339.16 126.08 1328.21 126.08 1271.1 126.08 1258.98 126.08"/><path d="M1290.23,64.09c1,3.91,3.26,5.52,4.94,6.18a8.3,8.3,0,0,0,3.08.56,16,16,0,0,0,7.88-2.58l-2.12-3.4c-2.18,1.37-5.26,2.53-7.37,1.7-1.22-.48-2.05-1.62-2.55-3.49Z"/><path d="M1290.66,54.16c2.59,0,4.68-4,4.68-9s-2.09-9-4.68-9-4.69,4-4.69,9S1288.07,54.16,1290.66,54.16Zm-4.13-11.44a1.87,1.87,0,1,1,1.86,2.07A2,2,0,0,1,1286.53,42.72Z"/><path d="M1313.81,45.2c0-5-2.1-9-4.69-9s-4.68,4-4.68,9,2.1,9,4.68,9S1313.81,50.15,1313.81,45.2Zm-7-.41a2.08,2.08,0,1,1,1.86-2.07A2,2,0,0,1,1306.85,44.79Z"/><path class="cls-4" d="M1290.25,42.72a1.87,1.87,0,1,0-1.86,2.07A2,2,0,0,0,1290.25,42.72Z"/><path class="cls-4" d="M1306.85,40.65a2.08,2.08,0,1,0,1.86,2.07A2,2,0,0,0,1306.85,40.65Z"/><polygon class="cls-5" points="1266.3 83.52 1261.23 81.23 1255.49 78.64 1254.67 80.47 1261.57 83.58 1265.47 85.34 1266.3 83.52"/><rect class="cls-5" x="1281.56" y="96.97" width="11.85" height="2" transform="translate(967.44 1348.89) rotate(-80)"/><path class="cls-5" d="M1318.71,78.65l4.23,5.72.13-.14a6.56,6.56,0,0,1,1.45-1.09l-4.2-5.68Z"/><rect class="cls-5" x="1310.25" y="116.15" width="6.49" height="2" transform="matrix(0.18, -0.98, 0.98, 0.18, 962.16, 1388.2)"/><rect class="cls-5" x="1276.12" y="111.38" width="2" height="6.58" transform="translate(10.1 311.74) rotate(-13.97)"/><rect class="cls-5" x="1331.24" y="69.49" width="2" height="6.58" transform="translate(21.84 323.8) rotate(-13.97)"/><rect class="cls-5" x="1297.61" y="80.34" width="3" height="14.4" transform="translate(242.13 847.9) rotate(-39.59)"/><polygon class="cls-5" points="1268 95.58 1267.02 95.4 1265.38 104.37 1265.3 104.82 1265.48 104.86 1266.29 105 1268 95.58"/><rect class="cls-5" x="1299.28" y="113.67" width="8.87" height="2" transform="translate(139.74 712.98) rotate(-32.23)"/><rect class="cls-5" x="1318.7" y="100.86" width="2" height="8.87" transform="matrix(0.56, -0.83, 0.83, 0.56, 489.25, 1136.35)"/><polygon class="cls-5" points="1265.88 61.59 1261.29 56.03 1256.71 50.49 1255.16 51.76 1260.94 58.74 1264.34 62.86 1265.88 61.59"/><polygon class="cls-5" points="1273.57 32.98 1272.24 25.82 1270.94 18.82 1268.97 19.19 1270.68 28.38 1271.6 33.35 1273.57 32.98"/><polygon class="cls-5" points="1286.86 18.72 1289.02 9.53 1290.15 4.7 1288.21 4.24 1286.64 10.88 1284.91 18.26 1286.86 18.72"/><polygon class="cls-5" points="1306.51 17.03 1303.67 7.17 1303.09 5.18 1301.17 5.73 1301.49 6.85 1304.59 17.59 1306.51 17.03"/><polygon class="cls-5" points="1311.1 28.13 1317.38 14.52 1318.07 13.04 1316.25 12.2 1315.79 13.19 1309.28 27.29 1311.1 28.13"/><path class="cls-5" d="M1328.12,18.92l1-3.34-1.92-.56-1.35,4.62a3.25,3.25,0,0,1,2-.76A2,2,0,0,1,1328.12,18.92Z"/><polygon class="cls-5" points="1330.75 63.05 1333.73 63.47 1335.96 47.29 1336.24 45.27 1335.37 45.15 1333.27 44.86 1330.75 63.05"/><rect class="cls-5" x="1272.61" y="63.67" width="16.06" height="2" transform="translate(1200.35 1344.42) rotate(-89.3)"/><rect class="cls-5" x="1269.03" y="90.4" width="16.06" height="2" transform="translate(1170.08 1367.25) rotate(-89.3)"/><polygon class="cls-5" points="1271.98 121.43 1268.23 116.38 1264.92 111.91 1263.32 113.1 1269.75 121.79 1270.37 122.62 1271.98 121.43"/><rect class="cls-5" x="1306.81" y="76.74" width="10.36" height="2" transform="translate(777.26 1278.33) rotate(-69.38)"/><rect class="cls-5" x="1284.61" y="116.15" width="12.3" height="2" transform="translate(684.37 1262.61) rotate(-67.29)"/><path class="cls-6" d="M1324.05,24.46a6.25,6.25,0,0,0-.86-.75c-2.25-1.57-5.06-1.43-6.28.32s-.39,4.43,1.85,6a6.06,6.06,0,0,0,2,.91,5.92,5.92,0,0,0-2.47,1.23c-2.11,1.74-2.72,4.49-1.37,6.13s4,1.55,6.08,0a5.82,5.82,0,0,0,0,.6c0,2.67,1.85,4.82,4.14,4.82s4.13-2.15,4.13-4.82a5.58,5.58,0,0,0-.24-1.55,6.21,6.21,0,0,0,1.33,1.27,6.43,6.43,0,0,0,1.15.62c2,.84,4.11.52,5.13-.94,1.22-1.74.39-4.43-1.85-6a6,6,0,0,0-2.53-1,5.78,5.78,0,0,0,3-1.63c1.94-1.93,2.29-4.73.78-6.23s-4.29-1.16-6.23.78l-.06.06c0-.12,0-.24,0-.37,0-2.62-1.59-4.75-3.6-4.92a2,2,0,0,0-.26,0,3.25,3.25,0,0,0-2,.76,4.86,4.86,0,0,0-1.56,2.44,6,6,0,0,0-.27,1.76C1324,24.05,1324,24.25,1324.05,24.46Zm3.81,1.31a5.24,5.24,0,1,1-5.23,5.24A5.25,5.25,0,0,1,1327.86,25.77Z"/><circle class="cls-7" cx="1327.86" cy="31.01" r="5.24"/><path class="cls-1" d="M1360.49,112.09l-4.19-4.19-5.13.35-.14-2,3.39-.23-8.26-8.26-5.58,6.44-1.51-1.31,5.68-6.55-7.83-7.83c0-.23.07-.45.1-.68l-4.15,4.79-1.51-1.31,6.23-7.18c.06-.44.13-.88.19-1.32A90.64,90.64,0,0,0,1336,47.29l-2.23,16.17-3-.41,2.52-18.19,2.1.29q-.88-3.07-2-5.95a6.43,6.43,0,0,1-1.15-.62,6.21,6.21,0,0,1-1.33-1.27,5.58,5.58,0,0,1,.24,1.55c0,2.67-1.85,4.82-4.13,4.82s-4.14-2.15-4.14-4.82a5.82,5.82,0,0,1,0-.6c-2.08,1.59-4.76,1.63-6.08,0s-.74-4.39,1.37-6.13a5.92,5.92,0,0,1,2.47-1.23,6.06,6.06,0,0,1-2-.91c-2.24-1.57-3.07-4.26-1.85-6s4-1.89,6.28-.32a6.25,6.25,0,0,1,.86.75c0-.21,0-.41,0-.62a6,6,0,0,1,.27-1.76,49.11,49.11,0,0,0-6.89-7.56l-6.28,13.61-1.82-.84,6.51-14.1a28.91,28.91,0,0,0-12.12-6l2.84,9.85-1.92.56-3.1-10.74c-.62-.06-1.25-.09-1.87-.09A23.34,23.34,0,0,0,1289,9.53l-2.16,9.19-1.95-.46,1.73-7.38a48.07,48.07,0,0,0-14.4,14.94l1.33,7.16-2,.37-.92-5A78.36,78.36,0,0,0,1261.29,56l4.59,5.56-1.54,1.27-3.4-4.12a89.49,89.49,0,0,0,.29,22.49l5.06,2.29-.82,1.82-3.9-1.76c.19,1.2.38,2.4.58,3.58L1252.79,98l2.6,5.41-1.8.86-2.23-4.63-4.39,5.06,2.6,3.51-1.61,1.19-2.33-3.15-6.46,7.46a6.75,6.75,0,1,0,10.2,8.84l16-18.41c0,.09,0,.18.05.26l1.64-9,1,.18-1.71,9.42-.81-.14c.86,4,1.78,7.84,2.75,11.52l3.75,5.05-1.61,1.19-.62-.83q.66,2.19,1.35,4.29h57.11a194.64,194.64,0,0,0,5.73-21.43l7.46,7.46.37-5,2,.15-.49,6.67,7.67,7.67a6.75,6.75,0,1,0,9.55-9.55Zm-84.33-28.73,2,0-.2,16.06-2,0Zm.79,34.74-1.59-6.38,1.94-.48,1.59,6.38Zm4.59-45.39-2,0,.2-16.06,2,0Zm15.1-6.16c2.11.83,5.19-.33,7.37-1.7l2.12,3.4a16,16,0,0,1-7.88,2.58,8.3,8.3,0,0,1-3.08-.56c-1.68-.66-3.9-2.27-4.94-6.18l3.86-1C1294.59,64.93,1295.42,66.07,1296.64,66.55Zm8.21,25.58-2.31,1.92L1293.36,83l2.31-1.92Zm-14.19-55.89c2.59,0,4.68,4,4.68,9s-2.09,9-4.68,9-4.69-4-4.69-9S1288.07,36.24,1290.66,36.24Zm-5.18,67.4,2-11.67,2,.34-2,11.67Zm3.83,19.57-1.84-.77,4.75-11.35,1.84.77Zm11.19-5.33-1.07-1.69,7.51-4.73,1.06,1.69Zm3.94-72.68c0-5,2.1-9,4.68-9s4.69,4,4.69,9-2.1,9-4.69,9S1304.44,50.15,1304.44,45.2Zm4.79,37,3.64-9.7,1.87.71-3.64,9.69Zm4.67,38.28-2-.36,1.17-6.38,2,.36Zm8.9-11.89-7.33-5,1.13-1.65,7.33,5Zm.27-24.4-.13.14-4.23-5.72,1.61-1.19,4.2,5.68A6.56,6.56,0,0,0,1323.07,84.23Zm9.35-14.88,1.58,6.38-1.94.49-1.59-6.39Z"/><polygon class="cls-5" points="1332.87 92.63 1337.02 87.84 1340.63 83.68 1339.12 82.37 1337.59 84.14 1331.36 91.32 1332.87 92.63"/><polygon class="cls-5" points="1340.58 104.21 1346.16 97.77 1348.35 95.25 1346.83 93.94 1344.75 96.35 1339.07 102.9 1340.58 104.21"/><polygon class="cls-5" points="1351.17 108.25 1356.3 107.91 1360.02 107.65 1359.88 105.66 1354.42 106.03 1351.03 106.26 1351.17 108.25"/><polygon class="cls-5" points="1341.77 107.15 1341.4 112.11 1340.9 118.97 1342.89 119.11 1343.27 113.97 1343.76 107.3 1341.77 107.15"/><polygon class="cls-5" points="1255.39 103.38 1252.79 97.97 1249.4 90.93 1247.6 91.79 1251.36 99.61 1253.59 104.24 1255.39 103.38"/><polygon class="cls-5" points="1249.57 108.18 1246.97 104.67 1245.65 102.89 1244.05 104.08 1245.63 106.22 1247.96 109.37 1249.57 108.18"/></svg>
