<?xml version="1.0" encoding="utf-8"?>
<!-- Generator: Adobe Illustrator 23.0.1, SVG Export Plug-In . SVG Version: 6.00 Build 0)  -->
<svg version="1.1" id="Layer_1" xmlns="http://www.w3.org/2000/svg" xmlns:xlink="http://www.w3.org/1999/xlink" x="0px" y="0px"
	 viewBox="0 0 4801.8 2427.9" style="enable-background:new 0 0 4801.8 2427.9;" xml:space="preserve">
<style type="text/css">
	.st0{fill:none;stroke:#000000;stroke-width:16;stroke-miterlimit:10;}
	.st1{fill:#FFFFFF;}
</style>
<title>velkommen</title>
<path class="st0" d="M1267.5,1611.3C1203,1556,1146,1494,1099,1423.8"/>
<path class="st0" d="M2292,177c185,0,370,21,549,79c3,1,7,1,10,2c58,20,113,40,168,66c30,15,59,29,89,45c13,7,25,14,38,21
	c97,57,181,121,257,204c2,2,2,5,4,7c48,52,89,106,119,170c1,3,4,5,5,7c78,153,94,334,31,494c-2,4-4,9-5,13c-2,5-4,10-6,15
	c0,1-2,2-2,3c-1,4-2,7-3,11c-4,9-8,16-12,25c-9,18-18,34-28,52c-9,15-16,28-27,43c-15,22-28,43-47,63c-4,4-9,8-13,12
	c-14,15-25,30-39,45c-28,28-54,53-86,77c-3,3-7,6-10,9c-10,8-19,14-29,22c-4,2-8,5-12,7c-10,9-21,15-31,23c-2,1-3,1-5,2
	c-7,5-13,10-20,14c-27,15-50,30-77,45c-12,6-23,12-34,18c-37,17-72,36-111,49c-4,1-7,5-11,6c-19,6-37,15-56,21c-23,7-43,17-67,21
	c-5,1-8,4-12,5c-25,7-49,14-75,19c-6,1-11,3-16,4c-30,8-57,12-87,19c-29,6-56,10-85,14c-164,23-325,23-486,6c-188-25-375-66-547-156
	c-15-8-29-15-44-25c-19-12-38-21-58-31c-9-5-16-11-25-17c-8-4-14-9-22-14c-3-1-5-3-8-4c-1-1-2-2-3-2.8"/>
<path class="st1" d="M1628.4,299.3C1823,221.6,2049.8,177,2292,177"/>
<path class="st0" d="M1628.4,299.3C1823,221.6,2049.8,177,2292,177"/>
<path class="st1" d="M1099,1423.8c-73.3-110.6-114-233-114-362c0-324.7,258.4-608.5,643.5-762.4"/>
<path class="st0" d="M1099,1423.8c-73.3-110.6-114-233-114-362c0-324.7,258.4-608.5,643.5-762.4"/>
<path d="M1541.1,860.7c1.3,2.3,3.8,7.5,7.5,15.7l45,101.1h11.9l40.1-93.6c6.1-14.4,10.6-23,13.4-25.9c3.3-3,7.8-4.6,12.3-4.3V843
	h-46.4v10.8c9.8,0,14.7,3,14.7,9c-0.2,3.9-1.2,7.7-2.8,11.2l-25.4,59.9l-27-59.8c-2.8-6.1-4.2-10.5-4.2-13.1c0-4.8,4.9-7.2,14.7-7.2
	V843h-70.1v10.8c3.7-0.2,7.4,0.4,10.9,1.7C1538,856.7,1539.8,858.5,1541.1,860.7z"/>
<path d="M1655.6,934.6c0,13.3,4.6,23.8,13.7,31.7c9.2,7.8,20.9,12,33,11.7c7.9,0.1,15.8-1.7,22.9-5.2c6.3-3,11.8-7.5,15.9-13.2
	l-9-5.4c-6.4,7.8-13.5,11.7-21.1,11.7c-6.4,0.3-12.5-2.7-16.1-8c-3.6-5.4-5.4-13.3-5.4-23.8h54.3c0-14.1-4-24.7-12.1-31.6
	c-8-7-18.3-10.5-30.8-10.5c-11.7-0.3-23.1,3.8-31.9,11.4C1660.1,910.9,1655.6,921.3,1655.6,934.6z M1692.3,908.1
	c1.7-3.4,5.2-5.5,9-5.3c8,0,12.1,7.2,12.5,21.5h-24.6C1689.3,917,1690.3,911.6,1692.3,908.1z"/>
<path d="M1811.7,964.4c-5.9,0-9.6-0.9-11.2-2.7c-1.6-1.8-2.3-5.2-2.3-10.2V840.6l-45.7,7.1v10.4c6.2,0,10.1,0.9,11.7,2.6
	c1.7,1.7,2.5,5.1,2.5,10.3v80.6c0,6.2-1.1,9.8-3.2,11.1c-2.1,1.2-5.8,1.8-11,1.8v10.3h59.2L1811.7,964.4z"/>
<path d="M1871.4,964.4c-4.3-0.2-7.2-1.2-8.5-3.2c-1.4-1.9-2-5.2-2-9.8v-8.4l8.3-6l13.2,17.8c2.2,3,3.3,4.9,3.3,5.9
	c0,2.4-2,3.6-6.2,3.6v10.3h51.3v-10.3c-2.9-0.2-5.6-1.4-7.5-3.5c-4.1-4.1-7.8-8.6-11.1-13.3l-20.2-27.1l7.6-5.3
	c9-6.5,17.1-9.7,24.3-9.7v-10.3h-44.2v10.3c3.9,0,6.2,0.3,6.9,0.9c0.7,0.5,1.1,1.4,1.1,2.3c0,1.5-2,3.8-6,6.7l-20.7,14.9v-89.6
	l-44.8,6.9v10.3c5.8,0,9.5,0.9,11.1,2.8c1.6,1.8,2.4,5.2,2.4,10.2v80.8c0,5.1-0.8,8.5-2.5,10.3c-1.6,1.7-5.3,2.6-10.9,2.6v10.3h55.4
	L1871.4,964.4z"/>
<path d="M1949.2,966.8c9.8,7.5,21.9,11.4,34.2,11.1c12.6,0.3,24.8-3.8,34.6-11.7c9.5-7.8,14.3-18.3,14.3-31.5
	c0-13.8-4.9-24.5-14.6-31.8c-9.8-7.4-21.9-11.3-34.2-11c-12.4-0.3-24.6,3.7-34.3,11.4c-9.5,7.6-14.2,18.1-14.2,31.4
	C1934.9,948.7,1939.7,959.4,1949.2,966.8z M1972.7,908.5c2.5-3.5,6.5-5.6,10.8-5.6c4.8-0.3,9.4,2.3,11.7,6.6
	c2.5,4.4,3.7,12.7,3.7,25c0,13.5-1.4,22.4-4.1,26.5c-2.3,3.9-6.5,6.3-11,6.2c-5.2,0.4-10-2.6-12.1-7.4c-2.3-5-3.5-13.7-3.5-26.1
	C1968.3,920.6,1969.8,912.2,1972.7,908.5z"/>
<path d="M2100.5,964.4c-5,0-8.3-0.9-9.8-2.7c-1.6-1.8-2.3-5.1-2.3-10.1V921c2.8-3.9,6.2-7.2,10.2-9.9c3.1-2.1,6.7-3.2,10.4-3.3
	c3.5-0.2,6.9,1.3,9,4c2,2.7,3,6.7,3,12.1v27.7c0,4.8-0.7,8.1-2.2,9.9c-1.5,1.8-4.6,2.8-9.4,2.8v10.3h55.3v-10.3
	c-5,0-8.3-0.9-9.8-2.8c-1.6-1.8-2.3-5.2-2.3-10.1V921c2.4-4,5.6-7.5,9.4-10.2c3.2-2.2,6.9-3.4,10.8-3.4c3.5-0.3,6.9,1.2,9.1,4
	c2,2.7,3,6.8,3,12.2v27.9c0,4.7-0.7,8.1-2.2,9.9c-1.4,1.9-4.7,2.8-9.7,2.8v10.3h57.6v-10.3c-6.2,0-10.1-0.8-11.7-2.6
	c-1.6-1.7-2.5-5.1-2.5-10.1V926c0.1-4.6-0.3-9.2-1.2-13.7c-1-3.4-2.6-6.7-4.9-9.4c-2.9-3.5-6.6-6.2-10.8-7.9
	c-5-2.1-10.3-3.2-15.7-3.2c-13.2-0.4-25.7,6-33.1,17c-1.9-5.3-5.5-9.9-10.4-12.8c-5.6-3-11.9-4.5-18.2-4.2
	c-6.4-0.1-12.7,1.2-18.5,3.7c-5.8,2.6-10.9,6.4-15,11.2c0.2-4.3-0.4-8.5-1.6-12.6l-43,7.1v10.3c5.8,0,9.4,0.9,11,2.8
	c1.6,1.8,2.3,5.2,2.3,10.2v27.2c0,4.7-0.7,8-2.1,9.9c-1.4,1.8-4.9,2.9-10.5,2.9h-2.5v10.3h58.6L2100.5,964.4z"/>
<path d="M2309.5,961.6c-1.5,1.8-4.6,2.8-9.4,2.8v10.3h55.3v-10.3c-5,0-8.3-0.9-9.8-2.8c-1.6-1.8-2.3-5.2-2.3-10.1V921
	c2.4-4,5.6-7.5,9.4-10.2c3.2-2.2,6.9-3.4,10.8-3.4c3.5-0.3,6.9,1.2,9.1,4c2,2.7,3,6.8,3,12.2v27.9c0,4.7-0.7,8.1-2.2,9.9
	c-1.4,1.9-4.7,2.8-9.7,2.8v10.3h57.6v-10.3c-6.2,0-10.1-0.8-11.7-2.6c-1.6-1.7-2.5-5.1-2.5-10.1V926c0.1-4.6-0.3-9.2-1.2-13.7
	c-1-3.4-2.6-6.7-4.9-9.4c-2.9-3.5-6.6-6.2-10.8-7.9c-5-2.1-10.3-3.2-15.7-3.2c-13.2-0.4-25.7,6-33.1,17c-1.9-5.3-5.5-9.9-10.4-12.8
	c-5.6-3-11.9-4.5-18.2-4.2c-6.4-0.1-12.7,1.2-18.5,3.7c-5.8,2.6-10.9,6.4-15,11.2c0.2-4.3-0.4-8.5-1.6-12.6l-43,7.1v10.3
	c5.8,0,9.4,0.9,11,2.8c1.6,1.8,2.3,5.2,2.3,10.2v27.2c0,4.7-0.7,8-2.1,9.9c-1.4,1.8-4.9,2.9-10.5,2.9h-2.5v10.3h58.6v-10.3
	c-5,0-8.3-0.9-9.8-2.7c-1.6-1.8-2.3-5.2-2.3-10.1V921c2.8-3.9,6.3-7.2,10.2-9.9c3.1-2.1,6.7-3.2,10.4-3.3c3.5-0.2,6.9,1.3,9,4
	c2,2.7,3,6.7,3,12.1v27.7C2311.8,956.5,2311,959.8,2309.5,961.6z"/>
<path d="M2499.4,972.7c6.3-3,11.8-7.5,15.9-13.2l-9-5.4c-6.4,7.8-13.5,11.7-21.1,11.7c-6.4,0.3-12.5-2.7-16.1-8
	c-3.6-5.4-5.4-13.3-5.4-23.8h54.3c0-14.1-4-24.7-12.1-31.6c-8-7-18.3-10.5-30.8-10.5c-11.7-0.3-23.1,3.8-31.9,11.4
	c-8.8,7.6-13.3,18-13.3,31.3c0,13.3,4.6,23.8,13.7,31.7c9.2,7.8,20.9,12,33,11.7C2484.5,978,2492.3,976.2,2499.4,972.7z
	 M2466.5,908.1c1.7-3.4,5.2-5.5,9-5.3c8,0,12.1,7.2,12.5,21.5h-24.6C2463.5,917,2464.5,911.6,2466.5,908.1z"/>
<path d="M2583.4,964.4c-2.8,0.3-5.5-0.9-7.3-3c-1.4-2-2-5.2-2-9.7v-31.6c2.4-3.3,5.3-6.2,8.7-8.5c2.4-1.8,5.3-2.7,8.3-2.8
	c2.4-0.1,4.8,1,6.3,2.9c1.5,2,2.2,5.6,2.2,10.9v29.2c0,5.5-0.9,9-2.8,10.4c-2,1.5-4.4,2.3-6.9,2.3v10.3h54v-10.3
	c-5.4,0-8.8-0.9-10.4-2.7c-1.5-1.8-2.3-5.2-2.4-10.1v-31.6c0-8.7-2.6-15.6-7.8-20.7s-12.3-7.5-21.4-7.5c-5.1,0-10.1,1.2-14.6,3.5
	c-5.1,2.6-9.7,6.2-13.5,10.5c0-4-0.7-7.9-2-11.7l-43.2,7.1v10.3c5.7,0,9.3,0.9,10.8,2.8c1.5,1.8,2.3,5.2,2.3,10.2v27.2
	c0,4.9-0.8,8.3-2.3,10.1c-1.6,1.8-5.2,2.7-10.8,2.7v10.3h54.4L2583.4,964.4z"/>
<path d="M2710.3,952.1c0,8.6,2.2,15.1,6.7,19.4c4.5,4.3,11.2,6.5,20.1,6.5c16.1,0,26.6-6.2,31.6-18.5l-9.5-3.2c-2.6,5.3-6,8-10.3,8
	c-2.4,0.3-4.7-1.1-5.7-3.4c-0.9-2.2-1.3-6.8-1.3-13.8v-41.6h23.9v-10.5h-23.9v-26.4h-10.4c-1,7.3-4.5,14.1-10.1,19
	c-5.5,5-12.7,7.7-20.1,7.5h-2.4v10.5h11.4V952.1z"/>
<path d="M2802,875.8c4.6,0.1,9.1-1.8,12.3-5.1c6.8-6.9,6.8-18,0-24.9c-6.7-6.8-17.7-6.9-24.5-0.2c-0.1,0.1-0.1,0.1-0.2,0.2
	c-3.3,3.2-5.2,7.7-5.1,12.4c0,4.6,1.8,9,5,12.3C2792.7,873.9,2797.2,875.9,2802,875.8z"/>
<path d="M2830.5,964.4c-5.7,0-9.3-0.9-10.9-2.8c-1.5-1.8-2.3-5.2-2.3-10.2v-59.6l-46.3,7.4v10.3h2.2c5.5,0,8.9,1,10.4,2.9
	c1.5,2,2.3,5.3,2.3,10.1v29c0,4.7-0.7,8-2.2,10.1c-1.4,2-4.9,2.9-10.5,2.9h-2.2v10.3h59.5L2830.5,964.4z"/>
<path d="M2895,964.4c-5.9,0-9.6-0.9-11.2-2.7c-1.6-1.8-2.3-5.2-2.3-10.2V840.6l-45.7,7.1v10.4c6.2,0,10.1,0.9,11.7,2.6
	c1.7,1.7,2.5,5.1,2.5,10.3v80.6c0,6.2-1.1,9.8-3.2,11.1c-2.1,1.2-5.8,1.8-11,1.8v10.3h59.2L2895,964.4z"/>
<path d="M1658.7,1180.6l-36.2-53.9l12.1-11.1c10.7-9.9,19-16.2,24.8-18.9c5.2-2.6,10.9-3.9,16.7-4v-10.8h-58.3v10.8
	c7.8,0,11.8,2,11.8,6c0,3.6-3.1,8.3-9.3,14.1l-35.7,32.9v-36.9c0-5.9,1-10.1,3-12.5c2-2.4,6.2-3.6,12.8-3.6h2v-10.7h-70.4v10.8h2
	c6.5,0,10.7,1.2,12.8,3.5c2,2.4,3.1,6.6,3.1,12.6v78c0,5.9-1,10-3,12.5c-2,2.4-6.3,3.6-12.9,3.6h-2v10.8h68.7v-10.8
	c-6.8,0-11.2-1.2-13.3-3.5c-2-2.3-3.1-6.5-3.1-12.6v-25.3l13.4-12.4l25.1,36.6c4,5.8,6,9.6,6,11.3c0,4-4.9,6-14.8,5.9v10.8h75.7
	v-10.8c-5.7,0.3-11.3-1.2-16.1-4.3C1669.8,1195.6,1664.8,1189.7,1658.7,1180.6z"/>
<path d="M1785.9,1201.4c-3.4,0-5-2.8-5-8.4v-36.9c0.1-3.8-0.4-7.5-1.5-11.1c-1.3-3.1-3.4-5.8-6-7.8c-3.5-2.6-7.7-4.4-12.1-5
	c-6.2-1-12.4-1.5-18.7-1.4c-13.4,0-24.1,2.1-32,6.3c-7.9,4.2-11.9,9.3-11.9,15.3c0,2.7,1.2,5.2,3.3,7c2.4,2.1,5.6,3.1,8.8,3
	c3.3,0.3,6.5-0.7,9-2.8c2.2-2.5,3.6-5.6,3.9-8.9c0.9-6,5.4-8.9,13.6-8.9c3.1-0.1,6.1,0.7,8.7,2.2c2.5,1.5,3.7,4.7,3.7,9.9v7.2
	c-19.5,6.6-33,12.6-40.4,18.1c-7.5,5.5-11.2,11.7-11.2,18.8c-0.1,4.8,2,9.4,5.6,12.5c3.7,3.4,9.3,5.1,16.8,5.1
	c5.5,0,10.9-0.9,16.1-2.6c5.3-1.8,10.3-4.4,14.8-7.7c4.1,6.9,12.2,10.3,24.1,10.3c6,0.2,11.9-1.5,16.9-4.8c4.7-3.2,7.1-8,7.3-14.8
	h-8C1790.6,1199.6,1788.8,1201.4,1785.9,1201.4z M1749.4,1194.7c-1.8,2-3.9,3.6-6.2,4.9c-2.1,1.1-4.4,1.7-6.7,1.6
	c-2.5,0.1-4.9-1-6.4-3c-1.6-1.9-2.4-4.2-2.4-6.7c0.1-3.6,1.6-6.9,4.1-9.4c2.7-3.1,8.6-6.5,17.7-10.2L1749.4,1194.7z"/>
<path d="M1899.4,1186.5l-20.1-27.1l7.6-5.3c9-6.5,17.1-9.7,24.3-9.7V1134H1867v10.3c3.9,0,6.2,0.3,7,0.9c0.7,0.6,1.1,1.4,1.1,2.3
	c0,1.5-2,3.8-5.9,6.7l-20.7,14.9v-89.5l-45,6.9v10.3c5.8,0,9.5,0.9,11.1,2.8c1.6,1.8,2.3,5.2,2.3,10.2v80.9c0,5.1-0.8,8.5-2.5,10.3
	s-5.3,2.6-10.9,2.6v10.3h55.4v-10.3c-4.3-0.2-7.2-1.2-8.6-3.2c-1.4-1.9-2-5.2-2-9.8v-8.5l8.3-6l13.2,17.8c2.2,3,3.3,4.9,3.3,6
	c0,2.4-2,3.6-6.2,3.6v10.3h51.2v-10.3c-2.9-0.2-5.6-1.4-7.5-3.5C1906.4,1195.7,1902.7,1191.2,1899.4,1186.5z"/>
<path d="M1974.3,1203.1c-2.4,0.3-4.7-1.1-5.6-3.4c-0.9-2.2-1.4-6.8-1.4-13.8v-41.5h23.9V1134h-23.9v-26.4h-10.4
	c-1,7.3-4.5,14.1-10.1,19c-5.5,5-12.7,7.7-20.1,7.5l-2.4-0.1v10.5h11.6v46.5c0,8.6,2.2,15.1,6.7,19.4c4.5,4.3,11.2,6.5,20.1,6.5
	c16.1,0,26.6-6.2,31.6-18.5l-9.5-3.2C1982.1,1200.5,1978.6,1203.2,1974.3,1203.1z"/>
<path d="M2097.8,1190.5v-56.3h-44.5v10.1c5.6,0,9.2,0.9,10.7,2.8c1.5,1.9,2.3,5.2,2.3,10.1v30.5c-2.4,3.5-5.4,6.7-8.7,9.3
	c-2.3,1.9-5.1,3-8,3.1c-2.9,0.2-5.7-1-7.4-3.3c-1.6-2.2-2.3-5.8-2.3-10.9V1134h-43.4v10.2c4.9,0,8.1,0.9,9.7,2.7
	c1.6,1.8,2.4,5.2,2.4,10.2v30.5c0,11.3,2.9,19,8.8,23c5.8,4,12.6,6.1,19.6,6c5.5,0,10.9-1.2,15.8-3.5c5.2-2.6,9.8-6.2,13.7-10.6
	v14.1c13.2-2.1,26.6-3.2,40-3.3c1.4,0,3,0,4.8,0v-10.3c-5.8,0-9.4-0.9-10.9-2.8S2097.8,1195.3,2097.8,1190.5z"/>
<path d="M2185.5,1165c-7.3-2.7-14.8-4.8-22.5-6.1c-9.6-1.9-15.6-3.4-18.1-4.7c-2.3-0.9-3.8-3.2-3.8-5.7c0-2.5,1.5-4.5,4.7-6
	c3.8-1.7,7.9-2.5,12.1-2.4c14.9,0,24.8,5,29.8,14.9h7.8l-0.9-24.1h-8c-0.9,1.9-2.2,3.6-3.7,5.1c-8.3-3.3-17.2-5-26.1-5.1
	c-11.1,0-19.9,2.5-26.5,7.5c-6.4,4.5-10.1,11.9-9.9,19.7c-0.1,5.2,1.6,10.4,4.8,14.5c3.3,4.3,7.8,7.6,12.8,9.4
	c8,2.8,16.3,4.9,24.7,6.5c4.8,0.8,9.4,2.1,13.9,3.9c1.9,0.9,3,2.9,3,5c0,2.5-1.9,4.7-5.6,6.6c-4.4,2.1-9.2,3.1-14.1,2.9
	c-13.5,0-22.7-5.5-27.8-16.4h-9.5l0.7,26.4h8.8c0.7-2.2,2.1-4.1,3.9-5.4c8.5,3.5,17.5,5.3,26.6,5.4c11.1,0,20.4-2.7,27.9-8
	c7.5-5.4,11.3-12.3,11.3-20.8c0.1-5-1.4-9.8-4.3-13.9C2194.3,1170.1,2190.2,1166.9,2185.5,1165z"/>
<path d="M2238.6,1079.5c-5-0.3-9.9,1.6-13.4,5.2c-3.3,3.4-5,8-4.9,12.8c-0.2,4.5,1.5,8.8,4.7,11.9c2.7,2.7,6.3,4.2,10.1,4.3
	c1.4-0.1,2.9-0.3,4.3-0.6c1.1-0.3,2.3-0.5,3.5-0.6c2.6,0,3.9,1.6,3.9,4.7c0,5.6-2.7,10.3-8,14.2c-4.8,3.7-10.7,5.7-16.8,5.8v11.6
	c10.3-0.1,20.2-4.1,27.7-11.1c7.7-7.1,11.5-16.9,11.5-29.4c0-9.1-2.1-16.1-6.3-21.3C2250.9,1082.2,2244.9,1079.3,2238.6,1079.5z"/>
<path d="M2401.8,1130.8c-5.5,0-11,1.2-16.1,3.5c-5.4,2.6-10.4,6.1-14.5,10.5c0-4.7-0.7-9.4-2-13.9l-42.2,7.1v10.4
	c5.8,0,9.4,0.9,11,2.8c1.6,1.8,2.3,5.2,2.3,10.2v76.2c0,5.1-0.8,8.6-2.5,10.3c-1.6,1.7-5.3,2.6-10.8,2.6v10.4h60.5v-10.4h-2.9
	c-5.4,0-8.8-0.9-10.4-2.8c-1.5-1.9-2.3-5.2-2.3-10.1v-31.7c4.1,3.5,8.8,6.3,13.8,8.4c4.6,1.9,9.5,2.8,14.5,2.8
	c10.6,0,20.7-4.4,27.8-12.3c7.9-8.2,11.8-18.7,11.8-31.7c0-12.6-3.7-22.7-11.2-30.5C2421.7,1134.9,2412,1130.7,2401.8,1130.8z
	 M2402.3,1195.2c-2.8,4.6-7.9,7.2-13.2,6.9c-3.1,0-6.2-0.7-9-2c-3.1-1.6-5.9-3.6-8.2-6.2v-36c1.8-3.4,4.5-6.4,7.6-8.7
	c3.1-2.5,6.9-3.9,10.8-4c5.1-0.2,9.9,2.6,12.2,7.2c2.7,4.8,4,12.1,4,21.8C2406.6,1183.6,2405.2,1190.6,2402.3,1195.2L2402.3,1195.2z
	"/>
<path d="M2537.4,1141.8c-9.8-7.4-21.9-11.3-34.2-11c-12.4-0.3-24.6,3.7-34.3,11.4c-9.5,7.6-14.2,18-14.2,31.4
	c0,14,4.8,24.7,14.3,32.2c9.8,7.5,21.9,11.4,34.2,11.1c12.6,0.3,24.8-3.8,34.6-11.7c9.5-7.8,14.3-18.3,14.3-31.5
	C2551.9,1159.8,2547,1149.2,2537.4,1141.8z M2514.5,1199.9c-2.3,3.9-6.5,6.3-11,6.2c-5.2,0.4-10-2.6-12.1-7.4
	c-2.3-5-3.4-13.7-3.5-26.1c0-13.1,1.5-21.5,4.5-25.2c2.5-3.5,6.5-5.6,10.8-5.6c4.8-0.3,9.4,2.3,11.7,6.6c2.5,4.4,3.7,12.7,3.7,25
	C2518.5,1186.9,2517.2,1195.8,2514.5,1199.9L2514.5,1199.9z"/>
<path d="M2636,1130.8c-5.7,0-11.2,1.7-15.8,5c-5.3,4-9.7,9.1-12.8,15c0-6.8-1.1-13.6-3.1-20.1l-40.3,8.6v10.3
	c5.7,0,9.3,0.9,10.8,2.8c1.5,1.8,2.3,5.2,2.3,10.1v28.1c0,4.8-0.7,8.2-2.2,10.1c-1.5,1.8-5,2.8-10.7,2.8v10.3h59v-10.3h-2
	c-5.4,0-8.8-1-10.3-2.9c-1.5-1.9-2.3-5.3-2.2-10.1v-8.7c0-10.3,1.1-18,3.2-23.2s5.3-7.7,9.5-7.7c3,0.1,5.7,1.5,7.6,3.9
	c1.6,2,3.5,3.8,5.6,5.3c1.7,0.9,3.6,1.3,5.4,1.2c3.6,0.2,7.2-1.3,9.5-4c2.3-2.8,3.5-6.2,3.4-9.8c0-4.2-1.5-8.2-4.3-11.3
	C2645.4,1132.5,2640.8,1130.5,2636,1130.8z"/>
<path d="M2706.5,1203.1c-2.4,0.3-4.7-1.1-5.6-3.4c-0.9-2.2-1.4-6.8-1.4-13.8v-41.5h23.9V1134h-23.9v-26.4h-10.4
	c-1,7.3-4.5,14.1-10.1,19c-5.5,5-12.7,7.7-20.1,7.5l-2.4-0.1v10.5h11.5v46.5c0,8.6,2.2,15.1,6.7,19.4c4.5,4.3,11.2,6.5,20.1,6.5
	c16.1,0,26.6-6.2,31.6-18.5l-9.5-3.2C2714.3,1200.5,2710.8,1203.2,2706.5,1203.1z"/>
<path d="M2777.5,1095c0.9-2.7,3.4-4.5,6.3-4.5c3.6,0,6,2.4,7.1,7.2c2.5,9.7,7.5,14.6,15.2,14.6c3.8,0.1,7.5-1.5,10.2-4.2
	c2.7-2.6,4.3-6.3,4.2-10.1c0-5.4-2.6-9.9-7.9-13.4c-5.2-3.5-13-5.2-23.2-5.2c-7.8-0.2-15.6,1.3-22.7,4.4c-5.9,2.5-11,6.5-14.8,11.6
	c-3.4,4.5-5.6,9.7-6.4,15.2c-0.9,7.8-1.3,15.7-1.2,23.5h-15.9v10.5h15.9v46c0,4.7-0.7,8.1-2.2,10.1c-1.4,2-4.9,2.9-10.4,2.9h-3.4
	v10.3h65.1v-10.3h-5.1c-5.4,0-8.8-1-10.3-2.9c-1.5-1.9-2.3-5.3-2.2-10.1v-46h17.7V1134h-17.7v-23.6
	C2775.7,1103.1,2776.3,1097.9,2777.5,1095z"/>
<path d="M2885.8,1141.8c-9.8-7.4-21.9-11.3-34.2-11c-12.4-0.3-24.6,3.7-34.3,11.4c-9.5,7.6-14.2,18-14.2,31.4
	c0,14,4.8,24.7,14.3,32.2c9.8,7.5,21.9,11.4,34.2,11.1c12.6,0.3,24.8-3.8,34.6-11.7c9.5-7.8,14.3-18.3,14.3-31.5
	C2900.4,1159.8,2895.5,1149.2,2885.8,1141.8z M2862.9,1199.9c-2.3,3.9-6.5,6.3-11,6.2c-5.2,0.4-10-2.6-12.1-7.4
	c-2.3-5-3.5-13.7-3.5-26.1c0-13.1,1.5-21.5,4.5-25.2c2.5-3.5,6.5-5.6,10.8-5.6c4.8-0.3,9.4,2.3,11.7,6.6c2.5,4.4,3.7,12.7,3.7,25
	C2867,1186.9,2865.6,1195.8,2862.9,1199.9z"/>
<path d="M2955.3,1190.5v-111l-45.7,7.1v10.4c6.2,0,10.1,0.9,11.7,2.6s2.5,5.1,2.5,10.3v80.7c0,6.2-1.1,9.8-3.2,11.1s-5.8,1.8-11,1.8
	v10.3h59.2v-10.3c-5.9,0-9.6-0.9-11.2-2.7C2956,1198.9,2955.3,1195.5,2955.3,1190.5z"/>
<path d="M3019.6,1190.5v-59.7l-46.3,7.4v10.3h2.3c5.4,0,8.9,1,10.4,2.9s2.2,5.3,2.2,10.1v29.1c0,4.7-0.7,8.1-2.2,10.1
	c-1.4,2-4.9,2.9-10.4,2.9h-2.3v10.3h59.5v-10.3c-5.7,0-9.3-0.9-10.9-2.8C3020.4,1198.9,3019.6,1195.3,3019.6,1190.5z"/>
<path d="M3004.4,1114.7c4.6,0.1,9.1-1.8,12.3-5.1c6.8-6.9,6.8-18,0-24.9c-6.7-6.8-17.7-6.9-24.5-0.2c-0.1,0.1-0.1,0.1-0.2,0.2
	c-3.3,3.3-5.2,7.7-5.1,12.4c0,4.6,1.8,9,5,12.3C2995,1112.8,2999.6,1114.8,3004.4,1114.7z"/>
<path d="M3121,1141.3c-8-7-18.3-10.4-30.8-10.5c-11.7-0.3-23.1,3.8-32,11.4c-8.8,7.6-13.3,18-13.3,31.3c0,13.3,4.6,23.8,13.7,31.7
	c9.2,7.8,20.9,12,32.9,11.7c7.9,0.1,15.8-1.7,22.9-5.2c6.3-3,11.8-7.5,15.9-13.2l-9-5.4c-6.4,7.8-13.5,11.7-21.1,11.7
	c-6.4,0.3-12.5-2.7-16.1-8c-3.6-5.4-5.4-13.3-5.4-23.8h54.3C3133,1158.8,3129,1148.2,3121,1141.3z M3078.7,1163.1
	c0-7.2,1-12.6,3-16.1c1.7-3.4,5.2-5.5,9-5.3c8,0,12.1,7.2,12.5,21.5L3078.7,1163.1z"/>
<path d="M3185.4,1187.2c-6.9-6.9-18-6.9-24.8,0c-6.9,6.9-6.9,18,0,24.8l0,0c6.8,6.8,17.9,6.9,24.7,0.1c0,0,0,0,0.1-0.1
	C3192.2,1205.2,3192.2,1194.1,3185.4,1187.2C3185.4,1187.2,3185.3,1187.2,3185.4,1187.2L3185.4,1187.2z"/>
<path d="M3167.7,1170.2h10.8l9.1-66.7c0.5-3.5,0.8-7.1,0.9-10.7c0-8.9-5.2-13.3-15.5-13.3c-10.4,0-15.5,4.9-15.3,14.9
	c0.1,3.3,0.4,6.6,0.9,9.8L3167.7,1170.2z"/>
<path class="st1" d="M1279.1,1624.4c2.6,0.2,5.2,0.4,7.8,0.6c-0.2-0.4-0.4-0.9-0.6-1.3c-3.6-3.5-7.3-6.9-11.1-10.2
	C1275.6,1617.3,1277.1,1621,1279.1,1624.4z"/>
<path class="st1" d="M1306.8,1650.3c-1.3-3.4-2.9-6.7-4.7-10c-5.5-2-9.8-6.3-13.1-11.4c-2.5-0.4-5.1-0.7-7.7-0.9
	c1.8,2.6,3.9,5,5.9,7.1C1292.9,1641.1,1299.5,1646.5,1306.8,1650.3z"/>
<path class="st1" d="M1345.4,1681.8c-1.4,0-2.7-0.1-4.1-0.2c-1.4-0.1-1.9-2.3-0.5-2.9c0.4-0.2,0.9-0.3,1.3-0.5l-0.7-0.8h-2.1
	c-1.4,0-1.6-1.5-1-2.4c-1.7,0.2-3.4,0.3-5.2,0.3c-1.1,0-1.6-1.2-1.2-2.1c-0.3,0-0.5,0-0.8,0c-1.7,0-1.8-2.7-0.1-3
	c1.2-0.2,2.3-0.3,3.5-0.5l-7.8-8.4c-0.6,0.9-1,2.1-1.1,3.4c-0.1,1.9-3.1,1.7-3-0.3c0.2-2.1,0.9-3.9,2-5.3l-2.3-2.5
	c0,0-0.1,0-0.1-0.1c-5.1-3.7-9.8-7.8-14.4-12c1.2,2.7,2.3,5.4,3.3,8.1c0.4,1.1-0.6,2.6-1.9,2c-9.5-4.2-18-11-24.9-18.7
	c-2.3-2.6-4.5-5.3-6.5-8.3c-2.7-0.2-5.5-0.4-8.2-0.6c-0.4,0-0.8,0-1.2,0c-1.9,0-1.7-3,0.3-3c0.2,0,0.4,0,0.7,0c0.1,0,0.2,0,0.4,0
	c0.1,0,0.1,0,0.2,0c2,0,4,0.1,5.9,0.1c-2.3-4.4-3.8-9.2-3.6-14.2c0-1.1,1.5-1.8,2.3-1.1c3.1,2.6,6.2,5.3,9.1,8.1c0,0,0-0.1,0-0.1
	c-0.2-0.6,0-1.3,0.4-1.7l-142.4-154.3c2,3.9,4.1,7.7,6.2,11.5c0.8,1.5-1.6,3-2.5,1.6c-0.1-0.1-0.1-0.2-0.2-0.3c0,0,0,0,0,0
	c0,0,0,0,0,0c-2.5-3.9-4.6-8-6.5-12.2c-1.4-2.7-2.7-5.5-4-8.2l-8.7-9.4L623,1745.5l744-40.2L1345.4,1681.8z"/>
<path class="st0" d="M1129.9,1447.7C1064,1484,999,1520,932,1557c-101,54-195,106-295,162c-4,2-9,4-14,7.4c1.8-0.1,0.2-0.1,0,0
	c254-11.4,507-26.4,760.7-37.7"/>
<path class="st1" d="M1274,1620.7c-1.3-3.2-2-6.6-2-10.2c-1.7-1.7-3.3-3.4-5-5.1c-3.5-4.9-6.9-9.9-10.4-15c1.5,1.5,3,3,4.4,4.5
	c1.7,1.9,8.4,8.6,11.2,14.2c0.5-0.6,1.4-0.9,2.1-0.4c1.8,1.5,3.5,3,5.2,4.5c-0.1-5.1-4.1-10.2-7.4-14.5c-7.4-9.5-16.1-17.9-26-24.9
	c-0.4-0.3-0.9-0.5-1.5-0.5c-13.6-19-28.2-37.2-46.3-51.5c-3-2.4-7.3,1.8-4.3,4.3c18.8,14.8,33.8,33.8,47.7,53.5l-6.7-6.8
	c-2.7-2.8-6.9,1.5-4.3,4.3l34.8,36.7c0.5,0.6,1.2,0.9,2,0.9l5.1,5.2C1273.3,1620.4,1273.6,1620.6,1274,1620.7z"/>
<path class="st1" d="M1279,1616.9c-1.3-1.2-2.5-2.3-3.8-3.4c0.3,2.3,0.9,4.6,1.8,6.7c0.1-0.1,0.1-0.1,0.2-0.2
	C1278,1619,1278.6,1618,1279,1616.9z"/>
<path class="st1" d="M1275.6,1624.2c-1.4-2.7-2.5-5.6-3.1-8.5l-11.3-16c-4.4-6.3-9.4-12.6-13.8-19.2c9.7,7.1,18.9,14.9,27.6,23.2
	c1.2,1.1,3.1,1.1,4.3-0.1c0.9-1,1.1-2.4,0.5-3.5c-9.5-18.4-25-33.1-43.8-41.6c-1.5-0.8-3.3-0.3-4.2,1.2c-0.4,0.7-0.5,1.5-0.3,2.2
	c4.2,14.2,13.9,25.8,22.3,37.7l17.4,24.5C1272.6,1624.1,1274.1,1624.2,1275.6,1624.2z M1242,1571.4c-0.8-1.3-1.5-2.9-2.1-4.3
	c7.1,4,13.7,9,19.4,14.9c-4.6-3.7-9.3-7.2-14.1-10.6C1244.3,1570.6,1242.9,1570.6,1242,1571.4z"/>
<path class="st1" d="M1284.1,1636c-2.3-2.6-4.5-5.3-6.5-8.3c-1.4-0.1-2.8-0.2-4.2-0.3l9.6,13.6c1.6,2.2,4.6,1.4,5.5-0.4
	C1287,1639.1,1285.5,1637.6,1284.1,1636z"/>
<path class="st1" d="M1289.6,1555.4c-17.2-20.9-41-34.4-63.1-49.5c-23-15.7-43.1-34.7-63-54c-6.6-6.4-14.7-6.3-20.9-2.8
	c0.2,1,0.3,1.9,0.4,2.9c0.1,1.2-1.3,2.4-2.3,1.5c-0.6-0.5-1.2-1.1-1.8-1.7c-0.1,0.1-0.3,0.3-0.4,0.4c0.7,1.6,1.3,3.2,2,4.8
	c0.2,0.6,0.1,1.1-0.2,1.4c0.1,0.3,0.3,0.7,0.4,1c2.2,4.4,4.6,8.7,6.9,12.9c0.8,1.5-1.6,3-2.5,1.6c-0.1-0.1-0.1-0.2-0.2-0.3
	c0,0,0,0,0,0c0,0,0,0,0,0c-2.5-3.9-4.6-8-6.5-12.2c-1-1.9-1.9-3.8-2.8-5.7c-4.2,6.3-4.7,14.9,2.4,21.8
	c20.5,19.8,41.2,39.2,64.6,55.7c21.3,15.1,44.6,27.3,61.5,47.8c6.2,7.6,19.1,6.5,25.6,0C1297.1,1573.5,1295.9,1563,1289.6,1555.4z"
	/>
<path class="st1" d="M1272,1476c-7.8,0-7.8,12.1,0,12.1S1279.8,1476,1272,1476z"/>
<path class="st1" d="M1289.2,1506.3c-7.8,0-7.8,12.1,0,12.1C1297,1518.4,1297,1506.3,1289.2,1506.3z"/>
</svg>
