<svg id="Layer_1" data-name="Layer 1" xmlns="http://www.w3.org/2000/svg" width="2670" height="1350" viewBox="0 0 2670 1350"><defs><style>.cls-1{fill:#fff;}.cls-2{fill:none;stroke:#000;stroke-miterlimit:10;stroke-width:16px;}</style></defs><title>velkommen</title><path class="cls-1" d="M1453,177c359,0,650,197,650,440s-291,440-650,440c-264.25,0-491.67-106.74-593.3-260"/><path class="cls-2" d="M1453,177c359,0,650,197,650,440s-291,440-650,440c-264.25,0-491.67-106.74-593.3-260"/><path class="cls-1" d="M1123,237.84c96.73-38.66,209.54-60.84,330-60.84"/><path class="cls-2" d="M1123,237.84c96.73-38.66,209.54-60.84,330-60.84"/><path class="cls-1" d="M859.7,797c-36.43-55-56.7-115.87-56.7-180,0-161.46,128.48-302.61,320-379.16"/><path class="cls-2" d="M859.7,797c-36.43-55-56.7-115.87-56.7-180,0-161.46,128.48-302.61,320-379.16"/><path d="M1079.57,517q1,1.72,3.73,7.81l22.38,50.27h5.94l19.92-46.55q4.55-10.72,6.65-12.86a8.25,8.25,0,0,1,6.11-2.12v-5.37h-23.06v5.37c4.87,0,7.3,1.49,7.3,4.49a14.79,14.79,0,0,1-1.4,5.56l-12.62,29.78-13.43-29.73q-2.08-4.54-2.08-6.53,0-3.57,7.3-3.57v-5.37h-34.86v5.37a12.56,12.56,0,0,1,5.42.87A6.63,6.63,0,0,1,1079.57,517Z"/><path d="M1136.52,553.74q0,9.91,6.81,15.74a24.41,24.41,0,0,0,16.39,5.82,25.09,25.09,0,0,0,11.39-2.58,20.74,20.74,0,0,0,7.9-6.55l-4.5-2.71q-4.79,5.81-10.49,5.8a9.06,9.06,0,0,1-8-4q-2.68-4-2.69-11.85h27q0-10.53-6-15.73t-15.3-5.2a23.59,23.59,0,0,0-15.88,5.66Q1136.52,543.84,1136.52,553.74Zm18.22-13.19a4.86,4.86,0,0,1,4.5-2.66q5.94,0,6.23,10.68h-12.23C1153.24,545,1153.74,542.32,1154.74,540.55Z"/><path d="M1214.15,568.58q-4.39,0-5.56-1.35t-1.16-5.07V507l-22.72,3.53v5.17c3.06,0,5,.43,5.83,1.28s1.23,2.56,1.23,5.1v40.08c0,3.06-.53,4.89-1.59,5.51s-2.89.91-5.47.91v5.13h29.44Z"/><path d="M1243.83,568.58c-2.16-.09-3.57-.62-4.25-1.57s-1-2.57-1-4.85V558l4.11-3,6.58,8.85c1.09,1.48,1.64,2.46,1.64,2.95,0,1.19-1,1.78-3.09,1.78v5.13h25.52v-5.13a5.69,5.69,0,0,1-3.75-1.74,51.35,51.35,0,0,1-5.53-6.62L1254,546.74l3.77-2.66q6.72-4.85,12.09-4.84v-5.12h-22v5.12c1.93,0,3.08.16,3.45.46a1.44,1.44,0,0,1,.56,1.14q0,1.15-3,3.33l-10.3,7.4V507l-22.28,3.43v5.13q4.35,0,5.51,1.37T1223,522v40.17q0,3.81-1.23,5.12c-.82.87-2.64,1.3-5.44,1.3v5.13h27.55Z"/><path d="M1282.5,569.77a26.8,26.8,0,0,0,17,5.53,26.28,26.28,0,0,0,17.21-5.82q7.11-5.82,7.11-15.64,0-10.33-7.25-15.83a27.42,27.42,0,0,0-17-5.49,26.42,26.42,0,0,0-17.06,5.66q-7.07,5.66-7.06,15.61Q1275.4,564.23,1282.5,569.77Zm11.7-29a6.66,6.66,0,0,1,5.37-2.78,6.18,6.18,0,0,1,5.8,3.26q1.83,3.25,1.84,12.45,0,10.09-2.06,13.19a6.29,6.29,0,0,1-5.48,3.1,6.06,6.06,0,0,1-6-3.7q-1.73-3.7-1.72-13Q1292,543.54,1294.2,540.77Z"/><path d="M1357.77,568.58q-3.72,0-4.88-1.35c-.78-.9-1.16-2.56-1.16-5V547a20.5,20.5,0,0,1,5.07-4.94,9.57,9.57,0,0,1,5.18-1.64,5.2,5.2,0,0,1,4.47,2q1.47,2,1.47,6v13.77q0,3.59-1.11,4.93c-.74.91-2.31,1.37-4.69,1.4v5.13h27.51v-5.13c-2.49,0-4.11-.45-4.89-1.37s-1.16-2.57-1.16-5V547a17.25,17.25,0,0,1,4.69-5.08,9.45,9.45,0,0,1,5.37-1.69,5.26,5.26,0,0,1,4.54,2q1.5,2,1.5,6.09v13.87q0,3.54-1.09,4.93c-.72.94-2.33,1.4-4.81,1.4v5.13h28.62v-5.13c-3.06,0-5-.42-5.82-1.28s-1.24-2.53-1.24-5V549.49a29.13,29.13,0,0,0-.6-6.79,13.06,13.06,0,0,0-2.44-4.69,13.88,13.88,0,0,0-5.37-3.92,19.14,19.14,0,0,0-7.83-1.57,19.19,19.19,0,0,0-16.48,8.46,12,12,0,0,0-5.15-6.35,17.52,17.52,0,0,0-9.07-2.11,22.66,22.66,0,0,0-9.2,1.84,21.48,21.48,0,0,0-7.47,5.56,18.5,18.5,0,0,0-.82-6.28l-21.37,3.52v5.13q4.31,0,5.46,1.38c.78.91,1.16,2.6,1.16,5.05v13.53c0,2.32-.35,4-1.06,4.91s-2.45,1.42-5.22,1.42h-1.26v5.13h29.15Z"/><path d="M1461.7,567.18c-.74.91-2.3,1.37-4.69,1.4v5.13h27.51v-5.13c-2.48,0-4.11-.45-4.89-1.37s-1.16-2.57-1.16-5V547a17.25,17.25,0,0,1,4.69-5.08,9.45,9.45,0,0,1,5.37-1.69,5.26,5.26,0,0,1,4.54,2q1.5,2,1.5,6.09v13.87q0,3.54-1.09,4.93c-.72.94-2.32,1.4-4.81,1.4v5.13h28.62v-5.13c-3.06,0-5-.42-5.82-1.28s-1.24-2.53-1.24-5V549.49a29.13,29.13,0,0,0-.6-6.79,12.91,12.91,0,0,0-2.44-4.69,13.88,13.88,0,0,0-5.37-3.92,19.14,19.14,0,0,0-7.83-1.57,19.19,19.19,0,0,0-16.48,8.46,12,12,0,0,0-5.15-6.35,17.51,17.51,0,0,0-9.06-2.11,22.68,22.68,0,0,0-9.21,1.84,21.48,21.48,0,0,0-7.47,5.56,18.5,18.5,0,0,0-.82-6.28l-21.37,3.52v5.13q4.3,0,5.46,1.38c.78.91,1.16,2.6,1.16,5.05v13.53c0,2.32-.35,4-1.06,4.91s-2.45,1.42-5.22,1.42h-1.26v5.13h29.15v-5.13q-3.72,0-4.88-1.35t-1.16-5V547a20.68,20.68,0,0,1,5.07-4.94,9.57,9.57,0,0,1,5.18-1.64,5.2,5.2,0,0,1,4.47,2q1.47,2,1.47,6v13.77Q1462.81,565.84,1461.7,567.18Z"/><path d="M1556.13,572.72a20.78,20.78,0,0,0,7.91-6.55l-4.5-2.71q-4.79,5.81-10.49,5.8a9.07,9.07,0,0,1-8-4q-2.68-4-2.68-11.85h27q0-10.53-6-15.73t-15.3-5.2a23.61,23.61,0,0,0-15.88,5.66q-6.6,5.66-6.59,15.56t6.81,15.74a24.41,24.41,0,0,0,16.39,5.82A25,25,0,0,0,1556.13,572.72Zm-16.36-32.17a4.86,4.86,0,0,1,4.5-2.66q5.94,0,6.23,10.68h-12.23C1538.27,545,1538.77,542.32,1539.77,540.55Z"/><path d="M1597.87,568.58a4.23,4.23,0,0,1-3.62-1.49c-.68-1-1-2.58-1-4.84V546.54a18.23,18.23,0,0,1,4.31-4.25,7.47,7.47,0,0,1,4.15-1.4,3.64,3.64,0,0,1,3.12,1.45c.73,1,1.09,2.77,1.09,5.41v14.5c0,2.74-.46,4.47-1.38,5.17a5.84,5.84,0,0,1-3.41,1.16v5.13H1628v-5.13q-4,0-5.15-1.35t-1.18-5V546.54q0-6.52-3.87-10.27t-10.64-3.75a16.38,16.38,0,0,0-7.27,1.72,22.74,22.74,0,0,0-6.7,5.2,17,17,0,0,0-1-5.8l-21.47,3.52v5.13q4.26,0,5.39,1.38c.76.91,1.14,2.6,1.14,5.05v13.53q0,3.68-1.16,5t-5.37,1.32v5.13h27.07Z"/><path d="M1661,562.45q0,6.42,3.33,9.64t10,3.21q12,0,15.71-9.18l-4.74-1.6c-1.29,2.65-3,4-5.12,4a2.73,2.73,0,0,1-2.81-1.67q-.67-1.67-.67-6.84V539.34h11.89v-5.22h-11.89V521h-5.17a15.38,15.38,0,0,1-5,9.47,14.45,14.45,0,0,1-10,3.73l-1.21,0v5.22H1661Z"/><path d="M1706.59,524.5a8.32,8.32,0,0,0,6.12-2.56,8.86,8.86,0,0,0,0-12.38,8.61,8.61,0,0,0-12.28,0,8.44,8.44,0,0,0-2.56,6.16,8.61,8.61,0,0,0,2.49,6.11A8.19,8.19,0,0,0,1706.59,524.5Z"/><path d="M1720.75,568.58c-2.83,0-4.64-.45-5.41-1.37s-1.16-2.6-1.16-5.05V532.52l-23,3.68v5.12h1.11q4.07,0,5.17,1.43c.74,1,1.12,2.62,1.12,5v14.41c0,2.35-.37,4-1.09,5s-2.46,1.45-5.2,1.45h-1.11v5.13h29.58Z"/><path d="M1752.85,568.58q-4.39,0-5.56-1.35t-1.16-5.07V507l-22.72,3.53v5.17c3.06,0,5,.43,5.83,1.28s1.23,2.56,1.23,5.1v40.08c0,3.06-.53,4.89-1.59,5.51s-2.89.91-5.47.91v5.13h29.44Z"/><path d="M1138.07,676.07l-18-26.78,6-5.51q8-7.39,12.33-9.42a19.56,19.56,0,0,1,8.31-2V627h-29v5.37q5.85,0,5.85,3,0,2.71-4.64,7l-17.74,16.34V640.35q0-4.4,1.47-6.21t6.36-1.81H1110V627h-35v5.37h1c3.22,0,5.34.58,6.35,1.76s1.52,3.26,1.52,6.26v38.77q0,4.39-1.47,6.21c-1,1.21-3.12,1.81-6.4,1.81h-1v5.37h34.18v-5.37q-5.09,0-6.6-1.74c-1-1.16-1.52-3.25-1.52-6.28V666.6l6.67-6.19,12.47,18.18q3,4.35,3,5.6,0,3-7.35,2.95v5.37h37.65v-5.37a13.23,13.23,0,0,1-8-2.15Q1142.61,682.84,1138.07,676.07Z"/><path d="M1201.29,686.42q-2.51,0-2.51-4.16V663.89a16.34,16.34,0,0,0-.75-5.51,9.24,9.24,0,0,0-3-3.87,13.4,13.4,0,0,0-6-2.51,53.59,53.59,0,0,0-9.3-.68q-10,0-15.91,3.15t-5.94,7.63a4.54,4.54,0,0,0,1.62,3.46,6.26,6.26,0,0,0,4.37,1.47,6.39,6.39,0,0,0,4.5-1.37,7.65,7.65,0,0,0,1.93-4.43q.68-4.44,6.77-4.44a8.46,8.46,0,0,1,4.35,1.08c1.22.73,1.84,2.36,1.84,4.91v3.58q-14.55,4.92-20.11,9t-5.56,9.33a8,8,0,0,0,2.78,6.23q2.78,2.52,8.34,2.52a25.35,25.35,0,0,0,8-1.28,27.3,27.3,0,0,0,7.38-3.85q3.09,5.13,12,5.13a14.62,14.62,0,0,0,8.39-2.37c2.34-1.58,3.55-4,3.65-7.35h-4C1203.66,685.52,1202.74,686.42,1201.29,686.42Zm-18.12-3.34a11.44,11.44,0,0,1-3.1,2.42,7.13,7.13,0,0,1-3.33.82,3.92,3.92,0,0,1-3.19-1.47,5.09,5.09,0,0,1-1.21-3.31,6.94,6.94,0,0,1,2.05-4.69q2.05-2.28,8.78-5.08Z"/><path d="M1257.75,679l-10-13.48,3.77-2.66q6.72-4.85,12.09-4.84v-5.12h-22V658c1.94,0,3.09.16,3.46.46a1.43,1.43,0,0,1,.55,1.14q0,1.15-2.94,3.33l-10.3,7.4V625.8L1210,629.23v5.13c2.9,0,4.73.46,5.51,1.37s1.16,2.61,1.16,5.06V681q0,3.81-1.24,5.12t-5.43,1.3v5.13h27.55v-5.13c-2.16-.09-3.58-.62-4.26-1.57s-1-2.57-1-4.85v-4.21l4.11-3,6.57,8.85c1.1,1.48,1.65,2.46,1.65,3,0,1.19-1,1.78-3.1,1.78v5.13H1267v-5.13a5.65,5.65,0,0,1-3.75-1.74A51.2,51.2,0,0,1,1257.75,679Z"/><path d="M1295,687.29a2.72,2.72,0,0,1-2.8-1.67q-.67-1.67-.68-6.84V658.14h11.9v-5.22h-11.9V639.77h-5.17a15.33,15.33,0,0,1-5,9.47,14.43,14.43,0,0,1-10,3.73l-1.21-.05v5.22h5.75v23.11q0,6.42,3.34,9.64t10,3.21q12,0,15.71-9.18l-4.74-1.6Q1298.21,687.3,1295,687.29Z"/><path d="M1356.42,681v-28h-22.14V658q4.2,0,5.34,1.4c.76.94,1.13,2.61,1.13,5v15.18a21.76,21.76,0,0,1-4.35,4.64,6.71,6.71,0,0,1-4,1.55,4.16,4.16,0,0,1-3.67-1.65c-.78-1.09-1.16-2.9-1.16-5.41V652.92H1306V658q3.63,0,4.81,1.36t1.18,5.07v15.18q0,8.46,4.38,11.46a16.88,16.88,0,0,0,9.74,3,17.74,17.74,0,0,0,7.85-1.76,22,22,0,0,0,6.79-5.25v7a136.09,136.09,0,0,1,19.87-1.64c.71,0,1.5,0,2.37,0v-5.13c-2.87,0-4.68-.45-5.44-1.37S1356.42,683.41,1356.42,681Z"/><path d="M1400,668.34a64.93,64.93,0,0,0-11.19-3.05q-7.15-1.39-9-2.32a3,3,0,0,1-1.88-2.85c0-1.22.77-2.23,2.32-3a13.07,13.07,0,0,1,6-1.18q11.11,0,14.84,7.39h3.86l-.43-12h-4a8.88,8.88,0,0,1-1.84,2.52,36.42,36.42,0,0,0-13-2.52c-5.52,0-9.91,1.25-13.2,3.75a11.72,11.72,0,0,0-4.93,9.79,11.55,11.55,0,0,0,2.41,7.22,14.2,14.2,0,0,0,6.39,4.69,82.92,82.92,0,0,0,12.27,3.22,32.65,32.65,0,0,1,6.92,1.93,2.72,2.72,0,0,1,1.5,2.47c0,1.22-.92,2.32-2.76,3.28a14.84,14.84,0,0,1-7,1.45q-10.05,0-13.83-8.16h-4.73l.33,13.14h4.36a5.55,5.55,0,0,1,1.93-2.7,36.36,36.36,0,0,0,13.24,2.7q8.27,0,13.88-4t5.61-10.34a11.41,11.41,0,0,0-2.16-6.89A13.39,13.39,0,0,0,1400,668.34Z"/><path d="M1426.41,625.8a8.66,8.66,0,0,0-6.64,2.59,8.89,8.89,0,0,0-2.45,6.35,7.63,7.63,0,0,0,2.35,5.92,7.34,7.34,0,0,0,5,2.16,11.15,11.15,0,0,0,2.13-.29,9.52,9.52,0,0,1,1.74-.29c1.29,0,1.93.79,1.93,2.36,0,2.78-1.34,5.13-4,7.06a14.07,14.07,0,0,1-8.33,2.9v5.75a20.45,20.45,0,0,0,13.77-5.53q5.71-5.29,5.71-14.62,0-6.76-3.12-10.57A10,10,0,0,0,1426.41,625.8Z"/><path d="M1507.58,651.32a19.16,19.16,0,0,0-8,1.72,24.08,24.08,0,0,0-7.22,5.2,25.63,25.63,0,0,0-1-6.92l-21,3.53V660q4.3,0,5.46,1.37c.78.92,1.16,2.61,1.16,5.06V704.3q0,3.83-1.23,5.1c-.82.86-2.62,1.28-5.39,1.28v5.18h30.07v-5.18H1499c-2.67,0-4.39-.46-5.15-1.4s-1.13-2.59-1.13-5V688.54a25.56,25.56,0,0,0,6.84,4.16,19.13,19.13,0,0,0,7.22,1.4A18.61,18.61,0,0,0,1520.6,688q5.88-6.09,5.88-15.76,0-9.37-5.56-15.15A17.88,17.88,0,0,0,1507.58,651.32Zm.24,32a7.26,7.26,0,0,1-6.58,3.45,10.19,10.19,0,0,1-4.47-1,14.49,14.49,0,0,1-4.08-3.07V664.81a12.81,12.81,0,0,1,3.79-4.33,8.83,8.83,0,0,1,5.39-2,6.57,6.57,0,0,1,6.09,3.6q2,3.6,2,10.85Q1510,679.9,1507.82,683.35Z"/><path d="M1575,656.81a27.39,27.39,0,0,0-17-5.49,26.45,26.45,0,0,0-17.07,5.66q-7.05,5.65-7.06,15.61,0,10.44,7.11,16a26.78,26.78,0,0,0,17,5.53,26.3,26.3,0,0,0,17.21-5.82q7.1-5.82,7.1-15.64Q1582.21,662.31,1575,656.81Zm-11.38,28.88a6.3,6.3,0,0,1-5.49,3.1,6.06,6.06,0,0,1-6-3.7q-1.71-3.71-1.72-13,0-9.76,2.23-12.54a6.64,6.64,0,0,1,5.36-2.78,6.16,6.16,0,0,1,5.8,3.26q1.85,3.26,1.84,12.45Q1565.63,682.6,1563.58,685.69Z"/><path d="M1624.07,651.32a13.52,13.52,0,0,0-7.88,2.49,22.11,22.11,0,0,0-6.38,7.47,34.49,34.49,0,0,0-1.54-10l-20.06,4.26v5.12q4.24,0,5.39,1.38t1.13,5V681c0,2.41-.37,4.09-1.11,5s-2.51,1.4-5.32,1.4v5.13h29.35v-5.13h-1q-4,0-5.13-1.42t-1.11-5v-4.31q0-7.68,1.57-11.53t4.72-3.84a5.08,5.08,0,0,1,3.77,1.93,13.33,13.33,0,0,0,2.8,2.62,5.35,5.35,0,0,0,2.71.62,5.82,5.82,0,0,0,4.74-2,7.41,7.41,0,0,0,1.69-4.88,8.66,8.66,0,0,0-2.13-5.63A7.63,7.63,0,0,0,1624.07,651.32Z"/><path d="M1659.12,687.29a2.71,2.71,0,0,1-2.8-1.67q-.67-1.67-.68-6.84V658.14h11.89v-5.22h-11.89V639.77h-5.17a15.38,15.38,0,0,1-5,9.47,14.45,14.45,0,0,1-10,3.73l-1.2-.05v5.22H1640v23.11q0,6.42,3.33,9.64t10,3.21q12,0,15.71-9.18l-4.74-1.6Q1662.32,687.3,1659.12,687.29Z"/><path d="M1694.43,633.49a3.22,3.22,0,0,1,3.12-2.23c1.77,0,3,1.2,3.53,3.58q1.83,7.24,7.54,7.25a6.88,6.88,0,0,0,5.05-2.1,6.79,6.79,0,0,0,2.1-5c0-2.7-1.3-4.93-3.91-6.67s-6.46-2.61-11.55-2.61A27.35,27.35,0,0,0,1689,627.9a18,18,0,0,0-7.35,5.76,16.91,16.91,0,0,0-3.19,7.56,86.77,86.77,0,0,0-.58,11.7h-7.93v5.22h7.93V681q0,3.52-1.07,5c-.7,1-2.43,1.45-5.17,1.45h-1.69v5.13h32.39v-5.13h-2.56q-4,0-5.13-1.42t-1.11-5V658.14h8.8v-5.22h-8.8V641.17Q1693.49,635.71,1694.43,633.49Z"/><path d="M1748.26,656.81a27.4,27.4,0,0,0-17-5.49,26.42,26.42,0,0,0-17.06,5.66q-7.07,5.65-7.06,15.61,0,10.44,7.11,16a26.78,26.78,0,0,0,17,5.53,26.25,26.25,0,0,0,17.2-5.82q7.11-5.82,7.11-15.64Q1755.51,662.31,1748.26,656.81Zm-11.38,28.88a6.31,6.31,0,0,1-5.49,3.1,6.06,6.06,0,0,1-6-3.7q-1.73-3.71-1.72-13,0-9.76,2.23-12.54a6.64,6.64,0,0,1,5.36-2.78,6.17,6.17,0,0,1,5.8,3.26q1.85,3.26,1.84,12.45Q1738.93,682.6,1736.88,685.69Z"/><path d="M1782.82,681V625.8l-22.72,3.53v5.17c3.06,0,5,.43,5.83,1.28s1.23,2.56,1.23,5.1V681c0,3.06-.53,4.89-1.6,5.51s-2.88.91-5.46.91v5.13h29.44v-5.13q-4.39,0-5.56-1.35T1782.82,681Z"/><path d="M1814.82,681V651.32l-23,3.68v5.12h1.12c2.7,0,4.43.48,5.17,1.43s1.11,2.62,1.11,5V681q0,3.52-1.09,5c-.72,1-2.46,1.45-5.19,1.45h-1.12v5.13h29.59v-5.13c-2.84,0-4.64-.45-5.42-1.37S1814.82,683.41,1814.82,681Z"/><path d="M1807.23,643.3a8.29,8.29,0,0,0,6.12-2.56,8.84,8.84,0,0,0,0-12.38,8.61,8.61,0,0,0-12.28,0,8.48,8.48,0,0,0-2.56,6.16,8.61,8.61,0,0,0,2.49,6.11A8.19,8.19,0,0,0,1807.23,643.3Z"/><path d="M1865.22,656.52q-6-5.19-15.3-5.2A23.59,23.59,0,0,0,1834,657q-6.6,5.65-6.6,15.56t6.82,15.74a24.37,24.37,0,0,0,16.38,5.82,25.06,25.06,0,0,0,11.39-2.58,20.74,20.74,0,0,0,7.9-6.55l-4.49-2.71q-4.8,5.81-10.49,5.8a9.07,9.07,0,0,1-8-4q-2.69-4-2.69-11.85h27Q1871.19,661.72,1865.22,656.52Zm-21,10.85c0-3.58.49-6.25,1.49-8a4.86,4.86,0,0,1,4.5-2.66q5.94,0,6.24,10.68Z"/><path d="M1897.24,679.34a8.73,8.73,0,1,0-12.35,12.35,8.7,8.7,0,0,0,12.33,0,8.7,8.7,0,0,0,0-12.35Z"/><path d="M1888.44,670.9h5.37l4.54-33.16a41.64,41.64,0,0,0,.44-5.32q0-6.61-7.73-6.62t-7.59,7.4a42.1,42.1,0,0,0,.43,4.88Z"/><path class="cls-1" d="M873,807,623,957l370-20"/><path class="cls-2" d="M873,807,623,957l370-20"/><path class="cls-1" d="M945.82,884.11a61.17,61.17,0,0,0-12.91-12.39,1.35,1.35,0,0,0-.73-.27c-6.75-9.43-14-18.5-23-25.59-1.5-1.19-3.64.92-2.12,2.12,9.34,7.35,16.79,16.83,23.74,26.62l-3.32-3.39c-1.36-1.38-3.45.73-2.12,2.13l17.31,18.26a1.34,1.34,0,0,0,1,.43l2.54,2.58a1.5,1.5,0,0,0,2.12,0C951.24,891,948.17,887.2,945.82,884.11Zm-2.56,3.25q-2.58-3.69-5.16-7.45c.75.73,1.49,1.48,2.2,2.26,1,1.12,5.33,5.46,6.1,8.39Q944.84,889,943.26,887.36Z"/><path class="cls-1" d="M953.82,903.49l-13.46-19c-2.21-3.12-4.69-6.25-6.88-9.54a136.32,136.32,0,0,1,13.74,11.55,1.51,1.51,0,0,0,2.36-1.82,45.93,45.93,0,0,0-21.8-20.71,1.52,1.52,0,0,0-2.21,1.69c2.08,7.07,6.89,12.83,11.08,18.76L951.23,905C952.34,906.57,954.94,905.07,953.82,903.49ZM929.76,868.3a43.23,43.23,0,0,1,9.65,7.39c-2.29-1.82-4.62-3.59-7-5.27a1.24,1.24,0,0,0-1.59,0C930.43,869.75,930.08,869,929.76,868.3Z"/><path class="cls-1" d="M1027.21,905.75a209.45,209.45,0,0,1-29.05,4.55c-4.18.34-8.91,1.06-12.82-.79-4.2-2-7.75-5.94-11-9.19-14.35-14.53-26.23-31.73-38.77-47.8-3-3.84-9.59-3.14-12.73,0-3.78,3.78-3,8.88,0,12.73,13.92,17.83,27,37.65,44,52.78,4.16,3.7,8.54,7.09,13.85,9s11,1.79,16.5,1.37a241.53,241.53,0,0,0,34.78-5.26C1043.29,920.57,1038.51,903.21,1027.21,905.75Z"/><path class="cls-1" d="M954.51,862.48c-8.57-10.41-20.4-17.11-31.38-24.62-11.44-7.81-21.41-17.25-31.32-26.86-8.33-8.06-21.07,4.65-12.73,12.73,10.19,9.87,20.51,19.5,32.12,27.7,10.6,7.5,22.2,13.6,30.58,23.77,3.09,3.76,9.52,3.21,12.73,0C958.22,871.49,957.61,866.24,954.51,862.48Z"/><path class="cls-1" d="M1003.07,908.38a45.29,45.29,0,0,0-9.74,1.57c-1.44.38-2.89.89-4.37,1.14l-.44.11a9.9,9.9,0,0,0-4.79-2.72c-10.31-2.64-15.18,11.77-7.22,16.37a12.28,12.28,0,0,0,3.37,2.88,15.33,15.33,0,0,0,8.52,1.5c5-.37,9.72-2.66,14.67-2.85C1014.62,925.94,1014.67,907.94,1003.07,908.38Z"/><path class="cls-1" d="M945.76,823c-3.86,0-3.87,6,0,6S949.62,823,945.76,823Z"/><path class="cls-1" d="M954.32,838.06c-3.86,0-3.86,6,0,6S958.19,838.06,954.32,838.06Z"/><path d="M1007.56,937.6c-1.48.2-3,.37-4.46.56a3.14,3.14,0,0,0-2.7-.84c-.32.06-.67.1-1,.15a2.38,2.38,0,0,0-1.66-1.1,28.38,28.38,0,0,0-6.76-.37,3,3,0,0,0-2.77,2.39,3.44,3.44,0,0,0,.14,4.19,5.82,5.82,0,0,0,2.77,1.8,2.36,2.36,0,0,0,2.19.9q7.15-.74,14.29-1.68C1011.34,943.1,1011.39,937.1,1007.56,937.6Z"/><path d="M878.13,809a3.43,3.43,0,0,0-2.1-.48l-.09-.09-.38-.37a3,3,0,0,0-5.94.67c-.16,2,1.28,3.2,2.61,4.46a4.82,4.82,0,0,0,2.61,1.63,3.22,3.22,0,0,0,1.44-.1l.36-.15a3,3,0,0,0,2.56-1.47A3.05,3.05,0,0,0,878.13,809Z"/></svg>
