<svg id="Layer_1" data-name="Layer 1" xmlns="http://www.w3.org/2000/svg" width="571" height="600" viewBox="0 0 571 600"><defs><style>.cls-1{fill:#aaa;}.cls-2{fill:#fff;}.cls-3{fill:gray;}</style></defs><title>iphone</title><rect class="cls-1" x="36" y="47" width="500" height="500"/><rect x="207.32" y="155.84" width="135.99" height="251.84" rx="12"/><path d="M335.65,408H215a8,8,0,0,1-8-8V163.5a8,8,0,0,1,8-8H335.65a8,8,0,0,1,8,8V400A8,8,0,0,1,335.65,408ZM215,156.16a7.35,7.35,0,0,0-7.34,7.34V400a7.34,7.34,0,0,0,7.34,7.34H335.65A7.34,7.34,0,0,0,343,400V163.5a7.35,7.35,0,0,0-7.34-7.34Z"/><rect class="cls-2" x="220.75" y="177.67" width="107.45" height="201.47"/><path d="M328.52,379.46H220.43V177.35H328.52Zm-107.45-.64H327.88V178H221.07Z"/><circle class="cls-3" cx="271.96" cy="393.41" r="9.23"/><path d="M272,403a9.55,9.55,0,1,1,9.55-9.55A9.56,9.56,0,0,1,272,403Zm0-18.46a8.92,8.92,0,1,0,8.91,8.91A8.92,8.92,0,0,0,272,384.5Z"/><rect class="cls-3" x="259.37" y="165.92" width="31.9" height="5.04" rx="1"/><path d="M290.63,171.27H260a1,1,0,0,1-.95-1v-3.76a1,1,0,0,1,.95-1h30.63a1,1,0,0,1,.95,1v3.76A1,1,0,0,1,290.63,171.27Zm-30.63-5a.32.32,0,0,0-.32.32v3.76a.33.33,0,0,0,.32.32h30.63a.33.33,0,0,0,.32-.32v-3.76a.32.32,0,0,0-.32-.32Z"/></svg>
