<svg id="Layer_1" data-name="Layer 1" xmlns="http://www.w3.org/2000/svg" width="571" height="600" viewBox="0 0 571 600"><defs><style>.cls-1{fill:#aaa;}.cls-2{fill:#efeee1;}.cls-3{fill:#ccc;}.cls-4{fill:#666;}.cls-5{fill:#1a1a1a;}</style></defs><title>miinto</title><rect class="cls-1" x="26" y="39" width="500" height="500"/><rect class="cls-2" x="141" y="320" width="292" height="56" rx="12"/><path d="M415.91,344H158.09A17.11,17.11,0,0,1,141,326.91V188.09A17.11,17.11,0,0,1,158.09,171H415.91A17.11,17.11,0,0,1,433,188.09V326.91A17.11,17.11,0,0,1,415.91,344ZM158.09,187a1.12,1.12,0,0,0-1.09,1.09V326.91a1.12,1.12,0,0,0,1.09,1.09H415.91a1.12,1.12,0,0,0,1.09-1.09V188.09a1.12,1.12,0,0,0-1.09-1.09Z"/><rect class="cls-3" x="157" y="187" width="98" height="141"/><polygon class="cls-3" points="388 328 255 328 255 187 324 260.52 388 328"/><polygon class="cls-4" points="417 330 388 328.98 255 187 417 187 417 330"/><circle cx="284" cy="362" r="8"/><polyline class="cls-5" points="277.83 376 278 406 260 406 260 412 314 412 314 406 292 406 291.92 376"/></svg>
