<svg id="Layer_1" data-name="Layer 1" xmlns="http://www.w3.org/2000/svg" width="571" height="600" viewBox="0 0 571 600"><defs><style>.cls-1{fill:#aaa;}.cls-2{fill:#4d4d4d;}.cls-3{fill:#333;}.cls-4{fill:#f2f2f2;}</style></defs><title>sushi</title><rect class="cls-1" x="34.5" y="53.5" width="500" height="500"/><path class="cls-2" d="M487,342,75.33,412.74a5.13,5.13,0,0,1-5.88-4.22l-1.25-7.66A5.13,5.13,0,0,1,72.42,395l411.89-59.9c2.48-.4,5.86-.95,8,.36a2.83,2.83,0,0,1,1,1.14h0a2.89,2.89,0,0,1-.67,3.48C491.15,341.31,489,341.68,487,342Z"/><path class="cls-3" d="M490.37,407.12l-414.7-50a5.12,5.12,0,0,1-4.42-5.72l1-7.71A5.13,5.13,0,0,1,78,339.24l411.81,60.48c2.49.32,5.88.77,7.54,2.62a2.82,2.82,0,0,1,.63,1.38h0a2.88,2.88,0,0,1-1.64,3.15C494.55,407.65,492.35,407.37,490.37,407.12Z"/><path class="cls-3" d="M284.5,281.5c-40.65,0-72.5-20.86-72.5-47.5s31.85-47.5,72.5-47.5S357,207.36,357,234,325.15,281.5,284.5,281.5Zm0-74c-30.35,0-51.5,14-51.5,26.5s21.15,26.5,51.5,26.5,51.5-14,51.5-26.5S314.85,207.5,284.5,207.5Z"/><path class="cls-3" d="M285,216.17l4.16.7,1.71.54,22.83,11a5.84,5.84,0,0,1,3.31,5.26v.77a5.83,5.83,0,0,1-3.16,5.19l-24.58,12.72a5.83,5.83,0,0,1-2.68.65h-6a5.79,5.79,0,0,1-3-.82L254.86,238.7a5.86,5.86,0,0,1-2.86-5h0a5.84,5.84,0,0,1,3.31-5.26L278.93,217s2.6-.55,4.07-.84A5.54,5.54,0,0,1,285,216.17Z"/><path class="cls-4" d="M229,265l25,12c.84.42,0,2.6,0,3.54v32.65a2.49,2.49,0,0,1-3.49,2.28l-11.91-5.21a2.45,2.45,0,0,1-1-.78L232,304c-.07-.09,0,0-2-2l-1-2a6.8,6.8,0,0,1-1-3V270C228,268.18,227.34,264.17,229,265Z"/><path class="cls-3" d="M228,314l-5-4c-3-2-7-5.7-7-9V249c0-3.3,2.7,2,6,2h0a6,6,0,0,1,6,6v44C228,304.3,231.3,314,228,314Z"/><polygon class="cls-3" points="228 296.97 232 304 238 309 241.12 311.37 245.46 313.27 251 315 249 324 228 314 228 296.97"/><path class="cls-3" d="M330,320H256c-1.38,0-3-26-2-43l94-24.5a2.5,2.5,0,0,1,2.5-2.5h0c1.38,0,2.5-2.38,2.5-1v42.38a20.11,20.11,0,0,1-6.76,15C339.75,312.17,330.91,320,330,320Z"/><path class="cls-3" d="M254.11,307.77,254,313l-1.53,2.69L251,315l-2,9,3,1,3,1,3,1,6,1,6,1h27l6-1,5-1,5-1,4-1,4-.81a7.1,7.1,0,0,0,1.85-.63L328,321l2-1"/></svg>
