<svg id="Layer_1" data-name="Layer 1" xmlns="http://www.w3.org/2000/svg" width="571" height="600" viewBox="0 0 571 600"><defs><style>.cls-1{fill:#aaa;}.cls-2{fill:#e6e6e6;}.cls-3{fill:#4d4d4d;}</style></defs><title>tastatur</title><rect class="cls-1" x="36" y="47" width="500" height="500"/><path class="cls-2" d="M289.68,260.58l-7.36-3.16,3.1-7.21,5.45-10.89,8.25-5.89L311.29,229h44.92a13,13,0,0,0,2.79-8.07v-2l-3.13-6.26-3.58-2.56a6,6,0,0,0-3.5-1.12H228.64A19.58,19.58,0,0,1,220,207l-2-1a21.52,21.52,0,0,1-11-13.11l-1.7-5.8a19.1,19.1,0,0,1-.21-10l.53-2.09a30.39,30.39,0,0,1,12.66-18l2.85-1.91A18.38,18.38,0,0,1,231.37,152h39.29L293,148.11l9.71-3.24L306,133.44V109h8v25.56l-4.73,16.57-14.59,4.81L271.34,160h-40a10.45,10.45,0,0,0-5.79,1.75l-2.85,1.9a22.43,22.43,0,0,0-9.33,13.25l-.52,2.09a11.12,11.12,0,0,0,.11,5.81l1.71,5.8a13.46,13.46,0,0,0,6.87,8.21l2,1a11.5,11.5,0,0,0,5.11,1.21H348.79a14,14,0,0,1,8.15,2.61l5.19,3.71,4.87,9.74v3.87a20.93,20.93,0,0,1-6.17,14.9L359.66,237h-47l-9.83,3.57-5.75,4.11-4.5,9Z"/><path class="cls-3" d="M152,257H421.85a8.15,8.15,0,0,1,8.15,8.15V360a12,12,0,0,1-12,12H152a12,12,0,0,1-12-12V269A12,12,0,0,1,152,257Z"/><path class="cls-1" d="M241.06,339h97.88a2.06,2.06,0,0,1,2.06,2.06v13a.9.9,0,0,1-.9.9h-99a2.06,2.06,0,0,1-2.06-2.06V341.06a2.06,2.06,0,0,1,2.06-2.06Z"/><rect class="cls-1" x="152" y="269" width="19" height="16" rx="1.81"/><rect class="cls-1" x="152" y="292" width="19" height="16" rx="1.81"/><rect class="cls-1" x="152" y="269" width="19" height="16" rx="1.81"/><rect class="cls-1" x="152" y="315" width="19" height="16" rx="1.81"/><rect class="cls-1" x="152" y="338" width="19" height="16" rx="1.81"/><rect class="cls-1" x="181" y="338" width="19" height="16" rx="1.81"/><rect class="cls-1" x="210" y="339" width="19" height="16" rx="1.81"/><rect class="cls-1" x="181" y="315" width="19" height="16" rx="1.81"/><rect class="cls-1" x="181" y="292" width="19" height="16" rx="1.81"/><rect class="cls-1" x="180" y="269" width="19" height="16" rx="1.81"/><rect class="cls-1" x="210" y="293" width="19" height="16" rx="1.81"/><rect class="cls-1" x="210" y="270" width="19" height="16" rx="1.81"/><rect class="cls-1" x="210" y="316" width="19" height="16" rx="1.81"/><rect class="cls-1" x="210" y="339" width="19" height="16" rx="1.81"/><rect class="cls-1" x="239" y="316" width="19" height="16" rx="1.81"/><rect class="cls-1" x="239" y="293" width="19" height="16" rx="1.81"/><rect class="cls-1" x="238" y="270" width="19" height="16" rx="1.81"/><rect class="cls-1" x="266" y="293" width="19" height="16" rx="1.81"/><rect class="cls-1" x="266" y="270" width="19" height="16" rx="1.81"/><rect class="cls-1" x="266" y="316" width="19" height="16" rx="1.81"/><rect class="cls-1" x="295" y="316" width="19" height="16" rx="1.81"/><rect class="cls-1" x="295" y="293" width="19" height="16" rx="1.81"/><rect class="cls-1" x="294" y="270" width="19" height="16" rx="1.81"/><rect class="cls-1" x="349" y="292" width="19" height="16" rx="1.81"/><rect class="cls-1" x="349" y="269" width="19" height="16" rx="1.81"/><rect class="cls-1" x="349" y="315" width="19" height="16" rx="1.81"/><rect class="cls-1" x="349" y="338" width="19" height="16" rx="1.81"/><rect class="cls-1" x="378" y="338" width="19" height="16" rx="1.81"/><rect class="cls-1" x="378" y="315" width="19" height="16" rx="1.81"/><rect class="cls-1" x="378" y="292" width="19" height="16" rx="1.81"/><rect class="cls-1" x="377" y="269" width="19" height="16" rx="1.81"/><rect class="cls-1" x="405" y="292" width="19" height="16" rx="1.81"/><rect class="cls-1" x="405" y="269" width="19" height="16" rx="1.81"/><rect class="cls-1" x="405" y="315" width="19" height="16" rx="1.81"/><rect class="cls-1" x="405" y="338" width="19" height="16" rx="1.81"/><rect class="cls-1" x="322" y="270" width="19" height="16" rx="1.81"/><rect class="cls-1" x="322" y="293" width="19" height="16" rx="1.81"/><rect class="cls-1" x="322" y="315" width="19" height="16" rx="1.81"/></svg>
