<svg id="Layer_1" data-name="Layer 1" xmlns="http://www.w3.org/2000/svg" width="571" height="600" viewBox="0 0 571 600"><defs><style>.cls-1{fill:#aaa;}.cls-2{fill:#ccc;}.cls-3{fill:#666;}.cls-4{fill:#fff;}.cls-5{fill:#333;}.cls-6{fill:#efeee1;}.cls-7{fill:gray;}.cls-8{fill:#999;}.cls-9{fill:#b3b3b3;}.cls-10{fill:#e6e6e6;}</style></defs><title>tjener</title><rect class="cls-1" x="36" y="47" width="500" height="500"/><circle class="cls-2" cx="278" cy="174" r="10"/><path class="cls-2" d="M414,300c1.07-37.54-61.33-113.85-135.86-116S132,271,139.53,309.14C146.8,346,201,326,276,328,350.53,330,412.93,337.54,414,300Z"/><rect class="cls-2" x="136" y="311" width="283" height="24" rx="7.5"/><path class="cls-3" d="M128,335H429a0,0,0,0,1,0,0v6.5a6.5,6.5,0,0,1-6.5,6.5h-288a6.5,6.5,0,0,1-6.5-6.5V335a0,0,0,0,1,0,0Z"/><rect class="cls-4" x="196" y="355" width="12" height="68" transform="matrix(0.97, -0.26, 0.26, 0.97, -93.08, 64.88)"/><polygon class="cls-5" points="85 379 89.94 464.21 207.85 432.9 186.23 351.48 85 379"/><ellipse class="cls-4" cx="183.5" cy="395" rx="5.5" ry="7"/><path class="cls-6" d="M200.52,354.34l14.24-6.18a1.82,1.82,0,0,1,.76-.16H269.7a2.08,2.08,0,0,1,.77.16l15.16,6.68a2,2,0,0,0,.77.16h22.19a6.37,6.37,0,0,1,5.3,2.83h0a2,2,0,0,1,.18.36l1.06,2.65a6.32,6.32,0,0,1,.13,4.37l-.29.89-.94,2.82a6.51,6.51,0,0,1-4.11,4.11l-2.63.87a1.72,1.72,0,0,1-.6.1H283.22a2.28,2.28,0,0,1-.44-.05l-10.37-2.47a1.91,1.91,0,0,0-1.51,3.45h0l.21.12,3.7,1.86a2,2,0,0,0,.39.14l3.57.89a1.84,1.84,0,0,0,.47.06h30.31a1.9,1.9,0,0,0,.85-.2l3.15-1.57a2,2,0,0,0,.73-.65l1.48-2.22a1.91,1.91,0,0,0,.3-.79l.83-5.78a1.94,1.94,0,0,1,.74-1.27L321,363l19.83-14.63A1.94,1.94,0,0,1,342,348h21a1.91,1.91,0,0,1,1.6.87l1.07,1.66a1.92,1.92,0,0,1,.31,1v3.85a1.89,1.89,0,0,1-.32,1.06l-1.47,2.2a1.91,1.91,0,0,1-.53.53L361,361l-54.88,38.92-.25.15L304,401l-2,1-1.6.8a1.9,1.9,0,0,1-.85.2H290l-39-1-38.4-1.68a1.92,1.92,0,0,1-1.77-1.41l-11.4-42.31A1.92,1.92,0,0,1,200.52,354.34Z"/><polygon class="cls-7" points="270 348 295.93 348 286 355 270 348"/><polygon class="cls-8" points="286 355 296 348 309.79 348 301.19 355 286 355"/><polygon class="cls-9" points="300 355 310.29 355.24 312.25 356.16 313.13 356.91 327.76 348 310 348 300 355"/><polygon class="cls-10" points="328 348 342 348 318 366 316.72 367.93 316.47 369.7 316 373 314 376 312.17 376.91 310 378 279 378 275 377 272.69 375.84 271 375 270 373.3 270.63 371.96 272 371 273.45 371.73 277.5 372.69 283 374 307 374 310 373 312.81 371.07 314 369 315 365 315.49 362.12 313 357 328 348"/></svg>
