<?xml version="1.0" standalone="no"?>
<!DOCTYPE svg PUBLIC "-//W3C//DTD SVG 20010904//EN"
 "http://www.w3.org/TR/2001/REC-SVG-20010904/DTD/svg10.dtd">
<svg version="1.0" xmlns="http://www.w3.org/2000/svg"
 width="1100.000000pt" height="1100.000000pt" viewBox="0 0 1100.000000 1100.000000"
 preserveAspectRatio="xMidYMid meet">
<metadata>
Created by potrace 1.11, written by Peter Selinger 2001-2013
</metadata>
<g transform="translate(0.000000,1100.000000) scale(0.100000,-0.100000)"
fill="#000000" stroke="none">
<path d="M5219 10148 c-19 -85 -41 -159 -49 -166 -8 -7 -46 -34 -85 -59 -259
-172 -538 -467 -727 -770 -18 -29 -35 -53 -39 -53 -3 0 -16 57 -28 128 -13 70
-30 163 -38 207 -8 44 -16 82 -19 84 -16 16 -10 -32 26 -228 l41 -222 -37 -67
c-136 -247 -235 -468 -315 -704 -76 -227 -151 -534 -180 -740 -7 -49 -16 -88
-19 -88 -3 0 -63 70 -134 155 -131 158 -146 174 -146 156 0 -7 173 -224 266
-331 11 -13 10 -41 -3 -165 -11 -104 -16 -242 -16 -450 0 -279 6 -383 39 -672
l6 -53 -53 24 c-30 13 -103 47 -164 74 -100 46 -134 56 -109 33 5 -4 82 -41
170 -81 l161 -72 17 -102 c9 -55 19 -111 22 -123 4 -23 -4 -34 -196 -253 -8
-10 -37 -44 -65 -76 -130 -152 -267 -304 -273 -304 -4 0 -14 15 -21 33 -58
129 -176 359 -178 346 -2 -9 37 -98 87 -199 49 -101 90 -192 90 -201 0 -10
-22 -42 -48 -71 -27 -29 -90 -101 -141 -160 -50 -60 -95 -108 -100 -108 -4 0
-22 20 -40 45 -18 25 -36 45 -42 45 -15 0 -11 -9 26 -57 19 -25 35 -51 35 -57
0 -6 -15 -27 -33 -47 -71 -80 -164 -188 -202 -233 -22 -27 -56 -67 -76 -90
-129 -146 -152 -175 -170 -208 -51 -99 -30 -198 62 -288 142 -139 216 -193
284 -209 94 -22 177 13 260 109 16 19 64 73 105 120 41 47 95 110 120 139 25
30 97 113 160 185 63 73 140 161 170 196 30 35 96 109 145 165 50 57 115 132
145 168 30 36 58 66 62 66 8 1 11 -11 58 -214 51 -223 60 -263 96 -395 19 -69
34 -131 34 -139 0 -8 -17 8 -37 36 -151 206 -189 255 -202 266 -33 27 1 -25
132 -201 131 -176 135 -183 161 -279 15 -54 39 -129 52 -166 13 -38 24 -72 24
-78 0 -5 -129 -9 -326 -9 -305 0 -325 -1 -320 -17 3 -10 21 -90 41 -178 19
-88 48 -214 63 -280 l29 -120 186 -3 c114 -1 187 -6 187 -12 0 -6 34 -450 75
-988 41 -537 93 -1213 115 -1502 22 -289 42 -551 46 -582 l6 -58 1433 0 1433
0 6 58 c3 31 22 219 41 417 47 494 99 1031 135 1395 16 168 41 424 55 570 50
517 67 685 72 693 2 4 10 7 16 6 7 -1 57 -1 113 0 l101 1 11 48 c11 43 41 156
116 434 14 54 26 102 26 108 0 6 -102 10 -290 10 -159 0 -290 3 -290 6 0 4 18
66 40 138 67 217 88 287 114 381 41 152 139 560 148 619 2 15 56 -33 227 -203
l223 -222 -11 -137 c-13 -165 -14 -205 -2 -198 4 3 11 56 15 118 3 62 9 132
12 154 l6 42 287 -287 c255 -253 293 -288 340 -305 63 -22 131 -18 188 11 22
12 92 74 156 138 129 130 153 175 145 264 -8 81 -35 119 -225 310 -101 101
-183 188 -183 192 0 5 17 9 38 9 79 0 192 13 192 22 0 9 -114 5 -216 -8 l-42
-5 -256 257 c-141 142 -256 261 -256 266 0 7 18 29 92 112 10 11 15 22 12 25
-3 3 -32 -23 -64 -58 l-59 -64 -33 29 c-18 17 -120 118 -227 225 l-193 194 6
55 c8 63 12 71 95 164 56 63 74 93 52 84 -4 -1 -34 -34 -66 -71 -31 -37 -59
-67 -60 -65 -2 2 3 46 11 98 49 331 68 819 45 1130 -19 253 -82 637 -136 835
-69 250 -129 425 -147 425 -5 0 -14 4 -21 10 -50 41 -76 60 -80 60 -2 0 -7
-30 -9 -67 -6 -78 -41 -158 -85 -193 -145 -114 -339 -23 -359 169 -4 34 -10
60 -13 58 -97 -52 -197 -63 -264 -27 -21 11 -43 17 -49 14 -6 -4 -8 -3 -4 4 3
6 -2 25 -13 44 -28 49 -34 93 -21 151 20 88 71 151 166 207 l43 26 -45 23
c-93 50 -158 150 -158 246 -1 101 54 162 161 180 55 9 156 -17 209 -54 l42
-29 4 57 c5 55 4 57 -51 130 -30 41 -120 139 -198 218 l-143 144 15 29 c17 34
18 40 6 40 -5 0 -14 -13 -21 -30 l-12 -30 -42 31 c-215 163 -409 261 -616 313
-83 21 -85 22 -95 58 -15 52 -29 61 -20 12 l6 -42 -168 -5 c-125 -3 -187 -10
-243 -25 -95 -25 -282 -99 -292 -115 -4 -7 -8 -9 -8 -4 0 4 -11 0 -25 -9 -23
-15 -25 -15 -25 0 0 10 14 74 30 143 33 138 34 143 22 143 -5 0 -24 -69 -43
-152z m45 -1808 c53 -20 75 -123 36 -173 -63 -80 -180 -31 -180 77 0 30 7 45
34 72 35 35 64 42 110 24z m1016 -19 c37 -36 46 -72 31 -122 -29 -97 -155 -94
-188 4 -36 107 81 195 157 118z"/>
<path d="M7331 9633 c-13 -49 -26 -94 -29 -100 -2 -7 0 -13 5 -13 5 0 21 40
36 89 29 96 31 111 19 111 -4 0 -18 -39 -31 -87z"/>
</g>
</svg>
