<svg id="Layer_1" data-name="Layer 1" xmlns="http://www.w3.org/2000/svg" width="1202.78" height="420.91" viewBox="0 0 1202.78 420.91"><defs><style>.cls-1{fill:#f68d05;}.cls-2{fill:#f7f2f2;}</style></defs><title>Artboard 3</title><path class="cls-1" d="M926,133.51H536.45a12,12,0,0,0-12,12v109.8a12,12,0,0,0,12,12h66.7l-6.6,54.2,29.5-34.4,16.5-19.7h283.3a12,12,0,0,0,12-12V145.51A11.89,11.89,0,0,0,926,133.51Z"/><path class="cls-2" d="M541.73,184c3.08,0,6.33.46,9.21,3.22a12.2,12.2,0,0,1,.17,16.63,12.61,12.61,0,0,1-9.21,3.5h-7.56V184Zm-2,18.8h1.44a8.43,8.43,0,0,0,5.32-1.58,7.28,7.28,0,0,0,2.27-5.63,6.91,6.91,0,0,0-1.92-5,7.72,7.72,0,0,0-5.67-2h-1.44Z"/><path class="cls-2" d="M579,186.86a12.42,12.42,0,0,1,0,17.57,12.47,12.47,0,0,1-9,3.43,12.86,12.86,0,0,1-9.1-3.43,11.92,11.92,0,0,1-3.64-8.68,13,13,0,0,1,3.61-8.85,13.81,13.81,0,0,1,18.17,0Zm-14.18,3.57a7.15,7.15,0,0,0-2.07,5.29A7,7,0,0,0,564.9,201a6.86,6.86,0,0,0,5,1.92,7,7,0,0,0,5.18-2,7,7,0,0,0,2-5.22,7.33,7.33,0,0,0-2-5.25,7.47,7.47,0,0,0-5.14-2A7.16,7.16,0,0,0,564.83,190.43Z"/><path class="cls-2" d="M592.06,193.72l8-9.73h6.58l-9.45,11.06,10.19,12.29h-6.94L592.06,197v10.36h-5.39V184h5.39Z"/><path class="cls-2" d="M628.78,197.82a9.89,9.89,0,0,1-2.59,7.38c-2.24,2.31-4.83,2.66-7.29,2.66s-5-.35-7.28-2.66a9.89,9.89,0,0,1-2.59-7.38V184h5.39v13.69a5.5,5.5,0,0,0,1.23,3.92,5,5,0,0,0,6.51,0,5.5,5.5,0,0,0,1.23-3.92V184h5.39Z"/><path class="cls-2" d="M632.8,207.34,636.54,184H641l5.81,14,5.82-14h4.48l3.74,23.35h-5.39l-1.85-13.93-5.85,13.93h-1.89L640,193.41l-1.85,13.93Z"/><path class="cls-2" d="M678.09,188.54h-7.81v4.52h7.42v4.55h-7.42v5.18h7.81v4.55h-13.2V184h13.2Z"/><path class="cls-2" d="M682.46,207.34V184h4.69l12.67,15V184h5.39v23.35h-4.69l-12.67-15.12v15.12Z"/><path class="cls-2" d="M718.51,188.54v18.8h-5.39v-18.8h-5.07V184h15.54v4.55Z"/><path class="cls-2" d="M738.67,202.93h-8.82l-1.78,4.41h-5.6L731.88,184h4.94l9.2,23.35h-5.6Zm-1.47-4.13L734.33,191l-2.9,7.84Z"/><path class="cls-2" d="M755.37,188.54v18.8H750v-18.8H744.9V184h15.54v4.55Z"/><path class="cls-2" d="M768.77,184v23.35h-5.39V184Z"/><path class="cls-2" d="M794.67,186.86a12.42,12.42,0,0,1,0,17.57,12.47,12.47,0,0,1-9,3.43,12.86,12.86,0,0,1-9.1-3.43,11.92,11.92,0,0,1-3.64-8.68,13,13,0,0,1,3.61-8.85,13.79,13.79,0,0,1,18.16,0Zm-14.17,3.57a7.15,7.15,0,0,0-2.07,5.29,7,7,0,0,0,2.14,5.25,6.86,6.86,0,0,0,5,1.92,6.89,6.89,0,0,0,7.21-7.21,7.37,7.37,0,0,0-2-5.25,7.47,7.47,0,0,0-5.14-2A7.16,7.16,0,0,0,780.5,190.43Z"/><path class="cls-2" d="M802.34,207.34V184H807l12.67,15V184h5.39v23.35H820.4l-12.67-15.12v15.12Z"/><path class="cls-2" d="M842.24,189.7a5.67,5.67,0,0,0-3.92-1.68,2.92,2.92,0,0,0-2.28.8,2.09,2.09,0,0,0-.59,1.47,1.65,1.65,0,0,0,.52,1.3,9.68,9.68,0,0,0,2.94,1.33l1.75.66a9.35,9.35,0,0,1,3.19,1.79,5.82,5.82,0,0,1,1.71,4.34,8.38,8.38,0,0,1-2.06,5.77c-2.07,2.17-5.08,2.38-6.62,2.38a9.83,9.83,0,0,1-4.62-1,14.94,14.94,0,0,1-3.43-2.55l2.8-3.85a14.5,14.5,0,0,0,2.17,1.78,5.44,5.44,0,0,0,2.94.84,3.75,3.75,0,0,0,2.45-.8,2.42,2.42,0,0,0,.84-1.89,2.05,2.05,0,0,0-.8-1.68,11.51,11.51,0,0,0-2.73-1.3l-1.93-.66a7.94,7.94,0,0,1-3.25-1.86,5.71,5.71,0,0,1-1.4-4.06,7.19,7.19,0,0,1,2-5.25,7.5,7.5,0,0,1,5.77-2.13,11.28,11.28,0,0,1,6.93,2.31Z"/><path class="cls-2" d="M861.49,189.7a5.67,5.67,0,0,0-3.92-1.68,2.92,2.92,0,0,0-2.28.8,2.09,2.09,0,0,0-.59,1.47,1.65,1.65,0,0,0,.52,1.3,9.68,9.68,0,0,0,2.94,1.33l1.75.66a9.35,9.35,0,0,1,3.19,1.79,5.82,5.82,0,0,1,1.71,4.34,8.38,8.38,0,0,1-2.06,5.77c-2.07,2.17-5.08,2.38-6.62,2.38a9.83,9.83,0,0,1-4.62-1,14.94,14.94,0,0,1-3.43-2.55l2.8-3.85a14.5,14.5,0,0,0,2.17,1.78,5.44,5.44,0,0,0,2.94.84,3.75,3.75,0,0,0,2.45-.8,2.42,2.42,0,0,0,.84-1.89,2.05,2.05,0,0,0-.8-1.68,11.51,11.51,0,0,0-2.73-1.3l-1.93-.66a7.94,7.94,0,0,1-3.25-1.86,5.71,5.71,0,0,1-1.4-4.06,7.19,7.19,0,0,1,2-5.25,7.5,7.5,0,0,1,5.77-2.13,11.28,11.28,0,0,1,6.93,2.31Z"/><path class="cls-2" d="M874.19,184v23.35H868.8V184Z"/><path class="cls-2" d="M887.6,188.54v18.8h-5.39v-18.8h-5.08V184h15.54v4.55Z"/><path class="cls-2" d="M908.7,188.54h-7.8v4.52h7.42v4.55H900.9v5.18h7.8v4.55H895.5V184h13.2Z"/></svg>