<svg id="Layer_1" data-name="Layer 1" xmlns="http://www.w3.org/2000/svg" width="1333.11" height="594.23" viewBox="0 0 1333.11 594.23"><defs><style>.cls-1{fill:#f68d05;}.cls-2{fill:#fcfafa;}</style></defs><title>Artboard 2</title><path class="cls-1" d="M957.65,322.78c-2.2-1.7-5.8-1.9-7.6-1.9h-3.2v16.3H950c2.5,0,5.9-.3,8.2-2.6"/><path class="cls-1" d="M1108.45,276.48H719a12,12,0,0,0-12,12v109.8a12,12,0,0,0,12,12h66.7l-6.6,54.2,29.5-34.4,16.5-19.7h283.3a12,12,0,0,0,12-12V288.48A11.89,11.89,0,0,0,1108.45,276.48Z"/><path class="cls-2" d="M775.45,332c-3.75-3.37-7-3.6-8.4-3.6a6.26,6.26,0,0,0-4.88,1.73,4.46,4.46,0,0,0-1.27,3.15,3.49,3.49,0,0,0,1.12,2.77c1.2,1.13,2.93,1.58,6.3,2.85l3.75,1.43a20,20,0,0,1,6.82,3.82,12.48,12.48,0,0,1,3.68,9.3c0,5.18-1.8,9.67-4.43,12.37-4.42,4.65-10.87,5.1-14.17,5.1a21.14,21.14,0,0,1-9.9-2.1,31.91,31.91,0,0,1-7.35-5.47l6-8.25a30.24,30.24,0,0,0,4.65,3.82,11.63,11.63,0,0,0,6.3,1.8,8,8,0,0,0,5.25-1.72,5.18,5.18,0,0,0,1.8-4.05,4.41,4.41,0,0,0-1.72-3.6c-1.35-1.12-4.43-2.25-5.85-2.77L759,347.16c-2.32-.82-5-1.87-7-4a12.28,12.28,0,0,1-3-8.7,15.36,15.36,0,0,1,4.35-11.25c3.52-3.6,7.72-4.58,12.37-4.58a24.18,24.18,0,0,1,14.85,4.95Z"/><path class="cls-2" d="M808.52,319.79c4.35,0,9.15.6,13.12,4.12,4.28,3.75,4.88,8.7,4.88,12.15,0,6.3-2.4,9.83-4.28,11.78-4,4.05-9.22,4.42-12.75,4.42h-7v17.55H790.89v-50Zm-6.08,23h4.13c1.57,0,4.35-.07,6.22-1.87a7,7,0,0,0,1.88-4.95,6.6,6.6,0,0,0-1.88-4.88c-1.72-1.65-4.2-1.87-6.45-1.87h-3.9Z"/><path class="cls-2" d="M845.57,319.79v50H834v-50Z"/><path class="cls-2" d="M868.29,319.79v40.27h15.53v9.75H856.74v-50Z"/><path class="cls-2" d="M919.37,338.84h20v-19h11.55v50H939.32V348.59h-20v21.22H907.82v-50h11.55Z"/><path class="cls-2" d="M990.09,329.54H973.37v9.67h15.9V349h-15.9v11.1h16.72v9.75H961.82v-50h28.27Z"/><path class="cls-2" d="M1017,319.79c6.37,0,10.35,2.1,12.75,4.35a15.06,15.06,0,0,1,4.35,11.17,13.7,13.7,0,0,1-3.9,10.2,15.81,15.81,0,0,1-7,3.83l15.38,20.47h-14.1L1011,350.09v19.72H999.47v-50Zm-6,22.72h2.62c2.1,0,5-.22,6.9-2.17a6.73,6.73,0,0,0,1.88-4.88,6.06,6.06,0,0,0-2.33-5.1c-1.87-1.42-4.87-1.57-6.37-1.57H1011Z"/><path class="cls-2" d="M1049.94,357.36a6.83,6.83,0,1,1-6.82,6.82A6.75,6.75,0,0,1,1049.94,357.36Zm-5.55-3.68V319.79h11.1v33.89Z"/></svg>