<svg id="Layer_1" data-name="Layer 1" xmlns="http://www.w3.org/2000/svg" xmlns:xlink="http://www.w3.org/1999/xlink" width="1061.15" height="267" viewBox="0 0 1061.15 267"><defs><style>.cls-1{fill:none;}.cls-2{fill:url(#linear-gradient);}.cls-3{fill:url(#linear-gradient-2);}.cls-4{fill:url(#linear-gradient-3);}.cls-5{fill:url(#linear-gradient-4);}.cls-6{fill:#29abe2;}.cls-7{fill:url(#linear-gradient-5);}.cls-8{fill:url(#linear-gradient-6);}.cls-9{fill:url(#linear-gradient-7);}.cls-10{fill:url(#linear-gradient-8);}.cls-11{fill:url(#linear-gradient-9);}.cls-12{fill:url(#linear-gradient-10);}.cls-13{fill:url(#linear-gradient-11);}.cls-14{fill:url(#linear-gradient-12);}.cls-15{fill:url(#linear-gradient-13);}.cls-16{fill:#ff85b5;}.cls-17{fill:#c1fff5;}.cls-18{fill:#f2f2f1;}.cls-19{fill:url(#linear-gradient-14);}.cls-20{fill:url(#linear-gradient-15);}.cls-21{fill:#ffa55d;}.cls-22{fill:#7f3900;}.cls-23{fill:url(#linear-gradient-16);}.cls-24{fill:url(#linear-gradient-17);}.cls-25{fill:url(#linear-gradient-18);}.cls-26{fill:url(#linear-gradient-19);}.cls-27{fill:url(#linear-gradient-20);}.cls-28{fill:url(#linear-gradient-21);}.cls-29{fill:url(#linear-gradient-22);}.cls-30{fill:#fff85b;}.cls-31{fill:#f4ff0f;}.cls-32{fill:#f13d24;}.cls-33{fill:#f15a24;}.cls-34{fill:#c6d0ff;}.cls-35{fill:#ff941a;}.cls-36{fill:url(#linear-gradient-23);}.cls-37{fill:url(#linear-gradient-24);}.cls-38{fill:url(#linear-gradient-25);}.cls-39{fill:url(#linear-gradient-26);}.cls-40{fill:url(#linear-gradient-27);}.cls-41{fill:url(#linear-gradient-28);}.cls-42{fill:url(#linear-gradient-29);}.cls-43{fill:url(#linear-gradient-30);}.cls-44{fill:url(#linear-gradient-31);}.cls-45{fill:url(#linear-gradient-32);}.cls-46{fill:url(#linear-gradient-33);}.cls-47{fill:url(#linear-gradient-34);}.cls-48{fill:#49f2f2;}.cls-49{clip-path:url(#clip-path);}.cls-50{clip-path:url(#clip-path-2);}.cls-51{clip-path:url(#clip-path-5);}.cls-52{fill:url(#linear-gradient-35);}.cls-53{clip-path:url(#clip-path-6);}.cls-54{clip-path:url(#clip-path-7);}.cls-55{clip-path:url(#clip-path-10);}.cls-56{fill:url(#linear-gradient-36);}.cls-57{clip-path:url(#clip-path-11);}.cls-58{clip-path:url(#clip-path-12);}.cls-59{clip-path:url(#clip-path-15);}.cls-60{fill:url(#linear-gradient-37);}.cls-61{clip-path:url(#clip-path-16);}.cls-62{clip-path:url(#clip-path-17);}.cls-63{clip-path:url(#clip-path-20);}.cls-64{fill:url(#linear-gradient-38);}.cls-65{fill:red;}.cls-66{fill:url(#linear-gradient-39);}.cls-67{fill:url(#linear-gradient-40);}.cls-68{fill:url(#linear-gradient-41);}.cls-69{fill:url(#linear-gradient-42);}.cls-70{fill:url(#linear-gradient-43);}.cls-71{fill:url(#linear-gradient-44);}.cls-72{fill:url(#linear-gradient-45);}.cls-73{fill:url(#linear-gradient-46);}.cls-74{fill:url(#linear-gradient-47);}.cls-75{fill:url(#linear-gradient-48);}.cls-76{fill:url(#linear-gradient-49);}.cls-77{fill:url(#linear-gradient-50);}.cls-78{fill:url(#linear-gradient-51);}.cls-79{fill:url(#linear-gradient-52);}.cls-80{fill:url(#linear-gradient-53);}.cls-81{fill:url(#linear-gradient-54);}.cls-82{fill:url(#linear-gradient-55);}.cls-83{fill:url(#linear-gradient-56);}.cls-84{fill:url(#linear-gradient-57);}.cls-85{fill:url(#linear-gradient-58);}.cls-86{fill:url(#linear-gradient-59);}.cls-87{fill:url(#linear-gradient-60);}.cls-88{fill:url(#linear-gradient-61);}.cls-89{fill:url(#linear-gradient-62);}.cls-90{fill:url(#linear-gradient-63);}.cls-91{fill:url(#linear-gradient-64);}.cls-92{fill:url(#linear-gradient-65);}.cls-93{fill:url(#linear-gradient-66);}.cls-94{fill:url(#linear-gradient-67);}.cls-95{fill:url(#linear-gradient-68);}.cls-96{fill:url(#linear-gradient-69);}.cls-97{fill:url(#linear-gradient-70);}.cls-98{fill:url(#linear-gradient-71);}.cls-99{fill:url(#linear-gradient-72);}.cls-100{clip-path:url(#clip-path-21);}.cls-101{clip-path:url(#clip-path-22);}.cls-102{clip-path:url(#clip-path-25);}.cls-103{fill:url(#linear-gradient-73);}.cls-104{clip-path:url(#clip-path-26);}.cls-105{clip-path:url(#clip-path-27);}.cls-106{clip-path:url(#clip-path-30);}.cls-107{fill:url(#linear-gradient-74);}.cls-108{fill:url(#linear-gradient-75);}.cls-109{fill:url(#linear-gradient-76);}.cls-110{fill:url(#linear-gradient-77);}.cls-111{fill:url(#linear-gradient-78);}.cls-112{fill:url(#linear-gradient-79);}.cls-113{fill:url(#linear-gradient-80);}.cls-114{fill:url(#linear-gradient-81);}.cls-115{fill:url(#linear-gradient-82);}.cls-116{fill:url(#linear-gradient-83);}.cls-117{fill:url(#linear-gradient-84);}.cls-118{fill:url(#linear-gradient-85);}.cls-119{fill:url(#linear-gradient-86);}.cls-120{fill:url(#linear-gradient-87);}.cls-121{fill:url(#linear-gradient-88);}.cls-122{fill:url(#linear-gradient-89);}.cls-123{fill:url(#linear-gradient-90);}.cls-124{fill:url(#linear-gradient-91);}.cls-125{fill:url(#linear-gradient-92);}.cls-126{fill:url(#linear-gradient-93);}.cls-127{fill:url(#linear-gradient-94);}.cls-128{fill:url(#linear-gradient-95);}.cls-129{fill:url(#linear-gradient-96);}.cls-130{fill:url(#linear-gradient-97);}.cls-131{fill:url(#linear-gradient-98);}.cls-132{fill:url(#linear-gradient-99);}.cls-133{fill:url(#linear-gradient-100);}.cls-134{fill:url(#linear-gradient-101);}.cls-135{fill:url(#linear-gradient-102);}.cls-136{fill:url(#linear-gradient-103);}.cls-137{fill:url(#linear-gradient-104);}.cls-138{fill:url(#linear-gradient-105);}.cls-139{fill:url(#linear-gradient-106);}.cls-140{fill:url(#linear-gradient-107);}.cls-141{fill:url(#linear-gradient-108);}.cls-142{clip-path:url(#clip-path-31);}.cls-143{clip-path:url(#clip-path-32);}.cls-144{clip-path:url(#clip-path-35);}.cls-145{fill:url(#linear-gradient-109);}.cls-146{clip-path:url(#clip-path-36);}.cls-147{clip-path:url(#clip-path-37);}.cls-148{clip-path:url(#clip-path-40);}.cls-149{fill:url(#linear-gradient-110);}.cls-150{clip-path:url(#clip-path-41);}.cls-151{clip-path:url(#clip-path-42);}.cls-152{clip-path:url(#clip-path-45);}.cls-153{fill:url(#linear-gradient-111);}.cls-154{clip-path:url(#clip-path-46);}.cls-155{clip-path:url(#clip-path-47);}.cls-156{clip-path:url(#clip-path-50);}.cls-157{fill:url(#linear-gradient-112);}.cls-158{fill:url(#linear-gradient-113);}.cls-159{fill:url(#linear-gradient-114);}.cls-160{fill:url(#linear-gradient-115);}.cls-161{fill:url(#linear-gradient-116);}.cls-162{fill:url(#linear-gradient-117);}.cls-163{fill:url(#linear-gradient-118);}.cls-164{fill:url(#linear-gradient-119);}.cls-165{fill:url(#linear-gradient-120);}.cls-166{fill:url(#linear-gradient-121);}.cls-167{fill:url(#linear-gradient-122);}.cls-168{fill:url(#linear-gradient-123);}.cls-169{fill:url(#linear-gradient-124);}.cls-170{fill:url(#linear-gradient-125);}.cls-171{fill:url(#linear-gradient-126);}.cls-172{fill:url(#linear-gradient-127);}.cls-173{fill:url(#linear-gradient-128);}.cls-174{fill:url(#linear-gradient-129);}.cls-175{fill:url(#linear-gradient-130);}.cls-176{fill:url(#linear-gradient-131);}.cls-177{fill:url(#linear-gradient-132);}.cls-178{fill:url(#linear-gradient-133);}.cls-179{fill:url(#linear-gradient-134);}.cls-180{fill:url(#linear-gradient-135);}.cls-181{fill:url(#linear-gradient-136);}.cls-182{fill:url(#linear-gradient-137);}.cls-183{fill:url(#linear-gradient-138);}.cls-184{fill:url(#linear-gradient-139);}.cls-185{fill:url(#linear-gradient-140);}.cls-186{fill:url(#linear-gradient-141);}.cls-187{fill:url(#linear-gradient-142);}.cls-188{fill:url(#linear-gradient-143);}.cls-189{fill:url(#linear-gradient-144);}.cls-190{fill:url(#linear-gradient-145);}.cls-191{fill:url(#linear-gradient-146);}.cls-192{fill:url(#linear-gradient-147);}.cls-193{fill:url(#linear-gradient-148);}.cls-194{clip-path:url(#clip-path-51);}.cls-195{clip-path:url(#clip-path-52);}.cls-196{clip-path:url(#clip-path-55);}.cls-197{fill:url(#linear-gradient-149);}.cls-198{clip-path:url(#clip-path-56);}.cls-199{clip-path:url(#clip-path-57);}.cls-200{clip-path:url(#clip-path-60);}.cls-201{fill:url(#linear-gradient-150);}.cls-202{clip-path:url(#clip-path-61);}.cls-203{clip-path:url(#clip-path-62);}.cls-204{clip-path:url(#clip-path-65);}.cls-205{fill:url(#linear-gradient-151);}.cls-206{clip-path:url(#clip-path-66);}.cls-207{clip-path:url(#clip-path-67);}.cls-208{clip-path:url(#clip-path-70);}.cls-209{fill:url(#linear-gradient-152);}.cls-210{clip-path:url(#clip-path-71);}.cls-211{clip-path:url(#clip-path-72);}.cls-212{clip-path:url(#clip-path-75);}.cls-213{fill:url(#linear-gradient-153);}.cls-214{clip-path:url(#clip-path-76);}.cls-215{clip-path:url(#clip-path-77);}.cls-216{clip-path:url(#clip-path-80);}.cls-217{fill:url(#linear-gradient-154);}.cls-218{fill:url(#linear-gradient-155);}.cls-219{fill:url(#linear-gradient-156);}.cls-220{clip-path:url(#clip-path-81);}.cls-221{clip-path:url(#clip-path-82);}.cls-222{clip-path:url(#clip-path-85);}.cls-223{fill:url(#linear-gradient-157);}.cls-224{clip-path:url(#clip-path-86);}.cls-225{clip-path:url(#clip-path-87);}.cls-226{clip-path:url(#clip-path-90);}.cls-227{fill:url(#linear-gradient-158);}</style><linearGradient id="linear-gradient" x1="-69.81" y1="99.21" x2="-24.62" y2="99.21" gradientTransform="translate(305.97 278.42) rotate(165.55) scale(1 0.87)" gradientUnits="userSpaceOnUse"><stop offset="0" stop-color="#f15a24"/><stop offset="0.21" stop-color="#ee5628"/><stop offset="0.42" stop-color="#e44a34"/><stop offset="0.63" stop-color="#d43647"/><stop offset="0.84" stop-color="#be1a62"/><stop offset="1" stop-color="#aa007b"/></linearGradient><linearGradient id="linear-gradient-2" x1="-269.73" y1="425.23" x2="-223.19" y2="425.23" gradientTransform="matrix(-1, -0.09, 0.12, -1.31, 32.57, 667.65)" xlink:href="#linear-gradient"/><linearGradient id="linear-gradient-3" x1="-365.58" y1="109.56" x2="-348.34" y2="109.56" gradientTransform="matrix(-0.99, -0.11, 0.11, -0.99, -8.76, 165.07)" gradientUnits="userSpaceOnUse"><stop offset="0" stop-color="#ffb580"/><stop offset="0.3" stop-color="#ffb47c"/><stop offset="0.57" stop-color="#ffb071"/><stop offset="0.82" stop-color="#ffab5f"/><stop offset="1" stop-color="#ffa54e"/></linearGradient><linearGradient id="linear-gradient-4" x1="-4136.14" y1="865.81" x2="-4122.32" y2="865.81" gradientTransform="matrix(0.51, -0.86, -0.64, -0.38, 3052.81, -3103.82)" xlink:href="#linear-gradient-3"/><linearGradient id="linear-gradient-5" x1="9.15" y1="467.93" x2="25.58" y2="439.46" gradientTransform="matrix(-0.99, 0.38, -0.65, -1.68, 646.04, 955.81)" gradientUnits="userSpaceOnUse"><stop offset="0" stop-color="#fff"/><stop offset="0.36" stop-color="#fefdfd"/><stop offset="0.55" stop-color="#faf6f5"/><stop offset="0.7" stop-color="#f4eae7"/><stop offset="0.83" stop-color="#ebdad4"/><stop offset="0.95" stop-color="#e0c4bb"/><stop offset="1" stop-color="#dab9ae"/></linearGradient><linearGradient id="linear-gradient-6" x1="-138.93" y1="348.85" x2="-125.71" y2="325.96" gradientTransform="translate(224.51 549.4) rotate(-179.43)" xlink:href="#linear-gradient-5"/><linearGradient id="linear-gradient-7" x1="-42.5" y1="461.92" x2="-27.58" y2="436.08" gradientTransform="translate(265.75 662.94) rotate(-178.28)" gradientUnits="userSpaceOnUse"><stop offset="0" stop-color="#fff"/><stop offset="0.18" stop-color="#f6eeeb"/><stop offset="0.52" stop-color="#e7d1ca"/><stop offset="0.81" stop-color="#ddbfb5"/><stop offset="1" stop-color="#dab9ae"/></linearGradient><linearGradient id="linear-gradient-8" x1="-220.04" y1="181.07" x2="-204.48" y2="154.14" gradientTransform="translate(125.64 383.07) rotate(180)" gradientUnits="userSpaceOnUse"><stop offset="0" stop-color="#fff"/><stop offset="0.26" stop-color="#f4eae7"/><stop offset="0.75" stop-color="#e1c7be"/><stop offset="1" stop-color="#dab9ae"/></linearGradient><linearGradient id="linear-gradient-9" x1="566.54" y1="1058.35" x2="583.38" y2="1058.35" gradientTransform="translate(921.08 -1276.78) rotate(41.53) scale(1 1.37)" xlink:href="#linear-gradient-3"/><linearGradient id="linear-gradient-10" x1="-436.62" y1="59.38" x2="-419.38" y2="59.38" xlink:href="#linear-gradient-3"/><linearGradient id="linear-gradient-11" x1="463.11" y1="1171.18" x2="476.4" y2="1171.18" gradientTransform="translate(706.56 -1367.72) rotate(29.89) scale(1 1.3)" xlink:href="#linear-gradient-3"/><linearGradient id="linear-gradient-12" x1="-230.87" y1="317.48" x2="-184.92" y2="317.48" gradientTransform="translate(125.64 383.07) rotate(180)" gradientUnits="userSpaceOnUse"><stop offset="0" stop-color="#ffb580"/><stop offset="0.38" stop-color="#ffb47d"/><stop offset="0.61" stop-color="#ffb175"/><stop offset="0.8" stop-color="#ffad66"/><stop offset="0.97" stop-color="#ffa652"/><stop offset="1" stop-color="#ffa54e"/></linearGradient><linearGradient id="linear-gradient-13" x1="-190.66" y1="322.45" x2="-179.17" y2="322.45" gradientTransform="translate(125.64 383.07) rotate(180)" gradientUnits="userSpaceOnUse"><stop offset="0" stop-color="#ffb580"/><stop offset="0.55" stop-color="#ffab62"/><stop offset="1" stop-color="#ffa54e"/></linearGradient><linearGradient id="linear-gradient-14" x1="-202.14" y1="314.48" x2="-192.57" y2="314.48" gradientTransform="translate(125.64 383.07) rotate(180)" gradientUnits="userSpaceOnUse"><stop offset="0" stop-color="#ff85b5"/><stop offset="0.27" stop-color="#ff7f9f"/><stop offset="0.84" stop-color="#ff6f68"/><stop offset="1" stop-color="#ff6a57"/></linearGradient><linearGradient id="linear-gradient-15" x1="-227.69" y1="314.48" x2="-218.12" y2="314.48" xlink:href="#linear-gradient-14"/><linearGradient id="linear-gradient-16" x1="149.1" y1="-21.02" x2="153.08" y2="-20.07" gradientTransform="matrix(-0.2, 0.98, -1.01, -0.2, 453.44, -22.12)" xlink:href="#linear-gradient-3"/><linearGradient id="linear-gradient-17" x1="152.89" y1="-20.06" x2="156.87" y2="-19.1" gradientTransform="matrix(-0.2, 0.98, -1.01, -0.2, 453.44, -22.12)" xlink:href="#linear-gradient-3"/><linearGradient id="linear-gradient-18" x1="156.48" y1="-20.01" x2="160.46" y2="-19.06" gradientTransform="matrix(-0.2, 0.98, -1.01, -0.2, 453.44, -22.12)" xlink:href="#linear-gradient-3"/><linearGradient id="linear-gradient-19" x1="160.07" y1="-19.99" x2="164.05" y2="-19.03" gradientTransform="matrix(-0.2, 0.98, -1.01, -0.2, 453.44, -22.12)" xlink:href="#linear-gradient-3"/><linearGradient id="linear-gradient-20" x1="534.95" y1="1531.17" x2="538.68" y2="1532.07" gradientTransform="matrix(0.47, 0.88, -0.91, 0.48, 1580.21, -1079.15)" xlink:href="#linear-gradient-3"/><linearGradient id="linear-gradient-21" x1="264.8" y1="81.71" x2="278.62" y2="81.71" gradientTransform="matrix(-0.09, 1, -0.6, -0.06, 483.16, -133.92)" xlink:href="#linear-gradient-3"/><linearGradient id="linear-gradient-22" x1="-303.07" y1="195.81" x2="-290.21" y2="195.81" gradientTransform="translate(124.99 383.9) rotate(180)" xlink:href="#linear-gradient-3"/><linearGradient id="linear-gradient-23" x1="-261.53" y1="196.14" x2="-248.67" y2="196.14" gradientTransform="translate(124.99 383.9) rotate(180)" xlink:href="#linear-gradient-3"/><linearGradient id="linear-gradient-24" x1="-393.35" y1="54.56" x2="-376.11" y2="54.56" xlink:href="#linear-gradient-3"/><linearGradient id="linear-gradient-25" x1="-3061.09" y1="1377.27" x2="-3057.11" y2="1378.22" gradientTransform="matrix(0.16, 0.99, 1.02, -0.16, -549.76, 3378.5)" xlink:href="#linear-gradient-3"/><linearGradient id="linear-gradient-26" x1="-3057.49" y1="1377.29" x2="-3053.52" y2="1378.25" gradientTransform="matrix(0.16, 0.99, 1.02, -0.16, -549.76, 3378.5)" xlink:href="#linear-gradient-3"/><linearGradient id="linear-gradient-27" x1="-3053.9" y1="1377.32" x2="-3049.93" y2="1378.28" gradientTransform="matrix(0.16, 0.99, 1.02, -0.16, -549.76, 3378.5)" xlink:href="#linear-gradient-3"/><linearGradient id="linear-gradient-28" x1="-3050.33" y1="1377.41" x2="-3046.35" y2="1378.36" gradientTransform="matrix(0.16, 0.99, 1.02, -0.16, -549.76, 3378.5)" xlink:href="#linear-gradient-3"/><linearGradient id="linear-gradient-29" x1="-2867.02" y1="647.54" x2="-2863.29" y2="648.44" gradientTransform="matrix(-0.5, 0.87, 0.89, 0.52, -1631.05, 2275.84)" xlink:href="#linear-gradient-3"/><linearGradient id="linear-gradient-30" x1="-3068.3" y1="1387.64" x2="-3054.49" y2="1387.64" gradientTransform="matrix(0.06, 1, 0.51, -0.03, -127.03, 3239.6)" xlink:href="#linear-gradient-3"/><linearGradient id="linear-gradient-31" x1="-441.53" y1="71.11" x2="-425.44" y2="71.11" xlink:href="#linear-gradient-3"/><linearGradient id="linear-gradient-32" x1="241.29" y1="-24.65" x2="255.11" y2="-24.65" gradientTransform="matrix(-0.44, 0.9, -0.68, -0.34, 435.87, -114.96)" xlink:href="#linear-gradient-3"/><linearGradient id="linear-gradient-33" x1="-314.52" y1="38.28" x2="-298.44" y2="38.28" gradientTransform="matrix(-0.99, -0.11, 0.11, -0.99, 68.8, 135.99)" xlink:href="#linear-gradient-3"/><linearGradient id="linear-gradient-34" x1="-315.72" y1="103.02" x2="-299.64" y2="103.02" xlink:href="#linear-gradient-3"/><clipPath id="clip-path"><polygon class="cls-1" points="314.71 76.48 316 74.8 316.47 75.15 315.17 76.83 314.71 76.48"/></clipPath><clipPath id="clip-path-2"><polygon class="cls-1" points="315.17 76.83 316.47 75.15 316 74.8 314.71 76.48 315.17 76.83"/></clipPath><clipPath id="clip-path-5"><path class="cls-1" d="M316.29,75c.1.12-.13.59-.52,1s-.79.69-.88.57.12-.59.51-1,.78-.7.89-.57"/></clipPath><linearGradient id="linear-gradient-35" x1="-1283.12" y1="1626.71" x2="-1282.13" y2="1626.71" gradientTransform="matrix(0.37, 0.46, -0.7, 0.79, 1934.38, -612.41)" gradientUnits="userSpaceOnUse"><stop offset="0" stop-color="#fff"/><stop offset="0.07" stop-color="#dfdfdf"/><stop offset="0.22" stop-color="#a5a5a5"/><stop offset="0.36" stop-color="#727272"/><stop offset="0.5" stop-color="#494949"/><stop offset="0.64" stop-color="#292929"/><stop offset="0.77" stop-color="#121212"/><stop offset="0.89" stop-color="#050505"/><stop offset="1"/></linearGradient><clipPath id="clip-path-6"><polygon class="cls-1" points="351.02 65.32 350.98 63.2 351.56 63.19 351.61 65.31 351.02 65.32"/></clipPath><clipPath id="clip-path-7"><polygon class="cls-1" points="351.61 65.31 351.56 63.19 350.98 63.2 351.02 65.32 351.61 65.31"/></clipPath><clipPath id="clip-path-10"><path class="cls-1" d="M351.34,63.19c.16,0,.27.55.24,1.13s-.19,1-.34,1-.26-.54-.23-1.13.18-1,.33-1"/></clipPath><linearGradient id="linear-gradient-36" x1="-1786.49" y1="2021.88" x2="-1785.5" y2="2021.88" gradientTransform="matrix(0.58, 0.13, -0.05, 1.05, 1489.47, -1826.27)" xlink:href="#linear-gradient-35"/><clipPath id="clip-path-11"><polygon class="cls-1" points="354.97 74.22 354.93 72.1 355.52 72.09 355.57 74.21 354.97 74.22"/></clipPath><clipPath id="clip-path-12"><polygon class="cls-1" points="355.57 74.21 355.52 72.09 354.93 72.1 354.97 74.22 355.57 74.21"/></clipPath><clipPath id="clip-path-15"><path class="cls-1" d="M355.3,72.09c.16,0,.27.55.24,1.13s-.19,1-.35,1-.26-.54-.23-1.13.18-1,.34-1"/></clipPath><linearGradient id="linear-gradient-37" x1="-1786.58" y1="2021.8" x2="-1785.59" y2="2021.8" gradientTransform="matrix(0.58, 0.13, -0.05, 1.05, 1493.47, -1817.27)" xlink:href="#linear-gradient-35"/><clipPath id="clip-path-16"><polygon class="cls-1" points="320.33 65.55 321.73 63.95 322.18 64.35 320.78 65.93 320.33 65.55"/></clipPath><clipPath id="clip-path-17"><polygon class="cls-1" points="320.78 65.93 322.18 64.35 321.73 63.95 320.33 65.55 320.78 65.93"/></clipPath><clipPath id="clip-path-20"><path class="cls-1" d="M322,64.2c.09.14-.18.58-.58,1s-.84.66-.93.5.18-.57.58-1,.84-.65.93-.5"/></clipPath><linearGradient id="linear-gradient-38" x1="-1699.44" y1="1932.02" x2="-1698.45" y2="1932.02" gradientTransform="matrix(0.34, 0.49, -0.75, 0.74, 2344.43, -541.95)" xlink:href="#linear-gradient-35"/><linearGradient id="linear-gradient-39" x1="186.25" y1="175.25" x2="231.44" y2="175.25" xlink:href="#linear-gradient"/><linearGradient id="linear-gradient-40" x1="-5.82" y1="407.78" x2="40.73" y2="407.78" gradientTransform="matrix(-1, -0.09, 0.12, -1.31, 32.57, 667.65)" xlink:href="#linear-gradient"/><linearGradient id="linear-gradient-41" x1="-101.23" y1="80.34" x2="-83.99" y2="80.34" xlink:href="#linear-gradient-3"/><linearGradient id="linear-gradient-42" x1="-4271.28" y1="1172.06" x2="-4257.46" y2="1172.06" gradientTransform="matrix(0.51, -0.86, -0.64, -0.38, 3052.81, -3103.82)" xlink:href="#linear-gradient-3"/><linearGradient id="linear-gradient-43" x1="242.41" y1="520.78" x2="258.84" y2="492.31" xlink:href="#linear-gradient-5"/><linearGradient id="linear-gradient-44" x1="124.65" y1="375.35" x2="137.86" y2="352.45" gradientTransform="translate(222.9 578.37) rotate(-179.43)" xlink:href="#linear-gradient-5"/><linearGradient id="linear-gradient-45" x1="219.07" y1="503.14" x2="233.99" y2="477.29" gradientTransform="translate(261.17 711.85) rotate(-178.28)" xlink:href="#linear-gradient-7"/><linearGradient id="linear-gradient-46" x1="44.88" y1="181.22" x2="60.44" y2="154.29" xlink:href="#linear-gradient-8"/><linearGradient id="linear-gradient-47" x1="368.12" y1="1186.48" x2="384.96" y2="1186.48" gradientTransform="translate(921.08 -1276.78) rotate(41.53) scale(1 1.37)" xlink:href="#linear-gradient-3"/><linearGradient id="linear-gradient-48" x1="-172.27" y1="30.16" x2="-155.03" y2="30.16" xlink:href="#linear-gradient-3"/><linearGradient id="linear-gradient-49" x1="234.13" y1="1272.27" x2="247.43" y2="1272.27" gradientTransform="translate(706.56 -1367.72) rotate(29.89) scale(1 1.3)" xlink:href="#linear-gradient-3"/><linearGradient id="linear-gradient-50" x1="34.05" y1="317.63" x2="80" y2="317.63" xlink:href="#linear-gradient-12"/><linearGradient id="linear-gradient-51" x1="74.26" y1="322.6" x2="85.75" y2="322.6" xlink:href="#linear-gradient-13"/><linearGradient id="linear-gradient-52" x1="62.78" y1="314.63" x2="72.35" y2="314.63" xlink:href="#linear-gradient-14"/><linearGradient id="linear-gradient-53" x1="37.23" y1="314.63" x2="46.8" y2="314.63" xlink:href="#linear-gradient-14"/><linearGradient id="linear-gradient-54" x1="200.4" y1="231.12" x2="204.39" y2="232.07" gradientTransform="matrix(-0.2, 0.98, -1.01, -0.2, 453.44, -22.12)" xlink:href="#linear-gradient-3"/><linearGradient id="linear-gradient-55" x1="204.2" y1="232.08" x2="208.17" y2="233.04" gradientTransform="matrix(-0.2, 0.98, -1.01, -0.2, 453.44, -22.12)" xlink:href="#linear-gradient-3"/><linearGradient id="linear-gradient-56" x1="207.78" y1="232.12" x2="211.76" y2="233.07" gradientTransform="matrix(-0.2, 0.98, -1.01, -0.2, 453.44, -22.12)" xlink:href="#linear-gradient-3"/><linearGradient id="linear-gradient-57" x1="211.37" y1="232.15" x2="215.36" y2="233.11" gradientTransform="matrix(-0.2, 0.98, -1.01, -0.2, 453.44, -22.12)" xlink:href="#linear-gradient-3"/><linearGradient id="linear-gradient-58" x1="410.92" y1="1758.24" x2="414.65" y2="1759.13" gradientTransform="matrix(0.47, 0.88, -0.91, 0.48, 1580.21, -1079.15)" xlink:href="#linear-gradient-3"/><linearGradient id="linear-gradient-59" x1="290.91" y1="519.33" x2="304.73" y2="519.33" gradientTransform="matrix(-0.09, 1, -0.6, -0.06, 483.16, -133.92)" xlink:href="#linear-gradient-3"/><linearGradient id="linear-gradient-60" x1="-38.15" y1="195.96" x2="-25.29" y2="195.96" gradientTransform="translate(124.99 383.9) rotate(180)" xlink:href="#linear-gradient-3"/><linearGradient id="linear-gradient-61" x1="3.39" y1="196.29" x2="16.25" y2="196.29" gradientTransform="translate(124.99 383.9) rotate(180)" xlink:href="#linear-gradient-3"/><linearGradient id="linear-gradient-62" x1="-129" y1="25.34" x2="-111.76" y2="25.34" xlink:href="#linear-gradient-3"/><linearGradient id="linear-gradient-63" x1="-3102.18" y1="1123.99" x2="-3098.2" y2="1124.94" gradientTransform="matrix(0.16, 0.99, 1.02, -0.16, -549.76, 3378.5)" xlink:href="#linear-gradient-3"/><linearGradient id="linear-gradient-64" x1="-3098.58" y1="1124.01" x2="-3094.6" y2="1124.97" gradientTransform="matrix(0.16, 0.99, 1.02, -0.16, -549.76, 3378.5)" xlink:href="#linear-gradient-3"/><linearGradient id="linear-gradient-65" x1="-3094.99" y1="1124.04" x2="-3091.01" y2="1125" gradientTransform="matrix(0.16, 0.99, 1.02, -0.16, -549.76, 3378.5)" xlink:href="#linear-gradient-3"/><linearGradient id="linear-gradient-66" x1="-3091.42" y1="1124.13" x2="-3087.43" y2="1125.08" gradientTransform="matrix(0.16, 0.99, 1.02, -0.16, -549.76, 3378.5)" xlink:href="#linear-gradient-3"/><linearGradient id="linear-gradient-67" x1="-2733.96" y1="424.63" x2="-2730.23" y2="425.53" gradientTransform="matrix(-0.5, 0.87, 0.89, 0.52, -1631.05, 2275.84)" xlink:href="#linear-gradient-3"/><linearGradient id="linear-gradient-68" x1="-3083.98" y1="870.03" x2="-3070.17" y2="870.03" gradientTransform="matrix(0.06, 1, 0.51, -0.03, -127.03, 3239.6)" xlink:href="#linear-gradient-3"/><linearGradient id="linear-gradient-69" x1="-177.18" y1="41.89" x2="-161.09" y2="41.89" xlink:href="#linear-gradient-3"/><linearGradient id="linear-gradient-70" x1="359.43" y1="288.49" x2="373.25" y2="288.49" gradientTransform="matrix(-0.44, 0.9, -0.68, -0.34, 435.87, -114.96)" xlink:href="#linear-gradient-3"/><linearGradient id="linear-gradient-71" x1="-48.68" y1="46.09" x2="-32.59" y2="46.09" gradientTransform="translate(66.2 172.81) rotate(-173.66)" xlink:href="#linear-gradient-3"/><linearGradient id="linear-gradient-72" x1="-51.37" y1="73.8" x2="-35.29" y2="73.8" xlink:href="#linear-gradient-3"/><clipPath id="clip-path-21"><polygon class="cls-1" points="54.8 65.09 56.1 63.41 56.56 63.76 55.27 65.45 54.8 65.09"/></clipPath><clipPath id="clip-path-22"><polygon class="cls-1" points="55.27 65.45 56.56 63.76 56.1 63.41 54.8 65.09 55.27 65.45"/></clipPath><clipPath id="clip-path-25"><path class="cls-1" d="M56.39,63.64c.1.11-.13.58-.53,1s-.78.7-.88.57.13-.59.52-1,.78-.69.89-.56"/></clipPath><linearGradient id="linear-gradient-73" x1="-1630.33" y1="1814.47" x2="-1629.34" y2="1814.47" xlink:href="#linear-gradient-35"/><clipPath id="clip-path-26"><polygon class="cls-1" points="86.1 65.17 86.06 63.05 86.64 63.04 86.69 65.16 86.1 65.17"/></clipPath><clipPath id="clip-path-27"><polygon class="cls-1" points="86.69 65.16 86.64 63.04 86.06 63.05 86.1 65.17 86.69 65.16"/></clipPath><clipPath id="clip-path-30"><path class="cls-1" d="M86.42,63c.16,0,.27.55.24,1.13s-.19,1-.35,1-.25-.55-.22-1.13.18-1,.33-1"/></clipPath><linearGradient id="linear-gradient-74" x1="-2238.44" y1="2077.69" x2="-2237.45" y2="2077.69" gradientTransform="matrix(0.58, 0.13, -0.05, 1.05, 1489.47, -1826.27)" xlink:href="#linear-gradient-35"/><linearGradient id="linear-gradient-75" x1="-581.88" y1="-52.79" x2="-536.69" y2="-52.79" xlink:href="#linear-gradient"/><linearGradient id="linear-gradient-76" x1="-797.49" y1="460.16" x2="-750.94" y2="460.16" gradientTransform="matrix(-1, -0.09, 0.12, -1.31, 32.57, 667.65)" xlink:href="#linear-gradient"/><linearGradient id="linear-gradient-77" x1="-894.2" y1="168.04" x2="-876.96" y2="168.04" xlink:href="#linear-gradient-3"/><linearGradient id="linear-gradient-78" x1="-3865.85" y1="253.43" x2="-3852.03" y2="253.43" gradientTransform="matrix(0.51, -0.86, -0.64, -0.38, 3052.81, -3103.82)" xlink:href="#linear-gradient-3"/><linearGradient id="linear-gradient-79" x1="-457.31" y1="362.28" x2="-440.89" y2="333.81" xlink:href="#linear-gradient-5"/><linearGradient id="linear-gradient-80" x1="-666.02" y1="295.92" x2="-652.8" y2="273.03" gradientTransform="matrix(-1, -0.01, 0.01, -1, 227.71, 491.45)" xlink:href="#linear-gradient-5"/><linearGradient id="linear-gradient-81" x1="-565.58" y1="379.55" x2="-550.66" y2="353.71" gradientTransform="translate(274.91 565.12) rotate(-178.28)" xlink:href="#linear-gradient-7"/><linearGradient id="linear-gradient-82" x1="-749.8" y1="180.82" x2="-734.25" y2="153.89" xlink:href="#linear-gradient-8"/><linearGradient id="linear-gradient-83" x1="963.3" y1="802.11" x2="980.14" y2="802.11" gradientTransform="translate(921.08 -1276.78) rotate(41.53) scale(1 1.37)" xlink:href="#linear-gradient-3"/><linearGradient id="linear-gradient-84" x1="-965.24" y1="117.86" x2="-948" y2="117.86" xlink:href="#linear-gradient-3"/><linearGradient id="linear-gradient-85" x1="920.97" y1="968.99" x2="934.27" y2="968.99" gradientTransform="translate(706.56 -1367.72) rotate(29.89) scale(1 1.3)" xlink:href="#linear-gradient-3"/><linearGradient id="linear-gradient-86" x1="-760.64" y1="317.22" x2="-714.69" y2="317.22" xlink:href="#linear-gradient-12"/><linearGradient id="linear-gradient-87" x1="-720.43" y1="322.2" x2="-708.93" y2="322.2" xlink:href="#linear-gradient-13"/><linearGradient id="linear-gradient-88" x1="-731.91" y1="314.23" x2="-722.34" y2="314.23" xlink:href="#linear-gradient-14"/><linearGradient id="linear-gradient-89" x1="-757.46" y1="314.23" x2="-747.89" y2="314.23" xlink:href="#linear-gradient-14"/><linearGradient id="linear-gradient-90" x1="46.46" y1="-525.22" x2="50.44" y2="-524.27" gradientTransform="matrix(-0.2, 0.98, -1.01, -0.2, 453.44, -22.12)" xlink:href="#linear-gradient-3"/><linearGradient id="linear-gradient-91" x1="50.25" y1="-524.26" x2="54.23" y2="-523.3" gradientTransform="matrix(-0.2, 0.98, -1.01, -0.2, 453.44, -22.12)" xlink:href="#linear-gradient-3"/><linearGradient id="linear-gradient-92" x1="53.84" y1="-524.21" x2="57.82" y2="-523.26" gradientTransform="matrix(-0.2, 0.98, -1.01, -0.2, 453.44, -22.12)" xlink:href="#linear-gradient-3"/><linearGradient id="linear-gradient-93" x1="57.43" y1="-524.19" x2="61.41" y2="-523.23" gradientTransform="matrix(-0.2, 0.98, -1.01, -0.2, 453.44, -22.12)" xlink:href="#linear-gradient-3"/><linearGradient id="linear-gradient-94" x1="782.92" y1="1077.09" x2="786.65" y2="1077.98" gradientTransform="matrix(0.47, 0.88, -0.91, 0.48, 1580.21, -1079.15)" xlink:href="#linear-gradient-3"/><linearGradient id="linear-gradient-95" x1="212.55" y1="-793.4" x2="226.37" y2="-793.4" gradientTransform="matrix(-0.09, 1, -0.6, -0.06, 483.16, -133.92)" xlink:href="#linear-gradient-3"/><linearGradient id="linear-gradient-96" x1="-832.84" y1="195.56" x2="-819.98" y2="195.56" gradientTransform="translate(124.99 383.9) rotate(180)" xlink:href="#linear-gradient-3"/><linearGradient id="linear-gradient-97" x1="-791.29" y1="195.89" x2="-778.44" y2="195.89" gradientTransform="translate(124.99 383.9) rotate(180)" xlink:href="#linear-gradient-3"/><linearGradient id="linear-gradient-98" x1="-921.97" y1="113.04" x2="-904.73" y2="113.04" xlink:href="#linear-gradient-3"/><linearGradient id="linear-gradient-99" x1="-2978.98" y1="1883.77" x2="-2975" y2="1884.72" gradientTransform="matrix(0.16, 0.99, 1.02, -0.16, -549.76, 3378.5)" xlink:href="#linear-gradient-3"/><linearGradient id="linear-gradient-100" x1="-2975.38" y1="1883.79" x2="-2971.4" y2="1884.75" gradientTransform="matrix(0.16, 0.99, 1.02, -0.16, -549.76, 3378.5)" xlink:href="#linear-gradient-3"/><linearGradient id="linear-gradient-101" x1="-2971.79" y1="1883.82" x2="-2967.81" y2="1884.78" gradientTransform="matrix(0.16, 0.99, 1.02, -0.16, -549.76, 3378.5)" xlink:href="#linear-gradient-3"/><linearGradient id="linear-gradient-102" x1="-2968.22" y1="1883.91" x2="-2964.23" y2="1884.86" gradientTransform="matrix(0.16, 0.99, 1.02, -0.16, -549.76, 3378.5)" xlink:href="#linear-gradient-3"/><linearGradient id="linear-gradient-103" x1="-3133.15" y1="1093.28" x2="-3129.41" y2="1094.18" gradientTransform="matrix(-0.5, 0.87, 0.89, 0.52, -1631.05, 2275.84)" xlink:href="#linear-gradient-3"/><linearGradient id="linear-gradient-104" x1="-3037" y1="2422.72" x2="-3023.18" y2="2422.72" gradientTransform="matrix(0.06, 1, 0.51, -0.03, -127.03, 3239.6)" xlink:href="#linear-gradient-3"/><linearGradient id="linear-gradient-105" x1="-970.15" y1="129.59" x2="-954.07" y2="129.59" xlink:href="#linear-gradient-3"/><linearGradient id="linear-gradient-106" x1="5.02" y1="-650.84" x2="18.83" y2="-650.84" gradientTransform="matrix(-0.44, 0.9, -0.68, -0.34, 435.87, -114.96)" xlink:href="#linear-gradient-3"/><linearGradient id="linear-gradient-107" x1="-846.14" y1="22.72" x2="-830.06" y2="22.72" gradientTransform="translate(73.98 62.36) rotate(-173.66)" xlink:href="#linear-gradient-3"/><linearGradient id="linear-gradient-108" x1="-844.34" y1="161.5" x2="-828.26" y2="161.5" xlink:href="#linear-gradient-3"/><clipPath id="clip-path-31"><polygon class="cls-1" points="844.48 76.73 845.77 75.05 846.24 75.4 844.94 77.09 844.48 76.73"/></clipPath><clipPath id="clip-path-32"><polygon class="cls-1" points="844.94 77.09 846.24 75.4 845.77 75.05 844.48 76.73 844.94 77.09"/></clipPath><clipPath id="clip-path-35"><path class="cls-1" d="M846.06,75.28c.1.11-.13.58-.53,1s-.78.7-.88.57.13-.59.52-1,.78-.69.89-.56"/></clipPath><linearGradient id="linear-gradient-109" x1="-601.54" y1="1230.16" x2="-600.55" y2="1230.16" xlink:href="#linear-gradient-35"/><clipPath id="clip-path-36"><polygon class="cls-1" points="880.79 65.57 880.75 63.46 881.33 63.45 881.38 65.56 880.79 65.57"/></clipPath><clipPath id="clip-path-37"><polygon class="cls-1" points="881.38 65.56 881.33 63.45 880.75 63.46 880.79 65.57 881.38 65.56"/></clipPath><clipPath id="clip-path-40"><path class="cls-1" d="M881.11,63.45c.16,0,.27.54.24,1.12s-.19,1-.35,1-.25-.54-.22-1.12.17-1,.33-1"/></clipPath><linearGradient id="linear-gradient-110" x1="-882.73" y1="1910.23" x2="-881.74" y2="1910.23" gradientTransform="matrix(0.58, 0.13, -0.05, 1.05, 1489.47, -1826.27)" xlink:href="#linear-gradient-35"/><clipPath id="clip-path-41"><polygon class="cls-1" points="884.74 74.47 884.7 72.36 885.29 72.35 885.34 74.47 884.74 74.47"/></clipPath><clipPath id="clip-path-42"><polygon class="cls-1" points="885.34 74.47 885.29 72.35 884.7 72.36 884.74 74.47 885.34 74.47"/></clipPath><clipPath id="clip-path-45"><path class="cls-1" d="M885.07,72.35c.16,0,.27.54.24,1.13s-.19,1-.35,1-.26-.54-.23-1.12.18-1,.34-1"/></clipPath><linearGradient id="linear-gradient-111" x1="-882.81" y1="1910.14" x2="-881.82" y2="1910.14" gradientTransform="matrix(0.58, 0.13, -0.05, 1.05, 1493.47, -1817.27)" xlink:href="#linear-gradient-35"/><clipPath id="clip-path-46"><polygon class="cls-1" points="887.43 84.1 887.84 82.01 888.42 82.13 888.02 84.21 887.43 84.1"/></clipPath><clipPath id="clip-path-47"><polygon class="cls-1" points="888.02 84.21 888.42 82.13 887.84 82.01 887.43 84.1 888.02 84.21"/></clipPath><clipPath id="clip-path-50"><path class="cls-1" d="M888.2,82.09c.15.07.14.58,0,1.15s-.39,1-.54.9-.14-.59,0-1.15.4-1,.54-.9"/></clipPath><linearGradient id="linear-gradient-112" x1="-714.93" y1="1699.12" x2="-713.94" y2="1699.12" gradientTransform="matrix(0.54, 0.25, -0.27, 1.02, 1733.02, -1471.13)" xlink:href="#linear-gradient-35"/><linearGradient id="linear-gradient-113" x1="340.87" y1="54.11" x2="349.76" y2="54.11" gradientTransform="matrix(1, 0, 0, 1, 0, 0)" xlink:href="#linear-gradient-12"/><linearGradient id="linear-gradient-114" x1="321.82" y1="54.63" x2="330.7" y2="54.63" gradientTransform="matrix(1, 0, 0, 1, 0, 0)" xlink:href="#linear-gradient-12"/><linearGradient id="linear-gradient-115" x1="-326.28" y1="24.95" x2="-281.09" y2="24.95" xlink:href="#linear-gradient"/><linearGradient id="linear-gradient-116" x1="-533.51" y1="443.89" x2="-486.96" y2="443.89" gradientTransform="matrix(-1, -0.09, 0.12, -1.31, 32.57, 667.65)" xlink:href="#linear-gradient"/><linearGradient id="linear-gradient-117" x1="-629.76" y1="140.38" x2="-612.52" y2="140.38" xlink:href="#linear-gradient-3"/><linearGradient id="linear-gradient-118" x1="-3999.62" y1="560.66" x2="-3985.8" y2="560.66" gradientTransform="matrix(0.51, -0.86, -0.64, -0.38, 3052.81, -3103.82)" xlink:href="#linear-gradient-3"/><linearGradient id="linear-gradient-119" x1="-224.64" y1="415.91" x2="-208.21" y2="387.45" xlink:href="#linear-gradient-5"/><linearGradient id="linear-gradient-120" x1="-402.67" y1="323.95" x2="-389.45" y2="301.05" gradientTransform="matrix(-1, -0.01, 0.01, -1, 225.94, 520.41)" xlink:href="#linear-gradient-5"/><linearGradient id="linear-gradient-121" x1="-304.32" y1="422.28" x2="-289.4" y2="396.44" gradientTransform="translate(270.04 614) rotate(-178.28)" xlink:href="#linear-gradient-7"/><linearGradient id="linear-gradient-122" x1="-484.96" y1="182.52" x2="-469.4" y2="155.59" xlink:href="#linear-gradient-8"/><linearGradient id="linear-gradient-123" x1="763.91" y1="929.35" x2="780.74" y2="929.35" gradientTransform="translate(921.08 -1276.78) rotate(41.53) scale(1 1.37)" xlink:href="#linear-gradient-3"/><linearGradient id="linear-gradient-124" x1="-700.79" y1="90.2" x2="-683.55" y2="90.2" xlink:href="#linear-gradient-3"/><linearGradient id="linear-gradient-125" x1="691.29" y1="1069.02" x2="704.59" y2="1069.02" gradientTransform="translate(706.56 -1367.72) rotate(29.89) scale(1 1.3)" xlink:href="#linear-gradient-3"/><linearGradient id="linear-gradient-126" x1="-495.32" y1="319.71" x2="-448.87" y2="319.71" xlink:href="#linear-gradient-12"/><linearGradient id="linear-gradient-127" x1="-455.58" y1="323.9" x2="-444.09" y2="323.9" xlink:href="#linear-gradient-13"/><linearGradient id="linear-gradient-128" x1="-467.06" y1="315.93" x2="-457.49" y2="315.93" xlink:href="#linear-gradient-14"/><linearGradient id="linear-gradient-129" x1="-492.61" y1="315.93" x2="-483.04" y2="315.93" xlink:href="#linear-gradient-14"/><linearGradient id="linear-gradient-130" x1="96.23" y1="-272.85" x2="100.21" y2="-271.9" gradientTransform="matrix(-0.2, 0.98, -1.01, -0.2, 453.44, -22.12)" xlink:href="#linear-gradient-3"/><linearGradient id="linear-gradient-131" x1="100.02" y1="-271.89" x2="104" y2="-270.93" gradientTransform="matrix(-0.2, 0.98, -1.01, -0.2, 453.44, -22.12)" xlink:href="#linear-gradient-3"/><linearGradient id="linear-gradient-132" x1="103.61" y1="-271.84" x2="107.59" y2="-270.89" gradientTransform="matrix(-0.2, 0.98, -1.01, -0.2, 453.44, -22.12)" xlink:href="#linear-gradient-3"/><linearGradient id="linear-gradient-133" x1="107.2" y1="-271.82" x2="111.18" y2="-270.86" gradientTransform="matrix(-0.2, 0.98, -1.01, -0.2, 453.44, -22.12)" xlink:href="#linear-gradient-3"/><linearGradient id="linear-gradient-134" x1="657.55" y1="1303.38" x2="661.28" y2="1304.27" gradientTransform="matrix(0.47, 0.88, -0.91, 0.48, 1580.21, -1079.15)" xlink:href="#linear-gradient-3"/><linearGradient id="linear-gradient-135" x1="237.11" y1="-355.67" x2="250.93" y2="-355.67" gradientTransform="matrix(-0.09, 1, -0.6, -0.06, 483.16, -133.92)" xlink:href="#linear-gradient-3"/><linearGradient id="linear-gradient-136" x1="-567.99" y1="197.26" x2="-555.13" y2="197.26" gradientTransform="translate(124.99 383.9) rotate(180)" xlink:href="#linear-gradient-3"/><linearGradient id="linear-gradient-137" x1="-526.45" y1="197.59" x2="-513.59" y2="197.59" gradientTransform="translate(124.99 383.9) rotate(180)" xlink:href="#linear-gradient-3"/><linearGradient id="linear-gradient-138" x1="-657.52" y1="85.37" x2="-640.28" y2="85.37" xlink:href="#linear-gradient-3"/><linearGradient id="linear-gradient-139" x1="-3021.58" y1="1630.79" x2="-3017.6" y2="1631.74" gradientTransform="matrix(0.16, 0.99, 1.02, -0.16, -549.76, 3378.5)" xlink:href="#linear-gradient-3"/><linearGradient id="linear-gradient-140" x1="-3017.98" y1="1630.82" x2="-3014.01" y2="1631.77" gradientTransform="matrix(0.16, 0.99, 1.02, -0.16, -549.76, 3378.5)" xlink:href="#linear-gradient-3"/><linearGradient id="linear-gradient-141" x1="-3014.39" y1="1630.84" x2="-3010.41" y2="1631.8" gradientTransform="matrix(0.16, 0.99, 1.02, -0.16, -549.76, 3378.5)" xlink:href="#linear-gradient-3"/><linearGradient id="linear-gradient-142" x1="-3010.82" y1="1630.94" x2="-3006.84" y2="1631.89" gradientTransform="matrix(0.16, 0.99, 1.02, -0.16, -549.76, 3378.5)" xlink:href="#linear-gradient-3"/><linearGradient id="linear-gradient-143" x1="-3001.46" y1="869.68" x2="-2997.72" y2="870.58" gradientTransform="matrix(-0.5, 0.87, 0.89, 0.52, -1631.05, 2275.84)" xlink:href="#linear-gradient-3"/><linearGradient id="linear-gradient-144" x1="-3054.22" y1="1905.43" x2="-3040.4" y2="1905.43" gradientTransform="matrix(0.06, 1, 0.51, -0.03, -127.03, 3239.6)" xlink:href="#linear-gradient-3"/><linearGradient id="linear-gradient-145" x1="-705.7" y1="101.92" x2="-689.62" y2="101.92" xlink:href="#linear-gradient-3"/><linearGradient id="linear-gradient-146" x1="121.73" y1="-336.88" x2="135.55" y2="-336.88" gradientTransform="matrix(-0.44, 0.9, -0.68, -0.34, 435.87, -114.96)" xlink:href="#linear-gradient-3"/><linearGradient id="linear-gradient-147" x1="-580.41" y1="32.08" x2="-564.33" y2="32.08" gradientTransform="translate(71.17 99.15) rotate(-173.66)" xlink:href="#linear-gradient-3"/><linearGradient id="linear-gradient-148" x1="-579.89" y1="133.83" x2="-563.81" y2="133.83" xlink:href="#linear-gradient-3"/><clipPath id="clip-path-51"><polygon class="cls-1" points="579.63 75.03 580.92 73.35 581.39 73.7 580.09 75.39 579.63 75.03"/></clipPath><clipPath id="clip-path-52"><polygon class="cls-1" points="580.09 75.39 581.39 73.7 580.92 73.35 579.63 75.03 580.09 75.39"/></clipPath><clipPath id="clip-path-55"><path class="cls-1" d="M581.21,73.57c.1.12-.13.59-.52,1s-.79.7-.88.57.12-.59.51-1,.78-.69.89-.57"/></clipPath><linearGradient id="linear-gradient-149" x1="-944.08" y1="1427.46" x2="-943.09" y2="1427.46" xlink:href="#linear-gradient-35"/><clipPath id="clip-path-56"><polygon class="cls-1" points="615.94 63.87 615.9 61.76 616.48 61.74 616.53 63.86 615.94 63.87"/></clipPath><clipPath id="clip-path-57"><polygon class="cls-1" points="616.53 63.86 616.48 61.74 615.9 61.76 615.94 63.87 616.53 63.86"/></clipPath><clipPath id="clip-path-60"><path class="cls-1" d="M616.26,61.74c.16,0,.27.55.24,1.13s-.19,1-.34,1-.26-.54-.23-1.13.18-1,.33-1"/></clipPath><linearGradient id="linear-gradient-150" x1="-1334.68" y1="1964.56" x2="-1333.69" y2="1964.56" gradientTransform="matrix(0.58, 0.13, -0.05, 1.05, 1489.47, -1826.27)" xlink:href="#linear-gradient-35"/><clipPath id="clip-path-61"><polygon class="cls-1" points="619.89 72.77 619.85 70.66 620.44 70.65 620.49 72.76 619.89 72.77"/></clipPath><clipPath id="clip-path-62"><polygon class="cls-1" points="620.49 72.76 620.44 70.65 619.85 70.66 619.89 72.77 620.49 72.76"/></clipPath><clipPath id="clip-path-65"><path class="cls-1" d="M620.22,70.65c.16,0,.27.54.24,1.12s-.19,1-.35,1-.26-.54-.23-1.12.18-1,.34-1"/></clipPath><linearGradient id="linear-gradient-151" x1="-1334.76" y1="1964.48" x2="-1333.77" y2="1964.48" gradientTransform="matrix(0.58, 0.13, -0.05, 1.05, 1493.47, -1817.27)" xlink:href="#linear-gradient-35"/><clipPath id="clip-path-66"><polygon class="cls-1" points="622.58 82.4 622.99 80.31 623.57 80.43 623.17 82.51 622.58 82.4"/></clipPath><clipPath id="clip-path-67"><polygon class="cls-1" points="623.17 82.51 623.57 80.43 622.99 80.31 622.58 82.4 623.17 82.51"/></clipPath><clipPath id="clip-path-70"><path class="cls-1" d="M623.36,80.39c.14.07.13.58,0,1.15s-.4,1-.55.9-.14-.59,0-1.15.4-1,.55-.9"/></clipPath><linearGradient id="linear-gradient-152" x1="-1152.59" y1="1804.72" x2="-1151.6" y2="1804.72" gradientTransform="matrix(0.54, 0.25, -0.27, 1.02, 1733.02, -1471.13)" xlink:href="#linear-gradient-35"/><clipPath id="clip-path-71"><polygon class="cls-1" points="586.65 65.82 587.62 63.93 588.14 64.2 587.17 66.09 586.65 65.82"/></clipPath><clipPath id="clip-path-72"><polygon class="cls-1" points="587.17 66.09 588.14 64.2 587.62 63.93 586.65 65.82 587.17 66.09"/></clipPath><clipPath id="clip-path-75"><path class="cls-1" d="M587.94,64.1c.12.1,0,.6-.33,1.07s-.65.82-.77.72,0-.6.33-1.07.64-.82.77-.72"/></clipPath><linearGradient id="linear-gradient-153" x1="-932.73" y1="1408.99" x2="-931.74" y2="1408.99" gradientTransform="matrix(0.45, 0.38, -0.54, 0.91, 1776.91, -846.49)" xlink:href="#linear-gradient-35"/><clipPath id="clip-path-76"><polygon class="cls-1" points="575.91 84.75 576.31 82.67 576.9 82.78 576.49 84.86 575.91 84.75"/></clipPath><clipPath id="clip-path-77"><polygon class="cls-1" points="576.49 84.86 576.9 82.78 576.31 82.67 575.91 84.75 576.49 84.86"/></clipPath><clipPath id="clip-path-80"><path class="cls-1" d="M576.68,82.75c.15.07.14.58,0,1.14s-.4,1-.55.9-.13-.58,0-1.14.4-1,.55-.9"/></clipPath><linearGradient id="linear-gradient-154" x1="-1228.57" y1="1825.65" x2="-1227.58" y2="1825.65" gradientTransform="matrix(0.54, 0.25, -0.27, 1.02, 1733.02, -1471.13)" xlink:href="#linear-gradient-35"/><linearGradient id="linear-gradient-155" x1="871" y1="186.12" x2="879.4" y2="186.12" gradientTransform="matrix(1, 0, 0, -1, 0, 246.04)" xlink:href="#linear-gradient-12"/><linearGradient id="linear-gradient-156" x1="851.83" y1="186.12" x2="860.23" y2="186.12" gradientTransform="matrix(1, 0, 0, -1, 0, 246.04)" xlink:href="#linear-gradient-12"/><clipPath id="clip-path-81"><polygon class="cls-1" points="849.72 65.17 850.92 63.41 851.41 63.75 850.21 65.5 849.72 65.17"/></clipPath><clipPath id="clip-path-82"><polygon class="cls-1" points="850.21 65.5 851.41 63.75 850.92 63.41 849.72 65.17 850.21 65.5"/></clipPath><clipPath id="clip-path-85"><path class="cls-1" d="M851.22,63.63c.11.12-.1.59-.45,1.05s-.76.75-.86.61.11-.59.46-1.05.75-.75.85-.61"/></clipPath><linearGradient id="linear-gradient-157" x1="-816.35" y1="1714" x2="-815.36" y2="1714" gradientTransform="matrix(0.4, 0.44, -0.65, 0.83, 2292.53, -994.72)" xlink:href="#linear-gradient-35"/><clipPath id="clip-path-86"><polygon class="cls-1" points="822.72 75.17 823.92 73.41 824.41 73.75 823.21 75.5 822.72 75.17"/></clipPath><clipPath id="clip-path-87"><polygon class="cls-1" points="823.21 75.5 824.41 73.75 823.92 73.41 822.72 75.17 823.21 75.5"/></clipPath><clipPath id="clip-path-90"><path class="cls-1" d="M824.22,73.63c.11.12-.1.59-.45,1.05s-.76.75-.86.61.11-.59.46-1.05.75-.75.85-.61"/></clipPath><linearGradient id="linear-gradient-158" x1="-842.02" y1="1739.78" x2="-841.03" y2="1739.78" gradientTransform="matrix(0.4, 0.44, -0.65, 0.83, 2292.53, -994.72)" xlink:href="#linear-gradient-35"/></defs><title>pige_grædende_animation</title><path class="cls-2" d="M354.54,212.35,324,219.74a6.57,6.57,0,0,1-7.95-4.41l-14.93-54.44a6.11,6.11,0,0,1,4.69-7.47L336.35,146a6.56,6.56,0,0,1,7.95,4.4l14.93,54.44A6.11,6.11,0,0,1,354.54,212.35Z"/><path class="cls-3" d="M337.72,168.34l-28.23-2.25c-4.88-.39-8.48-4.29-8.05-8.71l5.64-58.29c.43-4.42,4.73-7.69,9.6-7.3L344.91,94c4.87.39,8.48,4.29,8,8.71L347.32,161C346.89,165.46,342.59,168.73,337.72,168.34Z"/><ellipse class="cls-4" cx="357.45" cy="95.95" rx="8.62" ry="8.97"/><path class="cls-5" d="M429.93,141.55h0c-1.79,3.06-5.18,4.39-7.53,3L356.13,104.1c-2.35-1.43-2.82-5.11-1-8.17h0c1.79-3.06,5.18-4.39,7.53-3l66.27,40.42C431.26,134.81,431.72,138.49,429.93,141.55Z"/><path class="cls-6" d="M340.17,222.69h26.7c0,11.31-12.06,20.62-26.7,20.62s-26.71-9.31-26.71-20.62v-.36Z"/><polygon class="cls-7" points="362.03 203.05 319.08 218.86 310.06 196.33 353 180.52 362.03 203.05"/><ellipse class="cls-8" cx="360.47" cy="212.86" rx="16.28" ry="11.95" transform="translate(-21.12 40.71) rotate(-6.28)"/><ellipse class="cls-9" cx="314.19" cy="215.1" rx="17.25" ry="13.94" transform="translate(-34.31 61.71) rotate(-10.64)"/><ellipse class="cls-10" cx="338.47" cy="214.49" rx="17.23" ry="14.95"/><path class="cls-11" d="M425.75,146h0a7,7,0,0,1,.52,9.27l-63.18,77.82a5.67,5.67,0,0,1-8.49.57h0a7,7,0,0,1-.51-9.27l63.17-77.83A5.67,5.67,0,0,1,425.75,146Z"/><ellipse class="cls-12" cx="422.73" cy="153.5" rx="8.62" ry="8.97"/><path class="cls-13" d="M378.5,147.31h0a6.2,6.2,0,0,1,2.15,8.28L337.41,234a5.68,5.68,0,0,1-7.94,2.24h0a6.21,6.21,0,0,1-2.15-8.28l43.24-78.4A5.69,5.69,0,0,1,378.5,147.31Z"/><path class="cls-14" d="M333.54,100.47h0a23,23,0,0,1-23-23V53.7a23,23,0,0,1,23-23h0a23,23,0,0,1,23,23V77.49A23,23,0,0,1,333.54,100.47Z"/><ellipse cx="326.26" cy="57.11" rx="4.22" ry="4.4"/><ellipse cx="345.41" cy="57.11" rx="4.22" ry="4.4"/><ellipse class="cls-15" cx="310.55" cy="60.62" rx="5.75" ry="5.97"/><ellipse class="cls-16" cx="310.55" cy="60.62" rx="3.83" ry="3.99"/><ellipse class="cls-17" cx="310.55" cy="66.6" rx="1.92" ry="1.99"/><ellipse class="cls-18" cx="328.18" cy="57.11" rx="1.63" ry="1.7"/><ellipse class="cls-18" cx="347.33" cy="57.11" rx="1.63" ry="1.7"/><ellipse class="cls-19" cx="323" cy="68.59" rx="4.79" ry="3.99"/><ellipse class="cls-20" cx="347.89" cy="68.59" rx="4.79" ry="3.99"/><path d="M323.53,52.61h0a1,1,0,0,0,.81-1.14v0l-.28-2.1a1,1,0,0,0-1.08-.86h0a1,1,0,0,0-.81,1.13l.28,2.11A1,1,0,0,0,323.53,52.61Z"/><path d="M321.29,53.83h0a1,1,0,0,0,0-1.39l-1.63-1.83a.93.93,0,0,0-1.31-.1l0,0h0a1,1,0,0,0,0,1.4h0L320,53.8A1,1,0,0,0,321.29,53.83Z"/><path d="M319.84,57.14h0a1,1,0,0,0-.43-1.33h0l-2.17-1.08a1,1,0,0,0-1.28.46h0a1,1,0,0,0,.44,1.33l2.16,1.09A1,1,0,0,0,319.84,57.14Z"/><path d="M349,53.87h0a.93.93,0,0,0,1.31-.07l0,0L352,51.89a1,1,0,0,0,0-1.4l0,0h0a1,1,0,0,0-1.36.09l-1.58,1.89A1.05,1.05,0,0,0,349,53.87Z"/><path d="M350.37,57h0a1,1,0,0,0,1.25.54l2.23-1a1,1,0,0,0,.56-1.28h0a1,1,0,0,0-1.26-.53l-2.21,1A1,1,0,0,0,350.37,57Z"/><path class="cls-21" d="M336.4,63.63l-.07,4.94h.07a5,5,0,1,0,0-10Z"/><polygon class="cls-22" points="292.6 66.9 285.99 66.68 279.39 66.46 282.51 72.73 285.64 79.01 289.12 72.95 292.6 66.9"/><ellipse class="cls-22" cx="323.5" cy="38.26" rx="16.37" ry="6.82" transform="translate(49.02 213.7) rotate(-39.33)"/><ellipse class="cls-22" cx="346.66" cy="38.26" rx="6.81" ry="16.42" transform="translate(88.59 272.86) rotate(-48.57)"/><ellipse class="cls-22" cx="310.73" cy="32.41" rx="4.81" ry="5.22" transform="translate(269.22 342.06) rotate(-88.32)"/><ellipse class="cls-22" cx="297.59" cy="36.94" rx="4.81" ry="5.22" transform="translate(251.94 333.32) rotate(-88.32)"/><ellipse class="cls-22" cx="289.57" cy="46.4" rx="4.81" ry="5.22" transform="translate(234.7 334.49) rotate(-88.32)"/><ellipse class="cls-22" cx="286.72" cy="58.37" rx="4.81" ry="5.22" transform="translate(219.98 343.26) rotate(-88.32)"/><ellipse class="cls-22" cx="357.04" cy="30.76" rx="4.45" ry="4.52" transform="translate(20.04 152.66) rotate(-24.81)"/><ellipse class="cls-22" cx="368.8" cy="33.44" rx="4.45" ry="4.52" transform="translate(20.01 157.84) rotate(-24.81)"/><ellipse class="cls-22" cx="376.91" cy="41.27" rx="4.45" ry="4.52" transform="translate(17.47 161.96) rotate(-24.81)"/><ellipse class="cls-22" cx="380.99" cy="52.04" rx="4.45" ry="4.52" transform="translate(13.33 164.67) rotate(-24.81)"/><polygon class="cls-22" points="387.51 57.65 381.08 58.48 374.63 59.31 378.62 64.54 382.63 69.76 385.07 63.71 387.51 57.65"/><path class="cls-23" d="M449.12,132.15h0a.91.91,0,0,0-.73-1.05h0l-9.45-1.77a1,1,0,0,0-1.1.72h0a.89.89,0,0,0,.7,1h0l9.46,1.77A1,1,0,0,0,449.12,132.15Z"/><path class="cls-24" d="M447.39,135.66h0a.89.89,0,0,0-.71-1h0l-9.45-1.77a1,1,0,0,0-1.1.71h0a.9.9,0,0,0,.72,1.05h0l9.46,1.77A1,1,0,0,0,447.39,135.66Z"/><path class="cls-25" d="M446.62,139.18h0a.88.88,0,0,0-.68-1.05h0l-9.45-1.77a1,1,0,0,0-1.1.7h0a.88.88,0,0,0,.7,1h0l9.45,1.77A.93.93,0,0,0,446.62,139.18Z"/><path class="cls-26" d="M445.87,142.69h0a.87.87,0,0,0-.68-1h0l-9.45-1.77a1,1,0,0,0-1.09.7h0a.87.87,0,0,0,.68,1h0l9.45,1.77A.92.92,0,0,0,445.87,142.69Z"/><path class="cls-27" d="M443.83,125.77h0a1,1,0,0,0-1.25-.36L434,129.79a.88.88,0,0,0-.41,1.17l0,0h0a1,1,0,0,0,1.25.36l8.57-4.38A.9.9,0,0,0,443.83,125.77Z"/><path class="cls-28" d="M444.74,135.84h0c.36-3.53-1.15-6.56-3.36-6.73l-62.13-5c-2.21-.18-4.31,2.56-4.65,6.08h0c-.36,3.53,1.15,6.56,3.36,6.74l62.14,5C442.3,142.11,444.42,139.36,444.74,135.84Z"/><path class="cls-29" d="M421.63,229.85h0a6.43,6.43,0,0,1-6.43-6.43V152.77a6.43,6.43,0,0,1,6.43-6.43h0a6.43,6.43,0,0,1,6.43,6.43v70.65A6.43,6.43,0,0,1,421.63,229.85Z"/><rect class="cls-30" x="418.17" y="225.43" width="8.77" height="14.46" rx="1.05"/><rect class="cls-31" x="418.17" y="228.2" width="8.77" height="3.57"/><path class="cls-32" d="M419.37,251.36l10.61.23v-.23c0-7.91-4.79-14.33-10.61-14.33s-10.56,6.47-10.56,14.33Z"/><path class="cls-33" d="M434.22,251.39l19.08.27v-.27c0-8.8-8.61-16-19.08-16s-19.09,7.24-19.09,16Z"/><rect class="cls-34" x="408.78" y="251.35" width="44.52" height="2.05"/><path class="cls-35" d="M432.09,223.81v.38c0,2.22-2.13,4-4.76,4h-9.54c-2.64,0-4.78-1.79-4.78-4v-.38c0-2.21,2.14-4,4.78-4h9.54C430,219.8,432.09,221.58,432.09,223.81Z"/><path class="cls-36" d="M384.64,228.2h-9.1a1.85,1.85,0,0,1-1.88-1.82V149.15a1.85,1.85,0,0,1,1.88-1.82h9.1a1.85,1.85,0,0,1,1.88,1.82v77.23A1.85,1.85,0,0,1,384.64,228.2Z"/><rect class="cls-30" x="376.63" y="226.42" width="8.77" height="14.46" rx="1.05"/><rect class="cls-31" x="376.63" y="229.19" width="8.77" height="3.57"/><path class="cls-32" d="M377.83,252.35l10.61.23v-.23c0-7.91-4.79-14.33-10.61-14.33s-10.56,6.46-10.56,14.33Z"/><path class="cls-33" d="M392.68,252.38l19.08.27v-.27c0-8.81-8.62-16-19.08-16s-19.09,7.24-19.09,16Z"/><rect class="cls-34" x="367.24" y="252.34" width="44.52" height="2.05"/><path class="cls-35" d="M390.55,224.8v.38c0,2.22-2.13,4-4.77,4h-9.53c-2.64,0-4.78-1.79-4.78-4v-.38c0-2.21,2.14-4,4.78-4h9.53C388.42,220.79,390.55,222.57,390.55,224.8Z"/><ellipse class="cls-37" cx="379.21" cy="153.5" rx="8.62" ry="8.97"/><path class="cls-38" d="M364.18,139.28h0a.88.88,0,0,1,.76-1h0l9.52-1.42a1,1,0,0,1,1.07.74h0a.89.89,0,0,1-.76,1L365.29,140a.93.93,0,0,1-1.1-.72Z"/><path class="cls-39" d="M364.8,142.82h0a.88.88,0,0,1,.76-1l9.51-1.42a1,1,0,0,1,1.07.75h0a.88.88,0,0,1-.76,1l-9.52,1.42A1,1,0,0,1,364.8,142.82Z"/><path class="cls-40" d="M365.41,146.41h0a.88.88,0,0,1,.76-1l9.52-1.42a.93.93,0,0,1,1.06.74h0a.87.87,0,0,1-.75,1h0l-9.51,1.42A1,1,0,0,1,365.41,146.41Z"/><path class="cls-41" d="M366,149.89h0a.89.89,0,0,1,.76-1l9.51-1.42a1,1,0,0,1,1.08.76h0a.88.88,0,0,1-.76,1l-9.52,1.42A1,1,0,0,1,366,149.89Z"/><path class="cls-42" d="M368.71,133.06h0a1,1,0,0,1,1.27-.31l8.39,4.69a.89.89,0,0,1,.36,1.21v0h0a1,1,0,0,1-1.26.32l-8.4-4.7a.9.9,0,0,1-.36-1.21Z"/><path class="cls-43" d="M367.42,144.1h0c-.23-3.53,1.13-6.49,3-6.57l53.1-2.14c1.88-.08,3.61,2.76,3.83,6.29h0c.21,3.54-1.14,6.5-3,6.58l-53.07,2.1C369.36,150.47,367.63,147.64,367.42,144.1Z"/><ellipse class="cls-44" cx="429.42" cy="142.49" rx="8.04" ry="8.37"/><path class="cls-45" d="M383.78,135.13h0c1.59-3.17.84-6.75-1.68-7.91L311.32,93.28c-2.51-1.2-5.86.41-7.45,3.58h0c-1.6,3.17-.84,6.74,1.67,7.91l70.78,33.9C378.83,139.91,382.18,138.3,383.78,135.13Z"/><ellipse class="cls-46" cx="377.39" cy="131.91" rx="8.04" ry="8.37" transform="translate(-14.67 53.74) rotate(-7.99)"/><ellipse class="cls-47" cx="307.76" cy="96.99" rx="8.04" ry="8.37"/><ellipse class="cls-48" cx="315.99" cy="76.67" rx="1.77" ry="1.3" transform="translate(146.97 354.45) rotate(-72.32)"/><polygon class="cls-48" points="317.29 76.92 316.04 76.58 314.8 76.26 315.88 74.77 316.98 73.28 317.13 75.1 317.29 76.92"/><g id="shiny-2"><g class="cls-49"><g class="cls-50"><g class="cls-49"><g class="cls-50"><g class="cls-51"><polygon class="cls-52" points="316.09 74.64 316.61 75.26 315.07 76.99 314.57 76.37 316.09 74.64"/></g></g></g></g></g></g><ellipse class="cls-48" cx="351.95" cy="64.32" rx="1.29" ry="1.77" transform="translate(0.52 131.39) rotate(-21.16)"/><polygon class="cls-48" points="353.31 64.05 352.13 64.58 350.95 65.09 350.87 63.25 350.8 61.4 352.06 62.73 353.31 64.05"/><g id="shiny-5"><g class="cls-53"><g class="cls-54"><g class="cls-53"><g class="cls-54"><g class="cls-55"><polygon class="cls-56" points="350.95 63.02 351.74 63.19 351.63 65.5 350.84 65.32 350.95 63.02"/></g></g></g></g></g></g><ellipse class="cls-48" cx="355.91" cy="73.19" rx="1.29" ry="1.77" transform="translate(-2.42 133.42) rotate(-21.16)"/><polygon class="cls-48" points="357.27 72.95 356.08 73.48 354.9 73.99 354.82 72.15 354.76 70.3 356.01 71.63 357.27 72.95"/><g id="shiny-6"><g class="cls-57"><g class="cls-58"><g class="cls-57"><g class="cls-58"><g class="cls-59"><polygon class="cls-60" points="354.9 71.92 355.7 72.09 355.59 74.4 354.8 74.22 354.9 71.92"/></g></g></g></g></g></g><ellipse class="cls-48" cx="321.6" cy="65.84" rx="1.77" ry="1.3" transform="translate(142.4 340.88) rotate(-68.48)"/><polygon class="cls-48" points="322.88 66.17 321.65 65.75 320.44 65.33 321.62 63.92 322.81 62.51 322.85 64.34 322.88 66.17"/><g id="shiny-7"><g class="cls-61"><g class="cls-62"><g class="cls-61"><g class="cls-62"><g class="cls-63"><polygon class="cls-64" points="321.84 63.8 322.3 64.47 320.66 66.09 320.2 65.43 321.84 63.8"/></g></g></g></g></g></g><path class="cls-65" d="M335.29,76.76l-1.14.48a2.12,2.12,0,0,1,0-.71c.2-.9.85-1.54,1.45-1.41a1.46,1.46,0,0,1,.74,1.88Z"/><path class="cls-65" d="M337,77.32,335.89,77c.21-.88.85-1.49,1.45-1.36s1,1,.74,1.87a2.26,2.26,0,0,1-.46,1Z"/><path d="M335.19,83.29l-3,.22v-.46c.31-4,1.91-7,3.55-6.92s2.71,3.46,2.4,7.39a7.82,7.82,0,0,1-.12,1.06Z"/><path class="cls-65" d="M335.17,83.53l2.86,1a3.34,3.34,0,0,0-.26-2.22,3,3,0,0,0-3.95-1.62,2.87,2.87,0,0,0-1.57,2.75Z"/><rect class="cls-1" x="266.38" y="2" width="265" height="265"/><path class="cls-66" d="M89.62,212.2l-30.51,7.39a6.57,6.57,0,0,1-8-4.41L36.23,160.74a6.11,6.11,0,0,1,4.69-7.47l30.51-7.38a6.56,6.56,0,0,1,7.95,4.4l14.93,54.44A6.11,6.11,0,0,1,89.62,212.2Z"/><path class="cls-67" d="M72.8,168.19l-28.23-2.25c-4.88-.39-8.48-4.29-8-8.71l5.64-58.29c.43-4.42,4.73-7.69,9.6-7.3L80,93.89c4.87.39,8.48,4.29,8.05,8.71L82.4,160.88C82,165.31,77.67,168.58,72.8,168.19Z"/><ellipse class="cls-68" cx="92.53" cy="95.8" rx="8.62" ry="8.97"/><path class="cls-69" d="M165,141.4h0c-1.79,3-5.18,4.39-7.53,3L91.21,104c-2.35-1.43-2.82-5.11-1-8.17h0c1.79-3.06,5.18-4.39,7.53-3L164,133.23C166.34,134.66,166.8,138.34,165,141.4Z"/><path class="cls-6" d="M75.25,222.53H102c0,11.32-12.06,20.63-26.7,20.63s-26.71-9.31-26.71-20.63v-.35Z"/><polygon class="cls-70" points="97.11 202.9 54.16 218.71 45.13 196.18 88.08 180.37 97.11 202.9"/><ellipse class="cls-71" cx="95.55" cy="212.71" rx="16.28" ry="11.95" transform="translate(-22.69 11.73) rotate(-6.28)"/><ellipse class="cls-72" cx="49.27" cy="214.95" rx="17.25" ry="13.94" transform="translate(-38.84 12.79) rotate(-10.64)"/><ellipse class="cls-73" cx="73.55" cy="214.34" rx="17.23" ry="14.95"/><path class="cls-74" d="M160.83,145.89h0a7,7,0,0,1,.52,9.27L98.17,233a5.66,5.66,0,0,1-8.49.56h0a7,7,0,0,1-.51-9.26l63.17-77.83A5.67,5.67,0,0,1,160.83,145.89Z"/><ellipse class="cls-75" cx="157.81" cy="153.35" rx="8.62" ry="8.97"/><path class="cls-76" d="M113.58,147.16h0a6.2,6.2,0,0,1,2.15,8.28L72.49,233.83a5.68,5.68,0,0,1-7.94,2.24h0a6.21,6.21,0,0,1-2.15-8.28l43.24-78.4A5.69,5.69,0,0,1,113.58,147.16Z"/><path class="cls-77" d="M68.62,100.32h0a23,23,0,0,1-23-23V53.55a23,23,0,0,1,23-23h0a23,23,0,0,1,23,23V77.34A23,23,0,0,1,68.62,100.32Z"/><ellipse cx="61.34" cy="56.96" rx="4.22" ry="4.4"/><ellipse cx="80.49" cy="56.96" rx="4.22" ry="4.4"/><ellipse class="cls-78" cx="45.63" cy="60.47" rx="5.75" ry="5.97"/><ellipse class="cls-16" cx="44.66" cy="59.66" rx="3.87" ry="4.03"/><ellipse class="cls-17" cx="44.66" cy="65.7" rx="1.94" ry="2.01"/><ellipse class="cls-18" cx="63.26" cy="56.96" rx="1.63" ry="1.7"/><ellipse class="cls-18" cx="82.41" cy="56.96" rx="1.63" ry="1.7"/><ellipse class="cls-79" cx="58.08" cy="68.44" rx="4.79" ry="3.99"/><ellipse class="cls-80" cx="82.97" cy="68.44" rx="4.79" ry="3.99"/><path d="M58.61,52.46h0a1,1,0,0,0,.81-1.14v0l-.28-2.11a1,1,0,0,0-1.08-.85h0a1,1,0,0,0-.81,1.13l.28,2.11A1,1,0,0,0,58.61,52.46Z"/><path d="M56.37,53.68h0a1,1,0,0,0,0-1.39l-1.63-1.83a.93.93,0,0,0-1.31-.1l0,0h0a1,1,0,0,0,0,1.4h0l1.63,1.84A1,1,0,0,0,56.37,53.68Z"/><path d="M54.92,57h0a1,1,0,0,0-.43-1.33h0l-2.17-1.08A1,1,0,0,0,51,55h0a1,1,0,0,0,.44,1.33l2.16,1.09A1,1,0,0,0,54.92,57Z"/><path d="M81.08,52.18h0a1,1,0,0,0,1.19-.67L83,49.12a1,1,0,0,0-.64-1.24h0a1,1,0,0,0-1.2.66L80.44,51A1,1,0,0,0,81.08,52.18Z"/><path d="M84.11,53.71h0a.92.92,0,0,0,1.31-.06l0,0L87,51.74a1,1,0,0,0-.05-1.4l0,0h0a1,1,0,0,0-1.36.09L84,52.29A1,1,0,0,0,84.11,53.71Z"/><path d="M85.45,56.87h0a1,1,0,0,0,1.25.54l2.23-1a1,1,0,0,0,.56-1.28h0a1,1,0,0,0-1.26-.53l-2.21,1A1,1,0,0,0,85.45,56.87Z"/><path class="cls-21" d="M71.48,63.48l-.07,4.94h.07a5,5,0,0,0,0-10Z"/><polygon class="cls-22" points="26.51 66.01 19.83 65.79 13.15 65.56 16.31 71.9 19.47 78.25 22.99 72.13 26.51 66.01"/><ellipse class="cls-22" cx="58.58" cy="38.11" rx="16.37" ry="6.82" transform="translate(-10.88 45.76) rotate(-39.33)"/><ellipse class="cls-22" cx="81.74" cy="38.11" rx="6.81" ry="16.42" transform="translate(-0.92 74.18) rotate(-48.57)"/><ellipse class="cls-22" cx="45.81" cy="32.26" rx="4.81" ry="5.22" transform="translate(12.22 77.11) rotate(-88.32)"/><ellipse class="cls-22" cx="31.55" cy="35.72" rx="4.86" ry="5.28" transform="translate(-5.08 66.21) rotate(-88.32)"/><ellipse class="cls-22" cx="23.45" cy="45.28" rx="4.86" ry="5.28" transform="translate(-22.5 67.39) rotate(-88.32)"/><ellipse class="cls-22" cx="20.57" cy="57.38" rx="4.86" ry="5.28" transform="translate(-37.39 76.25) rotate(-88.32)"/><ellipse class="cls-22" cx="92.12" cy="30.61" rx="4.45" ry="4.52" transform="translate(-4.34 41.48) rotate(-24.81)"/><ellipse class="cls-22" cx="103.88" cy="33.29" rx="4.45" ry="4.52" transform="translate(-4.38 46.66) rotate(-24.81)"/><ellipse class="cls-22" cx="111.99" cy="41.12" rx="4.45" ry="4.52" transform="translate(-6.92 50.79) rotate(-24.81)"/><ellipse class="cls-22" cx="116.07" cy="51.89" rx="4.45" ry="4.52" transform="translate(-11.06 53.5) rotate(-24.81)"/><polygon class="cls-22" points="122.59 57.5 116.16 58.33 109.71 59.16 113.7 64.39 117.71 69.61 120.15 63.56 122.59 57.5"/><path class="cls-81" d="M184.2,132h0a.91.91,0,0,0-.73-1.05h0L174,129.18a1,1,0,0,0-1.1.72h0a.89.89,0,0,0,.7,1h0l9.46,1.77A1,1,0,0,0,184.2,132Z"/><path class="cls-82" d="M182.47,135.51h0a.89.89,0,0,0-.71-1h0l-9.45-1.78a1,1,0,0,0-1.1.72h0a.9.9,0,0,0,.72,1.05h0l9.46,1.77A1,1,0,0,0,182.47,135.51Z"/><path class="cls-83" d="M181.7,139h0a.88.88,0,0,0-.68-1h0l-9.45-1.77a1,1,0,0,0-1.1.7h0a.88.88,0,0,0,.7,1h0l9.45,1.77A.93.93,0,0,0,181.7,139Z"/><path class="cls-84" d="M181,142.54h0a.87.87,0,0,0-.68-1h0l-9.45-1.77a1,1,0,0,0-1.09.7h0a.87.87,0,0,0,.68,1h0l9.45,1.77A.92.92,0,0,0,181,142.54Z"/><path class="cls-85" d="M178.91,125.62h0a1,1,0,0,0-1.25-.36l-8.57,4.38a.88.88,0,0,0-.41,1.17l0,0h0a1,1,0,0,0,1.25.37l8.57-4.38A.9.9,0,0,0,178.91,125.62Z"/><path class="cls-86" d="M179.82,135.69h0c.36-3.53-1.15-6.56-3.36-6.73l-62.13-5c-2.21-.18-4.31,2.56-4.65,6.08h0c-.36,3.53,1.15,6.56,3.36,6.74l62.14,4.94C177.38,142,179.5,139.21,179.82,135.69Z"/><path class="cls-87" d="M156.71,229.7h0a6.43,6.43,0,0,1-6.43-6.43V152.62a6.43,6.43,0,0,1,6.43-6.43h0a6.43,6.43,0,0,1,6.43,6.43v70.65A6.43,6.43,0,0,1,156.71,229.7Z"/><rect class="cls-30" x="153.25" y="225.28" width="8.77" height="14.46" rx="1.05"/><rect class="cls-31" x="153.25" y="228.05" width="8.77" height="3.57"/><path class="cls-32" d="M154.45,251.21l10.61.23v-.23c0-7.91-4.79-14.33-10.61-14.33s-10.56,6.47-10.56,14.33Z"/><path class="cls-33" d="M169.3,251.24l19.08.27v-.27c0-8.8-8.61-16-19.08-16s-19.09,7.24-19.09,16Z"/><rect class="cls-34" x="143.86" y="251.2" width="44.52" height="2.05"/><path class="cls-35" d="M167.17,223.66V224c0,2.22-2.13,4-4.76,4h-9.54c-2.64,0-4.78-1.79-4.78-4v-.38c0-2.21,2.14-4,4.78-4h9.54C165,219.65,167.17,221.43,167.17,223.66Z"/><path class="cls-88" d="M119.72,228.05h-9.1a1.85,1.85,0,0,1-1.88-1.82V149a1.85,1.85,0,0,1,1.88-1.82h9.1A1.85,1.85,0,0,1,121.6,149v77.23A1.85,1.85,0,0,1,119.72,228.05Z"/><rect class="cls-30" x="111.71" y="226.27" width="8.77" height="14.46" rx="1.05"/><rect class="cls-31" x="111.71" y="229.04" width="8.77" height="3.57"/><path class="cls-32" d="M112.91,252.2l10.61.23v-.23c0-7.92-4.79-14.33-10.61-14.33s-10.56,6.46-10.56,14.33Z"/><path class="cls-33" d="M127.76,252.23l19.08.26v-.26c0-8.81-8.62-16-19.08-16s-19.09,7.24-19.09,16Z"/><rect class="cls-34" x="102.32" y="252.19" width="44.52" height="2.05"/><path class="cls-35" d="M125.63,224.65V225c0,2.22-2.13,4-4.77,4h-9.53c-2.64,0-4.78-1.79-4.78-4v-.38c0-2.21,2.14-4,4.78-4h9.53C123.5,220.64,125.63,222.42,125.63,224.65Z"/><ellipse class="cls-89" cx="114.29" cy="153.35" rx="8.62" ry="8.97"/><path class="cls-90" d="M99.26,139.13h0a.88.88,0,0,1,.76-1h0l9.52-1.41a1,1,0,0,1,1.07.74h0a.89.89,0,0,1-.76,1l-9.48,1.42a.93.93,0,0,1-1.1-.72Z"/><path class="cls-91" d="M99.88,142.66h0a.88.88,0,0,1,.76-1l9.51-1.42a1,1,0,0,1,1.07.75h0a.88.88,0,0,1-.76,1l-9.52,1.42A1,1,0,0,1,99.88,142.66Z"/><path class="cls-92" d="M100.49,146.26h0a.88.88,0,0,1,.76-1l9.52-1.42a.93.93,0,0,1,1.06.74h0a.87.87,0,0,1-.75,1h0L101.56,147A1,1,0,0,1,100.49,146.26Z"/><path class="cls-93" d="M101.11,149.74h0a.88.88,0,0,1,.76-1l9.51-1.42a1,1,0,0,1,1.08.76h0a.88.88,0,0,1-.76,1l-9.52,1.42A1,1,0,0,1,101.11,149.74Z"/><path class="cls-94" d="M103.79,132.91h0a1,1,0,0,1,1.27-.31l8.39,4.69a.89.89,0,0,1,.36,1.21v0h0a1,1,0,0,1-1.26.32l-8.4-4.7a.9.9,0,0,1-.36-1.21Z"/><path class="cls-95" d="M102.5,144h0c-.23-3.53,1.13-6.49,3-6.57l53.1-2.14c1.88-.08,3.61,2.76,3.83,6.29h0c.21,3.54-1.14,6.5-3,6.57l-53.07,2.11C104.44,150.32,102.71,147.49,102.5,144Z"/><ellipse class="cls-96" cx="164.5" cy="142.34" rx="8.04" ry="8.37"/><path class="cls-97" d="M118.86,135h0c1.59-3.17.84-6.75-1.68-7.91L46.4,93.13c-2.51-1.2-5.86.41-7.45,3.58h0c-1.6,3.17-.84,6.74,1.67,7.91l70.78,33.9C113.91,139.76,117.26,138.14,118.86,135Z"/><ellipse class="cls-98" cx="112.47" cy="131.76" rx="8.04" ry="8.37" transform="translate(-17.22 16.91) rotate(-7.99)"/><ellipse class="cls-99" cx="42.84" cy="96.84" rx="8.04" ry="8.37"/><ellipse class="cls-48" cx="56.09" cy="65.29" rx="1.77" ry="1.3" transform="translate(-23.15 98.9) rotate(-72.32)"/><polygon class="cls-48" points="57.39 65.53 56.14 65.2 54.89 64.87 55.98 63.38 57.08 61.9 57.23 63.72 57.39 65.53"/><g id="shiny-2-2" data-name="shiny-2"><g class="cls-100"><g class="cls-101"><g class="cls-100"><g class="cls-101"><g class="cls-102"><polygon class="cls-103" points="56.19 63.25 56.7 63.87 55.17 65.6 54.67 64.98 56.19 63.25"/></g></g></g></g></g></g><ellipse class="cls-48" cx="87.03" cy="64.16" rx="1.29" ry="1.77" transform="translate(-17.29 35.74) rotate(-21.16)"/><polygon class="cls-48" points="88.39 63.9 87.2 64.43 86.03 64.94 85.95 63.1 85.88 61.25 87.14 62.58 88.39 63.9"/><g id="shiny-5-2" data-name="shiny-5"><g class="cls-104"><g class="cls-105"><g class="cls-104"><g class="cls-105"><g class="cls-106"><polygon class="cls-107" points="86.03 62.86 86.82 63.04 86.71 65.35 85.92 65.17 86.03 62.86"/></g></g></g></g></g></g><path class="cls-65" d="M70.37,76.61l-1.14.48a2.12,2.12,0,0,1,0-.71c.2-.9.85-1.54,1.45-1.41a1.46,1.46,0,0,1,.74,1.88Z"/><path class="cls-65" d="M72.06,77.17,71,76.89c.21-.88.85-1.49,1.45-1.37a1.46,1.46,0,0,1,.74,1.88,2.31,2.31,0,0,1-.46,1Z"/><path d="M70.27,83.14l-3,.22V82.9c.31-4,1.91-7,3.55-6.92s2.71,3.46,2.4,7.39a7.82,7.82,0,0,1-.12,1.06Z"/><path class="cls-65" d="M70.25,83.38l2.86,1a3.34,3.34,0,0,0-.26-2.22,3,3,0,0,0-3.95-1.62,2.87,2.87,0,0,0-1.57,2.75Z"/><rect class="cls-1" x="1.46" y="1.85" width="265" height="265"/><path class="cls-108" d="M884.31,212.6,853.8,220a6.56,6.56,0,0,1-7.95-4.4l-14.93-54.44a6.11,6.11,0,0,1,4.69-7.47l30.51-7.39a6.57,6.57,0,0,1,8,4.41L889,205.14A6.1,6.1,0,0,1,884.31,212.6Z"/><path class="cls-109" d="M867.49,168.59l-28.23-2.25c-4.88-.39-8.48-4.29-8-8.71l5.64-58.28c.42-4.43,4.72-7.7,9.6-7.31l28.23,2.25c4.87.39,8.48,4.29,8.05,8.72l-5.64,58.28C876.66,165.71,872.36,169,867.49,168.59Z"/><ellipse class="cls-110" cx="887.21" cy="96.2" rx="8.62" ry="8.97"/><path class="cls-111" d="M959.7,141.8h0c-1.79,3.06-5.18,4.39-7.53,3L885.9,104.36c-2.35-1.44-2.82-5.12-1-8.17h0c1.79-3.07,5.18-4.4,7.53-3l66.27,40.41C961,135.07,961.49,138.75,959.7,141.8Z"/><path class="cls-6" d="M869.94,222.94h26.7c0,11.31-12.07,20.62-26.7,20.62s-26.71-9.31-26.71-20.62v-.36Z"/><polygon class="cls-112" points="891.8 203.3 848.85 219.11 839.82 196.58 882.77 180.77 891.8 203.3"/><ellipse class="cls-113" cx="890.24" cy="213.11" rx="16.28" ry="11.95" transform="translate(-17.97 98.66) rotate(-6.28)"/><ellipse class="cls-114" cx="843.96" cy="215.35" rx="17.25" ry="13.94" transform="translate(-25.25 159.53) rotate(-10.64)"/><ellipse class="cls-115" cx="868.23" cy="214.74" rx="17.23" ry="14.95"/><path class="cls-116" d="M955.52,146.3h0a7,7,0,0,1,.51,9.26l-63.17,77.83a5.67,5.67,0,0,1-8.49.56h0a7,7,0,0,1-.52-9.27L947,146.86A5.66,5.66,0,0,1,955.52,146.3Z"/><ellipse class="cls-117" cx="952.5" cy="153.75" rx="8.62" ry="8.97"/><path class="cls-118" d="M908.27,147.56h0a6.21,6.21,0,0,1,2.15,8.28l-43.24,78.4a5.69,5.69,0,0,1-7.94,2.23h0a6.2,6.2,0,0,1-2.15-8.28l43.23-78.39A5.7,5.7,0,0,1,908.27,147.56Z"/><path class="cls-119" d="M863.3,100.73h0a23,23,0,0,1-23-23V54a23,23,0,0,1,23-23h0a23,23,0,0,1,23,23v23.8A23,23,0,0,1,863.3,100.73Z"/><ellipse cx="856.03" cy="57.36" rx="4.22" ry="4.4"/><ellipse cx="875.18" cy="57.36" rx="4.22" ry="4.4"/><ellipse class="cls-120" cx="840.32" cy="60.87" rx="5.75" ry="5.97"/><ellipse class="cls-16" cx="840.32" cy="60.87" rx="3.83" ry="3.99"/><ellipse class="cls-17" cx="840.32" cy="66.85" rx="1.92" ry="1.99"/><ellipse class="cls-18" cx="857.95" cy="57.36" rx="1.63" ry="1.7"/><ellipse class="cls-18" cx="877.1" cy="57.36" rx="1.63" ry="1.7"/><ellipse class="cls-121" cx="852.76" cy="68.85" rx="4.79" ry="3.99"/><ellipse class="cls-122" cx="877.66" cy="68.85" rx="4.79" ry="3.99"/><path d="M853.3,52.86h0a1,1,0,0,0,.81-1.13v0l-.28-2.11a1,1,0,0,0-1.09-.85h0a1,1,0,0,0-.81,1.13l.29,2.1A1,1,0,0,0,853.3,52.86Z"/><path d="M851.05,54.08h0a1,1,0,0,0,.05-1.39l-1.63-1.83a.94.94,0,0,0-1.31-.1l0,.05h0a1,1,0,0,0,0,1.39h0l1.63,1.84A1,1,0,0,0,851.05,54.08Z"/><path d="M849.61,57.39h0a1,1,0,0,0-.43-1.33h0L847,55a1,1,0,0,0-1.28.46h0a1,1,0,0,0,.44,1.33l2.16,1.1A1,1,0,0,0,849.61,57.39Z"/><path d="M875.77,52.59h0a1,1,0,0,0,1.19-.68l.69-2.39a1,1,0,0,0-.64-1.24h0a1,1,0,0,0-1.2.67l-.68,2.4A1,1,0,0,0,875.77,52.59Z"/><path d="M878.8,54.12h0a.93.93,0,0,0,1.31-.06l0,0,1.59-1.88a1,1,0,0,0-.05-1.4l0,0h0a1,1,0,0,0-1.36.09l-1.58,1.88A1,1,0,0,0,878.8,54.12Z"/><path d="M880.14,57.27h0a1,1,0,0,0,1.25.55l2.22-1a1,1,0,0,0,.57-1.28h0a1,1,0,0,0-1.26-.53l-2.21,1A1,1,0,0,0,880.14,57.27Z"/><path class="cls-21" d="M866.17,63.88l-.07,4.95h.07a5,5,0,1,0,0-10Z"/><polygon class="cls-22" points="822.37 67.16 815.76 66.94 809.15 66.71 812.28 72.98 815.41 79.26 818.89 73.21 822.37 67.16"/><ellipse class="cls-22" cx="853.27" cy="38.51" rx="16.37" ry="6.82" transform="translate(168.85 549.51) rotate(-39.33)"/><ellipse class="cls-22" cx="876.43" cy="38.51" rx="6.81" ry="16.42" transform="translate(267.62 670.14) rotate(-48.57)"/><ellipse class="cls-22" cx="840.5" cy="32.67" rx="4.81" ry="5.22" transform="translate(783.21 871.85) rotate(-88.32)"/><ellipse class="cls-22" cx="827.35" cy="37.19" rx="4.81" ry="5.22" transform="translate(765.92 863.1) rotate(-88.32)"/><ellipse class="cls-22" cx="819.34" cy="46.66" rx="4.81" ry="5.22" transform="translate(748.68 864.28) rotate(-88.32)"/><ellipse class="cls-22" cx="816.49" cy="58.62" rx="4.81" ry="5.22" transform="translate(733.96 873.04) rotate(-88.32)"/><ellipse class="cls-22" cx="886.81" cy="31.02" rx="4.45" ry="4.52" transform="translate(68.83 374.98) rotate(-24.81)"/><ellipse class="cls-22" cx="898.57" cy="33.69" rx="4.45" ry="4.52" transform="translate(68.8 380.16) rotate(-24.81)"/><ellipse class="cls-22" cx="906.68" cy="41.52" rx="4.45" ry="4.52" transform="translate(66.26 384.28) rotate(-24.81)"/><ellipse class="cls-22" cx="910.76" cy="52.29" rx="4.45" ry="4.52" transform="translate(62.12 386.99) rotate(-24.81)"/><polygon class="cls-22" points="917.28 57.91 910.84 58.74 904.39 59.57 908.39 64.79 912.4 70.01 914.84 63.96 917.28 57.91"/><path class="cls-123" d="M978.88,132.41h0a.9.9,0,0,0-.72-1h0l-9.45-1.77a1,1,0,0,0-1.1.71h0a.88.88,0,0,0,.7,1h0l9.46,1.77A1,1,0,0,0,978.88,132.41Z"/><path class="cls-124" d="M977.15,135.92h0a.89.89,0,0,0-.7-1h0L967,133.1a1,1,0,0,0-1.1.71h0a.9.9,0,0,0,.72,1.05h0l9.46,1.77A1,1,0,0,0,977.15,135.92Z"/><path class="cls-125" d="M976.39,139.43h0a.87.87,0,0,0-.68-1h0l-9.46-1.77a1,1,0,0,0-1.09.7h0a.9.9,0,0,0,.7,1.05h0l9.44,1.77A.93.93,0,0,0,976.39,139.43Z"/><path class="cls-126" d="M975.64,142.94h0a.88.88,0,0,0-.68-1h0l-9.45-1.77a1,1,0,0,0-1.1.7h0a.88.88,0,0,0,.69,1h0l9.45,1.77A.92.92,0,0,0,975.64,142.94Z"/><path class="cls-127" d="M973.6,126h0a1,1,0,0,0-1.25-.37L963.78,130a.88.88,0,0,0-.41,1.18l0,0h0a1,1,0,0,0,1.25.36l8.57-4.38A.88.88,0,0,0,973.6,126Z"/><path class="cls-128" d="M974.51,136.1h0c.36-3.54-1.15-6.56-3.36-6.74l-62.14-5c-2.2-.17-4.3,2.57-4.64,6.09h0c-.36,3.53,1.15,6.55,3.36,6.73l62.13,5C972.07,142.37,974.19,139.62,974.51,136.1Z"/><path class="cls-129" d="M951.4,230.1h0a6.43,6.43,0,0,1-6.43-6.43V153a6.43,6.43,0,0,1,6.43-6.43h0a6.43,6.43,0,0,1,6.43,6.43v70.65A6.43,6.43,0,0,1,951.4,230.1Z"/><rect class="cls-30" x="947.94" y="225.69" width="8.77" height="14.46" rx="1.05"/><rect class="cls-31" x="947.94" y="228.46" width="8.77" height="3.57"/><path class="cls-32" d="M949.14,251.61l10.61.23v-.23c0-7.91-4.79-14.33-10.61-14.33s-10.56,6.47-10.56,14.33Z"/><path class="cls-33" d="M964,251.64l19.08.27v-.27c0-8.8-8.62-16-19.08-16s-19.09,7.24-19.09,16Z"/><rect class="cls-34" x="938.55" y="251.6" width="44.52" height="2.05"/><path class="cls-35" d="M961.86,224.07v.37c0,2.23-2.13,4-4.77,4h-9.53c-2.64,0-4.78-1.79-4.78-4v-.37c0-2.22,2.14-4,4.78-4h9.53C959.73,220.05,961.86,221.83,961.86,224.07Z"/><path class="cls-130" d="M914.41,228.46h-9.1a1.85,1.85,0,0,1-1.88-1.82V149.4a1.85,1.85,0,0,1,1.88-1.82h9.1a1.84,1.84,0,0,1,1.87,1.82v77.24A1.85,1.85,0,0,1,914.41,228.46Z"/><rect class="cls-30" x="906.39" y="226.68" width="8.77" height="14.46" rx="1.05"/><rect class="cls-31" x="906.39" y="229.45" width="8.77" height="3.57"/><path class="cls-32" d="M907.6,252.6l10.6.23v-.23c0-7.91-4.78-14.33-10.6-14.33S897,244.74,897,252.6Z"/><path class="cls-33" d="M922.45,252.63l19.08.27v-.27c0-8.8-8.62-16-19.08-16s-19.09,7.24-19.09,16Z"/><rect class="cls-34" x="897.01" y="252.59" width="44.52" height="2.05"/><path class="cls-35" d="M920.32,225.06v.37c0,2.23-2.14,4-4.77,4H906c-2.64,0-4.78-1.79-4.78-4v-.37c0-2.22,2.14-4,4.78-4h9.53C918.18,221,920.32,222.82,920.32,225.06Z"/><ellipse class="cls-131" cx="908.97" cy="153.75" rx="8.62" ry="8.97"/><path class="cls-132" d="M894,139.54h0a.89.89,0,0,1,.76-1h0l9.52-1.42a1,1,0,0,1,1.07.75h0a.89.89,0,0,1-.77,1l-9.47,1.42a.92.92,0,0,1-1.1-.72Z"/><path class="cls-133" d="M894.56,143.07h0a.9.9,0,0,1,.77-1l9.51-1.41a1,1,0,0,1,1.07.75h0a.89.89,0,0,1-.76,1l-9.52,1.41A1,1,0,0,1,894.56,143.07Z"/><path class="cls-134" d="M895.18,146.66h0a.89.89,0,0,1,.76-1l9.51-1.41a.92.92,0,0,1,1.07.74h0a.88.88,0,0,1-.75,1h0l-9.51,1.41A1,1,0,0,1,895.18,146.66Z"/><path class="cls-135" d="M895.8,150.14h0a.89.89,0,0,1,.76-1l9.51-1.41a1,1,0,0,1,1.08.75h0a.91.91,0,0,1-.77,1l-9.51,1.41A1,1,0,0,1,895.8,150.14Z"/><path class="cls-136" d="M898.48,133.32h0a1,1,0,0,1,1.27-.32l8.38,4.7a.88.88,0,0,1,.37,1.2v0h0a1,1,0,0,1-1.27.32l-8.39-4.7a.87.87,0,0,1-.36-1.2Z"/><path class="cls-137" d="M897.18,144.35h0c-.22-3.53,1.14-6.48,3-6.56l53.1-2.15c1.88-.08,3.61,2.76,3.82,6.29h0c.22,3.54-1.13,6.5-3,6.58L901,150.62C899.12,150.72,897.4,147.9,897.18,144.35Z"/><ellipse class="cls-138" cx="959.19" cy="142.74" rx="8.04" ry="8.37"/><path class="cls-139" d="M913.54,135.38h0c1.6-3.16.85-6.74-1.67-7.91L841.09,93.53c-2.51-1.19-5.86.41-7.45,3.58h0c-1.6,3.17-.85,6.74,1.67,7.92l70.78,33.89C908.6,140.16,912,138.55,913.54,135.38Z"/><ellipse class="cls-140" cx="907.16" cy="132.16" rx="8.04" ry="8.37" transform="translate(-9.56 127.38) rotate(-7.99)"/><ellipse class="cls-141" cx="837.53" cy="97.24" rx="8.04" ry="8.37"/><ellipse class="cls-48" cx="845.76" cy="76.93" rx="1.77" ry="1.3" transform="translate(515.61 859.38) rotate(-72.32)"/><polygon class="cls-48" points="847.06 77.17 845.81 76.84 844.57 76.51 845.65 75.02 846.75 73.53 846.9 75.36 847.06 77.17"/><g id="shiny-2-3" data-name="shiny-2"><g class="cls-142"><g class="cls-143"><g class="cls-142"><g class="cls-143"><g class="cls-144"><polygon class="cls-145" points="845.86 74.89 846.38 75.51 844.84 77.24 844.34 76.62 845.86 74.89"/></g></g></g></g></g></g><ellipse class="cls-48" cx="881.72" cy="64.57" rx="1.29" ry="1.77" transform="translate(36.15 322.65) rotate(-21.16)"/><polygon class="cls-48" points="883.08 64.31 881.89 64.83 880.72 65.34 880.64 63.51 880.57 61.66 881.82 62.98 883.08 64.31"/><g id="shiny-5-3" data-name="shiny-5"><g class="cls-146"><g class="cls-147"><g class="cls-146"><g class="cls-147"><g class="cls-148"><polygon class="cls-149" points="880.72 63.27 881.51 63.45 881.4 65.75 880.61 65.57 880.72 63.27"/></g></g></g></g></g></g><ellipse class="cls-48" cx="885.67" cy="73.44" rx="1.29" ry="1.77" transform="translate(33.21 324.68) rotate(-21.16)"/><polygon class="cls-48" points="887.04 73.21 885.85 73.73 884.67 74.25 884.59 72.41 884.52 70.56 885.78 71.88 887.04 73.21"/><g id="shiny-6-2" data-name="shiny-6"><g class="cls-150"><g class="cls-151"><g class="cls-150"><g class="cls-151"><g class="cls-152"><polygon class="cls-153" points="884.67 72.17 885.46 72.35 885.36 74.65 884.56 74.47 884.67 72.17"/></g></g></g></g></g></g><ellipse class="cls-48" cx="888.68" cy="83.7" rx="1.3" ry="1.77" transform="translate(-2.33 137.25) rotate(-8.82)"/><polygon class="cls-48" points="889.95 83.35 888.68 83.6 887.42 83.86 887.73 82.04 888.05 80.22 889 81.78 889.95 83.35"/><g id="shiny-7-2" data-name="shiny-7"><g class="cls-154"><g class="cls-155"><g class="cls-154"><g class="cls-155"><g class="cls-156"><polygon class="cls-157" points="887.86 81.83 888.59 82.17 888 84.39 887.26 84.06 887.86 81.83"/></g></g></g></g></g></g><path class="cls-65" d="M865.06,77l-1.14.47a2.12,2.12,0,0,1,0-.71c.2-.9.85-1.53,1.45-1.41s1,1,.74,1.88Z"/><path class="cls-65" d="M866.75,77.57l-1.09-.28c.21-.88.85-1.49,1.45-1.36a1.46,1.46,0,0,1,.74,1.88,2.31,2.31,0,0,1-.46,1Z"/><path d="M865,83.54l-3,.22v-.45c.31-4,1.91-7,3.54-6.93s2.71,3.47,2.41,7.39a7.64,7.64,0,0,1-.12,1.06Z"/><path class="cls-65" d="M864.94,83.78l2.86,1a3.3,3.3,0,0,0-.26-2.21,3,3,0,0,0-3.95-1.63A2.88,2.88,0,0,0,862,83.68Z"/><rect class="cls-1" x="796.15" y="2.25" width="265" height="265"/><path class="cls-158" d="M345.31,56.33l-4.44-.06a4.45,4.45,0,0,1,8.89.06Z"/><path class="cls-159" d="M326.26,56.86l-4.44-.07a4.44,4.44,0,0,1,8.88.07Z"/><path d="M346,52.33h0a1,1,0,0,0,1.19-.67l.69-2.39a1,1,0,0,0-.64-1.24h0a1,1,0,0,0-1.2.66l-.68,2.41A1,1,0,0,0,346,52.33Z"/><path class="cls-160" d="M619.46,210.9,589,218.29a6.57,6.57,0,0,1-8-4.41l-14.93-54.43a6.11,6.11,0,0,1,4.69-7.47l30.51-7.39a6.57,6.57,0,0,1,8,4.41l14.93,54.43A6.11,6.11,0,0,1,619.46,210.9Z"/><path class="cls-161" d="M602.64,166.89l-28.23-2.25c-4.88-.39-8.48-4.29-8-8.71L572,97.65c.43-4.43,4.73-7.7,9.6-7.31l28.23,2.25c4.87.39,8.48,4.29,8,8.71l-5.64,58.29C611.81,164,607.51,167.28,602.64,166.89Z"/><ellipse class="cls-162" cx="622.37" cy="94.5" rx="8.62" ry="8.97"/><path class="cls-163" d="M694.85,140.1h0c-1.79,3.06-5.18,4.39-7.53,3l-66.27-40.42c-2.35-1.43-2.82-5.11-1-8.17h0c1.79-3.06,5.18-4.39,7.53-3l66.27,40.41C696.18,133.37,696.64,137.05,694.85,140.1Z"/><path class="cls-6" d="M605.09,221.24h26.7c0,11.31-12.06,20.62-26.7,20.62s-26.71-9.31-26.71-20.62v-.36Z"/><polygon class="cls-164" points="626.95 201.6 584 217.41 574.98 194.88 617.92 179.07 626.95 201.6"/><ellipse class="cls-165" cx="625.39" cy="211.41" rx="16.28" ry="11.95" transform="translate(-19.37 69.68) rotate(-6.28)"/><ellipse class="cls-166" cx="579.11" cy="213.65" rx="17.25" ry="13.94" transform="translate(-29.49 110.6) rotate(-10.64)"/><ellipse class="cls-167" cx="603.39" cy="213.04" rx="17.23" ry="14.95"/><path class="cls-168" d="M690.67,144.59h0a7,7,0,0,1,.52,9.27L628,231.69a5.67,5.67,0,0,1-8.49.56h0A7,7,0,0,1,619,223l63.17-77.82A5.67,5.67,0,0,1,690.67,144.59Z"/><ellipse class="cls-169" cx="687.65" cy="152.05" rx="8.62" ry="8.97"/><path class="cls-170" d="M643.42,145.86h0a6.21,6.21,0,0,1,2.15,8.28l-43.24,78.4a5.69,5.69,0,0,1-7.94,2.23h0a6.2,6.2,0,0,1-2.15-8.28l43.24-78.39A5.68,5.68,0,0,1,643.42,145.86Z"/><path class="cls-171" d="M597.74,98.63h0A23.23,23.23,0,0,1,574.51,75.4V51.34a23.23,23.23,0,0,1,23.23-23.23h0A23.23,23.23,0,0,1,621,51.34V75.4A23.23,23.23,0,0,1,597.74,98.63Z"/><ellipse class="cls-172" cx="575.47" cy="59.17" rx="5.75" ry="5.97"/><ellipse class="cls-16" cx="575.47" cy="59.17" rx="3.83" ry="3.99"/><ellipse class="cls-17" cx="575.47" cy="65.15" rx="1.92" ry="1.99"/><ellipse class="cls-173" cx="587.92" cy="67.15" rx="4.79" ry="3.99"/><ellipse class="cls-174" cx="612.81" cy="67.15" rx="4.79" ry="3.99"/><path d="M588.45,51.16h0a1,1,0,0,0,.81-1.14v0L589,47.9a1,1,0,0,0-1.08-.85h0a1,1,0,0,0-.81,1.12l.28,2.11A1,1,0,0,0,588.45,51.16Z"/><path d="M586.21,52.38h0a1,1,0,0,0,0-1.39l-1.63-1.83a.93.93,0,0,0-1.31-.1l0,0h0a1,1,0,0,0,0,1.4h0l1.63,1.84A1,1,0,0,0,586.21,52.38Z"/><path d="M584.76,55.69h0a1,1,0,0,0-.43-1.33h0l-2.17-1.09a1,1,0,0,0-1.28.46h0a1,1,0,0,0,.44,1.33l2.17,1.1A1,1,0,0,0,584.76,55.69Z"/><path d="M610.92,50.88h0a1,1,0,0,0,1.19-.67l.69-2.39a1,1,0,0,0-.64-1.24h0a1,1,0,0,0-1.2.66l-.68,2.41A1,1,0,0,0,610.92,50.88Z"/><path d="M614,52.42h0a.93.93,0,0,0,1.31-.06l0,0,1.59-1.88a1,1,0,0,0,0-1.4l0,0h0a1,1,0,0,0-1.36.08L613.86,51A1.05,1.05,0,0,0,614,52.42Z"/><path d="M615.29,55.57h0a1,1,0,0,0,1.25.55l2.23-1a1,1,0,0,0,.56-1.28h0a1,1,0,0,0-1.26-.53l-2.21,1A1,1,0,0,0,615.29,55.57Z"/><path class="cls-21" d="M601.32,62.18l-.07,4.95h.07a5,5,0,0,0,0-10Z"/><polygon class="cls-22" points="557.52 65.45 550.91 65.24 544.31 65.01 547.43 71.28 550.56 77.56 554.04 71.51 557.52 65.45"/><ellipse class="cls-22" cx="588.42" cy="36.81" rx="16.37" ry="6.82" transform="translate(109.94 381.27) rotate(-39.33)"/><ellipse class="cls-22" cx="611.58" cy="36.81" rx="6.81" ry="16.42" transform="translate(179.3 471) rotate(-48.57)"/><ellipse class="cls-22" cx="575.65" cy="30.96" rx="4.81" ry="5.22" transform="translate(527.82 605.46) rotate(-88.32)"/><ellipse class="cls-22" cx="562.51" cy="35.49" rx="4.81" ry="5.22" transform="translate(510.54 596.72) rotate(-88.32)"/><ellipse class="cls-22" cx="554.49" cy="44.96" rx="4.81" ry="5.22" transform="translate(493.3 597.89) rotate(-88.32)"/><ellipse class="cls-22" cx="551.64" cy="56.92" rx="4.81" ry="5.22" transform="translate(478.58 606.66) rotate(-88.32)"/><ellipse class="cls-22" cx="621.96" cy="29.32" rx="4.45" ry="4.52" transform="translate(45.1 263.69) rotate(-24.81)"/><ellipse class="cls-22" cx="633.72" cy="31.99" rx="4.45" ry="4.52" transform="translate(45.07 268.87) rotate(-24.81)"/><ellipse class="cls-22" cx="641.83" cy="39.82" rx="4.45" ry="4.52" transform="translate(42.53 272.99) rotate(-24.81)"/><ellipse class="cls-22" cx="645.91" cy="50.59" rx="4.45" ry="4.52" transform="translate(38.39 275.7) rotate(-24.81)"/><polygon class="cls-22" points="652.43 56.21 646 57.04 639.55 57.87 643.54 63.09 647.55 68.31 649.99 62.26 652.43 56.21"/><path class="cls-175" d="M714,130.7h0a.9.9,0,0,0-.73-1h0l-9.45-1.77a1,1,0,0,0-1.1.71h0a.89.89,0,0,0,.7,1h0l9.46,1.77A1,1,0,0,0,714,130.7Z"/><path class="cls-176" d="M712.31,134.22h0a.9.9,0,0,0-.71-1.05h0l-9.45-1.77a1,1,0,0,0-1.1.71h0a.9.9,0,0,0,.72,1h0l9.46,1.77A1,1,0,0,0,712.31,134.22Z"/><path class="cls-177" d="M711.54,137.73h0a.87.87,0,0,0-.68-1h0l-9.45-1.77a1,1,0,0,0-1.1.7h0a.88.88,0,0,0,.7,1h0l9.45,1.77A.93.93,0,0,0,711.54,137.73Z"/><path class="cls-178" d="M710.79,141.24h0a.87.87,0,0,0-.68-1h0l-9.45-1.77a1,1,0,0,0-1.09.7h0a.87.87,0,0,0,.68,1h0l9.45,1.77A.92.92,0,0,0,710.79,141.24Z"/><path class="cls-179" d="M708.75,124.33h0a1,1,0,0,0-1.25-.37l-8.57,4.38a.88.88,0,0,0-.41,1.18l0,0h0a1,1,0,0,0,1.25.36l8.57-4.38A.88.88,0,0,0,708.75,124.33Z"/><path class="cls-180" d="M709.66,134.39h0c.36-3.53-1.15-6.55-3.36-6.73l-62.13-5c-2.21-.18-4.31,2.56-4.65,6.09h0c-.36,3.53,1.15,6.55,3.36,6.73L705,140.48C707.22,140.67,709.34,137.92,709.66,134.39Z"/><path class="cls-181" d="M686.55,228.4h0a6.43,6.43,0,0,1-6.43-6.43V151.32a6.43,6.43,0,0,1,6.43-6.43h0a6.43,6.43,0,0,1,6.43,6.43V222A6.43,6.43,0,0,1,686.55,228.4Z"/><rect class="cls-30" x="683.09" y="223.99" width="8.77" height="14.46" rx="1.05"/><rect class="cls-31" x="683.09" y="226.76" width="8.77" height="3.57"/><path class="cls-32" d="M684.29,249.91l10.61.23v-.23c0-7.91-4.79-14.33-10.61-14.33s-10.56,6.47-10.56,14.33Z"/><path class="cls-33" d="M699.14,249.94l19.08.27v-.27c0-8.8-8.61-16-19.08-16s-19.09,7.24-19.09,16Z"/><rect class="cls-34" x="673.7" y="249.9" width="44.52" height="2.05"/><path class="cls-35" d="M697,222.36v.38c0,2.23-2.13,4-4.76,4h-9.54c-2.64,0-4.78-1.79-4.78-4v-.38c0-2.21,2.14-4,4.78-4h9.54C694.88,218.35,697,220.13,697,222.36Z"/><path class="cls-182" d="M649.56,226.76h-9.1a1.85,1.85,0,0,1-1.88-1.82V147.7a1.85,1.85,0,0,1,1.88-1.82h9.1a1.85,1.85,0,0,1,1.88,1.82v77.24A1.86,1.86,0,0,1,649.56,226.76Z"/><rect class="cls-30" x="641.55" y="224.98" width="8.77" height="14.46" rx="1.05"/><rect class="cls-31" x="641.55" y="227.75" width="8.77" height="3.57"/><path class="cls-32" d="M642.75,250.9l10.61.23v-.23c0-7.91-4.79-14.33-10.61-14.33S632.19,243,632.19,250.9Z"/><path class="cls-33" d="M657.6,250.93l19.08.27v-.27c0-8.8-8.62-16-19.08-16s-19.09,7.24-19.09,16Z"/><rect class="cls-34" x="632.16" y="250.89" width="44.52" height="2.05"/><path class="cls-35" d="M655.47,223.35v.38c0,2.23-2.13,4-4.77,4h-9.53c-2.64,0-4.78-1.79-4.78-4v-.38c0-2.21,2.14-4,4.78-4h9.53C653.34,219.34,655.47,221.12,655.47,223.35Z"/><ellipse class="cls-183" cx="644.13" cy="152.05" rx="8.62" ry="8.97"/><path class="cls-184" d="M629.1,137.84h0a.88.88,0,0,1,.76-1h0l9.52-1.42a1,1,0,0,1,1.07.74h0a.88.88,0,0,1-.76,1l-9.48,1.42a.93.93,0,0,1-1.1-.72Z"/><path class="cls-185" d="M629.72,141.37h0a.89.89,0,0,1,.76-1L640,139a1,1,0,0,1,1.07.76h0a.88.88,0,0,1-.76,1l-9.52,1.42A1,1,0,0,1,629.72,141.37Z"/><path class="cls-186" d="M630.33,145h0a.89.89,0,0,1,.76-1l9.52-1.42a.93.93,0,0,1,1.06.75h0a.86.86,0,0,1-.75,1h0l-9.51,1.41A1,1,0,0,1,630.33,145Z"/><path class="cls-187" d="M631,148.44h0a.89.89,0,0,1,.76-1l9.51-1.41a1,1,0,0,1,1.08.75h0a.89.89,0,0,1-.76,1L632,149.19A1,1,0,0,1,631,148.44Z"/><path class="cls-188" d="M633.63,131.61h0a1,1,0,0,1,1.27-.31l8.39,4.7a.88.88,0,0,1,.36,1.2v0h0a1,1,0,0,1-1.26.32l-8.4-4.7a.9.9,0,0,1-.36-1.21Z"/><path class="cls-189" d="M632.34,142.65h0c-.23-3.53,1.13-6.49,3-6.56l53.1-2.15c1.88-.08,3.61,2.76,3.83,6.29h0c.21,3.54-1.14,6.5-3,6.58l-53.07,2.1C634.28,149,632.55,146.19,632.34,142.65Z"/><ellipse class="cls-190" cx="694.34" cy="141.04" rx="8.04" ry="8.37"/><path class="cls-191" d="M648.7,133.68h0c1.59-3.16.84-6.74-1.68-7.91L576.24,91.83c-2.51-1.19-5.86.41-7.45,3.58h0c-1.6,3.17-.84,6.74,1.67,7.92l70.78,33.89C643.75,138.46,647.1,136.85,648.7,133.68Z"/><ellipse class="cls-192" cx="642.31" cy="130.46" rx="8.04" ry="8.37" transform="translate(-11.9 90.55) rotate(-7.99)"/><ellipse class="cls-193" cx="572.68" cy="95.54" rx="8.04" ry="8.37"/><ellipse class="cls-48" cx="587.9" cy="65.35" rx="1.77" ry="1.3" transform="translate(388.67 622.31) rotate(-76.66)"/><polygon class="cls-48" points="589.21 65.49 587.95 65.26 586.68 65.03 587.65 63.46 588.63 61.89 588.91 63.69 589.21 65.49"/><ellipse class="cls-48" cx="580.91" cy="75.22" rx="1.77" ry="1.3" transform="translate(332.82 605.85) rotate(-72.32)"/><polygon class="cls-48" points="582.21 75.47 580.96 75.14 579.72 74.81 580.8 73.32 581.9 71.83 582.05 73.65 582.21 75.47"/><g id="shiny-2-4" data-name="shiny-2"><g class="cls-194"><g class="cls-195"><g class="cls-194"><g class="cls-195"><g class="cls-196"><polygon class="cls-197" points="581.01 73.19 581.53 73.81 579.99 75.54 579.49 74.92 581.01 73.19"/></g></g></g></g></g></g><ellipse class="cls-48" cx="577.06" cy="84.12" rx="1.77" ry="1.3" transform="translate(390.35 636.58) rotate(-79.62)"/><polygon class="cls-48" points="578.37 84.2 577.1 84.03 575.82 83.86 576.72 82.24 577.61 80.63 578 82.42 578.37 84.2"/><ellipse class="cls-48" cx="616.87" cy="62.87" rx="1.29" ry="1.77" transform="translate(18.9 226.93) rotate(-21.16)"/><polygon class="cls-48" points="618.23 62.6 617.04 63.13 615.87 63.64 615.79 61.8 615.72 59.95 616.98 61.28 618.23 62.6"/><g id="shiny-5-4" data-name="shiny-5"><g class="cls-198"><g class="cls-199"><g class="cls-198"><g class="cls-199"><g class="cls-200"><polygon class="cls-201" points="615.87 61.57 616.66 61.74 616.55 64.05 615.76 63.87 615.87 61.57"/></g></g></g></g></g></g><ellipse class="cls-48" cx="620.83" cy="71.74" rx="1.29" ry="1.77" transform="translate(15.97 228.95) rotate(-21.16)"/><polygon class="cls-48" points="622.19 71.51 621 72.03 619.83 72.55 619.75 70.71 619.68 68.86 620.93 70.18 622.19 71.51"/><g id="shiny-6-3" data-name="shiny-6"><g class="cls-202"><g class="cls-203"><g class="cls-202"><g class="cls-203"><g class="cls-204"><polygon class="cls-205" points="619.83 70.47 620.62 70.65 620.51 72.95 619.72 72.77 619.83 70.47"/></g></g></g></g></g></g><ellipse class="cls-48" cx="623.83" cy="82" rx="1.3" ry="1.77" transform="matrix(0.99, -0.15, 0.15, 0.99, -5.2, 96.62)"/><polygon class="cls-48" points="625.1 81.65 623.83 81.9 622.57 82.16 622.88 80.34 623.2 78.52 624.15 80.08 625.1 81.65"/><g id="shiny-7-3" data-name="shiny-7"><g class="cls-206"><g class="cls-207"><g class="cls-206"><g class="cls-207"><g class="cls-208"><polygon class="cls-209" points="623.01 80.13 623.74 80.47 623.15 82.69 622.42 82.36 623.01 80.13"/></g></g></g></g></g></g><path class="cls-65" d="M600.21,75.32l-1.14.47a2.12,2.12,0,0,1,0-.71c.2-.9.85-1.54,1.45-1.41a1.46,1.46,0,0,1,.74,1.88Z"/><path class="cls-65" d="M601.9,75.87l-1.09-.28c.21-.88.85-1.49,1.45-1.36a1.46,1.46,0,0,1,.74,1.88,2.31,2.31,0,0,1-.46,1Z"/><path d="M600.11,81.84l-3,.22v-.45c.31-4,1.91-7,3.55-6.93s2.71,3.46,2.4,7.39a7.64,7.64,0,0,1-.12,1.06Z"/><path class="cls-65" d="M600.09,82.08l2.86,1a3.34,3.34,0,0,0-.26-2.22,3,3,0,0,0-4-1.62A2.87,2.87,0,0,0,597.17,82Z"/><rect class="cls-1" x="531.3" y="2.53" width="265" height="265"/><g id="shiny-2-5" data-name="shiny-2"><g class="cls-210"><g class="cls-211"><g class="cls-210"><g class="cls-211"><g class="cls-212"><polygon class="cls-213" points="587.67 63.76 588.29 64.28 587.1 66.26 586.49 65.74 587.67 63.76"/></g></g></g></g></g></g><g id="shiny-7-4" data-name="shiny-7"><g class="cls-214"><g class="cls-215"><g class="cls-214"><g class="cls-215"><g class="cls-216"><polygon class="cls-217" points="576.33 82.49 577.06 82.83 576.47 85.05 575.74 84.71 576.33 82.49"/></g></g></g></g></g></g><rect x="585.34" y="57.72" width="11.21" height="1.03" rx="0.51"/><rect x="605.94" y="57.55" width="11.21" height="1.03" rx="0.51"/><path class="cls-218" d="M875.2,57.82,871,58a4.2,4.2,0,0,0,8.4-.19Z"/><path class="cls-219" d="M856,57.82l-4.2.19a4.2,4.2,0,0,0,8.4-.19Z"/><ellipse class="cls-48" cx="851.02" cy="65.3" rx="1.77" ry="1.3" transform="translate(574.2 872.68) rotate(-75.46)"/><polygon class="cls-48" points="852.32 65.47 851.06 65.21 849.8 64.94 850.81 63.4 851.82 61.85 852.07 63.66 852.32 65.47"/><g id="shiny-7-5" data-name="shiny-7"><g class="cls-220"><g class="cls-221"><g class="cls-220"><g class="cls-221"><g class="cls-222"><polygon class="cls-223" points="851.01 63.26 851.55 63.85 850.12 65.66 849.58 65.06 851.01 63.26"/></g></g></g></g></g></g><ellipse class="cls-48" cx="824.02" cy="75.3" rx="1.77" ry="1.3" transform="translate(544.29 854.04) rotate(-75.46)"/><polygon class="cls-48" points="825.32 75.47 824.06 75.21 822.8 74.94 823.81 73.4 824.82 71.85 825.07 73.66 825.32 75.47"/><g id="shiny-7-6" data-name="shiny-7"><g class="cls-224"><g class="cls-225"><g class="cls-224"><g class="cls-225"><g class="cls-226"><polygon class="cls-227" points="824.01 73.26 824.55 73.86 823.12 75.66 822.58 75.06 824.01 73.26"/></g></g></g></g></g></g></svg>
