<svg id="Surfer" xmlns="http://www.w3.org/2000/svg" width="490" height="450" viewBox="0 0 490 450"><defs><style>.cls-1{fill:#8ad400;}.cls-2{fill:#83c900;}.cls-3{fill:#fff;}.cls-4{fill:#836f00;}.cls-5{fill:#7d8800;}.cls-6{fill:#a3a39d;}.cls-7{fill:#c69c6d;}</style></defs><title>Skildpaddehøjre</title><path class="cls-1" d="M256.24,399.59l-5.08,3.23A13.67,13.67,0,0,1,233,399.55L208,365a11.86,11.86,0,0,1,3.49-17.07l5.08-3.24a13.67,13.67,0,0,1,18.18,3.28l25,34.59A11.87,11.87,0,0,1,256.24,399.59Z"/><path class="cls-1" d="M87.39,422.7l-6,1c-7.09,1.17-13.92-3.31-15.17-10l-5.29-28.09c-1.25-6.65,3.53-13.06,10.62-14.24l6-1c7.09-1.18,13.92,3.31,15.17,10L98,408.46C99.25,415.12,94.48,421.53,87.39,422.7Z"/><path class="cls-2" d="M73.43,443,52.8,446.42c-7.09,1.17-13.91-3.31-15.17-10L28.37,387.2C27.12,380.54,31.89,374.13,39,373l20.63-3.43c7.09-1.17,13.92,3.31,15.17,10L84,428.75C85.3,435.41,80.52,441.82,73.43,443Z"/><path class="cls-2" d="M212.66,419.9,192,423.32c-7.09,1.18-13.92-3.31-15.17-10L167.6,364.1c-1.26-6.65,3.52-13.06,10.61-14.24l20.63-3.42c7.09-1.18,13.91,3.31,15.16,10l9.27,49.26C224.52,412.31,219.75,418.72,212.66,419.9Z"/><path class="cls-2" d="M470.57,113.91c57,51.16-36.08,124.1-113.7,137s-153.69-17.46-167.41-90.35S227.56,18.12,305.19,5.24,398.17,48.88,470.57,113.91Z"/><ellipse class="cls-3" cx="360.59" cy="107.11" rx="40.97" ry="50.07" transform="translate(-14.92 84.93) rotate(-13.16)"/><ellipse cx="380.01" cy="112.24" rx="22.88" ry="36.68" transform="matrix(1, -0.09, 0.09, 1, -8.27, 33.24)"/><ellipse class="cls-3" cx="388.4" cy="120.48" rx="6.72" ry="9.5" transform="translate(-16.49 82.6) rotate(-11.89)"/><path d="M424.35,226c3.35.16-11.64,2.18-27.62,2.58s-23.38,17.58-23.47,14.44,8.12-15.32,24.11-15.72S420.14,225.85,424.35,226Z"/><ellipse class="cls-2" cx="278.36" cy="245.3" rx="75.58" ry="18.52" transform="translate(-6.05 483.56) rotate(-81.34)"/><path class="cls-4" d="M266.08,291.63c10.09,53.64-46.82,50.14-128.84,63.74S13.63,388.82,3.54,335.18,28.36,211.65,110.38,198.05,256,238,266.08,291.63Z"/><path class="cls-5" d="M258.92,348,32.18,385.64c-8.75,1.45-17.18-4.08-18.72-12.3l-1.64-8.72c-5.08-19.7,4.35-16.13,13.1-17.58l226.74-37.61c8.75-1.45,14.5-10.11,18.72,12.3l1.64,8.72C273.57,338.67,267.67,346.58,258.92,348Z"/><path class="cls-6" d="M209.64,420.4h0c-1.46.24-2.63.57-2.89-.8l-.47-2.49a2.56,2.56,0,0,1,2.18-2.93h0a2.68,2.68,0,0,1,3.12,2.05l.47,2.49C212.31,420.09,211.09,420.16,209.64,420.4Z"/><path class="cls-6" d="M203,421.5h0c-1.46.24-2.63.57-2.89-.8l-.47-2.49a2.56,2.56,0,0,1,2.18-2.93h0a2.68,2.68,0,0,1,3.12,2.05l.47,2.49C205.68,421.19,204.46,421.26,203,421.5Z"/><path class="cls-6" d="M195.05,422.82h0c-1.46.24-2.63.56-2.89-.8l-.46-2.49a2.56,2.56,0,0,1,2.18-2.94h0a2.7,2.7,0,0,1,3.12,2.06l.47,2.49C197.73,422.51,196.51,422.58,195.05,422.82Z"/><path class="cls-6" d="M71.73,443.28h0c-1.45.24-2.62.56-2.88-.81L68.38,440a2.56,2.56,0,0,1,2.18-2.93h0a2.69,2.69,0,0,1,3.12,2.05l.47,2.49C74.41,443,73.19,443,71.73,443.28Z"/><path class="cls-6" d="M63.78,444.6h0c-1.46.24-2.63.56-2.89-.81l-.47-2.49a2.56,2.56,0,0,1,2.19-2.93h0a2.69,2.69,0,0,1,3.12,2.05l.47,2.49C66.45,444.28,65.24,444.35,63.78,444.6Z"/><path class="cls-6" d="M55.82,445.92h0c-1.46.24-2.63.56-2.88-.81l-.47-2.49a2.55,2.55,0,0,1,2.18-2.93h0a2.69,2.69,0,0,1,3.12,2.05l.47,2.49C58.5,445.6,57.28,445.67,55.82,445.92Z"/><path class="cls-6" d="M257.61,398h0c-.88.79-1.53,1.5-2.37.68l-1.52-1.51a2,2,0,0,1,.09-2.94h0a2.31,2.31,0,0,1,3.12.08l1.53,1.51C259.29,396.65,258.5,397.21,257.61,398Z"/><path class="cls-6" d="M84.37,423.2h0c-1.46.25-1.31.35-1.56-1l-.47-2.49c-.26-1.37-.6-2.47.86-2.71h0a2.7,2.7,0,0,1,3.12,2l.47,2.49C87,422.89,85.83,423,84.37,423.2Z"/><path class="cls-6" d="M252.23,401.75h0c-1.07.56-1.88,1.11-2.48.11l-1.08-1.81a2,2,0,0,1,.85-2.83h0a2.29,2.29,0,0,1,3,.8l1.09,1.81C254.21,400.83,253.29,401.19,252.23,401.75Z"/><polygon class="cls-7" points="71.32 329.93 58.55 340.09 42.79 334.78 39.81 319.31 52.59 309.16 68.34 314.47 71.32 329.93"/><polygon class="cls-7" points="132.31 319.82 119.54 329.97 103.79 324.66 100.81 309.2 113.58 299.04 129.34 304.35 132.31 319.82"/><polygon class="cls-7" points="198.61 308.82 185.84 318.97 170.09 313.67 167.11 298.2 179.88 288.04 195.63 293.35 198.61 308.82"/><polygon class="cls-7" points="258.28 298.92 245.51 309.08 229.75 303.77 226.78 288.3 239.55 278.14 255.3 283.45 258.28 298.92"/><polygon class="cls-7" points="226.38 274.68 213.6 284.84 197.85 279.53 194.87 264.06 207.64 253.91 223.4 259.22 226.38 274.68"/><polygon class="cls-7" points="163.82 283.77 151.05 293.93 135.29 288.62 132.31 273.15 145.09 263 160.84 268.31 163.82 283.77"/><polygon class="cls-7" points="96.43 296.24 83.66 306.39 67.9 301.08 64.92 285.62 77.7 275.46 93.45 280.77 96.43 296.24"/><polygon class="cls-7" points="42.3 306.5 29.53 316.66 13.77 311.35 10.79 295.88 23.57 285.72 39.32 291.03 42.3 306.5"/><polygon class="cls-7" points="188.31 254.03 175.53 264.19 159.78 258.88 156.8 243.41 169.57 233.26 185.33 238.57 188.31 254.03"/><polygon class="cls-7" points="125.99 264.37 113.21 274.53 97.46 269.22 94.48 253.75 107.25 243.6 123.01 248.91 125.99 264.37"/><polygon class="cls-7" points="62.96 270.97 50.19 281.13 34.44 275.82 31.46 260.35 44.23 250.2 59.98 255.51 62.96 270.97"/><polygon class="cls-7" points="147.74 227.38 134.97 237.54 119.21 232.23 116.23 216.76 129.01 206.6 144.76 211.91 147.74 227.38"/><polygon class="cls-7" points="90.96 238.08 78.19 248.24 62.43 242.93 59.45 227.46 72.23 217.31 87.98 222.62 90.96 238.08"/><polygon class="cls-7" points="209.67 222.24 196.9 232.4 181.15 227.09 178.17 211.62 185.49 204.85 207.72 214 209.67 222.24"/><path d="M381,55.79c.14,1.39-18.52-9.86-28.88-5.17-9.05,4.09-28.17,16.48-28.3,15.09S342.25,49,351.61,45.58C360.76,42.27,380.85,54.4,381,55.79Z"/></svg>
